<svg id="_1" data-name="1" xmlns="http://www.w3.org/2000/svg" xmlns:xlink="http://www.w3.org/1999/xlink" viewBox="0 0 579.68 480.02"><defs><style>.cls-1{fill:#264087;}.cls-2{fill:none;}.cls-3{fill:#e29437;}.cls-4{fill:#5274bf;}.cls-5{fill:#ffd873;}.cls-6{clip-path:url(#clip-path);}.cls-7{fill:#88b2fc;}.cls-22,.cls-31,.cls-8{fill:#fff;}.cls-9{fill:#e3e0d7;}.cls-10{fill:#f2f2f0;}.cls-11{opacity:0.1;}.cls-12{fill:#f80;}.cls-13{fill:#ffe6a6;}.cls-14{fill:#e3edef;}.cls-15{fill:#234175;}.cls-16{fill:#f2f9fa;}.cls-17{fill:#d268cc;}.cls-18{fill:#fafafa;}.cls-19{fill:#37474f;}.cls-20{fill:#455a64;}.cls-21{fill:#263238;}.cls-22{opacity:0.6;}.cls-23{fill:#e2eaf7;}.cls-24{fill:#feb160;}.cls-25{fill:#ff9831;}.cls-26{fill:#d16b63;}.cls-27{fill:#1c2941;}.cls-28{fill:#ffa892;}.cls-29{fill:#994b4b;}.cls-30{fill:#f28f8f;}.cls-31{opacity:0.2;}.cls-32{fill:url(#linear-gradient);}.cls-33{fill:url(#linear-gradient-2);}.cls-34{fill:url(#linear-gradient-3);}.cls-35{fill:url(#linear-gradient-4);}.cls-36{fill:#ff7c68;}.cls-37{fill:#f6c462;}.cls-38{fill:#ffd383;}.cls-39{fill:#f8c72b;}.cls-40{fill:#27debf;}.cls-41{fill:#f5f5f5;}.cls-42{clip-path:url(#clip-path-2);}.cls-43{fill:#e0e0e0;}.cls-44{fill:#ebebeb;}</style><clipPath id="clip-path" transform="translate(0.01)"><path class="cls-1" d="M158.4,233.11a31.75,31.75,0,0,0,10.06,12.31c25.42,19,84.54,13.73,107.36,33.83,13.62,12,8,28.25,18.06,41.38,12.83,16.85,48.18,24.26,80,24.2,18.71,0,37.82-2,55.88.92a87.45,87.45,0,0,1,17.5,4.64l25.5-14.71,3.34-1.93c6-3.45,5.24-9.47-1.67-13.46L253.34,192.75c-6.9-4-17.34-4.42-23.31-1l-48.3,27.85Z"/></clipPath><linearGradient id="linear-gradient" x1="333.71" x2="333.71" y2="97.28" gradientUnits="userSpaceOnUse"><stop offset="0" stop-color="#f9c82b" stop-opacity="0"/><stop offset="1" stop-color="#f9c82b" stop-opacity="0.5"/></linearGradient><linearGradient id="linear-gradient-2" x1="1157.81" y1="108.36" x2="1157.81" y2="156.01" gradientTransform="matrix(-1, 0, 0, 1, 1527.01, 0)" xlink:href="#linear-gradient"/><linearGradient id="linear-gradient-3" x1="1117.81" x2="1117.81" y2="47.65" gradientTransform="matrix(-1, 0, 0, 1, 1527.01, 0)" xlink:href="#linear-gradient"/><linearGradient id="linear-gradient-4" x1="423.21" y1="70.48" x2="423.21" y2="134.01" xlink:href="#linear-gradient"/><clipPath id="clip-path-2" transform="translate(0.01)"><path class="cls-2" d="M402.17,223.6c.79.46,2.08,1.2,2.92,1.58,5.13,2.32,12,2.52,16.84.51a13.25,13.25,0,0,0,2.86-1.68c3.36-2.76,3-6.66-.89-9.58a33.16,33.16,0,0,0-2.83-1.75l-84-48.48c-.7-.4-.81-1-.32-1.44a3.17,3.17,0,0,0-1.12,2.27L318.2,175.12Z"/></clipPath></defs><g id="pic_1"><path class="cls-3" d="M0,341V326.9H14.9v2.55L230,205.35c6-3.45,16.41-3,23.31,1L471.14,332v-4h9.05l-.05,13.88c-.13,2.06-1.45,4-4,5.5l-226,130.37c-6,3.45-16.41,3-23.31-1L5.69,349.18C1.66,346.85-.26,343.82,0,341Z" transform="translate(0.01)"/><path class="cls-4" d="M447.34,321.43v42.49l28.79-16.61c2.56-1.47,3.88-3.43,4-5.49l0-13.87h-9v4l-18.24-10.53Z" transform="translate(0.01)"/><path class="cls-1" d="M472.82,328v21.27l3.31-1.91c2.56-1.47,3.88-3.43,4-5.49l0-13.87Z" transform="translate(0.01)"/><path class="cls-5" d="M250.12,464.12l226-130.37c6-3.45,5.22-9.47-1.68-13.45L253.34,192.75c-6.9-4-17.34-4.42-23.31-1L4,322.16c-6,3.44-5.23,9.46,1.67,13.44L226.81,463.16C233.71,467.14,244.15,467.57,250.12,464.12Z" transform="translate(0.01)"/><path class="cls-1" d="M158.4,233.11a31.75,31.75,0,0,0,10.06,12.31c25.42,19,84.54,13.73,107.36,33.83,13.62,12,8,28.25,18.06,41.38,12.83,16.85,48.18,24.26,80,24.2,18.71,0,37.82-2,55.88.92a87.45,87.45,0,0,1,17.5,4.64l25.5-14.71,3.34-1.93c6-3.45,5.24-9.47-1.67-13.46L253.34,192.75c-6.9-4-17.34-4.42-23.31-1l-48.3,27.85Z" transform="translate(0.01)"/><g class="cls-6"><path class="cls-7" d="M550.77,258.71a11.22,11.22,0,0,0,4.33,6.47c2.65,1.88,6.53,3,9.93,4.43s6.57,3.46,6.59,5.89c0,.86-.38,1.79.3,2.56a6.68,6.68,0,0,0,2.08,1.22,14,14,0,0,1,4.93,3.62,2.42,2.42,0,0,1,.73,1.67,3.08,3.08,0,0,1-1.07,1.68,36.86,36.86,0,0,1-4,3.52c-2.28,1.76-5,3.67-4.63,5.84.33,1.85,2.85,3.31,3.66,5.1.58,1.29.25,2.66.67,4a5.88,5.88,0,0,0,2.79,3.09,2.64,2.64,0,0,1-2.19,0,5,5,0,0,1-3.33-4.38c-.23-1.66-.3-3.45-2.09-4.74-.91-.65-2.23-1.15-2.74-1.93-.9-1.36,1-2.76,2.35-4a18.91,18.91,0,0,0,2.53-3l3.71-5.07c.39-.53.79-1.13.47-1.67a2.88,2.88,0,0,0-1-.82,9.72,9.72,0,0,0-5.5-1.82,8.32,8.32,0,0,0-3.08.79c-3.15,1.4-5,3.51-7.26,5.4A18.39,18.39,0,0,1,548.41,291a4.88,4.88,0,0,1-1.61.41c-7,.87-14.25.29-21.39,0s-14.69-.18-20.93,1.86a2.45,2.45,0,0,0-1,.49c-.46.5.22,1.07.9,1.47a49.25,49.25,0,0,0,9.31,3.71c1.69.55,3.38,1.08,5,1.66a18.6,18.6,0,0,0,4.85,1.54,4.9,4.9,0,0,1,3.78,2c.35.6.44,1.24.78,1.85a2.89,2.89,0,0,0,2,1.39,4.66,4.66,0,0,0,3.45-.79,5.67,5.67,0,0,0,1.55-2.09.91.91,0,0,1,.58-.51,1.46,1.46,0,0,1,1.06.21c1.24.79.18,2.07-1.18,2.8s-3.11,1.4-3.4,2.46,1.23,2.12,3,2.6,3.71.61,5.52,1,3.6,1.14,3.9,2.24a4.55,4.55,0,0,0,.2,1.09c.44.86,2,1.23,3.06,1.8.88.48,1.51,1.06,2.34,1.58a13.54,13.54,0,0,1,4.78,5c1.07,1.93,4.14,3.18,6.3,4.78a2.67,2.67,0,0,1,.71.66.67.67,0,0,1,.1.23c.09.33-.19.73-.76.82a2.69,2.69,0,0,1-1.41-.25c-3-1.17-5.15-2.95-6.11-4.94-.37-.75-.56-1.53-1-2.27-1.45-2.54-6.66-6-11.87-5.41-2.78.33-4.93,1.66-7.65,2.13-2.17.37-4.49.15-6.72.33-1.82.14-3.55.53-5.31.83a52.46,52.46,0,0,1-8.45.74c-1.4,0-3.06-.12-3.71-.84a49.84,49.84,0,0,0,7.13-.15c3.44-.32,6.77-1,10.24-1.18a48.26,48.26,0,0,0,6-.42c1.63-.29,3.23-1,3.47-2s-1.16-2-2.71-2.62a25.06,25.06,0,0,1-4.56-1.84,11.21,11.21,0,0,0-2.7-1.7,3.53,3.53,0,0,0-2.81.33c-.69.32-1.27.73-2,1.05-2,.9-4.72,1-7.24,1.23a52.69,52.69,0,0,0-14.1,3.2c-3.7,1.44-7.22,3-11.92,2.26-2.91-.48-5.33-1.62-8-2.42-4.94-1.49-13.43-2.35-18.25-.21-3.18,1.41-4.28,3.94-7.24,5.5-2.31,1.22-6,2.14-5.92,3.94,0,1.32,1.82,2.12,2.71,2.83,2.15,1.73.28,2.08.57,4.34.2,1.55,1.74,2.63,2.09,4.15a3.62,3.62,0,0,1-1,3.2,7.27,7.27,0,0,1-3,1.76,15.28,15.28,0,0,1-4.22.84,6,6,0,0,1-3.68-.76,4.25,4.25,0,0,1-1.8-3.28c-.12-1.84,1.57-3.45,1.17-5.19a4.13,4.13,0,0,1-.29-1.3c.08-.74,1-1.4.95-2.14s-1.1-1.4-2.32-1.68a17.25,17.25,0,0,0-3.9-.27c-3.39,0-6.95.11-10-.76a34.74,34.74,0,0,0-5.19-1.58c-1.33-.18-2.74-.08-4.08-.26-1.11-.14-2.11-.47-3.18-.7-3.26-.69-6.87-.38-10.32-.13s-7.17.38-10.21-.58c-.16-.05-.34-.12-.36-.23s.2-.21.38-.27c3.25-1.05,7.25-.87,10.87-.4a80.4,80.4,0,0,0,10.9,1.19c1.89,0,3.77-.23,5.66-.23,1.66,0,3.3.16,4.95.17,2.76,0,5.59-.41,8.33-.09.54.06,1,.15,1.47.23a13.19,13.19,0,0,0,2.41.28,19,19,0,0,0,4.74-.42,15.56,15.56,0,0,0,4.66-2.18c2.78-1.76,5.42-3.6,7.92-5.49,2.21-1.67,4.34-3.45,5.23-5.48.59-1.34,0-2.17-.15-3.47a8.34,8.34,0,0,1,1.49-6.36,14.41,14.41,0,0,0,2.2-3,2.53,2.53,0,0,0-.74-3.14c-.35-.28-.79-.52-1.11-.81-.74-.65-.48-1.4-.77-2.1-.35-.85-1.05-1.71-1.48-2.55-.86-1.68-1.69-3.46-3.85-4.76-.79-.47-1.73-.86-2.47-1.37s-1.29-1.16-1.07-1.81a8.61,8.61,0,0,1,5.16,2.08,14.11,14.11,0,0,1,2.51,3.45c2.3,3.79,5.7,7.48,5.84,11.51.09,2.91-1.55,5.76-1.78,8.67-.06.78.56,1.37.75,2.11a2,2,0,0,0,.88,1.42c1.63,1,4.55.09,6.51-.76,2.22-1,7.68-1.29,7.46,1.17-.05.58-.82,1.11-.64,1.68s1,.83,1.73,1.07a37.07,37.07,0,0,0,20.1.68c1.66-.45,3.21-1.05,4.88-1.49a30.42,30.42,0,0,1,4-.76c3.06-.41,4.8-1.83,7.57-2.53,1.54-.38,3.26-.48,4.77-.91,2-.59,3.33-1.85,3.57-3.13s-1-2.65-3-3.42c-1.21-.47-2.58-.79-3.88-1.17s-2.4-.79-3.57-1.22c-4.48-1.62-8.84-3.79-14.37-4-2.41-.11-4.86.18-7.23-.08a17.08,17.08,0,0,1-10.11-5.07,12.27,12.27,0,0,0-3.21-2.48,7.8,7.8,0,0,0-5-.58,6.64,6.64,0,0,0-2.74,1.62c-1.08.94-2.95,3.88-5,4.15-.71.1-.9,0-.8-.3.24-.62,2.27-2,2.64-2.24,1.79-1.39,3.65-2.87,4-4.59.28-1.44-.55-2.88-1.49-4.22-2-2.85-5.24-4.87-9.38-6.75a1.6,1.6,0,0,1-.57-.36c-.12-.14-.09-.34.15-.44a1.65,1.65,0,0,1,.67,0l2.15.23a1.49,1.49,0,0,0,.42,0c.33-.07.29-.46.3-.62a5.47,5.47,0,0,0-.33-1.4,3,3,0,0,1,1.07-2.88,1,1,0,0,1,.85,1,3.78,3.78,0,0,1-.5,1.18c-1,2.06.5,4.15,2.18,5.92l4.28,4.51a8.78,8.78,0,0,0,5.15,3.07c2.69.42,6.17-.44,8,.76s.1,3,.64,4.5c.67,1.85,4.45,2.7,7.73,2.73a8.5,8.5,0,0,0,2.9-.35,3.11,3.11,0,0,0,2-2.84,6.53,6.53,0,0,0,0-2.95c-.62-2-3.16-3.79-3.51-5.85,2.45.34,5.32,1,5.74,2.42.21.7-.25,1.39-.56,2.08a5.17,5.17,0,0,0-.44,2.52,1.59,1.59,0,0,0,.51,1.14c.84.75,2.75.8,4.18.46s2.61-1,4-1.36c3.53-1,7.71-.43,11.61-.1,3,.26,6.07.35,9.11.44l7.14.22a34.85,34.85,0,0,0,9.69-.61,5.68,5.68,0,0,1,.84-.17c2.27-.76,4.6-1.46,6.68-2.38s4-2.14,4.8-3.6a13.46,13.46,0,0,0,1.34-2.61c.27-.94-.4-1.88-.49-2.83-.15-1.59,1.13-3.14,1.09-4.74-.06-1.93-2-3.65-4.17-5.12-3.22-2.24-6.95-4.28-9.55-6.74-5.44-.23-10.15-3.48-15.38-2.57a8.24,8.24,0,0,0-4.87,2.65,15,15,0,0,0-2.1,3.77,26.78,26.78,0,0,1-4.17,6.18c-1.46,1.64-3,3.2-3.61,5-.38,1.14-1.74,2.85-2.14.61-.28-1.54,2.72-4.09,3.77-5.5l4.38-5.91a13.44,13.44,0,0,0,2.47-4.34,4,4,0,0,0-1.54-4.36,16.91,16.91,0,0,0-4.92-2.2c-4.44-1.47-9.2-3-14.34-2.86-2.79.07-5.46.63-8.21.91a40.79,40.79,0,0,1-16.86-1.72c.87-.76,2.86-.48,4.31-.15a35.21,35.21,0,0,0,8.64,1.1c4-.08,7.73-1.19,11.7-1.23,8.89-.07,15.47,5.07,24.23,5.91,2.47.24,5,.12,7.48.34a23.39,23.39,0,0,1,4.54.83,28,28,0,0,1,4.18,1.66,1.18,1.18,0,0,0,.33.12.61.61,0,0,0,.36,0c.17-.1-.3-.57-.38-.7a8.87,8.87,0,0,1-.45-.86,7.37,7.37,0,0,1-.57-1.76,7.21,7.21,0,0,1,.18-3.57c.05-.17.1-.33.16-.5a.71.71,0,0,1,.32-.4,2,2,0,0,1,1.49.11C549.62,253.82,550.13,256.43,550.77,258.71Z" transform="translate(0.01)"/><path class="cls-7" d="M334,317.71a11.22,11.22,0,0,0-4.33-6.47c-2.65-1.88-6.53-3-9.93-4.43s-6.57-3.46-6.59-5.89c0-.86.38-1.79-.3-2.56a6.88,6.88,0,0,0-2.08-1.22,14,14,0,0,1-4.93-3.62,2.42,2.42,0,0,1-.73-1.67,3.15,3.15,0,0,1,1.06-1.68,38,38,0,0,1,4-3.52c2.27-1.76,5-3.66,4.63-5.84-.33-1.85-2.85-3.31-3.66-5.1-.59-1.29-.25-2.66-.67-4a5.92,5.92,0,0,0-2.79-3.09,2.64,2.64,0,0,1,2.19,0,5,5,0,0,1,3.33,4.38c.22,1.66.3,3.45,2.09,4.74.91.65,2.22,1.15,2.74,1.93.9,1.37-1,2.76-2.35,4a19.37,19.37,0,0,0-2.53,3l-3.71,5.07c-.39.53-.79,1.13-.47,1.68a3,3,0,0,0,1,.81,9.73,9.73,0,0,0,5.5,1.83,8.33,8.33,0,0,0,3.08-.8c3.14-1.39,5-3.51,7.25-5.4a18.45,18.45,0,0,1,10.59-4.46,4.82,4.82,0,0,1,1.61-.41c7-.87,14.25-.29,21.39,0s14.69.18,20.93-1.86a2.45,2.45,0,0,0,1-.49c.46-.5-.22-1.07-.9-1.47a49.25,49.25,0,0,0-9.31-3.71c-1.69-.54-3.38-1.08-5-1.66a18.15,18.15,0,0,0-4.84-1.53,4.93,4.93,0,0,1-3.78-2c-.35-.6-.44-1.24-.78-1.84a2.87,2.87,0,0,0-2-1.4,4.69,4.69,0,0,0-3.46.79,5.75,5.75,0,0,0-1.54,2.09.9.9,0,0,1-.59.51,1.48,1.48,0,0,1-1.06-.21c-1.24-.79-.17-2.07,1.18-2.8s3.12-1.4,3.41-2.46-1.23-2.11-3-2.6-3.71-.61-5.52-1-3.61-1.14-3.9-2.24a4.55,4.55,0,0,0-.2-1.09c-.44-.86-2-1.23-3.06-1.8-.88-.48-1.52-1.06-2.34-1.58a13.39,13.39,0,0,1-4.78-5c-1.07-1.92-4.14-3.18-6.3-4.78a2.67,2.67,0,0,1-.71-.66,1.13,1.13,0,0,1-.11-.22c-.09-.34.2-.74.76-.83a2.71,2.71,0,0,1,1.42.25c3,1.17,5.15,2.95,6.11,4.94.37.76.56,1.53,1,2.27,1.46,2.54,6.67,6,11.87,5.41,2.79-.33,4.93-1.66,7.66-2.13,2.17-.37,4.49-.15,6.72-.33,1.82-.14,3.55-.53,5.31-.83a52.36,52.36,0,0,1,8.45-.74c1.4,0,3.06.12,3.7.84a49.74,49.74,0,0,0-7.12.15c-3.44.32-6.78,1-10.24,1.19a48,48,0,0,0-6.05.41c-1.63.3-3.23,1-3.47,2s1.16,2,2.71,2.63A23.7,23.7,0,0,1,356,263a11.87,11.87,0,0,0,2.7,1.7,3.58,3.58,0,0,0,2.81-.33c.69-.33,1.27-.74,2-1.06,2-.9,4.72-1,7.24-1.23a52.78,52.78,0,0,0,14.1-3.2c3.7-1.44,7.22-3,11.92-2.26,2.91.48,5.33,1.62,8,2.42,4.94,1.49,13.43,2.36,18.25.21,3.19-1.41,4.29-3.94,7.25-5.5,2.3-1.22,6-2.14,5.92-3.93s-4.11-2.94-4.18-4.76c0-.66.5-1.28.75-1.92,1.18-3-5.24-5.92-10-4.57-4,1.12-6,4.25-10.35,4.51a15.92,15.92,0,0,1-6-1.11c-4.79-1.58-10.16-3.68-10.4-6.86a2.58,2.58,0,0,0-.27-1.44c-1.55-2.19-8.84,0-11-2a2,2,0,0,1-.42-2c.32-1.73,1.18-3.85,4.1-4.28,3.42-.5,5.91,1.75,7.53,3.55a42.65,42.65,0,0,0,13.06,9.46,7,7,0,0,0,2.56.82,8.05,8.05,0,0,0,4.06-1c3.68-1.76,7.48-3.69,12.18-4.16s10.39,1.34,10.27,4.09c3.12-1.39,3.51-4,5-6.07,2.59-3.65,9.41-6.17,16.24-6-2.39,1.9-5.95,3.14-8.63,4.88a6.54,6.54,0,0,0-2.71,2.82c-.43,1.13-.28,2.1-1.34,3.15-1.6,1.58-3.68,3.23-3.26,5a4.41,4.41,0,0,1,.29,1.31c-.08.73-1,1.39-.95,2.13s1.1,1.4,2.32,1.68a16.17,16.17,0,0,0,3.9.27c3.39,0,6.95-.11,10,.76a34.74,34.74,0,0,0,5.19,1.58c1.33.18,2.74.08,4.08.26,1.11.15,2.11.47,3.18.7,3.25.69,6.87.38,10.32.14s7.17-.39,10.21.57c.16.05.34.13.35.23s-.19.21-.37.27c-3.25,1.05-7.25.87-10.87.4S473.75,251,470,251c-1.89,0-3.77.22-5.66.22-1.66,0-3.3-.16-4.95-.17-2.77,0-5.59.41-8.33.09-.54-.06-1-.14-1.47-.23a13.19,13.19,0,0,0-2.41-.28,19,19,0,0,0-4.74.42,15.22,15.22,0,0,0-4.66,2.19c-2.78,1.76-5.43,3.59-7.92,5.48-2.21,1.67-4.34,3.45-5.23,5.48-.59,1.34,0,2.17.15,3.48a8.37,8.37,0,0,1-1.49,6.35,14.06,14.06,0,0,0-2.2,3,2.54,2.54,0,0,0,.74,3.15c.35.27.79.51,1.11.8.74.66.47,1.4.77,2.1.35.86,1.05,1.71,1.48,2.55a10.17,10.17,0,0,0,3.84,4.76c.8.47,1.74.87,2.48,1.37s1.29,1.16,1.07,1.81a8.55,8.55,0,0,1-5.16-2.08,14.11,14.11,0,0,1-2.51-3.45c-2.3-3.79-5.7-7.48-5.84-11.51-.1-2.91,1.55-5.76,1.78-8.67.06-.78-.56-1.37-.75-2.11a2.07,2.07,0,0,0-.88-1.42c-1.64-1.05-4.55-.09-6.51.76-2.22,1-7.69,1.29-7.46-1.17.05-.58.82-1.11.64-1.68s-1-.83-1.73-1.07a37.07,37.07,0,0,0-20.1-.68c-1.67.45-3.21,1-4.89,1.49a30,30,0,0,1-4,.76c-3.06.41-4.81,1.83-7.57,2.53-1.54.38-3.27.48-4.77.91-2.05.59-3.33,1.85-3.57,3.13s1,2.65,3,3.42c1.21.47,2.58.79,3.88,1.18s2.4.78,3.56,1.21c4.49,1.62,8.85,3.79,14.38,4,2.41.11,4.86-.18,7.23.08a17.08,17.08,0,0,1,10.11,5.07,12.27,12.27,0,0,0,3.21,2.48,7.79,7.79,0,0,0,5,.58,6.53,6.53,0,0,0,2.73-1.62c1.09-.94,3-3.88,5-4.15.71-.09.9,0,.8.3-.25.63-2.28,1.95-2.64,2.24-1.8,1.39-3.65,2.87-4,4.59-.28,1.45.55,2.88,1.49,4.22,2,2.86,5.23,4.87,9.38,6.76a1.58,1.58,0,0,1,.57.35c.12.14.09.34-.15.44a1.66,1.66,0,0,1-.67,0l-2.15-.23a1.24,1.24,0,0,0-.43,0c-.32.06-.28.45-.29.61a5.47,5.47,0,0,0,.33,1.4,3,3,0,0,1-1.07,2.88,1,1,0,0,1-.85-1,3.78,3.78,0,0,1,.5-1.18c1-2-.5-4.15-2.18-5.91-1.43-1.51-2.86-3-4.28-4.52a8.81,8.81,0,0,0-5.15-3.07c-2.69-.42-6.17.44-8-.76s-.1-3-.64-4.5c-.67-1.84-4.46-2.7-7.73-2.73a8.59,8.59,0,0,0-2.91.35,3.1,3.1,0,0,0-2,2.84,6.53,6.53,0,0,0,0,2.95c.62,2.05,3.16,3.79,3.51,5.85-2.46-.34-5.33-1-5.75-2.42-.2-.7.26-1.39.56-2.08a5.06,5.06,0,0,0,.45-2.52,1.59,1.59,0,0,0-.51-1.14c-.84-.75-2.75-.8-4.18-.46s-2.61,1-4,1.36c-3.53,1-7.72.43-11.61.1-3-.25-6.07-.35-9.12-.44l-7.13-.22a34.85,34.85,0,0,0-9.69.61,6,6,0,0,1-.84.17c-2.27.76-4.6,1.46-6.68,2.38s-4,2.15-4.8,3.6a13.75,13.75,0,0,0-1.34,2.61c-.27.94.4,1.88.49,2.83.15,1.59-1.13,3.14-1.09,4.74.06,1.93,2,3.65,4.16,5.13,3.23,2.23,7,4.27,9.56,6.73,5.44.23,10.14,3.48,15.38,2.57a8.24,8.24,0,0,0,4.87-2.65,15.33,15.33,0,0,0,2.1-3.77,26.94,26.94,0,0,1,4.16-6.18c1.46-1.64,3-3.2,3.62-5,.38-1.14,1.74-2.85,2.14-.61.28,1.54-2.72,4.09-3.77,5.51l-4.38,5.9a13.44,13.44,0,0,0-2.47,4.34,4,4,0,0,0,1.53,4.36,17.1,17.1,0,0,0,4.93,2.2c4.44,1.47,9.2,3,14.34,2.86,2.78-.07,5.46-.63,8.21-.91a40.74,40.74,0,0,1,16.85,1.72c-.86.76-2.85.48-4.3.15a35.69,35.69,0,0,0-8.64-1.1c-4,.09-7.73,1.19-11.7,1.23-8.89.07-15.47-5.07-24.23-5.91-2.47-.24-5-.12-7.49-.33A24.21,24.21,0,0,1,344,318a28,28,0,0,1-4.18-1.66,1.61,1.61,0,0,0-.33-.12.64.64,0,0,0-.37,0c-.16.1.31.57.39.71a7.71,7.71,0,0,1,.45.85,8.4,8.4,0,0,1,.57,1.76,7.21,7.21,0,0,1-.18,3.57,4.91,4.91,0,0,1-.17.5.64.64,0,0,1-.32.4,2,2,0,0,1-1.48-.11C335.11,322.6,334.6,320,334,317.71Z" transform="translate(0.01)"/><path class="cls-7" d="M379.17,156.48A11.22,11.22,0,0,0,383.5,163c2.64,1.88,6.53,3,9.93,4.43s6.57,3.46,6.58,5.89c0,.86-.38,1.79.31,2.56a6.76,6.76,0,0,0,2.08,1.22,14,14,0,0,1,4.93,3.62,2.42,2.42,0,0,1,.73,1.67A3.23,3.23,0,0,1,407,184a37.85,37.85,0,0,1-4,3.52c-2.28,1.76-5,3.66-4.63,5.84.33,1.85,2.85,3.31,3.66,5.1.58,1.29.24,2.66.66,4a6,6,0,0,0,2.79,3.09,2.64,2.64,0,0,1-2.19,0,4.94,4.94,0,0,1-3.32-4.38c-.23-1.66-.3-3.45-2.09-4.74-.91-.65-2.23-1.15-2.75-1.93-.9-1.37,1-2.76,2.36-4a19.94,19.94,0,0,0,2.53-3l3.71-5.07c.39-.53.79-1.13.46-1.68a2.94,2.94,0,0,0-1-.81,9.72,9.72,0,0,0-5.5-1.82,8.23,8.23,0,0,0-3.09.79c-3.14,1.39-5,3.51-7.25,5.4a18.4,18.4,0,0,1-10.59,4.46,4.76,4.76,0,0,1-1.6.41c-7,.87-14.26.29-21.39,0s-14.69-.18-20.93,1.86a2.57,2.57,0,0,0-1,.49c-.45.5.23,1.07.91,1.47a49.25,49.25,0,0,0,9.31,3.71c1.68.54,3.38,1.08,5,1.66a18.11,18.11,0,0,0,4.85,1.53,4.93,4.93,0,0,1,3.78,2c.35.6.44,1.24.77,1.84a2.89,2.89,0,0,0,2,1.4,4.66,4.66,0,0,0,3.45-.79,5.9,5.9,0,0,0,1.55-2.09.88.88,0,0,1,.58-.51,1.47,1.47,0,0,1,1.06.21c1.24.79.18,2.07-1.18,2.8s-3.11,1.4-3.4,2.46,1.22,2.11,3,2.6,3.7.61,5.52,1,3.6,1.14,3.89,2.24a5.1,5.1,0,0,0,.2,1.09c.45.86,2,1.23,3.07,1.8.88.48,1.51,1.06,2.33,1.58a13.5,13.5,0,0,1,4.79,5c1.06,1.93,4.14,3.18,6.29,4.78a2.89,2.89,0,0,1,.72.66.94.94,0,0,1,.1.23c.09.33-.19.73-.76.82a2.69,2.69,0,0,1-1.41-.25c-3-1.17-5.15-2.95-6.12-4.94-.36-.75-.55-1.53-1-2.27-1.45-2.54-6.67-6-11.87-5.41-2.78.33-4.93,1.66-7.66,2.13-2.16.36-4.48.15-6.71.33-1.82.14-3.55.53-5.31.83a52.46,52.46,0,0,1-8.45.74c-1.4,0-3.06-.12-3.71-.84a49.91,49.91,0,0,0,7.13-.15c3.44-.32,6.77-1,10.24-1.19a48,48,0,0,0,6-.41c1.64-.3,3.23-1,3.48-2s-1.17-2-2.71-2.63a23.7,23.7,0,0,1-4.56-1.84,11.51,11.51,0,0,0-2.7-1.69,3.52,3.52,0,0,0-2.81.32c-.69.33-1.28.74-2,1.06-2,.9-4.73,1-7.24,1.23a52.77,52.77,0,0,0-14.11,3.2c-3.7,1.44-7.21,3-11.91,2.26-2.92-.48-5.34-1.62-8-2.42-4.94-1.49-13.43-2.36-18.25-.21-3.18,1.41-4.28,3.94-7.24,5.5-2.31,1.22-6,2.14-5.92,3.94s4.11,2.93,4.18,4.75c0,.66-.5,1.28-.75,1.92-1.18,3,5.24,5.92,10,4.57,3.95-1.12,6-4.25,10.34-4.51a16.08,16.08,0,0,1,6,1.11c4.79,1.58,10.16,3.68,10.41,6.86a2.5,2.5,0,0,0,.27,1.44c1.55,2.19,8.84,0,11,2a2,2,0,0,1,.41,2c-.31,1.73-1.17,3.85-4.09,4.28-3.43.5-5.92-1.75-7.54-3.55a42.41,42.41,0,0,0-13.06-9.46,7,7,0,0,0-2.55-.82,7.91,7.91,0,0,0-4.06,1c-3.68,1.75-7.49,3.68-12.19,4.15s-10.38-1.34-10.26-4.09c-3.13,1.39-3.52,4-5,6.07-2.59,3.65-9.41,6.18-16.24,6,2.38-1.9,5.95-3.14,8.63-4.88a6.54,6.54,0,0,0,2.71-2.82c.43-1.13.28-2.1,1.33-3.14,1.61-1.59,3.68-3.24,3.27-5.05a4.44,4.44,0,0,1-.3-1.31c.09-.73,1-1.39,1-2.13s-1.09-1.4-2.31-1.68a17.25,17.25,0,0,0-3.9-.27c-3.39,0-6.95.11-10-.76a34.74,34.74,0,0,0-5.19-1.58c-1.33-.18-2.75-.08-4.08-.26-1.11-.14-2.11-.47-3.18-.7-3.26-.69-6.87-.38-10.33-.14s-7.16.39-10.2-.57c-.17,0-.35-.13-.36-.23s.19-.21.38-.27c3.25-1,7.25-.87,10.86-.4s7.19,1.21,10.9,1.18c1.9,0,3.78-.22,5.67-.22,1.65,0,3.3.16,5,.17,2.76,0,5.58-.41,8.33-.09.53.06,1,.14,1.47.23a13.08,13.08,0,0,0,2.41.28,19,19,0,0,0,4.74-.42,15.56,15.56,0,0,0,4.66-2.18c2.78-1.76,5.42-3.6,7.92-5.49,2.2-1.67,4.33-3.45,5.23-5.48.59-1.34,0-2.17-.15-3.47a8.3,8.3,0,0,1,1.49-6.36,14,14,0,0,0,2.19-3,2.52,2.52,0,0,0-.74-3.15c-.34-.27-.78-.51-1.11-.8-.73-.66-.47-1.4-.76-2.1-.36-.85-1.05-1.71-1.48-2.55-.86-1.68-1.69-3.46-3.85-4.76-.79-.47-1.73-.87-2.48-1.37s-1.28-1.16-1.06-1.81a8.5,8.5,0,0,1,5.15,2.08,13.6,13.6,0,0,1,2.51,3.45c2.31,3.79,5.71,7.48,5.84,11.51.1,2.91-1.54,5.76-1.77,8.67-.06.78.56,1.37.74,2.11a2.06,2.06,0,0,0,.89,1.42c1.63,1.05,4.55.09,6.51-.76,2.21-1,7.68-1.29,7.46,1.17-.06.58-.82,1.11-.65,1.68s1,.83,1.73,1.07a37.11,37.11,0,0,0,20.11.68c1.66-.45,3.2-1.05,4.88-1.49a30.42,30.42,0,0,1,4-.76c3.06-.41,4.8-1.83,7.56-2.53,1.54-.38,3.27-.48,4.77-.91,2-.59,3.34-1.85,3.58-3.13s-1-2.65-3-3.42c-1.21-.47-2.58-.79-3.88-1.18s-2.4-.78-3.57-1.21c-4.48-1.62-8.84-3.79-14.37-4-2.41-.11-4.86.18-7.23-.08a17.11,17.11,0,0,1-10.12-5.07,12.22,12.22,0,0,0-3.2-2.48,7.83,7.83,0,0,0-5-.58,6.6,6.6,0,0,0-2.73,1.62c-1.08.94-2.95,3.88-5,4.15-.72.09-.91,0-.81-.3.25-.63,2.28-1.95,2.65-2.24,1.79-1.39,3.64-2.87,4-4.59.29-1.45-.54-2.88-1.48-4.22-2-2.85-5.24-4.87-9.38-6.75a1.74,1.74,0,0,1-.57-.36.27.27,0,0,1,.14-.44,1.71,1.71,0,0,1,.68,0l2.15.23a1.19,1.19,0,0,0,.42,0c.33-.06.29-.45.29-.61a5.06,5.06,0,0,0-.32-1.4,3,3,0,0,1,1.06-2.88,1,1,0,0,1,.85,1,3.53,3.53,0,0,1-.49,1.18c-1,2.05.49,4.15,2.17,5.91l4.29,4.52a8.78,8.78,0,0,0,5.15,3.07c2.68.42,6.17-.44,8,.76s.1,3,.64,4.5c.67,1.84,4.45,2.7,7.73,2.73a8.53,8.53,0,0,0,2.9-.35,3.11,3.11,0,0,0,2-2.84,6.53,6.53,0,0,0,0-2.95c-.63-2.05-3.17-3.79-3.51-5.85,2.45.34,5.32,1,5.74,2.42.21.7-.25,1.39-.56,2.08a5.05,5.05,0,0,0-.44,2.52,1.58,1.58,0,0,0,.5,1.14c.84.74,2.76.8,4.19.46s2.61-1,4-1.36c3.53-1,7.71-.43,11.6-.1,3,.25,6.07.35,9.12.44l7.13.22a34.9,34.9,0,0,0,9.7-.61,5.43,5.43,0,0,1,.84-.17c2.26-.76,4.6-1.46,6.67-2.38s4-2.15,4.81-3.6a13.75,13.75,0,0,0,1.34-2.61c.26-.94-.4-1.88-.49-2.83-.15-1.59,1.13-3.14,1.08-4.74-.05-1.93-2-3.65-4.16-5.12-3.22-2.24-6.95-4.28-9.55-6.74-5.44-.23-10.15-3.48-15.38-2.57a8.18,8.18,0,0,0-4.87,2.65,15.37,15.37,0,0,0-2.11,3.77,26.63,26.63,0,0,1-4.16,6.18c-1.46,1.64-3,3.2-3.61,5-.38,1.14-1.74,2.85-2.15.61-.28-1.54,2.73-4.09,3.78-5.51,1.46-2,2.91-3.94,4.37-5.9a13.66,13.66,0,0,0,2.48-4.34,4.05,4.05,0,0,0-1.54-4.36,17,17,0,0,0-4.92-2.2c-4.45-1.47-9.21-3-14.34-2.86-2.79.07-5.47.63-8.21.91a40.77,40.77,0,0,1-16.86-1.72c.87-.76,2.86-.48,4.31-.15a35.57,35.57,0,0,0,8.64,1.1c4-.09,7.73-1.19,11.7-1.23,8.89-.07,15.46,5.07,24.23,5.91,2.47.24,5,.12,7.48.34a23.53,23.53,0,0,1,4.54.83,28,28,0,0,1,4.18,1.66,1.07,1.07,0,0,0,.33.12.61.61,0,0,0,.36,0c.16-.1-.31-.57-.39-.71s-.31-.56-.44-.85a7.89,7.89,0,0,1-.58-1.76,7.33,7.33,0,0,1,.18-3.57c.05-.17.11-.33.17-.5a.71.71,0,0,1,.32-.4,2,2,0,0,1,1.49.11C378,151.59,378.53,154.2,379.17,156.48Z" transform="translate(0.01)"/><path class="cls-7" d="M170.55,184.3a7,7,0,0,0-4.09,3.9c-1.61,3.35-1.49,7.24-1.34,11a59.19,59.19,0,0,0,.74,8.42c.65,3.55,2.21,4.83,5.48,5.76s6.43,2.08,9.79,1.5a8.24,8.24,0,0,0,4.87-2.65,15.66,15.66,0,0,0,2.1-3.77,26.42,26.42,0,0,1,4.16-6.18c1.46-1.64,3-3.2,3.62-5,.38-1.14,1.73-2.85,2.14-.61.28,1.54-2.72,4.09-3.77,5.5L189.87,208a13.44,13.44,0,0,0-2.47,4.34,4,4,0,0,0,1.53,4.36,17,17,0,0,0,4.92,2.2c4.45,1.47,9.21,3,14.35,2.86,2.78-.07,5.46-.63,8.2-.91a40.77,40.77,0,0,1,16.86,1.72c-.86.76-2.85.48-4.3.15a35.69,35.69,0,0,0-8.64-1.1c-4,.08-7.73,1.19-11.7,1.23-8.9.07-15.47-5.07-24.23-5.91-2.47-.24-5-.12-7.49-.34a23.53,23.53,0,0,1-4.54-.83c-2.26-.65-6.18-2-7.58-4.06a7.47,7.47,0,0,1-.95-2.32,35.47,35.47,0,0,1,.24-19.41,17.31,17.31,0,0,1,2.79-5.8c1.6-2,3-1.78,5.43-1.85,5.15-.14,10.29.22,15.43.42,7.13.27,14.68.18,20.92-1.86a2.5,2.5,0,0,0,1-.49c.45-.5-.23-1.07-.91-1.47a49.42,49.42,0,0,0-9.3-3.71c-1.69-.55-3.39-1.08-5-1.66a18.48,18.48,0,0,0-4.85-1.54,4.93,4.93,0,0,1-3.78-2c-.34-.6-.43-1.24-.77-1.85a2.91,2.91,0,0,0-2-1.39,4.68,4.68,0,0,0-3.46.79,5.75,5.75,0,0,0-1.54,2.09.93.93,0,0,1-.59.51,1.47,1.47,0,0,1-1.06-.21c-1.24-.79-.18-2.07,1.18-2.8s3.12-1.4,3.41-2.46-1.23-2.12-3-2.6-3.7-.61-5.51-1-3.61-1.14-3.9-2.24a5.31,5.31,0,0,0-.2-1.1c-.44-.85-2-1.22-3.06-1.79-.88-.48-1.52-1.06-2.34-1.58a13.39,13.39,0,0,1-4.78-5c-1.07-1.93-4.14-3.18-6.3-4.78a2.89,2.89,0,0,1-.72-.66.94.94,0,0,1-.1-.23c-.09-.33.19-.73.76-.82a2.73,2.73,0,0,1,1.42.25c2.94,1.17,5.15,3,6.11,4.94.36.75.56,1.53,1,2.27,1.46,2.54,6.67,6,11.87,5.41,2.79-.33,4.93-1.66,7.66-2.13,2.16-.37,4.48-.15,6.72-.33,1.81-.14,3.54-.53,5.31-.83a52.36,52.36,0,0,1,8.45-.74c1.4,0,3.05.12,3.7.84a49.91,49.91,0,0,0-7.13.15c-3.43.32-6.77,1-10.23,1.18a50,50,0,0,0-6.05.42c-1.63.3-3.23,1-3.47,2s1.16,2,2.71,2.62a25.25,25.25,0,0,1,4.55,1.84,11.28,11.28,0,0,0,2.71,1.7,3.51,3.51,0,0,0,2.8-.33c.7-.32,1.28-.73,2-1.05,2-.9,4.72-1,7.24-1.23a52.78,52.78,0,0,0,14.1-3.2c3.7-1.44,7.22-3,11.92-2.26,2.91.47,5.33,1.62,8,2.42,4.94,1.49,13.43,2.36,18.25.21,3.18-1.41,4.28-3.94,7.24-5.5,2.31-1.22,6-2.14,5.93-3.94s-4.12-2.94-4.18-4.75c0-.66.49-1.28.75-1.92,1.17-3-5.25-5.92-10-4.57-4,1.12-6,4.25-10.34,4.51a16.08,16.08,0,0,1-6-1.11c-4.79-1.58-10.16-3.68-10.4-6.86a2.58,2.58,0,0,0-.27-1.44c-1.56-2.19-8.85,0-11-2a2,2,0,0,1-.41-2c.31-1.73,1.18-3.85,4.09-4.28,3.43-.5,5.92,1.75,7.54,3.55a42.65,42.65,0,0,0,13.06,9.46,7,7,0,0,0,2.55.82,8,8,0,0,0,4.07-1c3.67-1.75,7.48-3.69,12.18-4.15s10.39,1.34,10.26,4.09c3.13-1.39,3.52-4,5-6.07,2.6-3.65,9.42-6.18,16.24-6-2.38,1.9-5.95,3.14-8.63,4.88a6.6,6.6,0,0,0-2.71,2.82c-.43,1.13-.27,2.1-1.33,3.14-1.6,1.59-3.68,3.24-3.27,5.05a4.15,4.15,0,0,1,.3,1.3c-.08.74-1,1.4-.95,2.14s1.1,1.4,2.32,1.68a17.16,17.16,0,0,0,3.89.27c3.4,0,6.95-.11,10,.76a34,34,0,0,0,5.19,1.58c1.33.18,2.74.08,4.07.26,1.11.14,2.12.47,3.18.7,3.26.69,6.87.38,10.33.13s7.16-.38,10.2.58c.17,0,.35.12.36.23s-.19.21-.38.27c-3.24,1-7.24.87-10.86.4s-7.19-1.21-10.9-1.18c-1.89,0-3.77.22-5.67.22-1.65,0-3.29-.16-4.95-.17-2.76,0-5.58.41-8.32.09-.54-.06-1-.14-1.48-.23a13.08,13.08,0,0,0-2.41-.28,19.07,19.07,0,0,0-4.74.42A15.56,15.56,0,0,0,266.2,151c-2.78,1.76-5.42,3.6-7.92,5.49-2.2,1.67-4.33,3.45-5.23,5.48-.59,1.34,0,2.16.15,3.47a8.34,8.34,0,0,1-1.48,6.36,13.73,13.73,0,0,0-2.2,3,2.51,2.51,0,0,0,.74,3.14c.35.28.79.52,1.11.81.74.66.47,1.4.77,2.1s1,1.71,1.47,2.55c.86,1.68,1.7,3.46,3.85,4.76.79.47,1.74.87,2.48,1.37s1.29,1.16,1.06,1.81a8.58,8.58,0,0,1-5.15-2.08,13.85,13.85,0,0,1-2.51-3.45c-2.3-3.79-5.71-7.49-5.84-11.51-.1-2.91,1.54-5.76,1.78-8.67.06-.78-.57-1.37-.75-2.11a2,2,0,0,0-.88-1.42c-1.64-1.05-4.55-.09-6.52.76-2.21,1-7.68,1.29-7.45-1.17,0-.58.82-1.11.64-1.68s-1-.83-1.73-1.07a37.08,37.08,0,0,0-20.1-.68c-1.67.45-3.21,1.05-4.89,1.49a30.1,30.1,0,0,1-4,.76c-3.06.41-4.8,1.83-7.56,2.53-1.54.38-3.27.48-4.77.91-2,.59-3.34,1.85-3.58,3.13s1,2.65,3,3.42c1.21.47,2.57.79,3.87,1.18s2.4.78,3.57,1.21c4.48,1.62,8.85,3.79,14.38,4,2.4.11,4.86-.18,7.23.08a17.11,17.11,0,0,1,10.11,5.07,12.27,12.27,0,0,0,3.21,2.48,7.79,7.79,0,0,0,5,.58,6.6,6.6,0,0,0,2.73-1.62c1.09-.94,3-3.88,5-4.15.72-.09.91,0,.81.3-.25.62-2.28,1.95-2.65,2.24-1.79,1.39-3.64,2.87-4,4.59-.28,1.44.55,2.88,1.48,4.22,2,2.85,5.24,4.87,9.39,6.75a1.47,1.47,0,0,1,.56.36c.12.14.09.34-.14.44a1.7,1.7,0,0,1-.68,0l-2.15-.23a1.19,1.19,0,0,0-.42,0c-.32.06-.28.45-.29.61a5.45,5.45,0,0,0,.32,1.4A3,3,0,0,1,247,203a1,1,0,0,1-.85-1,3.78,3.78,0,0,1,.5-1.18c1-2-.5-4.15-2.18-5.92l-4.29-4.51a8.78,8.78,0,0,0-5.14-3.07c-2.69-.42-6.17.44-8-.76s-.09-3-.64-4.5c-.66-1.84-4.45-2.7-7.73-2.73a8.53,8.53,0,0,0-2.9.35,3.13,3.13,0,0,0-2,2.84,6.68,6.68,0,0,0,0,2.95c.63,2,3.17,3.79,3.51,5.85-2.45-.34-5.32-1-5.74-2.42-.2-.7.26-1.39.56-2.08a5,5,0,0,0,.44-2.52,1.54,1.54,0,0,0-.5-1.14c-.84-.75-2.76-.8-4.19-.46s-2.6,1-4,1.36c-3.53,1-7.71.43-11.6.1-3-.26-6.07-.35-9.12-.44l-7.13-.22A17.49,17.49,0,0,0,170.55,184.3Z" transform="translate(0.01)"/></g><path class="cls-7" d="M158.4,233.11a31.75,31.75,0,0,0,10.06,12.31c25.42,19,84.54,13.73,107.36,33.83,13.62,12,8,28.25,18.06,41.38,12.83,16.85,48.18,24.26,80,24.2,18.71,0,37.82-2,55.88.92a87.45,87.45,0,0,1,17.5,4.64l25.5-14.71a85.44,85.44,0,0,0-21.07-6.11c-18.06-2.88-37.17-.95-55.87-.92-31.84.06-67.19-7.35-80-24.2-10-13.13-4.42-29.38-18.05-41.38-22.82-20.1-81.94-14.8-107.35-33.84a32.17,32.17,0,0,1-8.67-9.6Z" transform="translate(0.01)"/><path class="cls-8" d="M387.44,338a3.55,3.55,0,0,0,3.19,0c.88-.51.88-1.33,0-1.83a3.52,3.52,0,0,0-3.19,0A1,1,0,0,0,387.44,338Z" transform="translate(0.01)"/><path class="cls-8" d="M337.27,330.12a3.5,3.5,0,0,0,3.18,0,1,1,0,0,0,0-1.84,3.53,3.53,0,0,0-3.18,0C336.4,328.8,336.39,329.62,337.27,330.12Z" transform="translate(0.01)"/><path class="cls-8" d="M257.65,264.29a3.52,3.52,0,0,0,3.19,0,1,1,0,0,0,0-1.84,3.55,3.55,0,0,0-3.19,0C256.78,263,256.78,263.79,257.65,264.29Z" transform="translate(0.01)"/><path class="cls-8" d="M230.19,251.36a3.5,3.5,0,0,0,3.18,0c.88-.51.89-1.33,0-1.84a3.53,3.53,0,0,0-3.18,0C229.32,250,229.31,250.86,230.19,251.36Z" transform="translate(0.01)"/><path class="cls-8" d="M175.79,245.69a3.5,3.5,0,0,0,3.18,0,1,1,0,0,0,0-1.84,3.5,3.5,0,0,0-3.18,0A1,1,0,0,0,175.79,245.69Z" transform="translate(0.01)"/><path class="cls-8" d="M302,323.66a3.53,3.53,0,0,0,3.18,0c.88-.51.89-1.33,0-1.83a3.5,3.5,0,0,0-3.18,0A1,1,0,0,0,302,323.66Z" transform="translate(0.01)"/><path class="cls-8" d="M411,342.17a3.52,3.52,0,0,0,3.19,0,1,1,0,0,0,0-1.84,3.52,3.52,0,0,0-3.19,0A1,1,0,0,0,411,342.17Z" transform="translate(0.01)"/><path class="cls-8" d="M401.38,335.45a5.4,5.4,0,0,0,4.89,0c1.35-.79,1.36-2.05,0-2.83a5.43,5.43,0,0,0-4.89,0C400,333.41,400,334.68,401.38,335.45Z" transform="translate(0.01)"/><path class="cls-8" d="M324.79,336.64a5.42,5.42,0,0,0,4.9,0c1.35-.78,1.36-2,0-2.82a5.43,5.43,0,0,0-4.89,0C323.46,334.6,323.45,335.87,324.79,336.64Z" transform="translate(0.01)"/><path class="cls-8" d="M274,267.25a5.4,5.4,0,0,0,4.89,0c1.36-.78,1.36-2,0-2.82a5.4,5.4,0,0,0-4.89,0C272.62,265.21,272.61,266.47,274,267.25Z" transform="translate(0.01)"/><path class="cls-8" d="M241.74,263a5.43,5.43,0,0,0,4.89,0c1.36-.78,1.37-2,0-2.82a5.4,5.4,0,0,0-4.89,0C240.41,261,240.4,262.25,241.74,263Z" transform="translate(0.01)"/><path class="cls-8" d="M295.39,295.48a5.42,5.42,0,0,0,4.9,0c1.35-.78,1.36-2,0-2.82a5.4,5.4,0,0,0-4.89,0C294.06,293.44,294.05,294.7,295.39,295.48Z" transform="translate(0.01)"/><path class="cls-8" d="M294.87,313.55a5.4,5.4,0,0,0,4.89,0c1.35-.79,1.36-2.05,0-2.82a5.4,5.4,0,0,0-4.89,0C293.53,311.52,293.52,312.78,294.87,313.55Z" transform="translate(0.01)"/><path class="cls-8" d="M205.35,252.47a5.4,5.4,0,0,0,4.89,0c1.35-.79,1.36-2.05,0-2.83a5.43,5.43,0,0,0-4.89,0C204,250.43,204,251.7,205.35,252.47Z" transform="translate(0.01)"/><path class="cls-8" d="M196.9,241.79a5.43,5.43,0,0,0,4.89,0c1.35-.78,1.36-2.05,0-2.82a5.4,5.4,0,0,0-4.89,0C195.56,239.75,195.55,241,196.9,241.79Z" transform="translate(0.01)"/><path class="cls-8" d="M350.81,340.34a5.43,5.43,0,0,0,4.89,0c1.35-.78,1.36-2.05,0-2.82a5.4,5.4,0,0,0-4.89,0C349.47,338.3,349.46,339.56,350.81,340.34Z" transform="translate(0.01)"/><path class="cls-8" d="M317.14,321.21a5.43,5.43,0,0,0,4.89,0c1.35-.78,1.36-2.05,0-2.82a5.37,5.37,0,0,0-4.89,0C315.8,319.17,315.79,320.43,317.14,321.21Z" transform="translate(0.01)"/><path class="cls-8" d="M294.56,279.65a5.4,5.4,0,0,0,4.89,0c1.35-.78,1.36-2,0-2.82a5.4,5.4,0,0,0-4.89,0C293.22,277.61,293.21,278.87,294.56,279.65Z" transform="translate(0.01)"/><path class="cls-8" d="M449.17,336a5.4,5.4,0,0,0,4.89,0c1.36-.78,1.36-2,0-2.82a5.43,5.43,0,0,0-4.89,0C447.83,333.94,447.83,335.21,449.17,336Z" transform="translate(0.01)"/><path class="cls-8" d="M427.69,342.67a5.45,5.45,0,0,0,4.9,0c1.35-.78,1.36-2.05,0-2.82a5.37,5.37,0,0,0-4.89,0C426.36,340.63,426.35,341.89,427.69,342.67Z" transform="translate(0.01)"/><path class="cls-9" d="M111.69,298.16a6.69,6.69,0,0,1,4.79-3.87c2.57-.61,5.88-.45,7.94,1.34a3.55,3.55,0,0,1,1.24,2.47,2.51,2.51,0,0,1-.27,1.27c-.21.38-.48.5-.44,1s.43,1,.47,1.59c.14,1.57-1.58,1.73-2.73,1.58a2.76,2.76,0,0,0-1.78.18,4.37,4.37,0,0,0-.89.83,4.54,4.54,0,0,1-3.09,1.26,6.49,6.49,0,0,1-3.26-.86c-2.29-1.27-2.83-4.18-2.06-6.57C111.64,298.3,111.66,298.23,111.69,298.16Z" transform="translate(0.01)"/><path class="cls-10" d="M124,301a1.39,1.39,0,0,1-.84.3,17.08,17.08,0,0,0-3.52.33c-.57.18-1.09.47-1.66.63a3.85,3.85,0,0,1-4.29-1.81,3.3,3.3,0,0,1-.39-1.33,3.79,3.79,0,0,1,1.79-3.1,6.73,6.73,0,0,1,6.38-.63,5.51,5.51,0,0,1,2.49,2.47C124.38,298.76,124.81,300.22,124,301Z" transform="translate(0.01)"/><path class="cls-11" d="M331.38,388.47a9.66,9.66,0,0,0-2.83,2,6.27,6.27,0,0,0-1.66,4.46,5.11,5.11,0,0,0,1.32,3.31,7.55,7.55,0,0,0,8,1.52c1.2-.54,2.22-1.45,3.39-2.06a12.87,12.87,0,0,1,3.19-1.12,16.21,16.21,0,0,1-3.17-2.18,5.69,5.69,0,0,1-1.83-3.31,14.25,14.25,0,0,0-.22-2.17C336.71,386.22,333,387.66,331.38,388.47Z" transform="translate(0.01)"/><path class="cls-9" d="M329.63,391.4a6.67,6.67,0,0,1,4.8-3.87c2.56-.61,5.87-.45,7.94,1.34a3.58,3.58,0,0,1,1.23,2.47,2.43,2.43,0,0,1-.27,1.27c-.21.37-.48.5-.44,1s.43,1,.48,1.58c.13,1.58-1.59,1.74-2.74,1.59a2.83,2.83,0,0,0-1.78.17,5,5,0,0,0-.89.84,4.56,4.56,0,0,1-3.08,1.26,6.5,6.5,0,0,1-3.27-.86c-2.29-1.27-2.82-4.19-2.05-6.58A1.72,1.72,0,0,1,329.63,391.4Z" transform="translate(0.01)"/><path class="cls-10" d="M341.92,394.26a1.36,1.36,0,0,1-.84.29,17.88,17.88,0,0,0-3.52.34c-.57.18-1.09.47-1.66.63a3.84,3.84,0,0,1-4.28-1.81,3,3,0,0,1-.39-1.34,3.74,3.74,0,0,1,1.79-3.09,6.7,6.7,0,0,1,6.37-.63,5.51,5.51,0,0,1,2.49,2.47C342.32,392,342.75,393.46,341.92,394.26Z" transform="translate(0.01)"/><path class="cls-11" d="M237.82,446.35a9.79,9.79,0,0,0-2.83,2,6.27,6.27,0,0,0-1.66,4.46,5.16,5.16,0,0,0,1.32,3.31,7.56,7.56,0,0,0,8,1.52c1.21-.54,2.22-1.45,3.39-2.06a12.87,12.87,0,0,1,3.19-1.12,16,16,0,0,1-3.16-2.18,5.76,5.76,0,0,1-1.84-3.31,12.1,12.1,0,0,0-.22-2.17C243.15,444.11,239.44,445.54,237.82,446.35Z" transform="translate(0.01)"/><path class="cls-9" d="M236.07,449.28a6.7,6.7,0,0,1,4.8-3.87c2.57-.61,5.88-.45,7.94,1.34a3.54,3.54,0,0,1,1.23,2.47,2.34,2.34,0,0,1-.27,1.27c-.2.38-.48.5-.44,1s.43,1,.48,1.58c.13,1.58-1.58,1.74-2.74,1.59a2.84,2.84,0,0,0-1.78.17,5,5,0,0,0-.89.84,4.54,4.54,0,0,1-3.08,1.26,6.44,6.44,0,0,1-3.26-.86c-2.3-1.27-2.83-4.19-2.06-6.58C236,449.42,236.05,449.35,236.07,449.28Z" transform="translate(0.01)"/><path class="cls-10" d="M248.37,452.14a1.33,1.33,0,0,1-.85.29,18,18,0,0,0-3.52.34c-.56.18-1.09.47-1.66.63a3.84,3.84,0,0,1-4.28-1.81,3.15,3.15,0,0,1-.39-1.34,3.74,3.74,0,0,1,1.79-3.09,6.71,6.71,0,0,1,6.37-.63,5.53,5.53,0,0,1,2.5,2.47C248.77,449.88,249.2,451.34,248.37,452.14Z" transform="translate(0.01)"/><path class="cls-12" d="M103.76,282.28a7.12,7.12,0,0,0,6.42,0c1.78-1,1.79-2.69,0-3.71a7.12,7.12,0,0,0-6.42,0C102,279.6,102,281.26,103.76,282.28Z" transform="translate(0.01)"/><ellipse class="cls-3" cx="87.73" cy="367.4" rx="4.54" ry="2.62" transform="translate(-1.98 0.48) rotate(-0.31)"/><path class="cls-11" d="M175.28,426.91a7.12,7.12,0,0,0,6.42,0c1.78-1,1.79-2.69,0-3.71a7.09,7.09,0,0,0-6.42,0C173.52,424.23,173.51,425.89,175.28,426.91Z" transform="translate(0.01)"/><path class="cls-11" d="M280.64,432.73a7.12,7.12,0,0,0,6.42,0c1.78-1,1.79-2.68,0-3.7a7.12,7.12,0,0,0-6.42,0C278.89,430.05,278.88,431.71,280.64,432.73Z" transform="translate(0.01)"/><path class="cls-11" d="M274,331a7.12,7.12,0,0,0,6.42,0c1.78-1,1.79-2.69,0-3.71a7.09,7.09,0,0,0-6.42,0C272.22,328.31,272.21,330,274,331Z" transform="translate(0.01)"/><path class="cls-13" d="M172.82,280.31a5.76,5.76,0,0,0,5.21,0c1.44-.83,1.45-2.18,0-3a5.73,5.73,0,0,0-5.21,0C171.39,278.14,171.38,279.48,172.82,280.31Z" transform="translate(0.01)"/><path class="cls-13" d="M249.51,298.31a10.73,10.73,0,0,0,9.73,0c2.7-1.55,2.71-4.07,0-5.61a10.76,10.76,0,0,0-9.73,0C246.84,294.25,246.83,296.76,249.51,298.31Z" transform="translate(0.01)"/><path class="cls-13" d="M137.65,403a10.79,10.79,0,0,0,9.73,0c2.7-1.56,2.71-4.07,0-5.62a10.76,10.76,0,0,0-9.73,0C135,398.94,135,401.45,137.65,403Z" transform="translate(0.01)"/><path class="cls-13" d="M318,363.55a10.76,10.76,0,0,0,9.73,0c2.7-1.55,2.71-4.07,0-5.61a10.76,10.76,0,0,0-9.73,0C315.34,359.49,315.33,362,318,363.55Z" transform="translate(0.01)"/><path class="cls-11" d="M268.7,403.63c8.53,4.91,22.39,4.89,31-.06s8.62-12.94.1-17.86-22.39-4.89-31,.05S260.18,398.71,268.7,403.63Z" transform="translate(0.01)"/><path class="cls-14" d="M272.46,387.24a18.31,18.31,0,0,0,2.23,8.77,18.55,18.55,0,0,0,4.14,5.13A18.29,18.29,0,0,0,290,405.57c.29,0,.59,0,.88,0a18.28,18.28,0,0,0,14.36-6.9,18.6,18.6,0,0,0,2-3.13,18.37,18.37,0,0,0-12.48-26.26A18.48,18.48,0,0,0,280,372.44a18.37,18.37,0,0,0-7.51,14.8Z" transform="translate(0.01)"/><path class="cls-7" d="M294.85,377.73a5.83,5.83,0,0,0,.4,1.25,15.87,15.87,0,0,0,.9,1.69,16.84,16.84,0,0,1,1.67,4.56c.23.92.45,1.84.72,2.74a23.91,23.91,0,0,0,6.65,10.72,18.6,18.6,0,0,0,2-3.13,18.35,18.35,0,0,0-1.2-18.65l-.32-.14a19.24,19.24,0,0,0-7.13-1.51,10.89,10.89,0,0,0-1.72.13,3.64,3.64,0,0,0-1,.27,1.69,1.69,0,0,0-.81.65,1.54,1.54,0,0,0-.24.69A2.59,2.59,0,0,0,294.85,377.73Z" transform="translate(0.01)"/><path class="cls-15" d="M276.47,375.8l.83.19a60.93,60.93,0,0,0,8.29,1.23c1.4.1,2.8.13,4.19.23.79.05,1.58.13,2.36.24l.2,0a9.57,9.57,0,0,0,1.5.17l.33,0h.07a3.06,3.06,0,0,0,.61-.14,1.58,1.58,0,0,0,.52-.32,1.55,1.55,0,0,0,.45-.92,3.75,3.75,0,0,0,.05-.83c0-.48-.09-1-.13-1.46s-.07-.9-.13-1.35a12.41,12.41,0,0,0-.88-3.55A18.48,18.48,0,0,0,280,372.44,18.27,18.27,0,0,0,276.47,375.8Z" transform="translate(0.01)"/><path class="cls-14" d="M272.46,387.24a18.31,18.31,0,0,0,2.23,8.77,18.55,18.55,0,0,0,4.14,5.13,13.55,13.55,0,0,0,2.3-2.24,27,27,0,0,0,3.31-5.52c2.39-4.94,4.4-10.24,8.24-14.17l.61-.63a5.94,5.94,0,0,0,.55-.69,3.29,3.29,0,0,0,.26-.49,1.34,1.34,0,0,0,.09-.26,2.26,2.26,0,0,0,.07-.43,1.43,1.43,0,0,0,0-.42c-.19-.84-1-1.52-2.17-2.08a27.77,27.77,0,0,0-8.93-1.93,23.74,23.74,0,0,0-3.15.16,18.37,18.37,0,0,0-7.51,14.8Z" transform="translate(0.01)"/><path class="cls-7" d="M274.69,396a18.55,18.55,0,0,0,4.14,5.13A18.29,18.29,0,0,0,290,405.57c.29,0,.59,0,.88,0a18.32,18.32,0,0,0,3.95-.42,25.47,25.47,0,0,0,2-7.06,88.18,88.18,0,0,0,1.06-12.25v-.63a13.36,13.36,0,0,0-1-6,5.54,5.54,0,0,0-.29-.52,5.82,5.82,0,0,0-1.13-1.31c-.18-.15-.36-.28-.55-.41a4.25,4.25,0,0,0-.56-.29l-.11,0a2.94,2.94,0,0,0-.72-.19,4.24,4.24,0,0,0-1.83.23,15.74,15.74,0,0,0-1.82.75c-.21.1-.41.2-.61.28a25.68,25.68,0,0,0-10.35,7.8,23.78,23.78,0,0,0-3.79,8.81C274.9,394.9,274.79,395.45,274.69,396Z" transform="translate(0.01)"/><path class="cls-16" d="M290,405.57c.29,0,.59,0,.88,0a18.28,18.28,0,0,0,14.36-6.9,18.6,18.6,0,0,0,2-3.13,27.86,27.86,0,0,0-1.68-6.8A29.63,29.63,0,0,0,297.67,378c-.46-.42-.93-.84-1.41-1.24a1.54,1.54,0,0,0-.44-.28,1.81,1.81,0,0,0-.76-.18c-.26,0-.53,0-.84,0h-.09c0,.12,0,.25,0,.37s0,.32,0,.48,0,.48.05.73,0,.69.05,1a67,67,0,0,1-1.08,16.25A50.52,50.52,0,0,1,290,405.57Z" transform="translate(0.01)"/><path class="cls-8" d="M291.47,375.9a3.62,3.62,0,1,0,3.59-3.09A3.37,3.37,0,0,0,291.47,375.9Z" transform="translate(0.01)"/><path id="Shadow" class="cls-11" d="M30.07,341.67,162.18,418a9.43,9.43,0,0,0,8.56,0l79.8-46.07c2.36-1.36,2.36-3.58,0-4.94L118.42,290.65a9.49,9.49,0,0,0-8.56,0L30.07,336.72C27.7,338.09,27.7,340.3,30.07,341.67Z" transform="translate(0.01)"/><g id="Character"><g id="Hammok"><path class="cls-17" d="M158.45,410.88a1.65,1.65,0,0,1-1.18-.49,1.67,1.67,0,0,1,0-2.37l33.11-33.45a1.64,1.64,0,0,1,.76-.45l45.53-11.94a1.68,1.68,0,1,1,.85,3.25l-45.08,11.83-32.79,33.12A1.67,1.67,0,0,1,158.45,410.88Z" transform="translate(0.01)"/><path class="cls-17" d="M49.3,347.82A1.68,1.68,0,0,1,48.11,345l33.11-33.45a1.64,1.64,0,0,1,.76-.45l45.53-11.94a1.67,1.67,0,1,1,.85,3.24L83.28,314.19,50.5,347.32A1.69,1.69,0,0,1,49.3,347.82Z" transform="translate(0.01)"/><path class="cls-15" d="M158.45,410.88a1.65,1.65,0,0,1-1.18-.49,1.67,1.67,0,0,1,0-2.37l33.11-33.45a1.64,1.64,0,0,1,.76-.45l45.53-11.94a1.68,1.68,0,1,1,.85,3.25l-45.08,11.83-32.79,33.12A1.67,1.67,0,0,1,158.45,410.88Z" transform="translate(0.01)"/><path class="cls-15" d="M49.3,347.82A1.68,1.68,0,0,1,48.11,345l33.11-33.45a1.64,1.64,0,0,1,.76-.45l45.53-11.94a1.67,1.67,0,1,1,.85,3.24L83.28,314.19,50.5,347.32A1.69,1.69,0,0,1,49.3,347.82Z" transform="translate(0.01)"/><path class="cls-17" d="M72.25,304.88c-4.9-2.82-10-9.9-11.06-15.44L30.26,133.16a1.68,1.68,0,0,0-3.3.65L57.9,290.09c1.3,6.57,6.87,14.35,12.67,17.7l131.15,75.76,1.68-2.9Z" transform="translate(0.01)"/><path class="cls-15" d="M72.25,304.88c-4.9-2.82-10-9.9-11.06-15.44L30.26,133.16a1.68,1.68,0,0,0-3.3.65L57.9,290.09c1.3,6.57,6.87,14.35,12.67,17.7l131.15,75.76,1.68-2.9Z" transform="translate(0.01)"/><path class="cls-18" d="M75.22,178.54a.46.46,0,0,1-.23,0L32.86,157a.51.51,0,0,1,.46-.91l42.13,21.5a.5.5,0,0,1-.23,1Z" transform="translate(0.01)"/><path class="cls-18" d="M41.18,198.17a.51.51,0,0,1-.5-.42l-8.09-41.11a.51.51,0,0,1,.4-.6.5.5,0,0,1,.6.4l8.09,41.12a.51.51,0,0,1-.4.6Z" transform="translate(0.01)"/><path class="cls-18" d="M27.72,206h-.06a.51.51,0,0,1-.45-.56l5.37-48.93a.53.53,0,0,1,.57-.45.51.51,0,0,1,.45.56l-5.38,48.93A.51.51,0,0,1,27.72,206Z" transform="translate(0.01)"/><path class="cls-18" d="M15.3,213.14l-.15,0a.52.52,0,0,1-.34-.64l17.79-56.1a.5.5,0,0,1,.64-.33.52.52,0,0,1,.34.64L15.79,212.78A.51.51,0,0,1,15.3,213.14Z" transform="translate(0.01)"/><path class="cls-18" d="M85.66,172.52l-.15,0L33,157a.5.5,0,1,1,.28-1L85.8,171.52a.51.51,0,0,1,.34.63A.49.49,0,0,1,85.66,172.52Z" transform="translate(0.01)"/><path class="cls-18" d="M63.14,185.52a.54.54,0,0,1-.35-.14l-30-28.47a.52.52,0,0,1,0-.72.51.51,0,0,1,.72,0l30.05,28.47a.5.5,0,0,1,0,.72A.49.49,0,0,1,63.14,185.52Z" transform="translate(0.01)"/><path class="cls-18" d="M52.55,191.64a.54.54,0,0,1-.45-.26L32.65,156.79a.52.52,0,0,1,.19-.7.51.51,0,0,1,.69.2L53,190.88a.51.51,0,0,1-.19.69A.59.59,0,0,1,52.55,191.64Z" transform="translate(0.01)"/><path class="cls-19" d="M33.78,151.68a2.28,2.28,0,0,0-2.27.23,7.11,7.11,0,0,0-3.21,5.56,2.25,2.25,0,0,0,.94,2.08l1.58.92a2.25,2.25,0,0,0,2.27-.22,7.13,7.13,0,0,0,3.21-5.57,2.25,2.25,0,0,0-.94-2.08C34.77,152.27,34.36,152,33.78,151.68Z" transform="translate(0.01)"/><path class="cls-20" d="M33.09,152.83c1.77-1,3.21-.2,3.21,1.85a7.13,7.13,0,0,1-3.21,5.57c-1.77,1-3.21.19-3.21-1.86A7.09,7.09,0,0,1,33.09,152.83Z" transform="translate(0.01)"/><polygon class="cls-21" points="90.59 173.95 90.59 176.49 88.49 175.16 90.59 173.95"/><path class="cls-17" d="M201.76,325.68c-5.7,2.72-52.23,7.3-90-12.5C72.59,292.66,51.47,272,9.84,214.83V211c41.63,57.13,62.75,77.83,101.9,98.35,37.79,19.8,84.32,15.22,90,12.5Z" transform="translate(0.01)"/><path class="cls-22" d="M201.76,325.68c-5.7,2.72-52.23,7.3-90-12.5C72.59,292.66,51.47,272,9.84,214.83V211c41.63,57.13,62.75,77.83,101.9,98.35,37.79,19.8,84.32,15.22,90,12.5Z" transform="translate(0.01)"/><path class="cls-7" d="M201.76,325.68c-5.7,2.72-52.23,7.3-90-12.5C72.59,292.66,51.47,272,9.84,214.83V211c41.63,57.13,62.75,77.83,101.9,98.35,37.79,19.8,84.32,15.22,90,12.5Z" transform="translate(0.01)"/><path class="cls-17" d="M201.76,321.85c-5.7,2.72-52.23,7.3-90-12.5C72.59,288.83,51.47,268.13,9.84,211l74.5-43C126,225.12,161.05,253.92,200.2,274.44c37.78,19.81,70.35,7.12,76.06,4.4Z" transform="translate(0.01)"/><path class="cls-23" d="M201.76,321.85c-5.7,2.72-52.23,7.3-90-12.5C72.59,288.83,51.47,268.13,9.84,211l74.5-43C126,225.12,161.05,253.92,200.2,274.44c37.78,19.81,70.35,7.12,76.06,4.4Z" transform="translate(0.01)"/><path class="cls-20" d="M90.58,174c-1.61-2.19-3.25-4.41-4.93-6.72L8.84,211.58c1.68,2.3,3.31,4.53,4.93,6.71Z" transform="translate(0.01)"/><path class="cls-19" d="M8.84,211.58v3.85c1.68,2.31,3.31,4.53,4.93,6.72v-3.86C12.15,216.11,10.52,213.88,8.84,211.58Z" transform="translate(0.01)"/><polygon class="cls-21" points="13.78 222.15 14.79 221.56 14.78 217.72 13.78 218.29 13.78 222.15"/><polygon class="cls-19" points="277.56 278.1 277.56 281.93 200.16 326.61 200.16 322.78 277.56 278.1"/><polygon class="cls-20" points="193.34 325.07 270.73 280.38 277.56 278.1 200.16 322.78 193.34 325.07"/><polyline class="cls-21" points="200.16 326.61 200.16 322.78 193.34 325.07 193.34 328.89 200.16 326.61"/></g><path id="Shadow-2" data-name="Shadow" class="cls-7" d="M213.46,313.08a19.88,19.88,0,0,1-8,2c-3.91.17-7.18-1.49-10.91-2.29-2.13-.46-4.5-.23-6.53-.89a11.55,11.55,0,0,1-5-3.29c-1.24-1.47-.81-2.87-1-4.66-.2-2-2.43-3.4-3.74-4.69a26.65,26.65,0,0,0-5.06-3.33c-4.74-2.87-9.4-5.41-13.83-8.76-3.63-2.74-9-5.75-13.8-5.29a6.25,6.25,0,0,0,1.32,4.07c2.47,3.9,6.28,6.46,10.22,8.68,2,1.14,4,2.36,6,3.43,1.61.85,3.86,1.75,3.79,4-.09,2.84-5.7,4.08-7.86,4.59a19.88,19.88,0,0,1-6.44,0c-3.33-.36-6.46-.89-8.63-3.69-1-1.32-1.4-3-2.68-4.19a12.81,12.81,0,0,0-4.49-2.63,8,8,0,0,1-4.3-3.08c-1.13-1.82-1-3.57-.94-5.62a5.82,5.82,0,0,0-1.53-4.54,12.15,12.15,0,0,0-2.63-1.69c-1-.55-1.94-1.31-2.93-1.92a12,12,0,0,0-3.87-1.29c-3.57-.77-4.55-.15-7.66,1.88-5.29,3.48-12.3,3.67-18.61,3.05C84,281.89,79.27,271.81,74.51,264c-1.82-3-2.7-5.72-5.9-7.07-3.47-1.46-5.88-2-7.72-5.53-3.94-7.61-7-15.82-11-23.42-3.34-6.3-4.66-13.22,1.93-17.51,3.06-2,6.92-4.32,8.89-7.45a4.19,4.19,0,0,0,.83-2.69,8.66,8.66,0,0,0-.32-1.53c-.2-.65-.33-1.32-.47-2-.07-.35-.19-.91-.19-.91-.2,0-.4.15-.6.2a2.12,2.12,0,0,1-1-.07,2.42,2.42,0,0,1-.74-.31c-.06-.05-.2-.27-.24-.29s-.32,0-.46.07a4.15,4.15,0,0,1-1.22.11,6.91,6.91,0,0,1-2-.66l17.08-9.87a18.88,18.88,0,0,1,3.39,4.71c2.69,4.94,4.86,9.43,9.1,13.34,5.46,5,11.12,9.44,14.49,16.27C108,239.14,129.8,250,147.73,261.2c11.36,7.11,21.88,16.31,31.57,25.48,5.54,5.24,11.89,8.74,18.92,11.64,2.47,1,5,2,7.49,2.89C208,302,210,303.1,212.2,304s5.46,1.66,5.47,4.58c0,1.89-1.27,2.79-2.72,3.67A16.69,16.69,0,0,1,213.46,313.08Z" transform="translate(0.01)"/><path class="cls-24" d="M78.87,145.78c-.05-.55-6-9.69-14.25-8.73s-15.15,7.5-11.24,19.21Z" transform="translate(0.01)"/><path class="cls-25" d="M91.15,163.69s14.76-3.05,14.94-16.15-32.82-8.65-42-5.22S24.55,156,27.49,169.3,65.62,172,65.62,172Z" transform="translate(0.01)"/><path class="cls-26" d="M103.61,148.56c-.16,2.93-.56,5.17-6.61,9.6s-4,2.48-13.66,6.34-14.72,5.16-27.17,7.58-10.91,3-16.29,2.48S28,172,29,169.08s2.68.14,5.91.94,3.15-1.21,6.7-.19-1,2,12-.62,17-6.71,24.88-9.64A69.52,69.52,0,0,0,92.22,153c2.73-1.63,1.43-2.7,2.86-4.68s-.45-3.08-3.16-4.84S104.07,139.93,103.61,148.56Z" transform="translate(0.01)"/><g id="Character-2" data-name="Character"><g id="Chest"><path class="cls-27" d="M42.63,181.38a1,1,0,0,0,.32.52c.64.55,1.89.1,2.33.83a7,7,0,0,1,.26.85c.38.94,1.73.89,2.51,1.28,1,.5.67,1.75,1.53,2.4s2.59-.36,3.53.43a4.45,4.45,0,0,1,.72,1.19,2.23,2.23,0,0,0,2.92.74c.48-.27.93-.74,1.47-.62.73.15.81,1.22,1.42,1.65,1.27.93,3-1.63,4.38-.82.44.27.7.77,1.2.94s1-.07,1.56,0c.35.07.66.26,1,.35a.84.84,0,0,0,.94-.3c.16-.31,0-.77.32-1a.84.84,0,0,1,.45-.08,3.69,3.69,0,0,0,2.38-1.07,4.31,4.31,0,0,1,3-.55,1.72,1.72,0,0,1,1.23.46,4.66,4.66,0,0,1,.4.68c.65,1.06,2.88.84,3.64,0a7,7,0,0,1,.76-1,1.92,1.92,0,0,1,1.61-.2,16.39,16.39,0,0,0,1.62.46,2.72,2.72,0,0,0,1.82-.42,12.3,12.3,0,0,1,1-.74c1.35-.68,3.18.38,4.41-.49,1-.74,1.06-2.52,2.24-3a4.58,4.58,0,0,1,1.48-.15,1.33,1.33,0,0,0,1.24-.69c.25-.64-.38-1.31-.33-2a1.49,1.49,0,0,1,1-1.19,7.09,7.09,0,0,1,1.66-.25,1.15,1.15,0,0,0,.61-.21,1.06,1.06,0,0,0,.26-.88c0-.85-.3-1.68-.29-2.53a2.05,2.05,0,0,1,1.25-2,2.79,2.79,0,0,0,.92-.26c.46-.34.31-1.05.22-1.62-.17-1,.47-.85.76-1.42s-.15-1.43.44-2.12a1.67,1.67,0,0,0,.42-.61c.11-.51-.46-.89-1-1.06s-1.09-.35-1.22-.85.32-1,.2-1.5c-.22-1-1.75-.62-2.19-1.42s-.58-1.68-1.33-2.25-1.86-.46-2.7-.92-.41-1.83-1.05-2.51-2.2-.19-2.84-1c-.32-.4-.27-1-.39-1.48a2.14,2.14,0,0,0-2-1.6c-.59,0-1.27.18-1.71-.22a2.81,2.81,0,0,1-.49-1c-.25-.59-2-6.12-15.49-4.21-1.29.18-13,5-17.24,9.16a10.38,10.38,0,0,1-2.27,1.61,3.46,3.46,0,0,0-1.7,2.6,13.18,13.18,0,0,1-.1,1.41c-.29,1.35-1.64,2.09-2.62,2.9a4.18,4.18,0,0,0-1.27,1.5c-.35.84.19,1.69-.22,2.56a4.17,4.17,0,0,1-1.87,1.56c-.72.42-1.45,1.05-1.44,1.87a6.33,6.33,0,0,1,0,.76c-.1,1.12-1.95,1.44-2,2.57a1.74,1.74,0,0,0,.86,1.38,3.18,3.18,0,0,1,1.17,1.19C42.79,179.78,42.45,180.7,42.63,181.38Z" transform="translate(0.01)"/><path class="cls-28" d="M81.26,155.51c3.77,1.42,6.46,2.67,7.37,16.42.65,9.83-2.79,12.65-4.43,13.55a15.33,15.33,0,0,1-6.41,1.32L78.87,193s6.77,3,7.38,8.43c-13.72-1.34-20.41-5.05-20.41-5.05L63,179.89a3.54,3.54,0,0,1-3.23.71c-4.1-1.46-5.45-6.24-3.55-8.43a3.87,3.87,0,0,1,6.33.23s-1.85-9.23,3.52-13.63C72.34,153.61,76.84,153.85,81.26,155.51Z" transform="translate(0.01)"/><path class="cls-29" d="M75.66,178.56a2.33,2.33,0,0,0,2.22,2.66,2.79,2.79,0,0,0,3-2.28Z" transform="translate(0.01)"/><path class="cls-30" d="M78.68,181.15a2,2,0,0,0-2.29-1.86,2.62,2.62,0,0,0-.68.18,2.36,2.36,0,0,0,2.17,1.75A2.68,2.68,0,0,0,78.68,181.15Z" transform="translate(0.01)"/><path class="cls-21" d="M75.21,170.22a1.45,1.45,0,0,1-1.34,1.45,1.27,1.27,0,0,1-1.44-1.19A1.45,1.45,0,0,1,73.77,169,1.27,1.27,0,0,1,75.21,170.22Z" transform="translate(0.01)"/><path class="cls-21" d="M85.52,168.6a1.47,1.47,0,0,1-1.34,1.45,1.28,1.28,0,0,1-1.45-1.19,1.47,1.47,0,0,1,1.35-1.45A1.27,1.27,0,0,1,85.52,168.6Z" transform="translate(0.01)"/><polygon class="cls-26" points="80.05 170.35 80.95 176.5 83.09 175.63 80.05 170.35"/><path class="cls-26" d="M77.79,186.8c-4.13-.17-10.49-1.08-13.4-5.51a9.06,9.06,0,0,0,2.5,4.5c2.88,2.48,11.28,3.18,11.28,3.18Z" transform="translate(0.01)"/><path class="cls-21" d="M73.59,165.76l-3,2.52a1.87,1.87,0,0,1,.26-2.66A1.92,1.92,0,0,1,73.59,165.76Z" transform="translate(0.01)"/><path class="cls-21" d="M86.16,165.31l-3.65-1A2,2,0,0,1,84.93,163,1.8,1.8,0,0,1,86.16,165.31Z" transform="translate(0.01)"/><path class="cls-27" d="M74,151.27c-5.68,1.33-12.8,6.74-12.74,15.38,0,5.75,1.82,7.24,2.29,7.89a1.81,1.81,0,0,0,2.36.62c1.91-1.25-.54-5.13,1.12-7,2.2-2.5.61-6,3.89-7.8a5.46,5.46,0,0,1,4.37-.38,1.52,1.52,0,0,0,.29.79,2.72,2.72,0,0,0,2.26.75,2.18,2.18,0,0,1-.42,1.43,1.48,1.48,0,0,0-.15,1.44c.53.8,2.06.2,2.58,1a.82.82,0,0,1-.11,1,1.37,1.37,0,0,0-.16-2.48c-.33-.13-.77-.17-.91-.5a.64.64,0,0,1,0-.41c.15-.61.79-1,1.33-1.29s1.1-.9.93-1.51-1-.84-1.65-1.09h0a4,4,0,0,1,2.93-1.33c2.75-.12,4.59,2.75,4.59,2.75A10.63,10.63,0,0,0,74,151.27Z" transform="translate(0.01)"/><path class="cls-28" d="M65,191.82c.45,2.67-.59,3-3.78,5.27s-5.6,3.64-6.71,4.43-2.32,10.93,3.11,23.32S68,240.32,71.54,247.14,80,266.78,89.1,273.32c8.2-6.21,29.27-42.12,29.27-42.12l-12.7-6.31-2.44-7.23a15.54,15.54,0,0,0-.19-11.33c-2.52-5.94-5-6-9.51-9.67a79.46,79.46,0,0,0-7.46-5.23s-3.93.57-5.46.76-2-.6-2.25-2.1Z" transform="translate(0.01)"/><path class="cls-26" d="M86.07,191.43c4.88-.61,8.28-.36,12.94,4.67S119,221,119,221l-10.15,9.52S91.16,203,87,198.47s-5.9-6.41-5.9-6.41Z" transform="translate(0.01)"/><path class="cls-1" d="M64.81,190.51c-.93,1.76-.64,5.09.39,13.26s2.23,22.69-5.46,25.43a63.33,63.33,0,0,0,4,6.65c9.3.05,28.22-4,39.5-18.19,5.82-10.73-1.84-17.87-7.2-19.57-4.25-1.35-9.63-4-13.72-5.66a14.47,14.47,0,0,1-4-2.34,3.3,3.3,0,0,0,.72,1.83s13.52,11.35,15,23.46c-10.59-4.44-15.67-9.25-20.68-13-4.77-3.58-7.37-5.9-8.28-10.31Z" transform="translate(0.01)"/><path class="cls-1" d="M69,243a33.34,33.34,0,0,1,2.56,4.17C75,254,80,266.78,89.1,273.32c8.2-6.21,29.27-42.12,29.27-42.12l-12.7-6.31C105.22,229.29,93.6,239,83,241.5S69,243,69,243Z" transform="translate(0.01)"/></g><g id="Mobile"><path class="cls-20" d="M119.88,190.88a.45.45,0,0,0-.38.07l-12.2,7.35a2,2,0,0,0-.79,1.08l-6.25,26.7c-.05.21,0,.35.08.4l1.7.94c.08.05.21,0,.37-.07L114.62,220a2.07,2.07,0,0,0,.79-1.09l6.25-26.69c0-.21,0-.35-.09-.41Z" transform="translate(0.01)"/><path class="cls-19" d="M108.52,199.7a1.64,1.64,0,0,0-.31.62L102,227c0,.2,0,.33.07.39l-1.68-.93c-.09,0-.13-.19-.08-.4l6.25-26.7a1.8,1.8,0,0,1,.31-.62Z" transform="translate(0.01)"/><path class="cls-21" d="M102.41,227.35,114.62,220a2.07,2.07,0,0,0,.79-1.09l6.25-26.69c.09-.4-.12-.54-.46-.34L109,199.24a2,2,0,0,0-.79,1.08L102,227C101.86,227.41,102.07,227.56,102.41,227.35Z" transform="translate(0.01)"/><path class="cls-19" d="M108.75,204.49l.64-2.72a2.22,2.22,0,0,1,.9-1.24l.48-.29c.62-.38,1-.1.83.61l-.64,2.72a2.29,2.29,0,0,1-.9,1.24l-.48.29C109,205.47,108.58,205.2,108.75,204.49Z" transform="translate(0.01)"/><path class="cls-20" d="M109.23,204.1a2.12,2.12,0,0,1,.87-1.14c.38-.23.62-.09.52.3a2.1,2.1,0,0,1-.86,1.14C109.38,204.64,109.14,204.5,109.23,204.1Z" transform="translate(0.01)"/><path class="cls-31" d="M109.57,203.9a1.09,1.09,0,0,1,.45-.59c.19-.11.31,0,.26.16a1,1,0,0,1-.44.58C109.65,204.17,109.53,204.1,109.57,203.9Z" transform="translate(0.01)"/><path class="cls-20" d="M109.72,202.08a2.19,2.19,0,0,1,.87-1.14c.38-.23.62-.09.52.31a2.17,2.17,0,0,1-.86,1.14C109.86,202.62,109.63,202.48,109.72,202.08Z" transform="translate(0.01)"/><path class="cls-31" d="M110.06,201.88a1.13,1.13,0,0,1,.44-.58c.2-.12.32-.05.27.15a1,1,0,0,1-.44.58C110.14,202.15,110,202.08,110.06,201.88Z" transform="translate(0.01)"/><path class="cls-21" d="M107,202.32l-.22-.12a.2.2,0,0,0-.22,0l-.24.14a.28.28,0,0,0-.1.15l-.56,2.42a.4.4,0,0,0,.18.43l.23.12a.25.25,0,0,0,.22,0l.23-.15a.17.17,0,0,0,.1-.14l.57-2.43A.4.4,0,0,0,107,202.32Z" transform="translate(0.01)"/><path class="cls-20" d="M106.36,205.31l.57-2.43a.4.4,0,0,0-.19-.42l-.22-.12a.21.21,0,0,0-.33.14l-.56,2.42a.4.4,0,0,0,.18.43l.23.12A.21.21,0,0,0,106.36,205.31Z" transform="translate(0.01)"/><path class="cls-21" d="M106,206.29l-.23-.12a.22.22,0,0,0-.21,0l-.24.15a.19.19,0,0,0-.1.14l-.57,2.43a.42.42,0,0,0,.19.42l.23.12a.2.2,0,0,0,.22,0l.23-.14a.24.24,0,0,0,.1-.15l.57-2.42A.41.41,0,0,0,106,206.29Z" transform="translate(0.01)"/><path class="cls-20" d="M105.43,209.28l.57-2.42a.43.43,0,0,0-.19-.43l-.23-.12a.21.21,0,0,0-.32.14l-.57,2.43a.42.42,0,0,0,.19.42l.23.12A.21.21,0,0,0,105.43,209.28Z" transform="translate(0.01)"/></g><path class="cls-28" d="M104.34,208.62l.3-1.25c-.17-1.94-1.72-2.6-2.36-.29-.51,1.82-3.09,5.07-3.52,7.39s-.07,4.49-2.34,7.23c-2.41,2.92-20.63,11.76-20.63,11.76L65.62,213.21s-4.08-10.24-9-13c-3.44,1.78-7.91,5.16-8.19,9.15-.35,5.16,2.22,10.16,7.53,19.74,5.07,9.14,8.58,14.42,11.21,17.52,3.25,3.84,6,5.19,13.67,1.05s14.41-11,22.13-17.37c3.72-3.06,6.21-4.72,8.91-7.85a14.72,14.72,0,0,0,2.6-3.88,8.73,8.73,0,0,0,.89-4.16,2.91,2.91,0,0,1,0-.78,6.39,6.39,0,0,1,.24-.74,4.91,4.91,0,0,0,.43-1.41,8.07,8.07,0,0,0-.16-1.55,5.66,5.66,0,0,1-.08-.72,3.65,3.65,0,0,1,.08-.74,5.79,5.79,0,0,0,.21-1.94,1,1,0,0,0-.61-.77s.29-.8.37-1.07a5.23,5.23,0,0,0,.22-1.18.54.54,0,0,0-.1-.45.57.57,0,0,0-.25-.11c-1.46-.31-2.47.82-3.26,1.87-2.06,2.72-2.78,4.86-5.14,7.35-3.24,3.44-4.19,1.68-4.19,1.68Z" transform="translate(0.01)"/><path class="cls-26" d="M75.82,233.64a24.6,24.6,0,0,0-5.25,3.43,11.23,11.23,0,0,1,4.68-4.69Z" transform="translate(0.01)"/><path class="cls-29" d="M115.49,205.92c-.26.81-.6,1.6-.93,2.38s-.7,1.55-1,2.32c-.18.39-.34.78-.53,1.17s-.4.76-.63,1.12A25.32,25.32,0,0,1,111,215l.6-1.12c.2-.38.41-.75.6-1.13s.39-.75.57-1.13.33-.77.5-1.16c.36-.78.73-1.55,1.12-2.3Z" transform="translate(0.01)"/><path class="cls-29" d="M115.82,209.12a9.91,9.91,0,0,1-.45,1.92c-.2.62-.43,1.23-.68,1.84s-.52,1.2-.82,1.79a14.52,14.52,0,0,1-1,1.71c.26-.61.5-1.21.76-1.81l.74-1.81.75-1.81C115.38,210.35,115.63,209.75,115.82,209.12Z" transform="translate(0.01)"/><g id="Bottom"><path class="cls-28" d="M218.67,306.53c-.67-2.21-2-1.48-6.66-4.07-.94-.53-1.93-1.08-2.92-1.65h0c-3.65-2.1-7.37-4.41-9.48-6.51-2.68-2.69-6-6.1-6.93-7.21s-2.09-2.7-3.47-4.54S181.81,271.6,172,259.86c-2.61-3.11-3.76-4.07-13.33-9.54-11.57-6.62-30.54-15.16-30.54-15.16L96.15,247.25c4.8,15.18,12.67,21.12,26,23.93,14.95,3.14,37.19,4.28,37.19,4.28a35.28,35.28,0,0,0,6.58,7.19,93.8,93.8,0,0,0,13.14,9.23c2.68,1.78,4.42,3,5.38,3.79a6.72,6.72,0,0,1,2.74,3.7c.46,1.89.27,4.75,1.86,6.43s2.71,1.59,5.14,1.61,3.12-.21,5.3,1.51c2.34,1.83,3.82,5.08,11,4.17C215.71,312.42,219.34,308.76,218.67,306.53Z" transform="translate(0.01)"/><path class="cls-26" d="M151.75,275c-.29-3.89-1.22-20.48-2.36-29.58-4.34-2.22-8.39-4.18-12.14-6l-17.7,7L109.31,266.2a37.4,37.4,0,0,0,12.87,5C131.61,273.16,143.93,274.35,151.75,275Z" transform="translate(0.01)"/><path class="cls-26" d="M159.37,275.46a22.1,22.1,0,0,1-1.94-5.91,19.77,19.77,0,0,0,.66,5.84Z" transform="translate(0.01)"/><path class="cls-28" d="M85.7,269.36c7.28,11.05,21.06,10.69,29.79,5.59,6.49-3.79,12.35-15.08,16.82-25.16,6.2-13.95,9.74-27.49,8.61-32.77-.78-3.63-3-4.55-6-5.26-4.64-1.08-9.33.85-18.27,9.93-7.93,8.06-11.93,14.16-20.46,25.56a36.3,36.3,0,0,0-8.67,6.69,12.88,12.88,0,0,0-1.83,15.34Z" transform="translate(0.01)"/><path class="cls-26" d="M92.49,264.93c-.66-3.46-.52-13,3.67-17.65a24,24,0,0,0-3.3,2.07C90.79,253.56,90.21,258.79,92.49,264.93Z" transform="translate(0.01)"/><path class="cls-28" d="M161.31,295.11a22.48,22.48,0,0,1-8.7-10.4c-1.42-3.36-2.12-5.24-2.36-7.57s-.6-5.3-1.22-13-.67-18.45-1.9-31c-1.71-17.49-7.24-20.11-12.25-21.34,0,0-7.38,4.35-9.28,12.93-1.64,7.44.25,16.2,2.86,26,1.65,6.21,4.3,12.21,5.66,16.14s3.32,9.49,3.83,11.49a16.93,16.93,0,0,1,.64,6.19c-.29,1.84-1.5,4.31-.69,6.38s1.85,2.41,4,3.33,2.88,1,4.2,3.28c1.43,2.49,1.5,6.16,8.32,7.73,3.57.83,8.08-.26,11.38-2.26a3.11,3.11,0,0,0,1.73-3.05C167.36,298.33,164.42,297.18,161.31,295.11Z" transform="translate(0.01)"/><path class="cls-26" d="M126.38,235.77c-.54,2.12-1.45,4.14.39,14.85.48,2.84,1,5.58,1.47,7.73.56-1.09,1.11-2.19,1.64-3.29C128.31,249.68,125.84,240.5,126.38,235.77Z" transform="translate(0.01)"/></g></g><path class="cls-18" d="M215.09,316.52a.48.48,0,0,1-.28-.08.51.51,0,0,1-.15-.7l26-40.62a.5.5,0,0,1,.7-.15.5.5,0,0,1,.16.7l-26,40.62A.51.51,0,0,1,215.09,316.52Z" transform="translate(0.01)"/><path class="cls-18" d="M224.67,310.91a.57.57,0,0,1-.22,0,.52.52,0,0,1-.24-.68l16.4-35a.51.51,0,1,1,.92.43l-16.4,35A.5.5,0,0,1,224.67,310.91Z" transform="translate(0.01)"/><path class="cls-18" d="M205.26,322.09a.51.51,0,0,1-.4-.82l35.81-46.19a.51.51,0,0,1,.71-.09.52.52,0,0,1,.09.72l-35.81,46.18A.51.51,0,0,1,205.26,322.09Z" transform="translate(0.01)"/><path class="cls-18" d="M240.38,302.09h0a.5.5,0,0,1-.49-.52l.69-26.19a.51.51,0,0,1,.51-.5h0a.51.51,0,0,1,.5.52l-.69,26.19A.52.52,0,0,1,240.38,302.09Z" transform="translate(0.01)"/><path class="cls-18" d="M260.33,290.53a.53.53,0,0,1-.31-.11L240.76,275.8a.51.51,0,1,1,.62-.81l19.26,14.62a.52.52,0,0,1,.1.72A.53.53,0,0,1,260.33,290.53Z" transform="translate(0.01)"/><path class="cls-18" d="M272.67,283.07h-.12L241,275.89a.51.51,0,0,1-.39-.61.51.51,0,0,1,.61-.38l31.6,7.16a.52.52,0,0,1,.38.61A.5.5,0,0,1,272.67,283.07Z" transform="translate(0.01)"/><path class="cls-18" d="M249.72,296.73a.52.52,0,0,1-.48-.31l-8.64-20.83a.51.51,0,0,1,.27-.67.52.52,0,0,1,.67.28L250.19,296a.52.52,0,0,1-.28.67A.63.63,0,0,1,249.72,296.73Z" transform="translate(0.01)"/><path class="cls-19" d="M241.85,270.83a2.23,2.23,0,0,0-2.26.22,7.11,7.11,0,0,0-3.22,5.57,2.25,2.25,0,0,0,.95,2.08l1.58.91a2.25,2.25,0,0,0,2.27-.22,7.12,7.12,0,0,0,3.21-5.56,2.26,2.26,0,0,0-.95-2.09Z" transform="translate(0.01)"/><path class="cls-20" d="M241.17,272c1.77-1,3.21-.19,3.21,1.86a7.12,7.12,0,0,1-3.21,5.56c-1.78,1-3.21.19-3.21-1.86A7.1,7.1,0,0,1,241.17,272Z" transform="translate(0.01)"/><path class="cls-17" d="M245.78,257a1.69,1.69,0,0,0-2.05,1.21L213.41,376.44a6.39,6.39,0,0,1-10,4.21l-1.68,2.9a11.17,11.17,0,0,0,5.58,1.6,9.19,9.19,0,0,0,3.58-.72,10.18,10.18,0,0,0,5.78-7.16L247,259.09A1.68,1.68,0,0,0,245.78,257Z" transform="translate(0.01)"/><path class="cls-15" d="M245.78,257a1.69,1.69,0,0,0-2.05,1.21L213.41,376.44a6.39,6.39,0,0,1-10,4.21l-1.68,2.9a11.17,11.17,0,0,0,5.58,1.6,9.19,9.19,0,0,0,3.58-.72,10.18,10.18,0,0,0,5.78-7.16L247,259.09A1.68,1.68,0,0,0,245.78,257Z" transform="translate(0.01)"/><path class="cls-1" d="M68.15,169.93c-.22-1.65,1.72-2.32,5.72-2.81,2.42-.29,12.79-1.65,12.79-1.65h0c3.21-.19,3.77.75,3.92,2.63.26,3.26,0,5.37-3.51,5.81-2.39.3-4.66-.69-5-3.45L82,169.6a1.16,1.16,0,0,0-1.3-1h0a1.15,1.15,0,0,0-1,1.29l.1.76a4.93,4.93,0,0,1-.12,1.87c-.42,1.71-2.17,4.53-6.4,4.06S68.44,172.16,68.15,169.93Z" transform="translate(0.01)"/></g><polygon class="cls-32" points="358.21 81.6 309.21 97.28 309.21 0 358.21 0 358.21 81.6"/><polygon class="cls-33" points="357.21 148.33 381.21 156.01 381.21 108.36 357.21 108.36 357.21 148.33"/><polygon class="cls-34" points="397.21 39.97 421.21 47.65 421.21 0 397.21 0 397.21 39.97"/><polygon class="cls-35" points="439.21 123.77 407.21 134.01 407.21 70.48 439.21 70.48 439.21 123.77"/><path class="cls-25" d="M407.22,131.77v-.07a28.94,28.94,0,0,1,3.88-12,31.2,31.2,0,0,1,2.11-3.25l.16-.21c.31-.42.63-.84,1-1.24l.27-.31c.22-.25.42-.5.64-.74l.15-.15c4.89-5.31,10.77-7.75,14.9-5.72h0l.13.07.15.07.16.11,4.61,2.65-1.2,2.06c1.36,4.56.25,11.2-3.36,17.54-3.71,6.53-9.09,11-13.84,12.09l-1.16,2-4.47-2.58-.11-.08-.1,0a4.78,4.78,0,0,1-.63-.45.71.71,0,0,1-.14-.1,6.05,6.05,0,0,1-.78-.74s0,0,0,0a11.18,11.18,0,0,1-2.35-7.51C407.17,132.67,407.19,132.22,407.22,131.77Z" transform="translate(0.01)"/><path class="cls-24" d="M415.79,144.65c5.44,3,14.16-2.14,19.48-11.49s5.22-19.36-.22-22.37-14.16,2.15-19.48,11.5S410.35,141.65,415.79,144.65Z" transform="translate(0.01)"/><path class="cls-36" d="M418.61,139.69c3.85,2.12,10-1.52,13.77-8.13s3.69-13.68-.15-15.81-10,1.52-13.77,8.13S414.77,137.57,418.61,139.69Z" transform="translate(0.01)"/><path class="cls-24" d="M427.42,121.36c.4.23.6.86.59,1.88v.44L425.74,125v-.31c0-.48-.07-.77-.21-.88a.51.51,0,0,0-.56,0,1.4,1.4,0,0,0-.57.63,2.16,2.16,0,0,0-.2.85q0,.56.27.72a1.23,1.23,0,0,0,.67.17c.27,0,.57,0,.88,0a2,2,0,0,1,.89.11,1.24,1.24,0,0,1,.67.6,3,3,0,0,1,.25,1.44,5.83,5.83,0,0,1-2.33,4.81v.94l-1.16.66v-.94c-.84.37-1.44.39-1.81.07a2.88,2.88,0,0,1-.55-2.16l2.19-1.24v.24a1.56,1.56,0,0,0,.15.75c.11.18.28.21.51.08a1.35,1.35,0,0,0,.55-.63,2,2,0,0,0,.18-.79c0-.37-.08-.62-.27-.72a1.29,1.29,0,0,0-.71-.15,7.54,7.54,0,0,0-.91.07,2.16,2.16,0,0,1-.92-.08,1.36,1.36,0,0,1-.7-.61,3.19,3.19,0,0,1-.27-1.52,5.65,5.65,0,0,1,.69-2.81,6.69,6.69,0,0,1,2-2.09l0-1.45,1.15-.66v1.45A2.08,2.08,0,0,1,427.42,121.36Z" transform="translate(0.01)"/><path class="cls-37" d="M417,144.39a4,4,0,0,0,1.38-1.46c.8-1.36.81-2.84,0-3.3-3.68-2.22-3.69-9.28,0-15.76.77-1.36.76-2.83,0-3.27s-2.06.32-2.84,1.68a28,28,0,0,0-3.93,13.42c0,4.18,1.4,7.32,3.94,8.84A1.43,1.43,0,0,0,417,144.39Z" transform="translate(0.01)"/><path class="cls-38" d="M417,125.39a4.12,4.12,0,0,0,1.42-1.52,22.94,22.94,0,0,1,2.93-4.07c1-1.11,1.46-2.75,1-3.65s-1.66-.73-2.67.38a32.78,32.78,0,0,0-4.14,5.75c-.78,1.37-.76,2.83,0,3.27A1.46,1.46,0,0,0,417,125.39Z" transform="translate(0.01)"/><ellipse class="cls-39" cx="132.86" cy="30.47" rx="32.09" ry="18.03" transform="translate(54.16 141.75) rotate(-67.65)"/><path class="cls-25" d="M309.25,94.44v-.1a44.35,44.35,0,0,1,5.94-18.41,52.07,52.07,0,0,1,3.24-5l.25-.33c.48-.64,1-1.27,1.48-1.89l.41-.48c.33-.38.64-.77,1-1.13a2.55,2.55,0,0,1,.24-.23c7.5-8.14,16.52-11.9,22.85-8.78v0l.21.12.22.1c.09.05.16.12.25.17l7.07,4.07-1.83,3.16c2.08,7,.38,17.17-5.16,26.9-5.7,10-13.94,16.87-21.23,18.53l-1.78,3.06-6.86-4-.17-.11c-.05,0-.1,0-.15-.06a11.4,11.4,0,0,1-1-.7l-.21-.15a11.73,11.73,0,0,1-1.2-1.14l-.05-.06c-2.34-2.64-3.61-6.6-3.61-11.52C309.17,95.82,309.2,95.13,309.25,94.44Z" transform="translate(0.01)"/><path class="cls-24" d="M322.39,114.19c8.34,4.61,21.71-3.28,29.87-17.62s8-29.7-.33-34.3-21.72,3.28-29.87,17.62S314.05,109.59,322.39,114.19Z" transform="translate(0.01)"/><path class="cls-36" d="M326.72,106.59c5.89,3.25,15.35-2.33,21.12-12.47s5.66-21-.24-24.25-15.35,2.33-21.12,12.47S320.82,103.33,326.72,106.59Z" transform="translate(0.01)"/><path class="cls-24" d="M340.22,78.47c.63.36.93,1.32.92,2.89V82l-3.47,2v-.47c0-.75-.1-1.19-.31-1.35s-.51-.13-.87.08a2.1,2.1,0,0,0-.86,1,3.1,3.1,0,0,0-.31,1.31c0,.56.13.93.4,1.1a2,2,0,0,0,1,.26c.41,0,.87,0,1.35-.06a3.21,3.21,0,0,1,1.36.17,1.91,1.91,0,0,1,1,.92,4.39,4.39,0,0,1,.4,2.21,9,9,0,0,1-3.58,7.38v1.43l-1.78,1V97.52c-1.28.57-2.21.6-2.78.1s-.85-1.6-.84-3.3l3.36-1.91v.37a2.1,2.1,0,0,0,.24,1.15c.16.28.42.32.77.12a2,2,0,0,0,.85-1,3.26,3.26,0,0,0,.28-1.2q0-.87-.42-1.11a1.94,1.94,0,0,0-1.09-.23,12.09,12.09,0,0,0-1.4.11,3.1,3.1,0,0,1-1.4-.13,2,2,0,0,1-1.08-.93,4.75,4.75,0,0,1-.41-2.33A8.57,8.57,0,0,1,332.66,83a9.91,9.91,0,0,1,3-3.2l0-2.23,1.77-1,0,2.23A3.18,3.18,0,0,1,340.22,78.47Z" transform="translate(0.01)"/><path class="cls-37" d="M324.3,113.8a6.36,6.36,0,0,0,2.13-2.25c1.22-2.08,1.24-4.35,0-5.06-5.65-3.4-5.65-14.24,0-24.16,1.19-2.1,1.17-4.34-.05-5s-3.18.48-4.37,2.58c-3.89,6.84-6,14.15-6,20.57s2.15,11.23,6,13.56A2.17,2.17,0,0,0,324.3,113.8Z" transform="translate(0.01)"/><path class="cls-38" d="M324.29,84.65a6.38,6.38,0,0,0,2.18-2.32A34.66,34.66,0,0,1,331,76.08c1.55-1.71,2.24-4.22,1.53-5.6s-2.54-1.12-4.09.59a50.2,50.2,0,0,0-6.35,8.82c-1.19,2.1-1.17,4.34.05,5A2.2,2.2,0,0,0,324.29,84.65Z" transform="translate(0.01)"/><path class="cls-5" d="M127.83,166.29a18,18,0,0,1-.76,4.55c-.76,2.6-7.59,3.25-7.59,4s5.64.65,7.48,1.84,1.62,7.05,2.92,7.27.76-6.94,2.61-7.81,6.82-1,7.15-2-5.75-.52-7.8-2.58-2.28-8.24-2.93-8.56S127.92,165,127.83,166.29Z" transform="translate(0.01)"/><polygon class="cls-21" points="314.07 197.67 308.67 200.79 308.67 210.14 314.07 207.03 314.07 197.67"/><path class="cls-5" d="M318.2,175.12l17.46,10.08V165a2.71,2.71,0,0,1,4.14-2.39l86.38,49.88c3.34,1.92,5,4.45,5,7v84.19c0,2.52-1.67,5.05-5,7l-.12.07c-6.68,3.85-17.5,3.85-24.18,0L315.5,260.86a3.15,3.15,0,0,1-1.44-2.49V175.84l1.35-.78A3.09,3.09,0,0,1,318.2,175.12Z" transform="translate(0.01)"/><path class="cls-40" d="M426.18,226.48c6.65-3.84,6.65-10.12,0-14L339.8,162.64a3.09,3.09,0,0,0-2.79,0c-.75.43-.71,1.15.09,1.61l84,48.48a31.67,31.67,0,0,1,2.83,1.75c3.89,2.92,4.25,6.83.89,9.58a13.67,13.67,0,0,1-2.86,1.68c-4.82,2-11.71,1.81-16.84-.51-.84-.37-2.13-1.12-2.92-1.58l-84-48.48a3.09,3.09,0,0,0-2.79-.06c-.75.43-.71,1.16.09,1.61l86.38,49.88c6.65,3.84,17.53,3.84,24.18,0Z" transform="translate(0.01)"/><path class="cls-3" d="M426.18,226.48c6.65-3.84,6.65-10.12,0-14L339.8,162.64a3.09,3.09,0,0,0-2.79,0c-.75.43-.71,1.15.09,1.61l84,48.48a31.67,31.67,0,0,1,2.83,1.75c3.89,2.92,4.25,6.83.89,9.58a13.67,13.67,0,0,1-2.86,1.68c-4.82,2-11.71,1.81-16.84-.51-.84-.37-2.13-1.12-2.92-1.58l-84-48.48a3.09,3.09,0,0,0-2.79-.06c-.75.43-.71,1.16.09,1.61l86.38,49.88c6.65,3.84,17.53,3.84,24.18,0Z" transform="translate(0.01)"/><path class="cls-41" d="M428.35,231.5a.29.29,0,0,0,.21-.08,10.17,10.17,0,0,0,1.18-1.19.33.33,0,0,0-.5-.42,9,9,0,0,1-1.11,1.12.33.33,0,0,0,0,.46A.36.36,0,0,0,428.35,231.5Z" transform="translate(0.01)"/><path class="cls-41" d="M412.91,236a29.93,29.93,0,0,1-3.31-.3.33.33,0,0,1-.27-.37.33.33,0,0,1,.37-.28,28.5,28.5,0,0,0,3.23.3.34.34,0,0,1,.32.34.34.34,0,0,1-.33.31Zm3-.37a.32.32,0,0,1,.3-.34,30.25,30.25,0,0,0,3.21-.43.32.32,0,1,1,.12.63,27,27,0,0,1-3.28.44h0A.32.32,0,0,1,415.88,235.6Zm-9.53-.63a20.51,20.51,0,0,1-3.12-1.14.31.31,0,0,1-.16-.43.32.32,0,0,1,.43-.16,22.07,22.07,0,0,0,3,1.11.33.33,0,0,1-.09.64Zm16-.56a.32.32,0,0,1,.2-.41,19,19,0,0,0,3-1.28.33.33,0,0,1,.44.14.32.32,0,0,1-.13.44,20.73,20.73,0,0,1-3.06,1.32h-.11A.31.31,0,0,1,422.32,234.41Zm-22-2.16-2.85-1.64a.33.33,0,0,1-.11-.45.32.32,0,0,1,.44-.12l2.84,1.64a.33.33,0,0,1,.12.45.33.33,0,0,1-.28.16A.32.32,0,0,1,400.32,232.25ZM394.63,229l-2.84-1.64a.32.32,0,1,1,.32-.56L395,228.4a.33.33,0,0,1-.17.61A.33.33,0,0,1,394.63,229ZM389,225.68,386.1,224a.33.33,0,1,1,.33-.56l2.84,1.64a.32.32,0,0,1,.12.44.31.31,0,0,1-.28.16A.29.29,0,0,1,389,225.68Zm-5.69-3.28-2.84-1.64a.33.33,0,0,1,.32-.57l2.84,1.64a.33.33,0,0,1,.12.45.33.33,0,0,1-.28.16A.32.32,0,0,1,383.26,222.4Zm-5.69-3.28-2.84-1.65a.32.32,0,1,1,.32-.56l2.85,1.64a.34.34,0,0,1,.12.45.33.33,0,0,1-.28.16A.47.47,0,0,1,377.57,219.12Zm-5.68-3.29L369,214.19a.33.33,0,1,1,.33-.56l2.84,1.64a.33.33,0,0,1-.16.61A.3.3,0,0,1,371.89,215.83Zm-5.69-3.28-2.84-1.64a.33.33,0,0,1,.32-.57l2.85,1.65a.32.32,0,0,1,.11.44.33.33,0,0,1-.28.16A.32.32,0,0,1,366.2,212.55Zm-5.69-3.28-2.84-1.64a.33.33,0,1,1,.33-.57l2.84,1.64a.33.33,0,0,1,.12.45.33.33,0,0,1-.28.16A.35.35,0,0,1,360.51,209.27ZM354.83,206,352,204.34a.32.32,0,0,1-.11-.44.31.31,0,0,1,.44-.12l2.84,1.64a.33.33,0,0,1-.16.61A.33.33,0,0,1,354.83,206Zm-5.69-3.28-2.84-1.64a.33.33,0,0,1-.12-.45.32.32,0,0,1,.44-.11l2.85,1.64a.33.33,0,0,1,.12.44.34.34,0,0,1-.45.12Zm-5.68-3.28-2.85-1.64a.34.34,0,0,1-.12-.45.33.33,0,0,1,.45-.12l2.84,1.64a.33.33,0,0,1,.12.45.33.33,0,0,1-.28.16A.29.29,0,0,1,343.46,199.42Zm-5.69-3.29-2.84-1.64a.32.32,0,1,1,.32-.56l2.84,1.64a.33.33,0,0,1,.12.45.31.31,0,0,1-.44.11Zm-5.69-3.28-2.84-1.64a.32.32,0,0,1-.12-.44.33.33,0,0,1,.45-.12l2.84,1.64a.33.33,0,0,1,.12.44.32.32,0,0,1-.28.17A.34.34,0,0,1,332.08,192.85Zm-5.68-3.28-2.85-1.64a.33.33,0,0,1,.33-.57l2.84,1.64a.33.33,0,0,1,.12.45.33.33,0,0,1-.28.16A.29.29,0,0,1,326.4,189.57Z" transform="translate(0.01)"/><path class="cls-41" d="M319.46,187.14a.32.32,0,0,0,.32-.33v-1.06l.92.53a.33.33,0,0,0,.45-.12.32.32,0,0,0-.12-.44l-1.41-.82a.38.38,0,0,0-.33,0,.34.34,0,0,0-.16.29v1.62A.33.33,0,0,0,319.46,187.14Z" transform="translate(0.01)"/><path class="cls-41" d="M319.13,252v-3.26a.33.33,0,0,1,.33-.33.32.32,0,0,1,.32.33V252a.32.32,0,0,1-.32.32A.32.32,0,0,1,319.13,252Zm0-6.52v-3.27a.32.32,0,0,1,.33-.32.32.32,0,0,1,.32.32v3.27a.32.32,0,0,1-.32.32A.32.32,0,0,1,319.13,245.51Zm0-6.53v-3.26a.32.32,0,0,1,.33-.32.32.32,0,0,1,.32.32V239a.32.32,0,0,1-.32.33A.33.33,0,0,1,319.13,239Zm0-6.52V229.2a.32.32,0,0,1,.33-.32.32.32,0,0,1,.32.32v3.26a.32.32,0,0,1-.32.33A.33.33,0,0,1,319.13,232.46Zm0-6.52v-3.26a.32.32,0,0,1,.33-.32.32.32,0,0,1,.32.32v3.26a.32.32,0,0,1-.32.33A.33.33,0,0,1,319.13,225.94Zm0-6.52v-3.26a.33.33,0,0,1,.33-.33.32.32,0,0,1,.32.33v3.26a.32.32,0,0,1-.32.33A.33.33,0,0,1,319.13,219.42Zm0-6.52v-3.26a.33.33,0,0,1,.33-.33.32.32,0,0,1,.32.33v3.26a.32.32,0,0,1-.32.32A.32.32,0,0,1,319.13,212.9Zm0-6.52v-3.26a.33.33,0,0,1,.33-.33.32.32,0,0,1,.32.33v3.26a.32.32,0,0,1-.32.32A.32.32,0,0,1,319.13,206.38Zm0-6.52V196.6a.33.33,0,0,1,.33-.33.32.32,0,0,1,.32.33v3.26a.32.32,0,0,1-.32.32A.32.32,0,0,1,319.13,199.86Zm0-6.52v-3.27a.32.32,0,0,1,.33-.32.32.32,0,0,1,.32.32v3.27a.32.32,0,0,1-.32.32A.32.32,0,0,1,319.13,193.34Z" transform="translate(0.01)"/><path class="cls-41" d="M320.87,258.05a.31.31,0,0,0,.28-.16.32.32,0,0,0-.12-.44l-1.25-.72v-1.44a.32.32,0,0,0-.32-.33.33.33,0,0,0-.33.33v1.63a.33.33,0,0,0,.16.28l1.41.81A.35.35,0,0,0,320.87,258.05Z" transform="translate(0.01)"/><path class="cls-41" d="M412.9,307.7a30,30,0,0,1-3.3-.3.34.34,0,0,1-.28-.37.33.33,0,0,1,.37-.28,28.93,28.93,0,0,0,3.23.3.34.34,0,0,1,.32.34.33.33,0,0,1-.33.31Zm3-.37a.32.32,0,0,1,.3-.34,30.25,30.25,0,0,0,3.21-.43.32.32,0,0,1,.38.25.33.33,0,0,1-.25.39,32.14,32.14,0,0,1-3.29.44h0A.32.32,0,0,1,415.87,307.33Zm-9.52-.63a21.77,21.77,0,0,1-3.13-1.14.32.32,0,0,1-.16-.43.31.31,0,0,1,.43-.16,20.82,20.82,0,0,0,3,1.1.33.33,0,0,1,.23.41.32.32,0,0,1-.31.23Zm16-.56a.32.32,0,0,1,.2-.41,19.52,19.52,0,0,0,3-1.27.32.32,0,1,1,.31.57,19.85,19.85,0,0,1-3.06,1.32l-.1,0A.32.32,0,0,1,422.31,306.14Zm-22-2.17-2.84-1.64a.32.32,0,1,1,.32-.56l2.85,1.64a.33.33,0,0,1-.17.61A.33.33,0,0,1,400.31,304Zm-5.68-3.28-2.85-1.64a.33.33,0,0,1,.33-.57l2.84,1.65a.32.32,0,0,1,.12.44.33.33,0,0,1-.28.16A.29.29,0,0,1,394.63,300.69Zm-5.69-3.28-2.84-1.65a.32.32,0,1,1,.32-.56l2.85,1.64a.33.33,0,0,1-.17.61A.32.32,0,0,1,388.94,297.41Zm-5.69-3.29-2.84-1.64a.32.32,0,0,1-.12-.44.33.33,0,0,1,.45-.12l2.84,1.64a.33.33,0,0,1,.12.44.32.32,0,0,1-.28.17A.34.34,0,0,1,383.25,294.12Zm-5.68-3.28-2.85-1.64a.34.34,0,0,1-.12-.45.32.32,0,0,1,.45-.11l2.84,1.64a.32.32,0,0,1,.12.44.31.31,0,0,1-.28.16A.29.29,0,0,1,377.57,290.84Zm-5.69-3.28L369,285.92a.33.33,0,0,1,.32-.57l2.85,1.64a.33.33,0,0,1-.17.61A.32.32,0,0,1,371.88,287.56Zm-5.69-3.29-2.84-1.64a.33.33,0,1,1,.33-.56l2.84,1.64a.33.33,0,0,1,.12.45.33.33,0,0,1-.28.16A.37.37,0,0,1,366.19,284.27ZM360.51,281l-2.85-1.64a.32.32,0,0,1-.11-.44.32.32,0,0,1,.44-.12l2.84,1.64a.33.33,0,0,1-.16.61A.33.33,0,0,1,360.51,281Zm-5.69-3.28L352,276.07a.33.33,0,0,1,.32-.57l2.85,1.64a.33.33,0,0,1-.17.61A.32.32,0,0,1,354.82,277.71Zm-5.68-3.28-2.85-1.65a.33.33,0,1,1,.33-.56l2.84,1.64a.33.33,0,0,1,.12.45.33.33,0,0,1-.28.16A.29.29,0,0,1,349.14,274.43Zm-5.69-3.29-2.84-1.64a.32.32,0,1,1,.32-.56l2.85,1.64a.33.33,0,0,1-.17.61A.33.33,0,0,1,343.45,271.14Zm-5.69-3.28-2.84-1.64a.33.33,0,0,1-.12-.45.34.34,0,0,1,.45-.12l2.84,1.65a.33.33,0,0,1,.12.44.31.31,0,0,1-.28.16A.33.33,0,0,1,337.76,267.86Zm-5.68-3.28-2.85-1.64a.34.34,0,0,1-.12-.45.33.33,0,0,1,.45-.12L332.4,264a.33.33,0,0,1,.12.45.33.33,0,0,1-.28.16A.29.29,0,0,1,332.08,264.58Zm-5.69-3.29-2.84-1.64a.32.32,0,1,1,.32-.56l2.85,1.64a.33.33,0,0,1-.17.61A.33.33,0,0,1,326.39,261.29Z" transform="translate(0.01)"/><path class="cls-41" d="M428.35,303.23a.34.34,0,0,0,.21-.08,10.17,10.17,0,0,0,1.18-1.19.33.33,0,1,0-.5-.42,9,9,0,0,1-1.11,1.12.33.33,0,0,0,0,.46A.36.36,0,0,0,428.35,303.23Z" transform="translate(0.01)"/><g class="cls-42"><path class="cls-43" d="M335.66,180.75v-9.81a2.57,2.57,0,0,1,1.15-2l.4-.23a2.58,2.58,0,0,1,2.3,0l90.66,52.35-13.5,7.79-79.86-46.1A2.54,2.54,0,0,1,335.66,180.75Z" transform="translate(0.01)"/><path class="cls-44" d="M339.51,168.71l90.66,52.35-2.7,1.56-90.66-52.35a.7.7,0,0,1,0-1.33l.4-.23A2.58,2.58,0,0,1,339.51,168.71Z" transform="translate(0.01)"/><path class="cls-43" d="M330.26,183.87v-9.81a2.54,2.54,0,0,1,1.15-2l.4-.23a2.52,2.52,0,0,1,2.3,0l90.66,52.35L411.27,232l-79.86-46.11A2.52,2.52,0,0,1,330.26,183.87Z" transform="translate(0.01)"/><path class="cls-44" d="M334.11,171.83l90.66,52.35-2.7,1.55-90.66-52.34a.7.7,0,0,1,0-1.33l.4-.23A2.52,2.52,0,0,1,334.11,171.83Z" transform="translate(0.01)"/><path class="cls-43" d="M324.86,187v-9.82a2.52,2.52,0,0,1,1.15-2l.4-.23a2.52,2.52,0,0,1,2.3,0l90.66,52.34-13.5,7.8L326,189A2.54,2.54,0,0,1,324.86,187Z" transform="translate(0.01)"/><path class="cls-44" d="M328.71,175l90.66,52.34-2.7,1.56L326,176.51c-.64-.37-.64-1,0-1.33l.4-.23A2.52,2.52,0,0,1,328.71,175Z" transform="translate(0.01)"/></g><path class="cls-40" d="M303.25,205.24V224.4a2.57,2.57,0,0,0,1.15,2l35,20.19.07,0c2.64,1.51,5,1.71,6.79.8.54-.27,2.59-1.47,3.08-1.79,1.59-1,2.55-3,2.55-5.88,0-5.83-4.11-13-9.27-16.25h0l-32.77-18.92-.17-.12c-.46-.36-.4-.87.17-1.21l4.25-2.45v-3.12l-9.66,5.57a2.62,2.62,0,0,0-1.13,1.77A2,2,0,0,0,303.25,205.24Z" transform="translate(0.01)"/><path class="cls-3" d="M303.25,205.24V224.4a2.57,2.57,0,0,0,1.15,2l35,20.19.07,0c2.64,1.51,5,1.71,6.79.8.54-.27,2.59-1.47,3.08-1.79,1.59-1,2.55-3,2.55-5.88,0-5.83-4.11-13-9.27-16.25h0l-32.77-18.92-.17-.12c-.46-.36-.4-.87.17-1.21l4.25-2.45v-3.12l-9.66,5.57a2.62,2.62,0,0,0-1.13,1.77A2,2,0,0,0,303.25,205.24Z" transform="translate(0.01)"/><path class="cls-24" d="M303.25,205.24V224.4a2.57,2.57,0,0,0,1.15,2l35,20.19.07,0c3.44,2,6.47,1.7,8.2-.32a7.53,7.53,0,0,0,1.52-5c0-6-4.38-13.44-9.79-16.56L306,205.47l-1.55-.9c-.56-.33-1-.13-1.13.44A2,2,0,0,0,303.25,205.24Z" transform="translate(0.01)"/><path class="cls-19" d="M341.06,236.65c0,2.58-1.81,3.63-4.05,2.34a9,9,0,0,1-4.05-7c0-2.58,1.81-3.63,4.05-2.34A8.94,8.94,0,0,1,341.06,236.65Z" transform="translate(0.01)"/><polygon class="cls-19" points="332.83 230.11 334.04 229.43 339.89 239.27 338.52 240.06 332.83 230.11"/><path class="cls-20" d="M339.71,237.43c0,2.58-1.81,3.63-4,2.34a9,9,0,0,1-4.05-7c0-2.58,1.81-3.63,4.05-2.34A8.94,8.94,0,0,1,339.71,237.43Z" transform="translate(0.01)"/><path class="cls-25" d="M381.15,155.33v-.05a21.48,21.48,0,0,0-2.88-8.92,23.91,23.91,0,0,0-1.57-2.42l-.12-.16c-.23-.31-.47-.62-.71-.91l-.21-.24c-.15-.18-.3-.37-.47-.55a1.14,1.14,0,0,0-.11-.11c-3.63-3.94-8-5.76-11.07-4.25h0l-.1.06-.11,0-.12.08-3.42,2,.88,1.53c-1,3.39-.18,8.32,2.5,13s6.76,8.17,10.29,9l.86,1.48,3.33-1.92.08-.06.08,0a5,5,0,0,0,.46-.34l.11-.08a4.91,4.91,0,0,0,.57-.55l0,0a8.31,8.31,0,0,0,1.75-5.59C381.19,156,381.17,155.66,381.15,155.33Z" transform="translate(0.01)"/><path class="cls-24" d="M374.78,164.9c-4,2.23-10.52-1.59-14.47-8.54s-3.88-14.39.16-16.62S371,141.33,375,148.28,378.83,162.67,374.78,164.9Z" transform="translate(0.01)"/><path class="cls-36" d="M372.69,161.21c-2.86,1.58-7.44-1.12-10.24-6s-2.74-10.17.12-11.75,7.44,1.13,10.23,6S375.54,159.64,372.69,161.21Z" transform="translate(0.01)"/><path class="cls-24" d="M365.61,154.59a3.66,3.66,0,0,1-.49-1.94v-.32l1.86,1.1v.22a1.76,1.76,0,0,0,.17.84,1.33,1.33,0,0,0,.46.48c.2.12.36.13.47,0a.55.55,0,0,0,.16-.45,1.54,1.54,0,0,0-.21-.77,5.77,5.77,0,0,0-.56-.74l-.72-.77a7.93,7.93,0,0,1-.73-.88,5.05,5.05,0,0,1-.55-1.06,3.77,3.77,0,0,1-.21-1.3c0-1.48.66-2,1.92-1.46v-.69l.95.56v.69a4.84,4.84,0,0,1,1.49,1.6,4.4,4.4,0,0,1,.44,2.1l-1.79-1.06v-.18a1.89,1.89,0,0,0-.13-.7,1,1,0,0,0-.41-.51c-.21-.13-.36-.14-.46,0a.66.66,0,0,0-.15.42,1.54,1.54,0,0,0,.23.79,4.74,4.74,0,0,0,.58.75q.35.38.75.78a6,6,0,0,1,.75.89,5.13,5.13,0,0,1,.58,1.09,3.86,3.86,0,0,1,.22,1.37c0,.8-.2,1.29-.57,1.46a2,2,0,0,1-1.62-.24v1.07l-.95-.56V156.1A5.41,5.41,0,0,1,365.61,154.59Z" transform="translate(0.01)"/><path class="cls-37" d="M373.86,164.71a2.94,2.94,0,0,1-1-1.09c-.59-1-.6-2.11,0-2.45,2.73-1.65,2.74-6.9,0-11.71-.58-1-.57-2.1,0-2.43s1.54.23,2.12,1.25a20.82,20.82,0,0,1,2.92,10c0,3.11-1,5.45-2.93,6.58A1.05,1.05,0,0,1,373.86,164.71Z" transform="translate(0.01)"/><path class="cls-38" d="M373.86,150.59a3.13,3.13,0,0,1-1.05-1.13,16.82,16.82,0,0,0-2.18-3,2.76,2.76,0,0,1-.74-2.71c.34-.67,1.23-.54,2,.28a24.06,24.06,0,0,1,3.08,4.28c.58,1,.57,2.1,0,2.43A1.11,1.11,0,0,1,373.86,150.59Z" transform="translate(0.01)"/><path class="cls-25" d="M421.15,48.33v0a21.48,21.48,0,0,0-2.88-8.92,23.91,23.91,0,0,0-1.57-2.42l-.12-.16c-.23-.31-.47-.62-.71-.91l-.21-.24c-.15-.18-.3-.37-.47-.55a1.14,1.14,0,0,0-.11-.11c-3.63-3.94-8-5.76-11.07-4.25h0l-.1.06-.11.05-.12.08-3.42,2,.88,1.53c-1,3.39-.18,8.32,2.5,13s6.76,8.17,10.29,9l.86,1.48L418.11,56l.08-.06.08,0a5,5,0,0,0,.46-.34l.11-.08a4.91,4.91,0,0,0,.57-.55l0,0a8.31,8.31,0,0,0,1.75-5.59C421.19,49,421.17,48.66,421.15,48.33Z" transform="translate(0.01)"/><path class="cls-24" d="M414.78,57.9c-4,2.23-10.52-1.59-14.47-8.54s-3.88-14.39.16-16.62S411,34.33,415,41.28,418.83,55.67,414.78,57.9Z" transform="translate(0.01)"/><path class="cls-36" d="M412.69,54.21c-2.86,1.58-7.44-1.12-10.24-6s-2.74-10.17.12-11.75,7.44,1.13,10.23,6S415.54,52.64,412.69,54.21Z" transform="translate(0.01)"/><path class="cls-24" d="M405.61,47.59a3.66,3.66,0,0,1-.49-1.94v-.32l1.86,1.1v.22a1.76,1.76,0,0,0,.17.84,1.33,1.33,0,0,0,.46.48c.2.12.36.13.47,0a.55.55,0,0,0,.16-.45,1.54,1.54,0,0,0-.21-.77,5.77,5.77,0,0,0-.56-.74l-.72-.77a7.93,7.93,0,0,1-.73-.88,5.05,5.05,0,0,1-.55-1.06,3.77,3.77,0,0,1-.21-1.3c0-1.48.66-2,1.92-1.46v-.69l.95.56v.69a4.84,4.84,0,0,1,1.49,1.6,4.4,4.4,0,0,1,.44,2.1l-1.79-1.06V43.6a1.89,1.89,0,0,0-.13-.7,1,1,0,0,0-.41-.51c-.21-.13-.36-.14-.46,0a.66.66,0,0,0-.15.42,1.54,1.54,0,0,0,.23.79,4.74,4.74,0,0,0,.58.75q.35.38.75.78a6,6,0,0,1,.75.89,5.13,5.13,0,0,1,.58,1.09,3.86,3.86,0,0,1,.22,1.37c0,.8-.2,1.29-.57,1.46a2,2,0,0,1-1.62-.24v1.07l-.95-.56V49.1A5.41,5.41,0,0,1,405.61,47.59Z" transform="translate(0.01)"/><path class="cls-37" d="M413.86,57.71a2.94,2.94,0,0,1-1-1.09c-.59-1-.6-2.11,0-2.45,2.73-1.65,2.74-6.9,0-11.71-.58-1-.57-2.1,0-2.43s1.54.23,2.12,1.25a20.82,20.82,0,0,1,2.92,10c0,3.11-1,5.45-2.93,6.58A1.05,1.05,0,0,1,413.86,57.71Z" transform="translate(0.01)"/><path class="cls-38" d="M413.86,43.59a3.13,3.13,0,0,1-1.05-1.13,16.82,16.82,0,0,0-2.18-3,2.76,2.76,0,0,1-.74-2.71c.34-.67,1.23-.54,2,.28A24.06,24.06,0,0,1,415,41.28c.58,1,.57,2.1,0,2.43A1.11,1.11,0,0,1,413.86,43.59Z" transform="translate(0.01)"/><g id="Clouds"><path class="cls-44" d="M226.24,75.56l-4.73,1.82V67c0-8.26-6.59-10.24-13.74-6.11h0c-7.16,4.13-13,14.17-13,22.44V84.8c-1.62-.65-3.72-.4-6,.93h0c-5.15,3-9.32,10.2-9.32,16.14v.69l-6.6,3.81A13.58,13.58,0,0,0,166.74,117c0,3.92,2.75,5.5,6.14,3.55l53.36-30.81a13.58,13.58,0,0,0,6.14-10.63C232.38,75.19,229.63,73.6,226.24,75.56Z" transform="translate(0.01)"/></g><g id="Clouds-2" data-name="Clouds"><path class="cls-44" d="M109.65,27.3,102,30.25V13.32C102-.1,91.26-3.32,79.64,3.39h0c-11.63,6.71-21,23-21,36.46v2.46c-2.64-1.06-6.05-.65-9.77,1.5h0c-8.37,4.83-15.15,16.58-15.15,26.24v1.11L23,77.35c-5.51,3.18-10,10.92-10,17.28s4.47,8.94,10,5.76l86.69-50.06c5.51-3.18,10-10.91,10-17.27S115.16,24.12,109.65,27.3Z" transform="translate(0.01)"/></g></g></svg>