<svg xmlns="http://www.w3.org/2000/svg" xmlns:xlink="http://www.w3.org/1999/xlink" viewBox="0 0 480 480.01"><defs><style>.cls-1{isolation:isolate;}.cls-2{opacity:0.33;}.cls-3{fill:#fff;}.cls-4{fill:url(#linear-gradient);}.cls-5{fill:#e29437;}.cls-6{fill:#ffd873;}.cls-7{fill:#5274bf;}.cls-8{fill:#2d509e;}.cls-9{fill:#233975;}.cls-10{fill:#e0d1db;}.cls-11{fill:#efe8eb;}.cls-12{fill:#f24a1d;}.cls-13{fill:#ea8c7a;}.cls-14{fill:#ff6029;}.cls-15{fill:#d87012;}.cls-16{fill:#4066bc;}.cls-17{fill:#264087;}.cls-18{fill:#88b2fc;}.cls-19{fill:#6f97dd;}.cls-20{fill:#5e8bcc;}.cls-21{fill:#abcdff;}.cls-22{fill:none;stroke:#abcdff;stroke-linecap:round;stroke-miterlimit:10;stroke-width:0.59px;}.cls-23{fill:#4268ad;}.cls-24{fill:#1f376b;}.cls-25{fill:#ffb85a;}.cls-26{fill:#d36716;}.cls-27{fill:#e2eaf7;}.cls-28{fill:#aecce5;}.cls-29{fill:#325aa0;}.cls-30{fill:#bdd8ff;}.cls-31{fill:#feb546;}.cls-32{fill:#feb160;}.cls-33{fill:#f6c462;}.cls-34{fill:#ff7c68;}.cls-35{fill:#ffd383;}.cls-36{fill:#e03268;}.cls-37{fill:#ffc0bb;}.cls-38,.cls-43{fill:#f99893;}.cls-39{fill:#333;}.cls-40{fill:#752911;}.cls-41{fill:#f4a640;}.cls-42{fill:#ff5b7e;}.cls-43{opacity:0.3;mix-blend-mode:multiply;}.cls-44{fill:#97bdff;}.cls-45{fill:#07085b;}</style><linearGradient id="linear-gradient" x1="630.87" y1="-254.99" x2="806.69" y2="-356.94" gradientTransform="matrix(0.5, 0.87, 0.87, -0.5, 236.17, -673.67)" gradientUnits="userSpaceOnUse"><stop offset="0" stop-color="#fff" stop-opacity="0.5"/><stop offset="1" stop-color="#fff" stop-opacity="0"/></linearGradient></defs><g class="cls-1"><g id="_2" data-name="2"><g id="pic_2"><g class="cls-2"><path class="cls-3" d="M370.57.26c-1-.6-1.88-.12-1.88,1.08a4.12,4.12,0,0,0,1.88,3.25c1,.6,1.88.12,1.88-1.08A4.14,4.14,0,0,0,370.57.26Z" transform="translate(0 0)"/><path class="cls-3" d="M388.5,10.6c-1-.59-1.88-.11-1.88,1.09a4.14,4.14,0,0,0,1.88,3.25c1,.6,1.88.12,1.88-1.08A4.18,4.18,0,0,0,388.5,10.6Z" transform="translate(0 0)"/><path class="cls-3" d="M406.42,21c-1-.6-1.88-.11-1.88,1.09a4.15,4.15,0,0,0,1.88,3.25c1,.6,1.88.11,1.88-1.08A4.16,4.16,0,0,0,406.42,21Z" transform="translate(0 0)"/><path class="cls-3" d="M424.35,31.3c-1-.6-1.88-.11-1.88,1.08a4.16,4.16,0,0,0,1.88,3.26c1,.6,1.88.11,1.88-1.09A4.18,4.18,0,0,0,424.35,31.3Z" transform="translate(0 0)"/><path class="cls-3" d="M442.27,41.65c-1-.6-1.88-.11-1.88,1.08A4.16,4.16,0,0,0,442.27,46c1,.6,1.88.11,1.88-1.09A4.14,4.14,0,0,0,442.27,41.65Z" transform="translate(0 0)"/><path class="cls-3" d="M460.2,52c-1-.6-1.88-.12-1.88,1.08a4.12,4.12,0,0,0,1.88,3.25c1,.6,1.87.12,1.88-1.08A4.17,4.17,0,0,0,460.2,52Z" transform="translate(0 0)"/><path class="cls-3" d="M478.12,66.68c1,.6,1.88.12,1.88-1.08a4.16,4.16,0,0,0-1.88-3.26c-1-.59-1.88-.11-1.88,1.09A4.14,4.14,0,0,0,478.12,66.68Z" transform="translate(0 0)"/><path class="cls-3" d="M370.57,20.26c-1-.6-1.88-.11-1.88,1.09a4.14,4.14,0,0,0,1.88,3.25c1,.6,1.88.11,1.88-1.08A4.16,4.16,0,0,0,370.57,20.26Z" transform="translate(0 0)"/><path class="cls-3" d="M388.5,30.61c-1-.6-1.88-.11-1.88,1.09A4.15,4.15,0,0,0,388.5,35c1,.6,1.87.11,1.87-1.08A4.17,4.17,0,0,0,388.5,30.61Z" transform="translate(0 0)"/><path class="cls-3" d="M406.42,41c-1-.6-1.88-.11-1.88,1.08a4.16,4.16,0,0,0,1.88,3.26c1,.6,1.88.11,1.88-1.09A4.15,4.15,0,0,0,406.42,41Z" transform="translate(0 0)"/><path class="cls-3" d="M424.35,51.31c-1-.6-1.88-.12-1.88,1.08a4.16,4.16,0,0,0,1.88,3.26c1,.59,1.87.11,1.87-1.09A4.16,4.16,0,0,0,424.35,51.31Z" transform="translate(0 0)"/><path class="cls-3" d="M442.27,61.66c-1-.6-1.88-.12-1.88,1.08A4.14,4.14,0,0,0,442.27,66c1,.6,1.88.12,1.88-1.08A4.12,4.12,0,0,0,442.27,61.66Z" transform="translate(0 0)"/><path class="cls-3" d="M460.2,72c-1-.59-1.88-.11-1.88,1.09a4.14,4.14,0,0,0,1.88,3.25c1,.6,1.87.11,1.87-1.08A4.17,4.17,0,0,0,460.2,72Z" transform="translate(0 0)"/><path class="cls-3" d="M478.12,82.35c-1-.6-1.88-.11-1.88,1.09a4.15,4.15,0,0,0,1.88,3.25c1,.6,1.88.11,1.88-1.08A4.16,4.16,0,0,0,478.12,82.35Z" transform="translate(0 0)"/><path class="cls-3" d="M370.57,40.27c-1-.6-1.88-.11-1.88,1.09a4.15,4.15,0,0,0,1.88,3.25c1,.6,1.88.11,1.88-1.09A4.15,4.15,0,0,0,370.57,40.27Z" transform="translate(0 0)"/><path class="cls-3" d="M388.5,50.62c-1-.6-1.88-.11-1.88,1.08A4.16,4.16,0,0,0,388.5,55c1,.6,1.87.11,1.87-1.09A4.16,4.16,0,0,0,388.5,50.62Z" transform="translate(0 0)"/><path class="cls-3" d="M406.42,61c-1-.6-1.88-.12-1.88,1.08a4.12,4.12,0,0,0,1.88,3.25c1,.6,1.88.12,1.88-1.08A4.14,4.14,0,0,0,406.42,61Z" transform="translate(0 0)"/><path class="cls-3" d="M424.35,71.32c-1-.6-1.88-.12-1.88,1.08a4.14,4.14,0,0,0,1.88,3.25c1,.6,1.87.12,1.87-1.08A4.14,4.14,0,0,0,424.35,71.32Z" transform="translate(0 0)"/><path class="cls-3" d="M442.27,81.66c-1-.6-1.88-.11-1.88,1.09A4.14,4.14,0,0,0,442.27,86c1,.6,1.88.11,1.88-1.08A4.16,4.16,0,0,0,442.27,81.66Z" transform="translate(0 0)"/><path class="cls-3" d="M460.2,92c-1-.6-1.88-.11-1.88,1.09a4.15,4.15,0,0,0,1.88,3.25c1,.6,1.87.11,1.87-1.09A4.17,4.17,0,0,0,460.2,92Z" transform="translate(0 0)"/><path class="cls-3" d="M478.12,102.36c-1-.6-1.88-.11-1.88,1.08a4.16,4.16,0,0,0,1.88,3.26c1,.6,1.88.11,1.88-1.09A4.14,4.14,0,0,0,478.12,102.36Z" transform="translate(0 0)"/><path class="cls-3" d="M370.57,60.28c-1-.6-1.88-.11-1.88,1.08a4.16,4.16,0,0,0,1.88,3.26c1,.6,1.88.11,1.88-1.09A4.14,4.14,0,0,0,370.57,60.28Z" transform="translate(0 0)"/><path class="cls-3" d="M388.49,70.63c-1-.6-1.87-.12-1.87,1.08A4.14,4.14,0,0,0,388.49,75c1,.6,1.88.12,1.88-1.08A4.14,4.14,0,0,0,388.49,70.63Z" transform="translate(0 0)"/><path class="cls-3" d="M406.42,81c-1-.59-1.88-.11-1.88,1.09a4.14,4.14,0,0,0,1.88,3.25c1,.6,1.88.12,1.88-1.08A4.16,4.16,0,0,0,406.42,81Z" transform="translate(0 0)"/><path class="cls-3" d="M424.34,91.32c-1-.6-1.87-.11-1.87,1.09a4.16,4.16,0,0,0,1.87,3.25c1,.6,1.88.11,1.88-1.08A4.16,4.16,0,0,0,424.34,91.32Z" transform="translate(0 0)"/><path class="cls-3" d="M442.27,101.67c-1-.6-1.88-.11-1.88,1.09a4.15,4.15,0,0,0,1.88,3.25c1,.6,1.88.11,1.88-1.09A4.15,4.15,0,0,0,442.27,101.67Z" transform="translate(0 0)"/><path class="cls-3" d="M460.19,112c-1-.6-1.87-.11-1.87,1.08a4.17,4.17,0,0,0,1.87,3.26c1,.6,1.88.11,1.88-1.09A4.14,4.14,0,0,0,460.19,112Z" transform="translate(0 0)"/><path class="cls-3" d="M478.12,122.37c-1-.6-1.88-.12-1.88,1.08a4.12,4.12,0,0,0,1.88,3.25c1,.6,1.88.12,1.88-1.08A4.14,4.14,0,0,0,478.12,122.37Z" transform="translate(0 0)"/><path class="cls-3" d="M370.57,80.29c-1-.6-1.88-.12-1.88,1.08a4.14,4.14,0,0,0,1.88,3.25c1,.6,1.88.12,1.88-1.08A4.14,4.14,0,0,0,370.57,80.29Z" transform="translate(0 0)"/><path class="cls-3" d="M388.49,90.63c-1-.59-1.87-.11-1.87,1.09A4.16,4.16,0,0,0,388.49,95c1,.6,1.88.12,1.88-1.08A4.16,4.16,0,0,0,388.49,90.63Z" transform="translate(0 0)"/><path class="cls-3" d="M406.42,101c-1-.6-1.88-.11-1.88,1.09a4.15,4.15,0,0,0,1.88,3.25c1,.6,1.88.11,1.88-1.08A4.16,4.16,0,0,0,406.42,101Z" transform="translate(0 0)"/><path class="cls-3" d="M424.34,111.33c-1-.6-1.87-.11-1.87,1.08a4.17,4.17,0,0,0,1.87,3.26c1,.6,1.88.11,1.88-1.09A4.15,4.15,0,0,0,424.34,111.33Z" transform="translate(0 0)"/><path class="cls-3" d="M442.27,121.68c-1-.6-1.88-.11-1.88,1.08a4.16,4.16,0,0,0,1.88,3.26c1,.59,1.88.11,1.88-1.09A4.14,4.14,0,0,0,442.27,121.68Z" transform="translate(0 0)"/><path class="cls-3" d="M460.19,132c-1-.6-1.87-.12-1.87,1.08a4.14,4.14,0,0,0,1.87,3.25c1,.6,1.88.12,1.88-1.08A4.14,4.14,0,0,0,460.19,132Z" transform="translate(0 0)"/><path class="cls-3" d="M478.12,142.37c-1-.59-1.88-.11-1.88,1.09a4.14,4.14,0,0,0,1.88,3.25c1,.6,1.88.12,1.88-1.08A4.16,4.16,0,0,0,478.12,142.37Z" transform="translate(0 0)"/><path class="cls-3" d="M370.57,100.29c-1-.6-1.88-.11-1.88,1.09a4.14,4.14,0,0,0,1.88,3.25c1,.6,1.88.11,1.88-1.08A4.16,4.16,0,0,0,370.57,100.29Z" transform="translate(0 0)"/><path class="cls-3" d="M388.49,110.64c-1-.6-1.88-.11-1.88,1.09a4.18,4.18,0,0,0,1.88,3.25c1,.6,1.88.11,1.88-1.09A4.15,4.15,0,0,0,388.49,110.64Z" transform="translate(0 0)"/><path class="cls-3" d="M406.42,121c-1-.6-1.88-.11-1.88,1.08a4.16,4.16,0,0,0,1.88,3.26c1,.6,1.88.11,1.88-1.09A4.15,4.15,0,0,0,406.42,121Z" transform="translate(0 0)"/><path class="cls-3" d="M424.34,131.34c-1-.6-1.88-.12-1.88,1.08a4.18,4.18,0,0,0,1.88,3.26c1,.59,1.88.11,1.88-1.09A4.14,4.14,0,0,0,424.34,131.34Z" transform="translate(0 0)"/><path class="cls-3" d="M442.27,141.69c-1-.6-1.88-.12-1.88,1.08a4.14,4.14,0,0,0,1.88,3.25c1,.6,1.88.12,1.88-1.08A4.12,4.12,0,0,0,442.27,141.69Z" transform="translate(0 0)"/><path class="cls-3" d="M460.19,152c-1-.59-1.88-.11-1.88,1.09a4.17,4.17,0,0,0,1.88,3.25c1,.6,1.88.11,1.88-1.08A4.16,4.16,0,0,0,460.19,152Z" transform="translate(0 0)"/><path class="cls-3" d="M478.12,162.38c-1-.6-1.88-.11-1.88,1.09a4.15,4.15,0,0,0,1.88,3.25c1,.6,1.88.11,1.88-1.08A4.16,4.16,0,0,0,478.12,162.38Z" transform="translate(0 0)"/><path class="cls-3" d="M370.57,120.3c-1-.6-1.88-.11-1.88,1.09a4.15,4.15,0,0,0,1.88,3.25c1,.6,1.88.11,1.88-1.09A4.18,4.18,0,0,0,370.57,120.3Z" transform="translate(0 0)"/><path class="cls-3" d="M388.49,130.65c-1-.6-1.88-.11-1.88,1.08a4.18,4.18,0,0,0,1.88,3.26c1,.6,1.88.11,1.88-1.09A4.14,4.14,0,0,0,388.49,130.65Z" transform="translate(0 0)"/><path class="cls-3" d="M406.42,141c-1-.6-1.88-.12-1.88,1.08a4.12,4.12,0,0,0,1.88,3.25c1,.6,1.88.12,1.88-1.08A4.17,4.17,0,0,0,406.42,141Z" transform="translate(0 0)"/><path class="cls-3" d="M424.34,151.35c-1-.6-1.88-.12-1.88,1.08a4.17,4.17,0,0,0,1.88,3.25c1,.6,1.88.12,1.88-1.08A4.12,4.12,0,0,0,424.34,151.35Z" transform="translate(0 0)"/><path class="cls-3" d="M442.27,161.69c-1-.6-1.88-.11-1.88,1.09a4.14,4.14,0,0,0,1.88,3.25c1,.6,1.88.11,1.88-1.08A4.18,4.18,0,0,0,442.27,161.69Z" transform="translate(0 0)"/><path class="cls-3" d="M460.19,172c-1-.6-1.88-.11-1.88,1.09a4.15,4.15,0,0,0,1.88,3.25c1,.6,1.88.11,1.88-1.09A4.15,4.15,0,0,0,460.19,172Z" transform="translate(0 0)"/><path class="cls-3" d="M478.12,182.39c-1-.6-1.88-.11-1.88,1.08a4.16,4.16,0,0,0,1.88,3.26c1,.6,1.88.11,1.88-1.09A4.17,4.17,0,0,0,478.12,182.39Z" transform="translate(0 0)"/></g><polygon class="cls-4" points="337.79 0 378.37 100.16 363.45 91.58 363.72 203.24 300.83 167.09 300.57 55.42 285.65 46.84 337.79 0"/><path class="cls-5" d="M.05,341V326.89H14.91v2.55l215-124.1c6-3.44,16.41-3,23.31,1L471,332v-4h9L480,341.81c-.13,2.07-1.45,4-4,5.5L250,477.68c-6,3.45-16.41,3-23.3-1L5.71,349.17C1.67,346.84-.24,343.82.05,341Z" transform="translate(0 0)"/><path class="cls-6" d="M250,464.11,475.94,333.74c6-3.45,5.22-9.47-1.67-13.45l-221-127.55c-6.9-4-17.33-4.41-23.31-1L4,322.15c-6,3.45-5.22,9.47,1.68,13.45l221,127.55C233.62,467.13,244.05,467.56,250,464.11Z" transform="translate(0 0)"/><polygon class="cls-5" points="136.01 413.1 179.13 388 136.08 363.03 92.96 388.13 136.01 413.1"/><polygon class="cls-7" points="239.28 437.43 433.9 324.22 239.6 211.56 44.98 324.77 239.28 437.43"/><polygon class="cls-8" points="239.28 437.43 239.28 440.79 433.9 327.57 433.9 324.22 239.28 437.43"/><polygon class="cls-9" points="239.28 440.79 44.98 328.13 44.98 324.77 239.28 437.43 239.28 440.79"/><g class="cls-1"><polygon class="cls-10" points="329.1 111.74 328.8 216.67 243.57 266.2 243.87 161.27 329.1 111.74"/><polygon class="cls-11" points="243.87 161.27 243.57 296.2 157.92 246.43 158.22 111.51 243.87 161.27"/><polygon class="cls-3" points="329.1 111.74 243.87 161.27 158.22 111.52 243.45 61.99 329.1 111.74"/><polygon class="cls-3" points="321.08 111.42 243.41 156.56 166.74 112.08 244.42 66.94 321.08 111.42"/><polygon class="cls-10" points="244.42 72.43 316.34 114.18 321.08 111.42 244.42 66.94 166.74 112.08 171.48 114.81 244.42 72.43"/></g><g class="cls-1"><polygon class="cls-12" points="239.1 191.74 238.8 296.67 153.57 346.2 153.87 241.27 239.1 191.74"/><polygon class="cls-12" points="153.87 241.27 153.57 376.2 67.92 326.43 68.22 191.51 153.87 241.27"/><polygon class="cls-13" points="239.1 191.74 153.87 241.27 68.22 191.52 153.45 141.99 239.1 191.74"/><polygon class="cls-14" points="231.09 191.42 153.41 236.56 76.74 192.08 154.42 146.94 231.09 191.42"/><polygon class="cls-12" points="154.42 152.43 226.34 194.18 231.09 191.42 154.42 146.94 76.74 192.08 81.48 194.81 154.42 152.43"/></g><g class="cls-1"><polygon class="cls-5" points="415.77 219.39 415.47 324.32 330.24 373.85 330.54 268.92 415.77 219.39"/><polygon class="cls-15" points="330.54 268.92 330.24 373.85 244.59 324.08 244.89 219.16 330.54 268.92"/><polygon class="cls-6" points="415.77 219.39 330.54 268.92 244.89 219.17 330.12 169.64 415.77 219.39"/><polygon class="cls-6" points="407.76 219.07 330.08 264.21 253.42 219.73 331.09 174.59 407.76 219.07"/><polygon class="cls-5" points="331.09 180.08 403.02 221.83 407.76 219.07 331.09 174.59 253.42 219.73 258.16 222.46 331.09 180.08"/></g><g class="cls-1"><polygon class="cls-16" points="324.77 251.39 324.47 376.32 239.24 425.85 239.54 300.92 324.77 251.39"/><polygon class="cls-17" points="239.54 300.92 239.24 425.85 153.59 376.08 153.89 251.16 239.54 300.92"/><polygon class="cls-18" points="324.77 251.39 239.54 300.92 153.89 251.17 239.12 201.64 324.77 251.39"/><polygon class="cls-7" points="316.76 251.07 239.09 296.21 162.42 251.73 240.09 206.59 316.76 251.07"/><polygon class="cls-8" points="240.09 212.08 312.02 253.83 316.76 251.07 240.09 206.59 162.42 251.73 167.16 254.46 240.09 212.08"/></g><polygon class="cls-19" points="317.13 295.5 291.88 309.97 291.88 360.19 317.13 345.61 317.13 295.5"/><polygon class="cls-20" points="317.13 295.5 291.88 309.97 291.88 316.44 317.13 301.87 317.13 295.5"/><polygon class="cls-21" points="315.66 344.57 315.66 296.35 317.13 295.5 317.13 345.61 291.88 360.19 291.88 358.3 315.66 344.57"/><line class="cls-22" x1="309.59" y1="309.15" x2="296.88" y2="339.57"/><line class="cls-22" x1="312.63" y1="318.44" x2="303.63" y2="339.98"/><polygon class="cls-19" points="277.29 318.44 252.04 332.9 252.04 383.12 277.29 368.55 277.29 318.44"/><polygon class="cls-20" points="277.29 318.44 252.04 332.9 252.04 339.38 277.29 324.8 277.29 318.44"/><polygon class="cls-21" points="275.82 367.51 275.82 319.28 277.29 318.44 277.29 368.55 252.04 383.12 252.04 381.23 275.82 367.51"/><line class="cls-22" x1="269.75" y1="332.09" x2="257.04" y2="362.5"/><line class="cls-22" x1="272.79" y1="341.38" x2="263.79" y2="362.91"/><polygon class="cls-19" points="197.13 318.36 222.38 332.82 222.38 383.04 197.13 368.47 197.13 318.36"/><polygon class="cls-20" points="197.13 318.36 222.38 332.82 222.38 339.29 197.13 324.72 197.13 318.36"/><polygon class="cls-21" points="198.6 367.43 198.6 319.2 197.13 318.36 197.13 368.47 222.38 383.04 222.38 381.15 198.6 367.43"/><line class="cls-22" x1="204.68" y1="332.01" x2="217.39" y2="362.42"/><line class="cls-22" x1="201.63" y1="341.29" x2="210.63" y2="362.83"/><polygon class="cls-19" points="86.99 258.2 112.24 272.67 112.24 322.89 86.99 308.31 86.99 258.2"/><polygon class="cls-20" points="86.99 258.2 112.24 272.67 112.24 279.14 86.99 264.56 86.99 258.2"/><polygon class="cls-21" points="88.46 307.27 88.46 259.05 86.99 258.2 86.99 308.31 112.24 322.89 112.24 320.99 88.46 307.27"/><line class="cls-22" x1="94.53" y1="271.85" x2="107.24" y2="302.26"/><line class="cls-22" x1="91.49" y1="281.14" x2="100.49" y2="302.67"/><polygon class="cls-7" points="132.94 283.79 173.72 307.15 173.72 388.27 132.94 364.73 132.94 283.79"/><polygon class="cls-23" points="132.94 283.79 173.72 307.15 173.72 321.99 132.94 298.45 132.94 283.79"/><polygon class="cls-18" points="135.32 363.04 135.32 285.15 132.94 283.79 132.94 364.73 173.72 388.27 173.72 385.21 135.32 363.04"/><line class="cls-22" x1="146.88" y1="308.12" x2="168.41" y2="359.64"/><line class="cls-22" x1="141.73" y1="323.86" x2="156.97" y2="360.34"/><g class="cls-1"><path class="cls-17" d="M171.64,345.14v-.07s0-.05,0-.07a.15.15,0,0,0,0-.07.22.22,0,0,0,0-.08h0s0-.05,0-.07a.24.24,0,0,0,0-.08s0-.05,0-.08a.19.19,0,0,1,0-.07l0-.07h0a.24.24,0,0,0,0-.08l0-.07s0-.05,0-.08l0-.07,0-.05h0l0-.07,0-.08,0-.08-.05-.1h0v0l-.11-.18-.09-.13h0l-.07-.09-.06-.07-.05-.06-.06-.07h0l0-.05-.06-.06-.07-.06-.06-.06,0,0h0l0,0-.06-.05-.07-.05-.06,0-.06,0h0l0,0-.06,0,0,0h0l-.06,0-.06,0h0l0,0h-.5l-.08,0h0l-.11.05h0l-.6.35.11-.05.09,0H169l.13,0h0l.13,0h0l.14.06h0l.14.08a1.74,1.74,0,0,1,.3.2h0a2.23,2.23,0,0,1,.27.26h0a2.43,2.43,0,0,1,.24.3h0a2.7,2.7,0,0,1,.22.33h0l.17.34h0a2.6,2.6,0,0,1,.13.36h0c0,.13.06.25.08.37h0a2.19,2.19,0,0,1,0,.36.86.86,0,0,1,0,.16h0a.59.59,0,0,1,0,.14v0l0,.12v0s0,.07,0,.11h0a.53.53,0,0,1-.06.1.64.64,0,0,1-.1.13l0,0-.12.09.6-.35.13-.09,0,0a.69.69,0,0,0,.11-.13h0a.31.31,0,0,0,.05-.1h0l0-.07v-.08a.19.19,0,0,0,0-.08v-.07s0,0,0-.07v0h0v-.16h0Z" transform="translate(0 0)"/><path class="cls-24" d="M169.57,343a3.2,3.2,0,0,1,1.47,2.54c0,.93-.66,1.31-1.48.84a3.22,3.22,0,0,1-1.46-2.54C168.1,342.92,168.76,342.55,169.57,343Z" transform="translate(0 0)"/></g><g class="cls-1"><path class="cls-25" d="M128.9,291c0-.15,0-.31,0-.46l.09-.51c0-.11,0-.23.07-.34s0-.22.08-.33l.12-.45.08-.26.17-.51.08-.21c.09-.23.18-.47.28-.7a.25.25,0,0,0,0-.07c.09-.21.19-.42.29-.62a1.74,1.74,0,0,0,.1-.19l.31-.57.07-.11c.13-.22.26-.44.4-.65l.13-.19.31-.45.18-.24c.1-.12.2-.24.29-.37l.25-.3.25-.27.43-.45.27-.27.21-.2.37-.31.22-.18c.13-.11.27-.21.4-.3l.2-.14c.2-.14.4-.27.61-.39l-4.49-2.57a6.89,6.89,0,0,0-.62.38L130,279c-.14.1-.27.19-.4.3l-.22.18-.37.31-.21.2a.86.86,0,0,0-.14.13c-.05,0-.09.1-.14.14l-.42.45-.14.15-.11.13-.25.3-.16.19-.13.17-.18.24L127,282c-.07.09-.13.19-.2.29l-.12.18,0,.07q-.18.27-.33.54l0,0-.07.11-.22.39-.09.18-.1.19-.08.16c-.08.16-.15.31-.21.46a.43.43,0,0,1,0,.07v0c-.08.18-.16.37-.23.57a.42.42,0,0,0,0,.1l-.08.21c0,.1-.07.19-.1.29a1.42,1.42,0,0,0-.07.22,2.58,2.58,0,0,0-.08.26,1.42,1.42,0,0,0,0,.16c0,.1,0,.2-.07.29s-.06.22-.08.33l0,.11a2.23,2.23,0,0,0,0,.23,4.54,4.54,0,0,0-.09.51l0,.14,0,.32a1.64,1.64,0,0,1,0,.22c0,.24,0,.47,0,.7l4.49,2.58c0-.23,0-.46,0-.7Z" transform="translate(0 0)"/><path class="cls-26" d="M135.25,281l0,7.3L128.84,292A13.94,13.94,0,0,1,135.25,281Z" transform="translate(0 0)"/></g><g class="cls-1"><path class="cls-27" d="M133.39,293.62c0-.15,0-.3.05-.46l.09-.5c0-.12,0-.23.07-.35s.05-.22.08-.32l.12-.46a2,2,0,0,0,.08-.26l.18-.51c0-.07.05-.14.07-.21.09-.23.19-.46.29-.69l0-.08c.1-.21.19-.41.3-.62l.09-.19c.1-.19.21-.38.32-.57l.06-.11c.13-.22.26-.44.4-.65l.13-.18c.1-.16.21-.31.32-.46l.18-.24.29-.36.24-.3.25-.28.43-.45.27-.27.22-.2.36-.31.22-.18.41-.3.19-.14c.2-.13.4-.26.61-.38L135.25,281c-.21.12-.41.25-.61.38l-.2.14-.4.3-.22.18-.37.32-.21.2-.14.12-.13.15c-.15.14-.29.29-.43.44l-.14.15-.11.13-.25.3-.16.2-.13.17-.18.23-.12.17a2.9,2.9,0,0,0-.19.29l-.13.18a.35.35,0,0,1,0,.08l-.33.53,0,0-.07.12-.21.38a1.62,1.62,0,0,0-.1.18,1.14,1.14,0,0,1-.1.19,1.3,1.3,0,0,1-.08.17l-.21.45,0,.08v0c-.08.19-.16.38-.23.57,0,0,0,.07,0,.11s0,.14-.08.2-.07.19-.1.29a1.87,1.87,0,0,1-.07.22c0,.09,0,.18-.08.26l-.05.17a2.46,2.46,0,0,0-.07.29,3,3,0,0,0-.08.32l0,.11a2,2,0,0,0,0,.24l-.09.51a.59.59,0,0,0,0,.13c0,.11,0,.22,0,.32l0,.23c0,.23,0,.47,0,.7l4.5,2.58c0-.23,0-.47,0-.71A1.64,1.64,0,0,1,133.39,293.62Z" transform="translate(0 0)"/><path class="cls-26" d="M139.74,283.59l0,7.29-6.42,3.67A13.9,13.9,0,0,1,139.74,283.59Z" transform="translate(0 0)"/></g><g class="cls-1"><path class="cls-25" d="M137.88,296.2c0-.15,0-.3.06-.45s.05-.34.08-.51,0-.23.07-.35a3,3,0,0,0,.08-.32c0-.15.08-.3.13-.45a2.76,2.76,0,0,1,.08-.27c.05-.17.11-.33.17-.5a1.8,1.8,0,0,1,.08-.21c.08-.24.18-.47.28-.7l0-.08.3-.61a1.14,1.14,0,0,1,.1-.19c.1-.2.2-.39.31-.57l.06-.12c.13-.22.27-.43.41-.65l.12-.18.32-.45.18-.24c.09-.13.19-.25.29-.37l.25-.3.24-.27c.14-.16.29-.31.43-.45l.27-.27.22-.2.36-.32L143,287l.41-.3.19-.13c.2-.14.41-.27.61-.39l-4.49-2.58c-.21.12-.41.25-.61.39l-.19.13c-.14.1-.28.2-.41.31a1.74,1.74,0,0,0-.22.18l-.36.31a2.09,2.09,0,0,0-.22.2l-.13.12-.14.15a6.14,6.14,0,0,0-.43.45l-.14.14-.1.13-.25.3-.17.2-.12.17-.18.24-.13.16-.19.29-.13.18a.35.35,0,0,1-.05.08l-.33.54,0,0-.06.12-.22.38-.1.19-.09.19-.09.16-.21.46,0,.07v0c-.09.19-.16.38-.24.57a.49.49,0,0,1,0,.11c0,.07,0,.14-.07.21s-.07.19-.11.28a2,2,0,0,1-.07.23c0,.08,0,.17-.08.26a1.42,1.42,0,0,1-.05.16c0,.1,0,.19-.07.29s-.06.22-.08.32l0,.12a1.85,1.85,0,0,1,0,.23l-.09.51a.78.78,0,0,1,0,.14l0,.31a1.79,1.79,0,0,0,0,.23c0,.24,0,.47,0,.7l4.49,2.58c0-.23,0-.47,0-.7A1.79,1.79,0,0,1,137.88,296.2Z" transform="translate(0 0)"/><path class="cls-26" d="M144.23,286.17l0,7.3-6.42,3.66A13.9,13.9,0,0,1,144.23,286.17Z" transform="translate(0 0)"/></g><g class="cls-1"><path class="cls-27" d="M142.37,298.79l.06-.46a4.54,4.54,0,0,1,.09-.51c0-.11,0-.23.07-.34s0-.22.08-.33a3.74,3.74,0,0,1,.12-.45,2,2,0,0,1,.08-.26c0-.17.11-.34.17-.51l.08-.21c.09-.23.18-.47.28-.7l0-.07c.09-.21.19-.42.29-.62s.07-.13.1-.19.2-.38.31-.57l.06-.11c.13-.22.27-.44.41-.65l.12-.19.32-.45.18-.24.29-.37.25-.3L146,291l.42-.45.28-.27.21-.2.37-.31.21-.18c.14-.11.27-.21.41-.3l.19-.14c.21-.14.41-.27.62-.39l-4.5-2.58c-.2.12-.41.25-.61.39l-.19.14c-.14.09-.27.19-.41.3l-.22.18-.36.31-.22.2-.13.13L142,288l-.43.45-.13.14a1.34,1.34,0,0,0-.11.14,2.48,2.48,0,0,0-.25.3,1.46,1.46,0,0,0-.16.19l-.13.17-.18.24-.12.16c-.07.1-.13.2-.2.29l-.12.19-.05.07c-.12.18-.23.36-.34.54l0,0-.06.11-.22.38-.09.19a1.74,1.74,0,0,0-.1.19l-.09.16-.21.46,0,.07v0l-.24.56,0,.11a1.8,1.8,0,0,0-.08.21c0,.1-.07.19-.1.28a2,2,0,0,0-.07.23,2.58,2.58,0,0,0-.08.26,1,1,0,0,0-.05.16c0,.1-.05.2-.08.29s0,.22-.08.33a.43.43,0,0,0,0,.11c0,.08,0,.16,0,.23s-.06.34-.08.51l0,.14,0,.32a1.64,1.64,0,0,0,0,.22c0,.24,0,.47,0,.7l4.49,2.58c0-.23,0-.46,0-.7A1.64,1.64,0,0,0,142.37,298.79Z" transform="translate(0 0)"/><path class="cls-26" d="M148.73,288.75l0,7.3-6.43,3.66A13.93,13.93,0,0,1,148.73,288.75Z" transform="translate(0 0)"/></g><g class="cls-1"><path class="cls-25" d="M146.87,301.37c0-.15,0-.3,0-.46l.09-.5c0-.12,0-.23.07-.35a3,3,0,0,1,.08-.32l.12-.46c0-.08.05-.17.08-.26l.17-.51.08-.21c.09-.23.18-.46.28-.69l0-.08c.09-.21.19-.41.29-.62a1.74,1.74,0,0,0,.1-.19l.31-.57.07-.11c.13-.22.26-.44.4-.65l.13-.18c.1-.16.21-.31.31-.46l.18-.24.29-.36.25-.3c.08-.1.17-.19.25-.28l.42-.45.28-.27.21-.2.37-.31.22-.18.4-.3.2-.14a5.6,5.6,0,0,1,.61-.38l-4.49-2.58-.62.38-.19.14-.41.3-.21.18c-.13.1-.25.21-.37.32l-.21.19-.14.13-.14.14L146,291l-.14.15-.11.13-.25.3-.16.19-.13.17-.18.24-.12.17c-.07.09-.13.19-.2.29l-.12.18a.35.35,0,0,0-.05.08,5.84,5.84,0,0,0-.33.53l0,0-.06.11-.22.39-.09.18c0,.07-.07.13-.1.19a1.3,1.3,0,0,0-.08.17,4.54,4.54,0,0,0-.21.45s0,.05,0,.08v0c-.08.19-.16.38-.23.57a.42.42,0,0,0,0,.1l-.08.21c0,.1-.07.19-.1.29a1.87,1.87,0,0,0-.07.22c0,.09-.06.18-.08.26a1.42,1.42,0,0,0,0,.16c0,.1-.05.2-.07.3a3,3,0,0,0-.08.32l0,.11a2,2,0,0,0,0,.24,4.8,4.8,0,0,0-.09.5l0,.14,0,.32a2,2,0,0,1,0,.23c0,.23,0,.47,0,.7l4.49,2.58c0-.24,0-.47,0-.71Z" transform="translate(0 0)"/><path class="cls-26" d="M153.22,291.34l0,7.29-6.43,3.67A13.91,13.91,0,0,1,153.22,291.34Z" transform="translate(0 0)"/></g><g class="cls-1"><path class="cls-27" d="M151.36,304c0-.15,0-.3,0-.45l.09-.51c0-.12,0-.23.07-.35s.05-.21.08-.32l.12-.45a2.76,2.76,0,0,0,.08-.27l.18-.5c0-.07.05-.14.07-.21.09-.24.18-.47.29-.7l0-.08c.09-.2.19-.41.3-.62l.09-.19c.1-.19.21-.38.32-.57l.06-.11.4-.65.13-.18c.1-.15.21-.31.32-.45l.18-.24c.09-.13.19-.25.29-.37l.24-.3.25-.27a6.14,6.14,0,0,1,.43-.45l.27-.27a2.09,2.09,0,0,1,.22-.2l.36-.32.22-.18.41-.3.19-.14c.2-.13.4-.26.61-.38l-4.49-2.58c-.21.12-.41.25-.61.39l-.2.13-.4.31a1.84,1.84,0,0,0-.22.17l-.37.32-.21.2-.14.12-.14.15q-.21.21-.42.45l-.14.14-.11.13-.25.3-.16.2-.13.17-.18.24-.12.16-.19.29-.13.18,0,.08-.33.54,0,0-.07.12-.21.38a1.14,1.14,0,0,0-.1.19l-.1.19-.08.16-.21.46a.25.25,0,0,1,0,.07v0c-.08.19-.16.38-.23.57a.49.49,0,0,0,0,.11l-.08.21-.1.28a1.42,1.42,0,0,1-.07.22c0,.09-.05.18-.08.27s0,.1-.05.16a2.46,2.46,0,0,0-.07.29c0,.11-.06.22-.08.32l0,.12a1.57,1.57,0,0,0,0,.23l-.09.51a.59.59,0,0,0,0,.14c0,.1,0,.21,0,.31l0,.23c0,.23,0,.47,0,.7l4.5,2.58c0-.23,0-.47,0-.7A1.79,1.79,0,0,1,151.36,304Z" transform="translate(0 0)"/><path class="cls-26" d="M157.71,293.92l0,7.29-6.42,3.67A13.9,13.9,0,0,1,157.71,293.92Z" transform="translate(0 0)"/></g><g class="cls-1"><path class="cls-25" d="M155.85,306.53c0-.15,0-.3.06-.45s.05-.34.08-.51,0-.23.07-.34.06-.22.08-.33.08-.3.13-.45a2,2,0,0,1,.08-.26c.05-.17.11-.34.17-.51s0-.14.07-.21c.09-.23.19-.47.29-.7l0-.07.3-.62a1.14,1.14,0,0,1,.1-.19c.1-.19.2-.38.31-.57l.06-.11c.13-.22.27-.44.41-.65l.12-.19.32-.45.18-.24.29-.37.25-.3.24-.27a6.14,6.14,0,0,1,.43-.45l.27-.27.22-.2.36-.31.22-.18c.14-.11.27-.21.41-.3l.19-.14c.2-.14.41-.27.61-.39l-4.49-2.58c-.21.12-.41.25-.61.39a1.33,1.33,0,0,0-.19.14,3.91,3.91,0,0,0-.41.3l-.22.18-.36.31-.22.2-.13.13-.14.14-.43.45-.14.14a1.47,1.47,0,0,1-.1.13l-.26.31-.16.19-.12.17-.18.24c0,.06-.09.11-.13.16l-.19.29-.13.19-.05.07-.33.54,0,0-.06.11-.22.38a1.74,1.74,0,0,1-.1.19l-.09.19-.09.16-.21.46,0,.07v0c-.09.19-.16.38-.24.57a.36.36,0,0,1,0,.11c0,.07,0,.14-.07.21s-.07.19-.11.28a2,2,0,0,1-.07.23,2.58,2.58,0,0,1-.08.26,1,1,0,0,1-.05.16c0,.1,0,.19-.07.29s-.06.22-.08.33l0,.11a1.85,1.85,0,0,1,0,.23l-.09.51a.68.68,0,0,1,0,.14l0,.32a1.64,1.64,0,0,0,0,.22c0,.24,0,.47,0,.7l4.49,2.58c0-.23,0-.46,0-.7A2,2,0,0,1,155.85,306.53Z" transform="translate(0 0)"/><path class="cls-26" d="M162.2,296.5l0,7.3-6.42,3.66A13.92,13.92,0,0,1,162.2,296.5Z" transform="translate(0 0)"/></g><g class="cls-1"><path class="cls-27" d="M160.34,309.12l.06-.46a4,4,0,0,1,.09-.5c0-.12,0-.24.07-.35s.05-.22.08-.33a3.74,3.74,0,0,1,.12-.45,2.58,2.58,0,0,1,.08-.26c0-.17.11-.34.17-.51l.08-.21c.09-.23.18-.46.28-.69a.59.59,0,0,1,0-.08c.09-.21.19-.41.29-.62l.1-.19c.1-.19.2-.38.31-.57l.06-.11c.13-.22.27-.44.41-.65l.12-.18.32-.46.18-.24.29-.36.25-.3a3.33,3.33,0,0,1,.25-.28c.13-.15.28-.3.42-.45l.28-.27.21-.2.37-.31.21-.18.41-.3.19-.14a5.73,5.73,0,0,1,.62-.38l-4.5-2.58c-.2.12-.41.24-.61.38l-.19.14-.41.3-.22.18-.36.31-.22.2a1.59,1.59,0,0,1-.13.13l-.14.14-.43.45-.13.15a.69.69,0,0,0-.11.13l-.25.3-.17.19-.12.17-.18.24-.12.17c-.07.09-.13.19-.2.29l-.12.18-.05.07c-.12.18-.23.36-.34.54l0,0-.06.11c-.08.13-.15.26-.22.39l-.09.18-.1.19-.09.17-.21.45,0,.08v0l-.24.57a.42.42,0,0,1,0,.1c0,.07-.05.14-.07.21s-.07.19-.1.29a1.87,1.87,0,0,0-.07.22c0,.09-.06.18-.08.26a1.42,1.42,0,0,0-.05.16c0,.1-.05.2-.08.29s0,.22-.08.33l0,.11a2,2,0,0,1,0,.24c0,.17-.06.33-.08.5l0,.14,0,.32a1.64,1.64,0,0,0,0,.22c0,.24,0,.47,0,.71l4.49,2.57c0-.23,0-.46,0-.7A1.64,1.64,0,0,0,160.34,309.12Z" transform="translate(0 0)"/><path class="cls-26" d="M166.7,299.09l0,7.29L160.29,310A13.91,13.91,0,0,1,166.7,299.09Z" transform="translate(0 0)"/></g><g class="cls-1"><path class="cls-25" d="M164.84,311.7c0-.15,0-.3,0-.45l.09-.51c0-.12,0-.23.07-.35s0-.21.08-.32l.12-.46c0-.08.05-.17.08-.26s.11-.34.17-.5l.08-.21c.09-.24.18-.47.28-.7l0-.08c.09-.21.19-.41.29-.62a1.14,1.14,0,0,0,.1-.19l.31-.57.07-.11c.13-.22.26-.44.4-.65l.12-.18.32-.46.18-.23.29-.37.25-.3c.08-.09.17-.18.25-.28l.42-.44.28-.27.21-.2.37-.32.22-.18.4-.3.2-.14c.2-.13.4-.26.61-.38l-4.49-2.58-.62.38-.19.14-.41.3-.21.18-.37.32-.21.2-.14.12-.14.15a6,6,0,0,0-.42.45l-.14.14-.11.13-.25.3-.16.2a1.09,1.09,0,0,0-.13.17l-.18.24-.12.16c-.07.09-.13.19-.2.29l-.12.18a.35.35,0,0,0-.05.08,5.84,5.84,0,0,0-.33.53l0,0-.06.12-.22.38-.09.18c0,.07-.07.13-.1.19a1.3,1.3,0,0,0-.08.17,3.82,3.82,0,0,0-.21.46.16.16,0,0,0,0,.07v0c-.08.19-.16.38-.23.57a.49.49,0,0,0,0,.11l-.08.21-.1.28a1.87,1.87,0,0,0-.07.22,2.76,2.76,0,0,0-.08.27.75.75,0,0,0,0,.16,2.46,2.46,0,0,0-.07.29c0,.11-.06.21-.08.32l0,.12a1.57,1.57,0,0,0,0,.23,4.54,4.54,0,0,0-.09.51l0,.14,0,.31a1.79,1.79,0,0,1,0,.23c0,.23,0,.47,0,.7l4.49,2.58c0-.23,0-.47,0-.7Z" transform="translate(0 0)"/><path class="cls-26" d="M171.19,301.67l0,7.29-6.43,3.67A13.91,13.91,0,0,1,171.19,301.67Z" transform="translate(0 0)"/></g><g class="cls-1"><path class="cls-27" d="M169.33,314.28c0-.15,0-.3,0-.45l.09-.51c0-.11,0-.23.07-.35s.05-.21.08-.32l.12-.45c0-.09.06-.18.08-.26s.11-.34.18-.51.05-.14.07-.21c.09-.23.18-.47.29-.7l0-.07c.09-.21.19-.42.3-.62l.09-.19c.1-.2.21-.38.32-.57l.06-.12.4-.65.13-.18.32-.45.17-.24.3-.37.24-.3.25-.27a6.14,6.14,0,0,1,.43-.45l.27-.27a2.09,2.09,0,0,1,.22-.2l.36-.31.22-.18c.13-.11.27-.21.4-.3l.2-.14c.2-.14.4-.27.61-.39l-4.49-2.58c-.21.12-.41.25-.61.39l-.2.14c-.13.09-.27.19-.4.3l-.22.18-.37.31-.21.2-.14.12-.14.15-.42.45-.14.14-.11.13-.25.3-.16.2-.13.17-.18.24-.12.16c-.07.1-.13.2-.2.29l-.12.19,0,.07-.33.54,0,0a.41.41,0,0,0-.07.11l-.21.38a1.74,1.74,0,0,0-.1.19l-.1.19-.08.16-.21.46a.25.25,0,0,1,0,.07v0c-.08.19-.16.38-.23.57a.49.49,0,0,0,0,.11l-.08.21-.1.28a2,2,0,0,1-.07.23c0,.08-.05.17-.08.26s0,.11-.05.16,0,.19-.07.29-.06.22-.08.33l0,.11a1.85,1.85,0,0,0,0,.23l-.09.51a.68.68,0,0,0,0,.14c0,.11,0,.21,0,.31l0,.23c0,.24,0,.47,0,.7l4.5,2.58c0-.23,0-.46,0-.7A1.79,1.79,0,0,1,169.33,314.28Z" transform="translate(0 0)"/><path class="cls-28" d="M175.68,304.25l0,7.3-6.42,3.66A13.92,13.92,0,0,1,175.68,304.25Z" transform="translate(0 0)"/></g><polygon class="cls-29" points="313.45 285.39 313.47 289.23 320.06 285.42 320.05 281.59 313.45 285.39"/><polygon class="cls-29" points="301.2 292.43 301.22 296.27 307.81 292.46 307.8 288.62 301.2 292.43"/><polygon class="cls-29" points="309.32 366.31 309.34 370.15 315.93 366.34 315.92 362.5 309.32 366.31"/><polygon class="cls-29" points="263.12 395.62 263.13 399.46 269.73 395.65 269.72 391.81 263.12 395.62"/><polygon class="cls-29" points="296.88 373.48 296.89 377.31 303.49 373.51 303.47 369.67 296.88 373.48"/><polygon class="cls-29" points="290.27 366.56 290.28 370.39 296.88 366.59 296.86 362.75 290.27 366.56"/><polygon class="cls-29" points="260.92 315.65 260.93 319.49 267.52 315.68 267.51 311.84 260.92 315.65"/><polygon class="cls-19" points="406.13 247.5 380.88 261.97 380.88 312.19 406.13 297.61 406.13 247.5"/><polygon class="cls-20" points="406.13 247.5 380.88 261.97 380.88 268.44 406.13 253.87 406.13 247.5"/><polygon class="cls-21" points="404.66 296.57 404.66 248.35 406.13 247.5 406.13 297.61 380.88 312.19 380.88 310.3 404.66 296.57"/><line class="cls-22" x1="398.59" y1="261.15" x2="385.88" y2="291.57"/><line class="cls-22" x1="401.63" y1="270.44" x2="392.63" y2="291.98"/><polygon class="cls-19" points="366.29 270.44 341.04 284.9 341.04 335.12 366.29 320.55 366.29 270.44"/><polygon class="cls-20" points="366.29 270.44 341.04 284.9 341.04 291.38 366.29 276.8 366.29 270.44"/><polygon class="cls-21" points="364.82 319.51 364.82 271.28 366.29 270.44 366.29 320.55 341.04 335.12 341.04 333.23 364.82 319.51"/><line class="cls-22" x1="358.75" y1="284.09" x2="346.04" y2="314.5"/><line class="cls-22" x1="361.79" y1="293.38" x2="352.79" y2="314.91"/><polygon class="cls-15" points="402.45 237.4 402.47 241.23 409.06 237.42 409.05 233.59 402.45 237.4"/><polygon class="cls-15" points="390.2 244.43 390.22 248.27 396.81 244.46 396.8 240.62 390.2 244.43"/><polygon class="cls-15" points="340.29 354.59 340.3 358.43 346.9 354.62 346.88 350.78 340.29 354.59"/><polygon class="cls-15" points="352.12 347.62 352.13 351.46 358.73 347.65 358.72 343.81 352.12 347.62"/><polygon class="cls-15" points="356.81 262.37 356.83 266.2 363.42 262.39 363.41 258.56 356.81 262.37"/><polygon class="cls-15" points="343.59 341.85 343.61 345.69 350.2 341.88 350.19 338.04 343.59 341.85"/><polygon class="cls-15" points="398.32 309.78 398.34 313.62 404.93 309.81 404.92 305.97 398.32 309.78"/><polygon class="cls-29" points="222.62 313.97 222.61 317.81 216.01 314 216.03 310.17 222.62 313.97"/><polygon class="cls-29" points="212.74 390.25 212.73 394.09 206.13 390.28 206.14 386.44 212.74 390.25"/><polygon class="cls-13" points="103.18 339.96 103.17 343.8 96.57 339.99 96.59 336.15 103.18 339.96"/><polygon class="cls-13" points="90.8 323.16 90.78 326.99 84.19 323.18 84.2 319.35 90.8 323.16"/><polygon class="cls-13" points="104.29 253.42 104.28 257.26 97.68 253.45 97.7 249.61 104.29 253.42"/><polygon class="cls-29" points="222.62 404.88 222.61 408.72 216.01 404.91 216.03 401.07 222.62 404.88"/><polygon class="cls-29" points="233 312.25 232.98 316.09 226.39 312.28 226.4 308.44 233 312.25"/><path class="cls-30" d="M179.12,269.14c-.07-.65-.14-1.3-.24-2s-.23-1.45-.37-2.18c-.1-.5-.18-1-.29-1.5s-.23-.93-.35-1.39c-.16-.65-.33-1.3-.52-1.95-.11-.38-.22-.75-.34-1.13-.23-.73-.47-1.46-.73-2.19-.11-.3-.21-.6-.33-.9-.38-1-.77-2-1.21-3,0-.11-.1-.22-.14-.33-.4-.89-.82-1.78-1.26-2.66l-.42-.83c-.42-.82-.86-1.64-1.32-2.45l-.27-.48c-.55-.95-1.13-1.88-1.72-2.8l-.53-.79c-.44-.66-.9-1.31-1.36-2l-.75-1c-.41-.54-.83-1.06-1.24-1.58s-.71-.87-1.07-1.3-.69-.78-1-1.17c-.59-.67-1.2-1.32-1.82-1.95-.38-.39-.77-.78-1.16-1.16l-.92-.86c-.51-.46-1-.91-1.55-1.35-.31-.26-.62-.52-.94-.77-.56-.45-1.14-.88-1.71-1.3-.28-.2-.55-.41-.83-.6-.86-.59-1.73-1.15-2.61-1.66a33,33,0,0,0-3.43-1.7c-.37-.16-.72-.3-1.08-.43-.65-.26-1.29-.48-1.92-.67-.41-.12-.82-.24-1.22-.34l-1.12-.24c-.49-.09-1-.17-1.45-.22l-.82-.08a17.43,17.43,0,0,0-1.76,0h-.39a16.16,16.16,0,0,0-2,.25l-.49.11a15.2,15.2,0,0,0-1.5.44l-.46.16a12.88,12.88,0,0,0-1.8.85l6.63-3.85.15-.09a13.52,13.52,0,0,1,1.38-.67l.27-.09.46-.17c.24-.08.47-.18.71-.25s.53-.12.79-.18l.49-.11a2,2,0,0,1,.26-.06,14.87,14.87,0,0,1,1.65-.2.41.41,0,0,0,.11,0c.13,0,.26,0,.39,0,.43,0,.87,0,1.31,0l.45,0c.27,0,.55.05.82.08s.51,0,.77.07l.68.15,1.12.24c.2,0,.4.07.61.13s.41.15.61.21q.94.28,1.92.66c.23.09.45.14.68.24s.27.14.4.19a35.29,35.29,0,0,1,3.43,1.71c.88.51,1.75,1.07,2.61,1.66.28.19.55.4.83.6.58.42,1.15.84,1.71,1.29.32.25.63.52.94.78.52.44,1,.89,1.55,1.35l.92.86c.19.18.39.35.58.54s.38.42.58.62c.62.63,1.23,1.28,1.83,1.94.18.21.39.41.57.62s.31.38.46.56c.36.43.72.86,1.07,1.3.23.28.47.55.69.84s.36.49.54.73.51.69.76,1l.52.71c.29.41.56.83.84,1.25l.53.79.21.32c.49.76,1,1.53,1.42,2.31,0,.06,0,.11.08.16l.28.5c.31.55.63,1.09.92,1.65.14.26.27.53.4.79l.42.82.36.71c.31.65.61,1.31.9,2,0,.11.1.22.14.32a.3.3,0,0,1,0,.1c.36.81.69,1.63,1,2.45.06.15.1.3.16.46s.22.6.33.9.3.81.43,1.22.2.64.3,1,.23.75.34,1.12.15.47.21.7c.12.42.21.84.31,1.26s.24.93.35,1.39c0,.16.08.33.11.49.08.33.11.67.18,1,.14.73.27,1.46.37,2.19,0,.2.08.4.11.6,0,.46.08.9.13,1.36s.07.65.09,1c.08,1,.13,2,.13,3,0,8.63-3.07,14.7-8,17.55l-6.63,3.85c4.91-2.85,7.95-8.92,8-17.55,0-1-.05-2-.13-3C179.19,269.79,179.15,269.47,179.12,269.14Z" transform="translate(0 0)"/><path class="cls-3" d="M152.08,225.92c-15.1-8.71-27.39-1.71-27.44,15.64s12.17,38.49,27.26,47.21,27.39,1.73,27.44-15.64S167.19,234.65,152.08,225.92Z" transform="translate(0 0)"/><path class="cls-31" d="M137,246.22a3,3,0,0,1-.51-.21,3.91,3.91,0,0,1-.65-.4,6.31,6.31,0,0,1-2-2.37,2.82,2.82,0,0,1-.33-1.52c0-.42.28-.67.62-.68.07,0,.25,0,.49-.3h0l-.11,0a3.1,3.1,0,0,0-1.16.63,7,7,0,0,0-1.46,1.71c0,.33,0,.66,0,1a32.82,32.82,0,0,0,1,7.67,3.22,3.22,0,0,0,1.2-.2,8.07,8.07,0,0,1,.8-2.9A6.31,6.31,0,0,1,137,246.22Zm-1-9.4a9.11,9.11,0,0,1,3.45,4.7,5.93,5.93,0,0,1,.23,2.6,4.63,4.63,0,0,1-.33,1.22,5.59,5.59,0,0,1,2.93.41h0l.31.17a1.51,1.51,0,0,1,.3.13,8.26,8.26,0,0,1,.79.49,10.21,10.21,0,0,1,3.34,4.39c.13.33.24.65.34,1l1.38-3.61c1.14-2.88,3.18-3.59,6.09-2.13a6.92,6.92,0,0,1,.85.52A8.1,8.1,0,0,1,157,248c.16.19.31.37.46.57a5.09,5.09,0,0,1,3.28.65,6,6,0,0,1,.88.53,8.38,8.38,0,0,1,2.08,2.22,5.86,5.86,0,0,1,1.17,4.45,1.23,1.23,0,0,1-1,.95,6.66,6.66,0,0,1,2.09.66,11.58,11.58,0,0,1,1.42.84l0,0c-3.26-9-9.44-17.94-16.53-23-7.4-5.32-13.8-5-16.93-.15l.4.18A12.18,12.18,0,0,1,135.92,236.82ZM167.8,274a7.52,7.52,0,0,1-.62-1.15,3.5,3.5,0,0,1-1,.42,5.52,5.52,0,0,1-4-.67,8.85,8.85,0,0,1-1.33-.8,9.26,9.26,0,0,1-2.39-2.52,7.68,7.68,0,0,1-1.28-4l-1.93,4.89a3.94,3.94,0,0,1-2.8,2.78,5.1,5.1,0,0,1-3.28-.66,8.47,8.47,0,0,1-1.06-.63,7.46,7.46,0,0,1-1.7-1.71,5.17,5.17,0,0,1-3.21-.66,6.52,6.52,0,0,1-.87-.53,8.28,8.28,0,0,1-2.08-2.23,6.2,6.2,0,0,1-1.23-4.12,2.12,2.12,0,0,1,.41-1.05l-.18-.07a7.27,7.27,0,0,1-1.06-.64,9.74,9.74,0,0,1-2.87-3.38c-.14-.26-.26-.52-.38-.78a5.08,5.08,0,0,1-.55.18c3.27,9,9.43,17.87,16.5,23,9.06,6.51,16.63,4.63,18.52-3.82A9.09,9.09,0,0,1,167.8,274Z" transform="translate(0 0)"/><path class="cls-12" d="M171.82,270.48a5.87,5.87,0,0,0,4.17.42,3,3,0,0,0,2.17-2.66,3.07,3.07,0,0,0-.38-2,5.12,5.12,0,0,0-2.22-1.79,4.87,4.87,0,0,0-2.07-.56,4.08,4.08,0,0,0-3.35,1.3,8.06,8.06,0,0,0-2.17,4.6,5,5,0,0,0,.64,3.46,6.59,6.59,0,0,0,2.64,2.28,4.17,4.17,0,0,0,5.51-1.36,11.25,11.25,0,0,1-2.29.12,3.32,3.32,0,0,1-1.53-.35,2.42,2.42,0,0,1-1.28-2.78A3.83,3.83,0,0,1,171.82,270.48Zm1.38-3q1.44-2.07,2.61-1.53a1,1,0,0,1,.48,1.18,2.8,2.8,0,0,1-4.14,2.28A10.53,10.53,0,0,1,173.2,267.48Zm-9.54,2.08a3,3,0,0,1-1.19-1,2.75,2.75,0,0,1-.21-1.85c0-.19.09-.5.19-.93a5.83,5.83,0,0,0,4.16.41,3,3,0,0,0,2.18-2.65,3.11,3.11,0,0,0-.38-2,5.12,5.12,0,0,0-2.22-1.79,5,5,0,0,0-2.07-.57,4.14,4.14,0,0,0-3.35,1.31,8.06,8.06,0,0,0-2.17,4.6,4.93,4.93,0,0,0,.63,3.46,6.56,6.56,0,0,0,2.67,2.28,4.6,4.6,0,0,0,3.43.56,3.18,3.18,0,0,0,2-1.55,5.85,5.85,0,0,1-1.2.3A4.31,4.31,0,0,1,163.66,269.56Zm.82-7.65c.7-.74,1.35-1,2-.68a1,1,0,0,1,.49,1.18,2.81,2.81,0,0,1-1.46,2.25,2.93,2.93,0,0,1-2.66,0A8.13,8.13,0,0,1,164.48,261.91Zm-3.21-4.41-2.45-1.24.72-1.75q.71-1.68,2-1a1.63,1.63,0,0,1,.54.49c.16.23.61,1.32,0,1.38,0,0,1.12.44,1.36-.37a3,3,0,0,0-.61-2.31,5.08,5.08,0,0,0-1.92-1.75c-1.43-.71-2.62-.77-3.56-.17a4.39,4.39,0,0,0-.92-1.65,5,5,0,0,0-1.49-1.18q-3.58-1.8-5,1.84l-5.47,14.29a2.09,2.09,0,0,1-.85,1.16,2,2,0,0,1-1.24-.28c-1.42-.55-1.39-1.81-.53-2.3-1.07,0-1.43.37-1.52,1a3.15,3.15,0,0,0,.65,2.15,4.83,4.83,0,0,0,1.91,1.75c1.44.73,2.62.78,3.53.16a5,5,0,0,0,5.11,3.39,3.34,3.34,0,0,0,2.35-2.39l4.58-11.59a7.36,7.36,0,0,0,2,.76C160.84,257.94,161.27,257.5,161.27,257.5ZM150.33,267a2,2,0,0,1-.86,1.15.94.94,0,0,1-.85,0,2.61,2.61,0,0,1-1.36-1.2,5.8,5.8,0,0,0,.67-1.23l4.59-11.59,2.42,1.22Zm6-15.35a3.1,3.1,0,0,1-.13.58l-.91,2.25-2.43-1.23.72-1.75q.7-1.68,2-1a1.53,1.53,0,0,1,.54.49A.92.92,0,0,1,156.31,251.65Zm-14.26-1.09c1-1.25.82-2.89.5-3a5,5,0,0,0-6.4,2.66,7.3,7.3,0,0,0-.73,3,5.05,5.05,0,0,1-4.73-.33,4,4,0,0,1-2.06-2.07,6.83,6.83,0,0,1-.21-3.42A15.13,15.13,0,0,1,129.8,243a9.59,9.59,0,0,1,2.46-3.39,3.43,3.43,0,0,1,1.39-.74,2.36,2.36,0,0,1,2.48,1.2,2.26,2.26,0,0,1,.19,1.25,2,2,0,0,1-.52,1.11,1.29,1.29,0,0,1-.91.49,2.92,2.92,0,0,0,1.3,1.32c1.15.58,1.83.13,2-1.35a3.85,3.85,0,0,0-.11-1.63,6.37,6.37,0,0,0-3.53-3.65,6.25,6.25,0,0,0-4.22-.7,6.68,6.68,0,0,0-4.23,3.56,15,15,0,0,0-1.86,5.51,8,8,0,0,0,.67,5,8.64,8.64,0,0,0,3.8,3.39l.07,0a7.36,7.36,0,0,0,3.14.64c3-.22,3.43-1.61,3.47-1.82a7,7,0,0,0,2.74,5.81,5,5,0,0,0,.79.47,6.15,6.15,0,0,1,0-5.76C139.65,252.58,141.2,251.6,142.05,250.56Zm3.56,6.45a7.27,7.27,0,0,0-2-8.87c-.19-.13-.39-.25-.59-.36a5.09,5.09,0,0,1,.34,3.95c-.37,1.42-1.84,3.28-3,4.7a3.8,3.8,0,0,0-.92,3.31A5,5,0,0,0,145.61,257Z" transform="translate(0 0)"/><path class="cls-32" d="M172,192.34h-1.62c-2.85-3.67-9.18-6.24-16.6-6.29s-14.09,2.54-17,6.29h-1.61v4.85h0c.45,5.58,8.38,10.06,18.19,10.12s18.12-4.43,18.59-10.12h0Z" transform="translate(0 0)"/><ellipse class="cls-33" cx="153.58" cy="192.88" rx="18.41" ry="10.63"/><path class="cls-34" d="M166.6,193a5.68,5.68,0,0,1-2.24,4.13c-2.37,2-6.38,3.33-10.92,3.31-7.19-.05-12.95-3.45-12.88-7.61a5.15,5.15,0,0,1,1.28-3.17c2.12-2.54,6.66-4.29,11.88-4.25C160.91,185.41,166.67,188.81,166.6,193Z" transform="translate(0 0)"/><path class="cls-34" d="M165.64,193.91a5.1,5.1,0,0,1-1.28,3.18c-2.37,2-6.38,3.33-10.92,3.31-7.19-.05-12.95-3.45-12.88-7.61a5.15,5.15,0,0,1,1.28-3.17c2.37-2,6.39-3.33,10.93-3.3C160,186.37,165.72,189.77,165.64,193.91Z" transform="translate(0 0)"/><path class="cls-33" d="M154.8,196.54a4.47,4.47,0,0,1-2.44-.69l-.35-.21,2.38-1.35.25.15a2.21,2.21,0,0,0,1,.35,1.64,1.64,0,0,0,.82-.21c.26-.15.37-.31.34-.48a.68.68,0,0,0-.39-.47,1.81,1.81,0,0,0-1-.25,5.48,5.48,0,0,0-1.17.14l-1.31.3a8.37,8.37,0,0,1-1.43.24A6.52,6.52,0,0,1,150,194a4.78,4.78,0,0,1-1.57-.6q-2.42-1.44-.38-3l-.76-.44,1.22-.69.76.44a5.93,5.93,0,0,1,2.71-.62,5.47,5.47,0,0,1,2.59.84l-2.31,1.3-.2-.11a2.48,2.48,0,0,0-.85-.31,1.24,1.24,0,0,0-.82.13c-.27.15-.38.31-.34.48a.76.76,0,0,0,.37.43,1.83,1.83,0,0,0,1,.25,5.92,5.92,0,0,0,1.2-.16c.43-.09.87-.2,1.33-.33a9.67,9.67,0,0,1,1.46-.26,6,6,0,0,1,1.57.06,5,5,0,0,1,1.65.63c.88.52,1.3,1,1.25,1.55s-.47,1.06-1.29,1.63l1.17.69-1.22.69-1.17-.69A6.63,6.63,0,0,1,154.8,196.54Z" transform="translate(0 0)"/><path class="cls-33" d="M171.19,193.9a3.83,3.83,0,0,1-1.85.44c-1.49,0-2.71-.68-2.72-1.54-.07-4.06-5.85-7.4-12.89-7.45-1.49,0-2.68-.71-2.67-1.57s1.24-1.54,2.72-1.54a26.53,26.53,0,0,1,12.84,3.13c3.42,2,5.33,4.61,5.38,7.4A1.35,1.35,0,0,1,171.19,193.9Z" transform="translate(0 0)"/><path class="cls-35" d="M155.64,184.91a3.85,3.85,0,0,1-1.91.44,21.41,21.41,0,0,0-4.72.48c-1.39.3-2.94-.11-3.47-.91s.19-1.7,1.58-2a31,31,0,0,1,6.66-.68c1.49,0,2.68.72,2.67,1.58A1.39,1.39,0,0,1,155.64,184.91Z" transform="translate(0 0)"/><path class="cls-35" d="M161.8,200.1a1.16,1.16,0,0,1,0,2.19,4.19,4.19,0,0,1-3.78,0,1.16,1.16,0,0,1,0-2.19A4.19,4.19,0,0,1,161.8,200.1Z" transform="translate(0 0)"/><path class="cls-35" d="M155.69,200.86a3.85,3.85,0,0,0-1.91-.44,21.41,21.41,0,0,1-4.72-.48c-1.39-.3-2.94.11-3.47.91s.19,1.7,1.58,2a30.37,30.37,0,0,0,6.67.67c1.48,0,2.67-.71,2.66-1.57A1.37,1.37,0,0,0,155.69,200.86Z" transform="translate(0 0)"/><path class="cls-32" d="M172,185.34h-1.62c-2.85-3.67-9.18-6.24-16.6-6.29s-14.09,2.54-17,6.29h-1.61v4.85h0c.45,5.58,8.38,10.06,18.19,10.12s18.12-4.43,18.59-10.12h0Z" transform="translate(0 0)"/><ellipse class="cls-33" cx="153.58" cy="185.88" rx="18.41" ry="10.63"/><path class="cls-34" d="M166.6,186a5.68,5.68,0,0,1-2.24,4.13c-2.37,2-6.38,3.33-10.92,3.31-7.19-.05-12.95-3.45-12.88-7.61a5.15,5.15,0,0,1,1.28-3.17c2.12-2.54,6.66-4.29,11.88-4.25C160.91,178.41,166.67,181.81,166.6,186Z" transform="translate(0 0)"/><path class="cls-34" d="M165.64,186.91a5.1,5.1,0,0,1-1.28,3.18c-2.37,2-6.38,3.33-10.92,3.31-7.19-.05-12.95-3.45-12.88-7.61a5.15,5.15,0,0,1,1.28-3.17c2.37-2,6.39-3.33,10.93-3.3C160,179.37,165.72,182.77,165.64,186.91Z" transform="translate(0 0)"/><path class="cls-33" d="M154.8,189.54a4.47,4.47,0,0,1-2.44-.69l-.35-.21,2.38-1.35.25.15a2.21,2.21,0,0,0,1,.35,1.64,1.64,0,0,0,.82-.21c.26-.15.37-.31.34-.48a.68.68,0,0,0-.39-.47,1.81,1.81,0,0,0-1-.25,5.48,5.48,0,0,0-1.17.14l-1.31.3a8.37,8.37,0,0,1-1.43.24A6.52,6.52,0,0,1,150,187a4.78,4.78,0,0,1-1.57-.6q-2.42-1.44-.38-3l-.76-.44,1.22-.69.76.44a5.93,5.93,0,0,1,2.71-.62,5.47,5.47,0,0,1,2.59.84l-2.31,1.3-.2-.11a2.48,2.48,0,0,0-.85-.31,1.24,1.24,0,0,0-.82.13c-.27.15-.38.31-.34.48a.76.76,0,0,0,.37.43,1.83,1.83,0,0,0,1,.25,5.92,5.92,0,0,0,1.2-.16c.43-.09.87-.2,1.33-.33a9.67,9.67,0,0,1,1.46-.26,6,6,0,0,1,1.57.06,5,5,0,0,1,1.65.63c.88.52,1.3,1,1.25,1.55s-.47,1.06-1.29,1.63l1.17.69-1.22.69-1.17-.69A6.63,6.63,0,0,1,154.8,189.54Z" transform="translate(0 0)"/><path class="cls-33" d="M171.19,186.9a3.83,3.83,0,0,1-1.85.44c-1.49,0-2.71-.68-2.72-1.54-.07-4.06-5.85-7.4-12.89-7.45-1.49,0-2.68-.71-2.67-1.57s1.24-1.54,2.72-1.54a26.53,26.53,0,0,1,12.84,3.13c3.42,2,5.33,4.61,5.38,7.4A1.35,1.35,0,0,1,171.19,186.9Z" transform="translate(0 0)"/><path class="cls-35" d="M155.64,177.91a3.85,3.85,0,0,1-1.91.44,21.41,21.41,0,0,0-4.72.48c-1.39.3-2.94-.11-3.47-.91s.19-1.7,1.58-2a31,31,0,0,1,6.66-.68c1.49,0,2.68.72,2.67,1.58A1.39,1.39,0,0,1,155.64,177.91Z" transform="translate(0 0)"/><path class="cls-35" d="M161.8,193.1a1.16,1.16,0,0,1,0,2.19,4.19,4.19,0,0,1-3.78,0,1.16,1.16,0,0,1,0-2.19A4.19,4.19,0,0,1,161.8,193.1Z" transform="translate(0 0)"/><path class="cls-35" d="M155.69,193.86a3.85,3.85,0,0,0-1.91-.44,21.41,21.41,0,0,1-4.72-.48c-1.39-.3-2.94.11-3.47.91s.19,1.7,1.58,2a30.37,30.37,0,0,0,6.67.67c1.48,0,2.67-.71,2.66-1.57A1.37,1.37,0,0,0,155.69,193.86Z" transform="translate(0 0)"/><path class="cls-32" d="M172,178.34h-1.62c-2.85-3.67-9.18-6.24-16.6-6.29s-14.09,2.54-17,6.29h-1.61v4.85h0c.45,5.58,8.38,10.06,18.19,10.12s18.12-4.43,18.59-10.12h0Z" transform="translate(0 0)"/><ellipse class="cls-33" cx="153.58" cy="178.88" rx="18.41" ry="10.63"/><path class="cls-34" d="M166.6,179a5.68,5.68,0,0,1-2.24,4.13c-2.37,2-6.38,3.33-10.92,3.31-7.19-.05-12.95-3.45-12.88-7.61a5.15,5.15,0,0,1,1.28-3.17c2.12-2.54,6.66-4.29,11.88-4.25C160.91,171.41,166.67,174.81,166.6,179Z" transform="translate(0 0)"/><path class="cls-34" d="M165.64,179.91a5.1,5.1,0,0,1-1.28,3.18c-2.37,2-6.38,3.33-10.92,3.31-7.19-.05-12.95-3.45-12.88-7.61a5.15,5.15,0,0,1,1.28-3.17c2.37-2,6.39-3.33,10.93-3.3C160,172.37,165.72,175.77,165.64,179.91Z" transform="translate(0 0)"/><path class="cls-33" d="M154.8,182.54a4.47,4.47,0,0,1-2.44-.69l-.35-.21,2.38-1.35.25.15a2.21,2.21,0,0,0,1,.35,1.64,1.64,0,0,0,.82-.21c.26-.15.37-.31.34-.48a.68.68,0,0,0-.39-.47,1.81,1.81,0,0,0-1-.25,5.48,5.48,0,0,0-1.17.14l-1.31.3a8.37,8.37,0,0,1-1.43.24A6.52,6.52,0,0,1,150,180a4.78,4.78,0,0,1-1.57-.6q-2.42-1.44-.38-3l-.76-.44,1.22-.69.76.44a5.93,5.93,0,0,1,2.71-.62,5.47,5.47,0,0,1,2.59.84l-2.31,1.3-.2-.11a2.48,2.48,0,0,0-.85-.31,1.24,1.24,0,0,0-.82.13c-.27.15-.38.31-.34.48a.76.76,0,0,0,.37.43,1.83,1.83,0,0,0,1,.25,5.92,5.92,0,0,0,1.2-.16c.43-.09.87-.2,1.33-.33a9.67,9.67,0,0,1,1.46-.26,6,6,0,0,1,1.57.06,5,5,0,0,1,1.65.63c.88.52,1.3,1,1.25,1.55s-.47,1.06-1.29,1.63l1.17.69-1.22.69-1.17-.69A6.63,6.63,0,0,1,154.8,182.54Z" transform="translate(0 0)"/><path class="cls-33" d="M171.19,179.9a3.83,3.83,0,0,1-1.85.44c-1.49,0-2.71-.68-2.72-1.54-.07-4.06-5.85-7.4-12.89-7.45-1.49,0-2.68-.71-2.67-1.57s1.24-1.54,2.72-1.54a26.53,26.53,0,0,1,12.84,3.13c3.42,2,5.33,4.61,5.38,7.4A1.35,1.35,0,0,1,171.19,179.9Z" transform="translate(0 0)"/><path class="cls-35" d="M155.64,170.91a3.85,3.85,0,0,1-1.91.44,21.41,21.41,0,0,0-4.72.48c-1.39.3-2.94-.11-3.47-.91s.19-1.7,1.58-2a31,31,0,0,1,6.66-.68c1.49,0,2.68.72,2.67,1.58A1.39,1.39,0,0,1,155.64,170.91Z" transform="translate(0 0)"/><path class="cls-35" d="M161.8,186.1a1.16,1.16,0,0,1,0,2.19,4.19,4.19,0,0,1-3.78,0,1.16,1.16,0,0,1,0-2.19A4.19,4.19,0,0,1,161.8,186.1Z" transform="translate(0 0)"/><path class="cls-35" d="M155.69,186.86a3.85,3.85,0,0,0-1.91-.44,21.41,21.41,0,0,1-4.72-.48c-1.39-.3-2.94.11-3.47.91s.19,1.7,1.58,2a30.37,30.37,0,0,0,6.67.67c1.48,0,2.67-.71,2.66-1.57A1.37,1.37,0,0,0,155.69,186.86Z" transform="translate(0 0)"/><path class="cls-32" d="M262,110.34h-1.62c-2.85-3.67-9.18-6.24-16.6-6.29s-14.09,2.54-17,6.29h-1.61v4.85h0c.45,5.58,8.38,10.06,18.19,10.12s18.12-4.43,18.59-10.12h0Z" transform="translate(0 0)"/><ellipse class="cls-33" cx="243.58" cy="110.88" rx="18.41" ry="10.63"/><path class="cls-34" d="M256.6,111a5.68,5.68,0,0,1-2.24,4.13c-2.37,2-6.38,3.33-10.92,3.31-7.19-.05-12.95-3.45-12.88-7.61a5.15,5.15,0,0,1,1.28-3.17c2.12-2.54,6.66-4.29,11.88-4.25C250.91,103.41,256.67,106.81,256.6,111Z" transform="translate(0 0)"/><path class="cls-34" d="M255.64,111.91a5.1,5.1,0,0,1-1.28,3.18c-2.37,2-6.38,3.33-10.92,3.31-7.19-.05-12.95-3.45-12.88-7.61a5.15,5.15,0,0,1,1.28-3.17c2.37-2,6.39-3.33,10.93-3.3C250,104.37,255.72,107.77,255.64,111.91Z" transform="translate(0 0)"/><path class="cls-33" d="M244.8,114.54a4.47,4.47,0,0,1-2.44-.69l-.35-.21,2.38-1.35.25.15a2.21,2.21,0,0,0,1,.35,1.64,1.64,0,0,0,.82-.21c.26-.15.37-.31.34-.48a.68.68,0,0,0-.39-.47,1.81,1.81,0,0,0-1-.25,5.48,5.48,0,0,0-1.17.14l-1.31.3a8.37,8.37,0,0,1-1.43.24A6.52,6.52,0,0,1,240,112a4.78,4.78,0,0,1-1.57-.6q-2.42-1.44-.38-3l-.76-.44,1.22-.69.76.44a5.93,5.93,0,0,1,2.71-.62,5.47,5.47,0,0,1,2.59.84l-2.31,1.3-.2-.11a2.48,2.48,0,0,0-.85-.31,1.24,1.24,0,0,0-.82.13c-.27.15-.38.31-.34.48a.76.76,0,0,0,.37.43,1.83,1.83,0,0,0,1,.25,5.92,5.92,0,0,0,1.2-.16c.43-.09.87-.2,1.33-.33a9.67,9.67,0,0,1,1.46-.26,6,6,0,0,1,1.57.06,5,5,0,0,1,1.65.63c.88.52,1.3,1,1.25,1.55s-.47,1.06-1.29,1.63l1.17.69-1.22.69-1.17-.69A6.63,6.63,0,0,1,244.8,114.54Z" transform="translate(0 0)"/><path class="cls-33" d="M261.19,111.9a3.83,3.83,0,0,1-1.85.44c-1.49,0-2.71-.68-2.72-1.54-.07-4.06-5.85-7.4-12.89-7.45-1.49,0-2.68-.71-2.67-1.57s1.24-1.54,2.72-1.54a26.53,26.53,0,0,1,12.84,3.13c3.42,2,5.33,4.61,5.38,7.4A1.35,1.35,0,0,1,261.19,111.9Z" transform="translate(0 0)"/><path class="cls-35" d="M245.64,102.91a3.85,3.85,0,0,1-1.91.44,21.41,21.41,0,0,0-4.72.48c-1.39.3-2.94-.11-3.47-.91s.19-1.7,1.58-2a31,31,0,0,1,6.66-.68c1.49,0,2.68.72,2.67,1.58A1.39,1.39,0,0,1,245.64,102.91Z" transform="translate(0 0)"/><path class="cls-35" d="M251.8,118.1a1.16,1.16,0,0,1,0,2.19,4.19,4.19,0,0,1-3.78,0,1.16,1.16,0,0,1,0-2.19A4.19,4.19,0,0,1,251.8,118.1Z" transform="translate(0 0)"/><path class="cls-35" d="M245.69,118.86a3.85,3.85,0,0,0-1.91-.44,21.41,21.41,0,0,1-4.72-.48c-1.39-.3-2.94.11-3.47.91s.19,1.7,1.58,2a30.37,30.37,0,0,0,6.67.67c1.48,0,2.67-.71,2.66-1.57A1.37,1.37,0,0,0,245.69,118.86Z" transform="translate(0 0)"/><path class="cls-32" d="M262,103.34h-1.62c-2.85-3.67-9.18-6.24-16.6-6.29s-14.09,2.54-17,6.29h-1.61v4.85h0c.45,5.58,8.38,10.06,18.19,10.12s18.12-4.43,18.59-10.12h0Z" transform="translate(0 0)"/><ellipse class="cls-33" cx="243.58" cy="103.88" rx="18.41" ry="10.63"/><path class="cls-34" d="M256.6,104a5.68,5.68,0,0,1-2.24,4.13c-2.37,2-6.38,3.33-10.92,3.31-7.19-.05-12.95-3.45-12.88-7.61a5.15,5.15,0,0,1,1.28-3.17c2.12-2.54,6.66-4.29,11.88-4.25C250.91,96.41,256.67,99.81,256.6,104Z" transform="translate(0 0)"/><path class="cls-34" d="M255.64,104.91a5.1,5.1,0,0,1-1.28,3.18c-2.37,2-6.38,3.33-10.92,3.31-7.19-.05-12.95-3.45-12.88-7.61a5.15,5.15,0,0,1,1.28-3.17c2.37-2,6.39-3.33,10.93-3.3C250,97.37,255.72,100.77,255.64,104.91Z" transform="translate(0 0)"/><path class="cls-33" d="M244.8,107.54a4.47,4.47,0,0,1-2.44-.69l-.35-.21,2.38-1.35.25.15a2.21,2.21,0,0,0,1,.35,1.64,1.64,0,0,0,.82-.21c.26-.15.37-.31.34-.48a.68.68,0,0,0-.39-.47,1.81,1.81,0,0,0-1-.25,5.48,5.48,0,0,0-1.17.14l-1.31.3a8.37,8.37,0,0,1-1.43.24A6.52,6.52,0,0,1,240,105a4.78,4.78,0,0,1-1.57-.6q-2.42-1.44-.38-3l-.76-.44,1.22-.69.76.44a5.93,5.93,0,0,1,2.71-.62,5.47,5.47,0,0,1,2.59.84l-2.31,1.3-.2-.11a2.48,2.48,0,0,0-.85-.31,1.24,1.24,0,0,0-.82.13c-.27.15-.38.31-.34.48a.76.76,0,0,0,.37.43,1.83,1.83,0,0,0,1,.25,5.92,5.92,0,0,0,1.2-.16c.43-.09.87-.2,1.33-.33a9.67,9.67,0,0,1,1.46-.26,6,6,0,0,1,1.57.06,5,5,0,0,1,1.65.63c.88.52,1.3,1,1.25,1.55s-.47,1.06-1.29,1.63l1.17.69-1.22.69-1.17-.69A6.63,6.63,0,0,1,244.8,107.54Z" transform="translate(0 0)"/><path class="cls-33" d="M261.19,104.9a3.83,3.83,0,0,1-1.85.44c-1.49,0-2.71-.68-2.72-1.54-.07-4.06-5.85-7.4-12.89-7.45-1.49,0-2.68-.71-2.67-1.57s1.24-1.54,2.72-1.54a26.53,26.53,0,0,1,12.84,3.13c3.42,2,5.33,4.61,5.38,7.4A1.35,1.35,0,0,1,261.19,104.9Z" transform="translate(0 0)"/><path class="cls-35" d="M245.64,95.91a3.85,3.85,0,0,1-1.91.44,21.41,21.41,0,0,0-4.72.48c-1.39.3-2.94-.11-3.47-.91s.19-1.7,1.58-2a31,31,0,0,1,6.66-.68c1.49,0,2.68.72,2.67,1.58A1.39,1.39,0,0,1,245.64,95.91Z" transform="translate(0 0)"/><path class="cls-35" d="M251.8,111.1a1.16,1.16,0,0,1,0,2.19,4.19,4.19,0,0,1-3.78,0,1.16,1.16,0,0,1,0-2.19A4.19,4.19,0,0,1,251.8,111.1Z" transform="translate(0 0)"/><path class="cls-35" d="M245.69,111.86a3.85,3.85,0,0,0-1.91-.44,21.41,21.41,0,0,1-4.72-.48c-1.39-.3-2.94.11-3.47.91s.19,1.7,1.58,2a30.37,30.37,0,0,0,6.67.67c1.48,0,2.67-.71,2.66-1.57A1.37,1.37,0,0,0,245.69,111.86Z" transform="translate(0 0)"/><path class="cls-32" d="M262,96.34h-1.62c-2.85-3.67-9.18-6.24-16.6-6.29s-14.09,2.54-17,6.29h-1.61v4.85h0c.45,5.58,8.38,10.06,18.19,10.12s18.12-4.43,18.59-10.12h0Z" transform="translate(0 0)"/><ellipse class="cls-33" cx="243.58" cy="96.88" rx="18.41" ry="10.63"/><path class="cls-34" d="M256.6,97a5.68,5.68,0,0,1-2.24,4.13c-2.37,2-6.38,3.33-10.92,3.31-7.19-.05-12.95-3.45-12.88-7.61a5.15,5.15,0,0,1,1.28-3.17c2.12-2.54,6.66-4.29,11.88-4.25C250.91,89.41,256.67,92.81,256.6,97Z" transform="translate(0 0)"/><path class="cls-34" d="M255.64,97.91a5.1,5.1,0,0,1-1.28,3.18c-2.37,2-6.38,3.33-10.92,3.31-7.19-.05-12.95-3.45-12.88-7.61a5.15,5.15,0,0,1,1.28-3.17c2.37-2,6.39-3.33,10.93-3.3C250,90.37,255.72,93.77,255.64,97.91Z" transform="translate(0 0)"/><path class="cls-33" d="M244.8,100.54a4.47,4.47,0,0,1-2.44-.69l-.35-.21,2.38-1.35.25.15a2.21,2.21,0,0,0,1,.35,1.64,1.64,0,0,0,.82-.21c.26-.15.37-.31.34-.48a.68.68,0,0,0-.39-.47,1.81,1.81,0,0,0-1-.25,5.48,5.48,0,0,0-1.17.14l-1.31.3a8.37,8.37,0,0,1-1.43.24A6.52,6.52,0,0,1,240,98a4.78,4.78,0,0,1-1.57-.6q-2.42-1.44-.38-3l-.76-.44,1.22-.69.76.44a5.93,5.93,0,0,1,2.71-.62,5.47,5.47,0,0,1,2.59.84l-2.31,1.3-.2-.11a2.48,2.48,0,0,0-.85-.31,1.24,1.24,0,0,0-.82.13c-.27.15-.38.31-.34.48a.76.76,0,0,0,.37.43,1.83,1.83,0,0,0,1,.25,5.92,5.92,0,0,0,1.2-.16c.43-.09.87-.2,1.33-.33a9.67,9.67,0,0,1,1.46-.26,6,6,0,0,1,1.57.06,5,5,0,0,1,1.65.63c.88.52,1.3,1,1.25,1.55s-.47,1.06-1.29,1.63l1.17.69-1.22.69-1.17-.69A6.63,6.63,0,0,1,244.8,100.54Z" transform="translate(0 0)"/><path class="cls-33" d="M261.19,97.9a3.83,3.83,0,0,1-1.85.44c-1.49,0-2.71-.68-2.72-1.54-.07-4.06-5.85-7.4-12.89-7.45-1.49,0-2.68-.71-2.67-1.57s1.24-1.54,2.72-1.54a26.53,26.53,0,0,1,12.84,3.13c3.42,2,5.33,4.61,5.38,7.4A1.35,1.35,0,0,1,261.19,97.9Z" transform="translate(0 0)"/><path class="cls-35" d="M245.64,88.91a3.85,3.85,0,0,1-1.91.44,21.41,21.41,0,0,0-4.72.48c-1.39.3-2.94-.11-3.47-.91s.19-1.7,1.58-2a31,31,0,0,1,6.66-.68c1.49,0,2.68.72,2.67,1.58A1.39,1.39,0,0,1,245.64,88.91Z" transform="translate(0 0)"/><path class="cls-35" d="M251.8,104.1a1.16,1.16,0,0,1,0,2.19,4.19,4.19,0,0,1-3.78,0,1.16,1.16,0,0,1,0-2.19A4.19,4.19,0,0,1,251.8,104.1Z" transform="translate(0 0)"/><path class="cls-35" d="M245.69,104.86a3.85,3.85,0,0,0-1.91-.44,21.41,21.41,0,0,1-4.72-.48c-1.39-.3-2.94.11-3.47.91s.19,1.7,1.58,2a30.37,30.37,0,0,0,6.67.67c1.48,0,2.67-.71,2.66-1.57A1.37,1.37,0,0,0,245.69,104.86Z" transform="translate(0 0)"/><path class="cls-32" d="M262,89.34h-1.62c-2.85-3.67-9.18-6.24-16.6-6.29s-14.09,2.54-17,6.29h-1.61v4.85h0c.45,5.58,8.38,10.06,18.19,10.12S261.5,99.88,262,94.19h0Z" transform="translate(0 0)"/><ellipse class="cls-33" cx="243.58" cy="89.88" rx="18.41" ry="10.63"/><path class="cls-34" d="M256.6,90a5.68,5.68,0,0,1-2.24,4.13c-2.37,2-6.38,3.33-10.92,3.31-7.19-.05-12.95-3.45-12.88-7.61a5.15,5.15,0,0,1,1.28-3.17c2.12-2.54,6.66-4.29,11.88-4.25C250.91,82.41,256.67,85.81,256.6,90Z" transform="translate(0 0)"/><path class="cls-34" d="M255.64,90.91a5.1,5.1,0,0,1-1.28,3.18c-2.37,2-6.38,3.33-10.92,3.31-7.19-.05-12.95-3.45-12.88-7.61a5.15,5.15,0,0,1,1.28-3.17c2.37-2,6.39-3.33,10.93-3.3C250,83.37,255.72,86.77,255.64,90.91Z" transform="translate(0 0)"/><path class="cls-33" d="M244.8,93.54a4.47,4.47,0,0,1-2.44-.69l-.35-.21,2.38-1.35.25.15a2.21,2.21,0,0,0,1,.35,1.64,1.64,0,0,0,.82-.21c.26-.15.37-.31.34-.48a.68.68,0,0,0-.39-.47,1.81,1.81,0,0,0-1-.25,5.48,5.48,0,0,0-1.17.14l-1.31.3a8.37,8.37,0,0,1-1.43.24A6.52,6.52,0,0,1,240,91a4.78,4.78,0,0,1-1.57-.6q-2.42-1.44-.38-3l-.76-.44,1.22-.69.76.44a5.93,5.93,0,0,1,2.71-.62,5.47,5.47,0,0,1,2.59.84l-2.31,1.3-.2-.11a2.48,2.48,0,0,0-.85-.31,1.24,1.24,0,0,0-.82.13c-.27.15-.38.31-.34.48a.76.76,0,0,0,.37.43,1.83,1.83,0,0,0,1,.25,5.92,5.92,0,0,0,1.2-.16c.43-.09.87-.2,1.33-.33a9.67,9.67,0,0,1,1.46-.26,6,6,0,0,1,1.57.06,5,5,0,0,1,1.65.63c.88.52,1.3,1,1.25,1.55s-.47,1.06-1.29,1.63l1.17.69-1.22.69-1.17-.69A6.63,6.63,0,0,1,244.8,93.54Z" transform="translate(0 0)"/><path class="cls-33" d="M261.19,90.9a3.83,3.83,0,0,1-1.85.44c-1.49,0-2.71-.68-2.72-1.54-.07-4.06-5.85-7.4-12.89-7.45-1.49,0-2.68-.71-2.67-1.57s1.24-1.54,2.72-1.54a26.53,26.53,0,0,1,12.84,3.13c3.42,2,5.33,4.61,5.38,7.4A1.35,1.35,0,0,1,261.19,90.9Z" transform="translate(0 0)"/><path class="cls-35" d="M245.64,81.91a3.85,3.85,0,0,1-1.91.44,21.41,21.41,0,0,0-4.72.48c-1.39.3-2.94-.11-3.47-.91s.19-1.7,1.58-2a31,31,0,0,1,6.66-.68c1.49,0,2.68.72,2.67,1.58A1.39,1.39,0,0,1,245.64,81.91Z" transform="translate(0 0)"/><path class="cls-35" d="M251.8,97.1a1.16,1.16,0,0,1,0,2.19,4.19,4.19,0,0,1-3.78,0,1.16,1.16,0,0,1,0-2.19A4.19,4.19,0,0,1,251.8,97.1Z" transform="translate(0 0)"/><path class="cls-35" d="M245.69,97.86a3.85,3.85,0,0,0-1.91-.44,21.41,21.41,0,0,1-4.72-.48c-1.39-.3-2.94.11-3.47.91s.19,1.7,1.58,2a30.37,30.37,0,0,0,6.67.67c1.48,0,2.67-.71,2.66-1.57A1.37,1.37,0,0,0,245.69,97.86Z" transform="translate(0 0)"/><path class="cls-32" d="M350,217.34h-1.62c-2.85-3.67-9.18-6.24-16.6-6.29s-14.09,2.54-17,6.29h-1.61v4.85h0c.45,5.58,8.38,10.06,18.19,10.12s18.12-4.43,18.59-10.12h0Z" transform="translate(0 0)"/><ellipse class="cls-33" cx="331.58" cy="217.88" rx="18.41" ry="10.63"/><path class="cls-34" d="M344.6,218a5.68,5.68,0,0,1-2.24,4.13c-2.37,2-6.38,3.33-10.92,3.31-7.19-.05-12.95-3.45-12.88-7.61a5.15,5.15,0,0,1,1.28-3.17c2.12-2.54,6.66-4.29,11.88-4.25C338.91,210.41,344.67,213.81,344.6,218Z" transform="translate(0 0)"/><path class="cls-34" d="M343.64,218.91a5.1,5.1,0,0,1-1.28,3.18c-2.37,2-6.38,3.33-10.92,3.31-7.19-.05-12.95-3.45-12.88-7.61a5.15,5.15,0,0,1,1.28-3.17c2.37-2,6.39-3.33,10.93-3.3C338,211.37,343.72,214.77,343.64,218.91Z" transform="translate(0 0)"/><path class="cls-33" d="M332.8,221.54a4.47,4.47,0,0,1-2.44-.69l-.35-.21,2.38-1.35.25.15a2.21,2.21,0,0,0,1,.35,1.64,1.64,0,0,0,.82-.21c.26-.15.37-.31.34-.48a.68.68,0,0,0-.39-.47,1.81,1.81,0,0,0-1-.25,5.48,5.48,0,0,0-1.17.14l-1.31.3a8.37,8.37,0,0,1-1.43.24A6.52,6.52,0,0,1,328,219a4.78,4.78,0,0,1-1.57-.6q-2.41-1.44-.38-3l-.76-.44,1.22-.69.76.44a5.93,5.93,0,0,1,2.71-.62,5.47,5.47,0,0,1,2.59.84l-2.31,1.3-.2-.11a2.48,2.48,0,0,0-.85-.31,1.24,1.24,0,0,0-.82.13c-.27.15-.38.31-.34.48a.76.76,0,0,0,.37.43,1.83,1.83,0,0,0,1,.25,5.92,5.92,0,0,0,1.2-.16c.43-.09.87-.2,1.33-.33a9.67,9.67,0,0,1,1.46-.26,6,6,0,0,1,1.57.06,5,5,0,0,1,1.65.63c.88.52,1.3,1,1.25,1.55s-.47,1.06-1.29,1.63l1.17.69-1.22.69-1.17-.69A6.63,6.63,0,0,1,332.8,221.54Z" transform="translate(0 0)"/><path class="cls-33" d="M349.19,218.9a3.83,3.83,0,0,1-1.85.44c-1.49,0-2.71-.68-2.72-1.54-.07-4.06-5.85-7.4-12.89-7.45-1.49,0-2.68-.71-2.67-1.57s1.24-1.54,2.72-1.54a26.53,26.53,0,0,1,12.84,3.13c3.42,2,5.33,4.61,5.38,7.4A1.35,1.35,0,0,1,349.19,218.9Z" transform="translate(0 0)"/><path class="cls-35" d="M333.64,209.91a3.85,3.85,0,0,1-1.91.44,21.41,21.41,0,0,0-4.72.48c-1.39.3-2.94-.11-3.47-.91s.19-1.7,1.58-2a31,31,0,0,1,6.66-.68c1.49,0,2.68.72,2.67,1.58A1.39,1.39,0,0,1,333.64,209.91Z" transform="translate(0 0)"/><path class="cls-35" d="M339.8,225.1a1.16,1.16,0,0,1,0,2.19,4.19,4.19,0,0,1-3.78,0,1.16,1.16,0,0,1,0-2.19A4.19,4.19,0,0,1,339.8,225.1Z" transform="translate(0 0)"/><path class="cls-35" d="M333.69,225.86a3.85,3.85,0,0,0-1.91-.44,21.41,21.41,0,0,1-4.72-.48c-1.39-.3-2.94.11-3.47.91s.19,1.7,1.58,2a30.37,30.37,0,0,0,6.67.67c1.48,0,2.67-.71,2.66-1.57A1.37,1.37,0,0,0,333.69,225.86Z" transform="translate(0 0)"/><path class="cls-32" d="M259,249.34h-1.62c-2.85-3.67-9.18-6.24-16.6-6.29s-14.09,2.54-17,6.29h-1.61v4.85h0c.45,5.58,8.38,10.06,18.19,10.12s18.12-4.43,18.59-10.12h0Z" transform="translate(0 0)"/><ellipse class="cls-33" cx="240.58" cy="249.88" rx="18.41" ry="10.63"/><path class="cls-34" d="M253.6,250a5.68,5.68,0,0,1-2.24,4.13c-2.37,2-6.38,3.33-10.92,3.31-7.19,0-12.95-3.45-12.88-7.61a5.15,5.15,0,0,1,1.28-3.17c2.12-2.54,6.66-4.29,11.88-4.25C247.91,242.41,253.67,245.81,253.6,250Z" transform="translate(0 0)"/><path class="cls-34" d="M252.64,250.91a5.1,5.1,0,0,1-1.28,3.18c-2.37,2-6.38,3.33-10.92,3.31-7.19,0-12.95-3.45-12.88-7.61a5.15,5.15,0,0,1,1.28-3.17c2.37-2,6.39-3.33,10.93-3.3C247,243.37,252.72,246.77,252.64,250.91Z" transform="translate(0 0)"/><path class="cls-33" d="M241.8,253.54a4.47,4.47,0,0,1-2.44-.69l-.35-.21,2.38-1.35.25.15a2.21,2.21,0,0,0,1,.35,1.64,1.64,0,0,0,.82-.21c.26-.15.37-.31.34-.48a.68.68,0,0,0-.39-.47,1.81,1.81,0,0,0-1-.25,5.48,5.48,0,0,0-1.17.14l-1.31.3a8.37,8.37,0,0,1-1.43.24A6.52,6.52,0,0,1,237,251a4.78,4.78,0,0,1-1.57-.6q-2.42-1.44-.38-3l-.76-.44,1.22-.69.76.44a5.93,5.93,0,0,1,2.71-.62,5.47,5.47,0,0,1,2.59.84l-2.31,1.3-.2-.11a2.48,2.48,0,0,0-.85-.31,1.24,1.24,0,0,0-.82.13c-.27.15-.38.31-.34.48a.76.76,0,0,0,.37.43,1.83,1.83,0,0,0,1,.25,5.92,5.92,0,0,0,1.2-.16c.43-.09.87-.2,1.33-.33a9.67,9.67,0,0,1,1.46-.26,6,6,0,0,1,1.57.06,5,5,0,0,1,1.65.63c.88.52,1.3,1,1.25,1.55s-.47,1.06-1.29,1.63l1.17.69-1.22.69-1.17-.69A6.63,6.63,0,0,1,241.8,253.54Z" transform="translate(0 0)"/><path class="cls-33" d="M258.19,250.9a3.83,3.83,0,0,1-1.85.44c-1.49,0-2.71-.68-2.72-1.54-.07-4.06-5.85-7.4-12.89-7.45-1.49,0-2.68-.71-2.67-1.57s1.24-1.54,2.72-1.54a26.53,26.53,0,0,1,12.84,3.13c3.42,2,5.33,4.61,5.38,7.4A1.35,1.35,0,0,1,258.19,250.9Z" transform="translate(0 0)"/><path class="cls-35" d="M242.64,241.91a3.85,3.85,0,0,1-1.91.44,21.41,21.41,0,0,0-4.72.48c-1.39.3-2.94-.11-3.47-.91s.19-1.7,1.58-2a31,31,0,0,1,6.66-.68c1.49,0,2.68.72,2.67,1.58A1.39,1.39,0,0,1,242.64,241.91Z" transform="translate(0 0)"/><path class="cls-35" d="M248.8,257.1a1.16,1.16,0,0,1,0,2.19,4.19,4.19,0,0,1-3.78,0,1.16,1.16,0,0,1,0-2.19A4.19,4.19,0,0,1,248.8,257.1Z" transform="translate(0 0)"/><path class="cls-35" d="M242.69,257.86a3.85,3.85,0,0,0-1.91-.44,21.41,21.41,0,0,1-4.72-.48c-1.39-.3-2.94.11-3.47.91s.19,1.7,1.58,2a30.37,30.37,0,0,0,6.67.67c1.48,0,2.67-.71,2.66-1.57A1.37,1.37,0,0,0,242.69,257.86Z" transform="translate(0 0)"/><path class="cls-32" d="M259,242.34h-1.62c-2.85-3.67-9.18-6.24-16.6-6.29s-14.09,2.54-17,6.29h-1.61v4.85h0c.45,5.58,8.38,10.06,18.19,10.12s18.12-4.43,18.59-10.12h0Z" transform="translate(0 0)"/><ellipse class="cls-33" cx="240.58" cy="242.88" rx="18.41" ry="10.63"/><path class="cls-34" d="M253.6,243a5.68,5.68,0,0,1-2.24,4.13c-2.37,2-6.38,3.33-10.92,3.31-7.19-.05-12.95-3.45-12.88-7.61a5.15,5.15,0,0,1,1.28-3.17c2.12-2.54,6.66-4.29,11.88-4.25C247.91,235.41,253.67,238.81,253.6,243Z" transform="translate(0 0)"/><path class="cls-34" d="M252.64,243.91a5.1,5.1,0,0,1-1.28,3.18c-2.37,2-6.38,3.33-10.92,3.31-7.19-.05-12.95-3.45-12.88-7.61a5.15,5.15,0,0,1,1.28-3.17c2.37-2,6.39-3.33,10.93-3.3C247,236.37,252.72,239.77,252.64,243.91Z" transform="translate(0 0)"/><path class="cls-33" d="M241.8,246.54a4.47,4.47,0,0,1-2.44-.69l-.35-.21,2.38-1.35.25.15a2.21,2.21,0,0,0,1,.35,1.64,1.64,0,0,0,.82-.21c.26-.15.37-.31.34-.48a.68.68,0,0,0-.39-.47,1.81,1.81,0,0,0-1-.25,5.48,5.48,0,0,0-1.17.14l-1.31.3a8.37,8.37,0,0,1-1.43.24A6.52,6.52,0,0,1,237,244a4.78,4.78,0,0,1-1.57-.6q-2.42-1.44-.38-3l-.76-.44,1.22-.69.76.44a5.93,5.93,0,0,1,2.71-.62,5.47,5.47,0,0,1,2.59.84l-2.31,1.3-.2-.11a2.48,2.48,0,0,0-.85-.31,1.24,1.24,0,0,0-.82.13c-.27.15-.38.31-.34.48a.76.76,0,0,0,.37.43,1.83,1.83,0,0,0,1,.25,5.92,5.92,0,0,0,1.2-.16c.43-.09.87-.2,1.33-.33a9.67,9.67,0,0,1,1.46-.26,6,6,0,0,1,1.57.06,5,5,0,0,1,1.65.63c.88.52,1.3,1,1.25,1.55s-.47,1.06-1.29,1.63l1.17.69-1.22.69-1.17-.69A6.63,6.63,0,0,1,241.8,246.54Z" transform="translate(0 0)"/><path class="cls-33" d="M258.19,243.9a3.83,3.83,0,0,1-1.85.44c-1.49,0-2.71-.68-2.72-1.54-.07-4.06-5.85-7.4-12.89-7.45-1.49,0-2.68-.71-2.67-1.57s1.24-1.54,2.72-1.54a26.53,26.53,0,0,1,12.84,3.13c3.42,2,5.33,4.61,5.38,7.4A1.35,1.35,0,0,1,258.19,243.9Z" transform="translate(0 0)"/><path class="cls-35" d="M242.64,234.91a3.85,3.85,0,0,1-1.91.44,21.41,21.41,0,0,0-4.72.48c-1.39.3-2.94-.11-3.47-.91s.19-1.7,1.58-2a31,31,0,0,1,6.66-.68c1.49,0,2.68.72,2.67,1.58A1.39,1.39,0,0,1,242.64,234.91Z" transform="translate(0 0)"/><path class="cls-35" d="M248.8,250.1a1.16,1.16,0,0,1,0,2.19,4.19,4.19,0,0,1-3.78,0,1.16,1.16,0,0,1,0-2.19A4.19,4.19,0,0,1,248.8,250.1Z" transform="translate(0 0)"/><path class="cls-35" d="M242.69,250.86a3.85,3.85,0,0,0-1.91-.44,21.41,21.41,0,0,1-4.72-.48c-1.39-.3-2.94.11-3.47.91s.19,1.7,1.58,2a30.37,30.37,0,0,0,6.67.67c1.48,0,2.67-.71,2.66-1.57A1.37,1.37,0,0,0,242.69,250.86Z" transform="translate(0 0)"/><path class="cls-18" d="M29.26,232" transform="translate(0 0)"/><path class="cls-14" d="M51.87,118.23,9.16,93.5a2.8,2.8,0,0,0-2.77-.2L3.5,94.73h0L1.38,95.8,3.18,147A8.49,8.49,0,0,0,7,153.68l42.07,26.65,2.11-1.07h0l.78-.4.26-.12,0,0,2.09-1a2.65,2.65,0,0,0,1.28-2.59l.05-50.2A8.49,8.49,0,0,0,51.87,118.23Z" transform="translate(0 0)"/><path class="cls-3" d="M46.51,180,3.79,155.27A8.5,8.5,0,0,1,0,148.61L.05,98.42c0-2.47,1.7-3.48,3.8-2.27l42.72,24.73a8.51,8.51,0,0,1,3.79,6.67l0,50.19C50.31,180.2,48.61,181.22,46.51,180Z" transform="translate(0 0)"/><path class="cls-36" d="M34.13,165.48c.44-4.65,1.27-13,1.27-13a130.07,130.07,0,0,1,3.77,15.89Z" transform="translate(0 0)"/><path class="cls-37" d="M22.14,151.33v0Z" transform="translate(0 0)"/><path class="cls-37" d="M22,150.57v0Z" transform="translate(0 0)"/><path class="cls-37" d="M21.81,149.83v0Z" transform="translate(0 0)"/><path class="cls-37" d="M21.52,148.48v0Z" transform="translate(0 0)"/><path class="cls-14" d="M9.54,151.31c1.45-11.94,3.71-14.14,3.86-14.22,3.26-1.75,15.81,7.68,15.81,7.68s4.81,3.45,6.18,7.72c.55,1.73,1,7.85,1.35,14.49Z" transform="translate(0 0)"/><path class="cls-12" d="M12.55,153c-.12-.9-.21-1.79-.27-2.66-.78-10.93,3.37-14.92,7.19-8.25a15.37,15.37,0,0,1,1.69,4.47c.55,2.62,1.86,8.14,3.2,13.25Z" transform="translate(0 0)"/><path class="cls-37" d="M22.31,134.78v7.57a2,2,0,0,0,.53,1.28c1,1.11,3.17,3.26,5.22,3,.28,0,.44-.3.44-.67v-6.84Z" transform="translate(0 0)"/><path class="cls-38" d="M22.31,138.83v-4.05l6.19,4.37v3.44C27.35,142.33,25.18,141.5,22.31,138.83Z" transform="translate(0 0)"/><path class="cls-38" d="M32.45,132.48a3.47,3.47,0,0,0,.87,3.25c.81.78,1.75.61,2.08-.4a3.45,3.45,0,0,0-.87-3.24C33.72,131.3,32.78,131.48,32.45,132.48Z" transform="translate(0 0)"/><path class="cls-37" d="M32.57,139.4a6.45,6.45,0,0,0,.53-1.34,17.17,17.17,0,0,0,.56-4.23c0-.29,0-.58.05-.86a13,13,0,0,0-.28-3.92c-1-4.7-4.26-9.47-7.9-11.59-4.9-2.85-8.66-.16-8.33,5.64a2.27,2.27,0,0,0-1.62-.95c-.95,0-1.2,1.51-.57,3.28s1.92,3.16,2.87,3.11a.79.79,0,0,0,.35-.1c.7,5.14,4.23,10.59,8.21,12.48,1.94.92,3.65.83,4.88-.06a2,2,0,0,0,.26-.18A4,4,0,0,0,32.57,139.4Z" transform="translate(0 0)"/><path class="cls-39" d="M24.68,127.65c0,.49-.26.73-.66.54a1.62,1.62,0,0,1-.79-1.23c0-.49.26-.73.66-.54A1.62,1.62,0,0,1,24.68,127.65Z" transform="translate(0 0)"/><path class="cls-39" d="M30.9,131.09c0,.49-.26.73-.66.54a1.58,1.58,0,0,1-.78-1.23c0-.48.26-.73.66-.54A1.58,1.58,0,0,1,30.9,131.09Z" transform="translate(0 0)"/><path class="cls-40" d="M25.42,126.31a10.53,10.53,0,0,0-1.06-.91,4.7,4.7,0,0,0-1-.6,2.69,2.69,0,0,0-1-.23h-.47c-.16,0-.31,0-.49,0a1.74,1.74,0,0,1,.32-.38,1.22,1.22,0,0,1,.44-.22,1.56,1.56,0,0,1,1.1.12,3.52,3.52,0,0,1,1.19.84A5.05,5.05,0,0,1,25.42,126.31Z" transform="translate(0 0)"/><path class="cls-40" d="M28.34,127.87a1.13,1.13,0,0,1,.9-.33,2.37,2.37,0,0,1,1.17.43,4.29,4.29,0,0,1,1.14,1.08,6.49,6.49,0,0,1,.46.7,7.12,7.12,0,0,1,.35.74c-.18-.19-.34-.4-.5-.58l-.25-.27-.12-.13-.12-.12a5.59,5.59,0,0,0-1-.82,4.08,4.08,0,0,0-1-.49A5.23,5.23,0,0,0,28.34,127.87Z" transform="translate(0 0)"/><path class="cls-38" d="M27,128c.29.59.56,1.19.8,1.8s.47,1.22.66,1.83a7.58,7.58,0,0,1,.23.94,1.94,1.94,0,0,1,0,.24s0,.08,0,.12a.53.53,0,0,1,0,.12l0,.05,0,0-.07,0-.13.06a1.52,1.52,0,0,1-.6.1,2.89,2.89,0,0,1-.65,0,3.81,3.81,0,0,0,1.1-.33l.11-.07.05-.05,0,0h0a.74.74,0,0,0,0-.32,8.54,8.54,0,0,0-.22-.87c-.18-.59-.39-1.19-.59-1.79S27.17,128.57,27,128Z" transform="translate(0 0)"/><path class="cls-40" d="M19.23,111.84s2.28-1.19,7.63,2.1,6.46,7.28,6.9,12.36v5.32s-1.6-2.15-3.54-8c0,0-2.87,2.53-4.19,1.33s.4-3.21.4-3.21-5.65,3.38-9.24,1.43c0,0-2.37-8.81.22-10.15,0,0-2-1-2.12-1.51s.92-.7,2.86.62c0,0-1.47-4.07-.71-4S19.23,111.84,19.23,111.84Z" transform="translate(0 0)"/><path class="cls-3" d="M29.38,136.3c-.23.9-1.27,1.08-2.51.35a5.42,5.42,0,0,1-2.49-3.28Z" transform="translate(0 0)"/><path class="cls-37" d="M21.16,146.77v0Z" transform="translate(0 0)"/><path class="cls-37" d="M21.27,147.29v0Z" transform="translate(0 0)"/><path class="cls-37" d="M21.4,147.89l0-.08Z" transform="translate(0 0)"/><path class="cls-10" d="M208,1.72h0L205.14.28a2.78,2.78,0,0,0-2.76.2L159.66,25.21a8.47,8.47,0,0,0-3.79,6.66l0,50.19a2.64,2.64,0,0,0,1.28,2.6c.37.18,1.32.65,2.08,1,0,0,0,0,0,0l.26.13.79.4h0l2.11,1.07,42.07-26.65A8.49,8.49,0,0,0,208.35,54l1.81-51.22S209.15,2.28,208,1.72Z" transform="translate(0 0)"/><path class="cls-3" d="M165,87l42.71-24.73a8.49,8.49,0,0,0,3.8-6.66l0-50.2c0-2.46-1.71-3.47-3.81-2.26L165,27.86a8.49,8.49,0,0,0-3.8,6.66l.05,50.2C161.22,87.18,162.93,88.2,165,87Z" transform="translate(0 0)"/><path class="cls-10" d="M195.43,61c.44-5.07,1.27-14.22,1.27-14.22a49.63,49.63,0,0,1,3.68,11.24Z" transform="translate(0 0)"/><path class="cls-37" d="M183.69,61v0Z" transform="translate(0 0)"/><path class="cls-37" d="M183.52,60.47v0Z" transform="translate(0 0)"/><path class="cls-37" d="M183.37,59.92v0Z" transform="translate(0 0)"/><path class="cls-37" d="M183.09,58.94v0Z" transform="translate(0 0)"/><path class="cls-11" d="M171.31,75.58c1.45-13.4,3.67-18.17,3.82-18.43,3.2-5.48,15.51-10.75,15.51-10.75s4.72-2.18,6.05.43c.54,1.07,1,6.54,1.3,12.67Z" transform="translate(0 0)"/><path class="cls-10" d="M174.27,73.79c-.12-.74-.21-1.51-.27-2.29-.74-9.83,3.34-18.56,7.08-16.42a3.87,3.87,0,0,1,1.66,2.43c.53,1.94,1.8,5.85,3.11,9.3Z" transform="translate(0 0)"/><path class="cls-37" d="M182.73,57.68v0Z" transform="translate(0 0)"/><path class="cls-37" d="M182.84,58.06v0Z" transform="translate(0 0)"/><path class="cls-37" d="M183,58.5v0Z" transform="translate(0 0)"/><path class="cls-37" d="M189.29,47.21,189,41.39l-5.14,2.18L183,51.16c-.11,1,.43,1.48,1.2,1.15a18.7,18.7,0,0,0,3.43-1.85A4.14,4.14,0,0,0,189.29,47.21Z" transform="translate(0 0)"/><path class="cls-38" d="M189.16,45l-.2-3.57-5.14,2.18-.35,3.21C184.45,47.45,186.25,47.72,189.16,45Z" transform="translate(0 0)"/><path class="cls-38" d="M192.92,30.54c-.32,1.32,0,2.27.81,2.11s1.65-1.37,2-2.69,0-2.27-.81-2.11S193.24,29.21,192.92,30.54Z" transform="translate(0 0)"/><path class="cls-37" d="M193,37a18.3,18.3,0,0,0,.5-1.86,24.4,24.4,0,0,0,.56-4.63c0-.29,0-.58.06-.88a9.43,9.43,0,0,0-.25-3.39c-.94-3.33-4-4.24-7.44-2.21-4.63,2.74-8.22,9.47-7.94,14.59a2.25,2.25,0,0,0-1.53.9,3.55,3.55,0,0,0-.56,3.75c.59,1,1.8.86,2.7-.24a3.3,3.3,0,0,0,.34-.49c.63,4.1,4,5.33,7.72,2.71a15.7,15.7,0,0,0,4.64-5.49,4.77,4.77,0,0,0,.25-.46A17.43,17.43,0,0,0,193,37Z" transform="translate(0 0)"/><path class="cls-38" d="M188.07,32c.07.48.13,1,.21,1.41a2.25,2.25,0,0,0,.39,1.09l0,0a.07.07,0,0,0,0,0c.05,0,.1.05.14.1a.56.56,0,0,1,.17.36,1.78,1.78,0,0,1-.25,1.05,2.86,2.86,0,0,1-1.3,1.29,4.61,4.61,0,0,0,1-1.38,1,1,0,0,0,.1-.61.32.32,0,0,0-.1-.18s-.06,0-.09,0l-.06,0-.07-.05a1.26,1.26,0,0,1-.31-.62,4.66,4.66,0,0,1-.08-.76A8.09,8.09,0,0,1,188.07,32Z" transform="translate(0 0)"/><path class="cls-40" d="M186.22,32.26a8.71,8.71,0,0,0-1,.49,6,6,0,0,0-.95.69,6.18,6.18,0,0,0-.87,1c-.15.17-.28.37-.43.56s-.27.42-.43.63a5.65,5.65,0,0,1,.24-.73,6.76,6.76,0,0,1,.36-.71,4.94,4.94,0,0,1,1-1.24,3,3,0,0,1,1.13-.68A1.25,1.25,0,0,1,186.22,32.26Z" transform="translate(0 0)"/><path class="cls-40" d="M189.26,30.38a5,5,0,0,1,.93-1.25,3.55,3.55,0,0,1,1.13-.77,1.43,1.43,0,0,1,1-.05,1,1,0,0,1,.39.23,1.56,1.56,0,0,1,.27.4c-.17,0-.3-.05-.45-.06a3.24,3.24,0,0,0-.44,0,2.51,2.51,0,0,0-.9.19,4.31,4.31,0,0,0-.95.52A12.79,12.79,0,0,0,189.26,30.38Z" transform="translate(0 0)"/><path class="cls-39" d="M185.32,35a1.46,1.46,0,0,1-.46,1.31c-.38.36-.77.35-.88,0a1.5,1.5,0,0,1,.47-1.31C184.82,34.65,185.21,34.66,185.32,35Z" transform="translate(0 0)"/><path class="cls-39" d="M191.37,31.2a1.49,1.49,0,0,1-.47,1.31c-.37.36-.76.35-.88,0a1.5,1.5,0,0,1,.47-1.31C190.86,30.82,191.25,30.83,191.37,31.2Z" transform="translate(0 0)"/><path class="cls-40" d="M195,23.18a6.3,6.3,0,0,0,1.74-1.88s-1.63,1.72-2.41-.07-2.64-2.91-5.25-1.94-9.29,5.75-10.94,8.83-2.21,5.41-2,8-.44,4.16-1.11,4.61a3,3,0,0,0,1.7-1.25,3.49,3.49,0,0,1-.91,2.13,7.42,7.42,0,0,0,2.54-3.4s.07,2.94-.46,4c0,0,1.67-1.9,2-7,0,0,6.85-7.5,7.93-12,0,0-.87,4.42-2,5.71a11.15,11.15,0,0,0,4.4-6s2.19.6,2.79,1.56a15.64,15.64,0,0,1,1.09,4.07l.83-4.21s.77.22,1.81-1C196.75,23.26,195.24,23.72,195,23.18Z" transform="translate(0 0)"/><path class="cls-38" d="M185,39.51a1.57,1.57,0,0,0,.65.31,1.42,1.42,0,0,0,.76,0,.86.86,0,0,0,.21-.07,1,1,0,0,0,.21-.09l.22-.12.21-.14.11-.07.11-.09.22-.17.44-.38c-.13.17-.27.34-.41.5l-.21.23-.12.11-.11.09a2.61,2.61,0,0,1-.94.54l-.23.05h-.22l-.2,0-.18-.07A1,1,0,0,1,185,39.51Z" transform="translate(0 0)"/><path class="cls-31" d="M475.73,125.55l-.15-.07-2-1a2.77,2.77,0,0,0-2.77.19l-42.71,24.73a8.5,8.5,0,0,0-3.8,6.67l.05,50.19a2.65,2.65,0,0,0,1.28,2.6c.67.31,3.17,1.58,3.17,1.58h0c.95.47,2.09,1.06,2.09,1.06L473,184.87a8.5,8.5,0,0,0,3.8-6.67l1.8-51.22Z" transform="translate(0 0)"/><path class="cls-3" d="M433.49,211.19l42.72-24.73a8.51,8.51,0,0,0,3.79-6.67L480,129.6c0-2.46-1.7-3.48-3.8-2.26l-42.72,24.73a8.5,8.5,0,0,0-3.79,6.66l.05,50.19C429.69,211.39,431.39,212.4,433.49,211.19Z" transform="translate(0 0)"/><path class="cls-41" d="M462.53,187.55l7.62-4.4c-.77-4-2-9.16-3.63-10.73-2.21-2.16-7.75.62-7.75.62s3.33,11,3.33,11.43C462.1,184.6,462.28,185.86,462.53,187.55Z" transform="translate(0 0)"/><path class="cls-31" d="M467.65,184.59c0-.83-.09-1.65-.17-2.44-.47-4.88-2.67-8.31-6-9.6a2.19,2.19,0,0,0-1.41,0,22.49,22.49,0,0,0-4.12,1.9L453,176.13s-4.63,3.52-6.82,5c-5.52,3.75-5.8,14.72-6.76,19.74Z" transform="translate(0 0)"/><path class="cls-42" d="M448.84,164.74s-1.62-6.86,2.23-12,7.94-7.17,10.72-7,4.44,5.29,3.2,9.49l-9.23,2Z" transform="translate(0 0)"/><path class="cls-37" d="M463.67,173.86a7.7,7.7,0,0,0-2.23-1.31,2.18,2.18,0,0,0-1.41,0,22.81,22.81,0,0,0-4.12,1.9L453,176.13s-.81.52-1.9,1.26C453.45,178.15,457.9,178.47,463.67,173.86Z" transform="translate(0 0)"/><path class="cls-37" d="M454,176.32l6.2-3.42a18.94,18.94,0,0,1,0-4.53c.39-1.52-6.51,2.26-6.51,2.26A49.64,49.64,0,0,1,454,176.32Z" transform="translate(0 0)"/><path class="cls-38" d="M453.64,170.63s.15,1.27.25,2.85c1.25.47,2.88.14,4.57-1.09A12.28,12.28,0,0,0,460,171a11.11,11.11,0,0,1,.11-2.6C460.54,166.85,453.64,170.63,453.64,170.63Z" transform="translate(0 0)"/><path class="cls-42" d="M452.92,160.71s-3.3,1.55-6.65,6.75-4.91,14.95-.14,17.69,7.38,1.36,8.62,5.93c0,0,3.32-7,0-12.15a2.14,2.14,0,0,1,2.07.91s.79-5.56-2.56-6.83-3.71-5.47-1.1-7.86S452.92,160.71,452.92,160.71Z" transform="translate(0 0)"/><path class="cls-38" d="M463.79,157.27c-.33,1.24,0,2.16.69,2.06s1.56-1.19,1.89-2.43,0-2.16-.7-2.05S464.11,156,463.79,157.27Z" transform="translate(0 0)"/><path class="cls-37" d="M463.71,163.38a13.64,13.64,0,0,0,.51-1.73,23.52,23.52,0,0,0,.62-4.36c0-.28,0-.56.07-.84a9.39,9.39,0,0,0-.15-3.24c-.79-3.23-3.59-4.29-6.82-2.58-4.35,2.3-7.81,8.47-7.67,13.36a1.94,1.94,0,0,0-1.43.75,3.4,3.4,0,0,0-.61,3.53c.53,1,1.65.94,2.51-.05a3.28,3.28,0,0,0,.32-.44c.49,3.93,3.54,5.32,7.07,3.07a13.9,13.9,0,0,0,4.42-4.91l.24-.43A15.92,15.92,0,0,0,463.71,163.38Z" transform="translate(0 0)"/><path class="cls-39" d="M457.09,161.24a1.56,1.56,0,0,1-.65,1.24c-.38.24-.71.08-.73-.36a1.55,1.55,0,0,1,.66-1.23C456.75,160.65,457.07,160.81,457.09,161.24Z" transform="translate(0 0)"/><path class="cls-39" d="M462.77,158a1.54,1.54,0,0,1-.66,1.23c-.38.25-.7.09-.72-.35a1.53,1.53,0,0,1,.65-1.23C462.42,157.38,462.75,157.54,462.77,158Z" transform="translate(0 0)"/><path class="cls-42" d="M457.67,159.55a3,3,0,0,0-1,.13,3.74,3.74,0,0,0-1,.49,4.18,4.18,0,0,0-.49.39l-.24.23-.12.13-.12.13a10.68,10.68,0,0,0-.88,1.16,6.71,6.71,0,0,1,.79-1.31,5.39,5.39,0,0,1,.5-.56,4.44,4.44,0,0,1,.54-.45,2.67,2.67,0,0,1,1.09-.46,1.62,1.62,0,0,1,.49,0A1.15,1.15,0,0,1,457.67,159.55Z" transform="translate(0 0)"/><path class="cls-42" d="M460.46,158a5.39,5.39,0,0,1,.43-.63,5.31,5.31,0,0,1,.49-.56,4.25,4.25,0,0,1,1.08-.79,2.47,2.47,0,0,1,.55-.17,1.37,1.37,0,0,1,.49,0,1.39,1.39,0,0,1,.8.4,2.67,2.67,0,0,0-.89-.14h-.23l-.24,0a2.51,2.51,0,0,0-.5.18,4.41,4.41,0,0,0-1,.67A8.41,8.41,0,0,0,460.46,158Z" transform="translate(0 0)"/><path class="cls-42" d="M450.27,164a54.74,54.74,0,0,0,7.67-10.42,8.71,8.71,0,0,1-.62,3,15.88,15.88,0,0,0,4.44-7.15c.8-3.57-3.94.36-3.94.36s-2.69,1-2.81,1.16-2,2.61-2.13,2.76-2.61,5.82-2.61,5.82l-.64,1.93-.15,2.25Z" transform="translate(0 0)"/><path class="cls-43" d="M457.8,165.57s.82-.81,1.58-.67c0,0,.82-1.08,1.47-.87a3.5,3.5,0,0,1-1.65,2.3C457.84,167,457.8,165.57,457.8,165.57Z" transform="translate(0 0)"/><path class="cls-38" d="M457.09,165.46a2.07,2.07,0,0,0,.49.12,2.83,2.83,0,0,0,.51,0,3,3,0,0,0,1.11-.29,4.56,4.56,0,0,0,1.14-.8,9.05,9.05,0,0,0,1.05-1.22c-.15.24-.31.48-.48.7a6.4,6.4,0,0,1-.53.62,6.79,6.79,0,0,1-.58.52,5.7,5.7,0,0,1-.61.36,2.39,2.39,0,0,1-1.15.26A1.72,1.72,0,0,1,457.09,165.46Z" transform="translate(0 0)"/><path class="cls-38" d="M459.65,159.4a5,5,0,0,1,.51.85,6.93,6.93,0,0,1,.39,1,3.58,3.58,0,0,1,.1.6,1.28,1.28,0,0,1,0,.19s0,.07,0,.11a.56.56,0,0,1,0,.12l0,.08,0,0a.41.41,0,0,1,0,.09l-.12.17a7.19,7.19,0,0,1-.52.57,5.76,5.76,0,0,1-.53.47c.33-.38.66-.75.95-1.16a1.3,1.3,0,0,1,.1-.15l0-.08,0,0h0a.71.71,0,0,0,0-.26,3.23,3.23,0,0,0-.11-.54c-.1-.35-.22-.69-.33-1S459.76,159.75,459.65,159.4Z" transform="translate(0 0)"/><path class="cls-44" d="M312.52,273.63,269.81,248.9a2.8,2.8,0,0,0-2.77-.2l-2.89,1.44h0c-1.11.56-2.12,1.05-2.12,1.05l1.8,51.22a8.5,8.5,0,0,0,3.8,6.67l42.07,26.65,2.11-1.07h0l.85-.43.2-.09,0,0c.76-.38,1.71-.86,2.09-1a2.67,2.67,0,0,0,1.28-2.6l.05-50.2A8.49,8.49,0,0,0,312.52,273.63Z" transform="translate(0 0)"/><path class="cls-3" d="M307.16,335.4l-42.71-24.73a8.49,8.49,0,0,1-3.8-6.66l.05-50.2c0-2.46,1.7-3.47,3.8-2.26l42.72,24.73A8.49,8.49,0,0,1,311,283L311,333.14C311,335.6,309.26,336.62,307.16,335.4Z" transform="translate(0 0)"/><path class="cls-37" d="M278.52,301.89A68.45,68.45,0,0,1,292,309.65c7.89,5.62-4.37,6.76-5.59,5.52s-7-6.29-7.26-6.95S278.52,301.89,278.52,301.89Z" transform="translate(0 0)"/><polygon class="cls-37" points="287.7 312.94 282.59 309.99 282.59 299.45 287.7 302.41 287.7 312.94"/><path class="cls-38" d="M287.69,304.2v-3.59l-5.1-2.95v3.06A11.32,11.32,0,0,0,287.69,304.2Z" transform="translate(0 0)"/><path class="cls-37" d="M295.74,294.53a2.31,2.31,0,0,0-1.71-.91c.19-5.8-3.91-13.15-9.09-15.93-5.17-3.2-9.28-.59-9.09,5.43a2.55,2.55,0,0,0-1.71-1.07c-1,0-1.34,1.52-.71,3.38s2,3.37,3,3.37a.79.79,0,0,0,.38-.09c.59,5.23,4.06,10.9,8.14,13.19s7.55.76,8.14-3.79a3.39,3.39,0,0,0,.38.53c1,1.19,2.36,1.22,3,.09A4,4,0,0,0,295.74,294.53Z" transform="translate(0 0)"/><path class="cls-39" d="M282.64,289.15c0,.5-.3.74-.72.52a1.71,1.71,0,0,1-.81-1.31c0-.51.31-.75.73-.53A1.7,1.7,0,0,1,282.64,289.15Z" transform="translate(0 0)"/><path class="cls-39" d="M289.23,293c0,.51-.3.75-.72.53a1.68,1.68,0,0,1-.81-1.31c0-.51.3-.75.72-.53A1.67,1.67,0,0,1,289.23,293Z" transform="translate(0 0)"/><path class="cls-45" d="M283.48,287.79a10.85,10.85,0,0,0-1.11-1,5.07,5.07,0,0,0-1.07-.67,3.07,3.07,0,0,0-1-.29l-.13,0h-.38c-.17,0-.33,0-.52,0a1.6,1.6,0,0,1,.35-.38,1.31,1.31,0,0,1,.47-.2,1.8,1.8,0,0,1,1.19.17,4.41,4.41,0,0,1,1.25.94A5.83,5.83,0,0,1,283.48,287.79Z" transform="translate(0 0)"/><path class="cls-45" d="M286.57,289.56a1.22,1.22,0,0,1,1-.29,2.66,2.66,0,0,1,1.24.5A4.8,4.8,0,0,1,290,291a5.21,5.21,0,0,1,.48.74q.19.39.36.78c-.2-.2-.36-.42-.53-.62l-.26-.29-.12-.15-.13-.13a6.49,6.49,0,0,0-1-.9,4.53,4.53,0,0,0-1.07-.55A5.92,5.92,0,0,0,286.57,289.56Z" transform="translate(0 0)"/><path class="cls-45" d="M294.83,282.49c-1.44-4.56-7.83-11.14-11.92-12.85a6.53,6.53,0,0,0,.32,2.08,9.77,9.77,0,0,0-6.14-4.92s.55,1.89.86,2.66a11.7,11.7,0,0,1-2.6-2.17,5.69,5.69,0,0,0-.28,4.9l-1.39-1.45s.45,5.92,1,9.71h0c.06,1.09.14,1.8.14,1.8s.88.38,2,2.31H277c.92,0,1.1-4.75,2.55-5.86,2.51.2,8,3.18,10,5.06,2.27,2.18,2.34,8.76,3.41,10l.23.27a1.47,1.47,0,0,1,2,0S296.28,287.06,294.83,282.49Z" transform="translate(0 0)"/><path class="cls-38" d="M285.11,287.94c.26.65.48,1.3.69,1.95s.38,1.3.52,1.95a8.4,8.4,0,0,1,.14,1,1.93,1.93,0,0,1,0,.24.5.5,0,0,0,0,.12.39.39,0,0,1-.06.11l0,.05h0s-.05,0-.08,0l-.16,0a2.37,2.37,0,0,1-.7,0,3.55,3.55,0,0,1-.72-.2,4.82,4.82,0,0,0,1.28-.08l.14-.05.06,0,0,0h0a.73.73,0,0,0,0-.32,6.25,6.25,0,0,0-.15-.9c-.13-.63-.29-1.26-.44-1.9S285.25,288.59,285.11,287.94Z" transform="translate(0 0)"/><path class="cls-3" d="M287.37,296.88c-.19.79-1.08,1-2.15.36a4.65,4.65,0,0,1-2.18-2.81Z" transform="translate(0 0)"/><path class="cls-45" d="M290.43,297a3.71,3.71,0,0,1-3-1.73c-1.09-1.65-2.18-1.58-2.31-1.57-.13-.17-1.21-1.49-2.3-1.09s-3-1.73-3-1.73a8.81,8.81,0,0,0,1.93,2.94l-.36,0a4,4,0,0,0,2.27,1.14,2.7,2.7,0,0,0,.41.07,1.69,1.69,0,0,0,.74-.05s.25.11.3,0a.9.9,0,0,0,.3.36,6.72,6.72,0,0,0,.74.91l.42.4a4.9,4.9,0,0,0,2.27,1.48l-.36-.37A1.84,1.84,0,0,0,290.43,297Z" transform="translate(0 0)"/><path class="cls-45" d="M294,293.6l-1.22-1.93c-.28,2.45-1.2,7.59-4.22,9.1h0c-.5.25-1.27-.16-1.82-.95a5.52,5.52,0,0,1-.78-1.67l-.66-.38-.65-.38a1.26,1.26,0,0,1-1.83.66,3.77,3.77,0,0,1-1.66-1.56h0c-3-5-3.94-11.21-4.21-14l-1.24.41a14.91,14.91,0,0,1,1,5.71,15.13,15.13,0,0,0,.35,2.58h0a19.46,19.46,0,0,0,1.52,5.3l.15-.58a16.91,16.91,0,0,0,2,3.08,14.3,14.3,0,0,0,2.33,3.22l-.36-1.22,0,0c.59.68,2.18,2.42,2.5,3,0,0,1.28-.14,2.26-.17l.25,0-.13.81a4.22,4.22,0,0,0,1.54-.81,3.46,3.46,0,0,0,1.79-.64l.11.95c.89-.46,1.47-3.23,1.47-3.23h0a9.41,9.41,0,0,0,.53-2.76C293,294.65,294,293.6,294,293.6Z" transform="translate(0 0)"/><path class="cls-44" d="M304,325.41a47.74,47.74,0,0,0-12.14-16.54c-1,1.11-3.2,2.47-7.11.25a13.14,13.14,0,0,1-6-7.65c-1.87-.52-5-1.05-7.42.26a29.92,29.92,0,0,0-3.75,2.63Z" transform="translate(0 0)"/><path class="cls-3" d="M77.38,145.41v2.74L66.68,142V139.8l5.76-3.25a3.41,3.41,0,0,0,1.32-1.2,3.05,3.05,0,0,0,.34-1.46,4,4,0,0,0-.68-2.27,5.84,5.84,0,0,0-2-1.81c-1.48-.86-2.62-.9-3.41-.14l-1.88-2.84a2.8,2.8,0,0,1,2.29-.81,7.26,7.26,0,0,1,3.22,1.1,11,11,0,0,1,3.78,3.53,8.08,8.08,0,0,1,1.41,4.48,5,5,0,0,1-.5,2.38,4.47,4.47,0,0,1-1.9,1.74l-3.88,2.21Z" transform="translate(0 0)"/><path class="cls-3" d="M89.83,137.87V140l-5.64,12-2.89-1.66,5.46-11.58-5.71-3.29v3l-2.51-1.45v-5.71Z" transform="translate(0 0)"/><path class="cls-3" d="M92.32,147.39a8.7,8.7,0,0,1-1-4,3.58,3.58,0,0,1,1-2.91c.63-.52,1.47-.48,2.51.12a6.63,6.63,0,0,1,2.52,2.77,8.68,8.68,0,0,1,1,4,3.58,3.58,0,0,1-1,2.93,2.15,2.15,0,0,1-2.52-.15A6.42,6.42,0,0,1,92.32,147.39Zm3.82,1a3,3,0,0,0,.47-2,6.08,6.08,0,0,0-.47-2.51,3.25,3.25,0,0,0-1.31-1.56c-.54-.31-1-.29-1.3.06a3,3,0,0,0-.49,2,6.22,6.22,0,0,0,.49,2.52,3.3,3.3,0,0,0,1.3,1.56C95.39,148.74,95.83,148.73,96.14,148.38Zm7.4-2.59,2,1.17L95.66,158.7l-2-1.17Zm-1.7,15.33a8.7,8.7,0,0,1-1-4,3.58,3.58,0,0,1,1-2.91c.63-.52,1.47-.48,2.51.12a6.59,6.59,0,0,1,2.52,2.78,8.7,8.7,0,0,1,1,4,3.58,3.58,0,0,1-1,2.91c-.64.52-1.49.47-2.52-.13A6.42,6.42,0,0,1,101.84,161.12Zm3.82,1a3.07,3.07,0,0,0,.47-2,6.35,6.35,0,0,0-.47-2.51,3.26,3.26,0,0,0-1.31-1.56c-.56-.32-1-.31-1.31,0a3,3,0,0,0-.48,2,6.09,6.09,0,0,0,.48,2.52,3.21,3.21,0,0,0,1.31,1.56C104.9,162.47,105.34,162.45,105.66,162.09Z" transform="translate(0 0)"/><path class="cls-3" d="M339,300.76v2.74l-10.7-6.18v-2.17l5.77-3.26a3.29,3.29,0,0,0,1.31-1.19,3.07,3.07,0,0,0,.34-1.47,4,4,0,0,0-.68-2.26,5.84,5.84,0,0,0-2-1.81c-1.48-.86-2.62-.9-3.4-.14l-1.89-2.84a2.8,2.8,0,0,1,2.29-.81,7.34,7.34,0,0,1,3.23,1.1,11,11,0,0,1,3.77,3.53,8.08,8.08,0,0,1,1.41,4.48,5,5,0,0,1-.5,2.38,4.47,4.47,0,0,1-1.9,1.74l-3.88,2.21Z" transform="translate(0 0)"/><path class="cls-3" d="M351.11,307.73v2.74l-10.71-6.18v-2.17l5.77-3.26a3.27,3.27,0,0,0,1.32-1.2,3.11,3.11,0,0,0,.34-1.46,4,4,0,0,0-.69-2.26,5.66,5.66,0,0,0-2-1.81c-1.48-.86-2.61-.9-3.4-.15l-1.89-2.83a2.81,2.81,0,0,1,2.29-.81,7.34,7.34,0,0,1,3.23,1.1,10.91,10.91,0,0,1,3.77,3.52,8.05,8.05,0,0,1,1.41,4.49,5.15,5.15,0,0,1-.49,2.38,4.5,4.5,0,0,1-1.91,1.74l-3.88,2.2Z" transform="translate(0 0)"/><path class="cls-3" d="M353.59,302.53a8.81,8.81,0,0,1-.95-4,3.63,3.63,0,0,1,.95-2.92c.64-.52,1.48-.47,2.51.12a6.56,6.56,0,0,1,2.52,2.77,8.58,8.58,0,0,1,1,4,3.54,3.54,0,0,1-1,2.92,2.14,2.14,0,0,1-2.52-.14A6.6,6.6,0,0,1,353.59,302.53Zm3.83,1a3.06,3.06,0,0,0,.47-2,6.26,6.26,0,0,0-.47-2.52,3.21,3.21,0,0,0-1.32-1.56q-.81-.46-1.29.06a2.93,2.93,0,0,0-.49,2,6,6,0,0,0,.49,2.51,3.19,3.19,0,0,0,1.29,1.56C356.67,303.88,357.11,303.86,357.42,303.51Zm7.4-2.59,2,1.17-9.92,11.74-2-1.17Zm-1.7,15.33a8.63,8.63,0,0,1-1-4,3.6,3.6,0,0,1,1-2.92c.63-.52,1.47-.47,2.51.12a6.66,6.66,0,0,1,2.52,2.78,8.74,8.74,0,0,1,1,4,3.58,3.58,0,0,1-1,2.91,2.14,2.14,0,0,1-2.52-.13A6.45,6.45,0,0,1,363.12,316.25Zm3.81,1a3,3,0,0,0,.48-2,6.13,6.13,0,0,0-.48-2.5,3.23,3.23,0,0,0-1.3-1.57c-.56-.32-1-.3-1.31.05a3,3,0,0,0-.48,2,6.16,6.16,0,0,0,.48,2.52,3.23,3.23,0,0,0,1.31,1.55C366.18,317.6,366.61,317.58,366.93,317.22Z" transform="translate(0 0)"/><path class="cls-3" d="M111.83,60.61a3.11,3.11,0,0,1,1.06,2.75,8.72,8.72,0,0,1-.64,3.15,10.92,10.92,0,0,1-1.94,3.11,12.5,12.5,0,0,1-3.17,2.59,10.11,10.11,0,0,1-3,1.21,4.58,4.58,0,0,1-2.46,0l1.16-3.2a3.43,3.43,0,0,0,1.92.14,7.25,7.25,0,0,0,2.33-.91,6.82,6.82,0,0,0,2.25-2,4.22,4.22,0,0,0,.82-2.42c0-.81-.26-1.3-.78-1.45a3.44,3.44,0,0,0-2.37.7l-1.33.78V62.78l3.3-6.65L102.39,60V57.27l9.9-5.78v2.17l-3.53,7.1C110.1,60.17,111.13,60.13,111.83,60.61Z" transform="translate(0 0)"/><path class="cls-3" d="M125.07,58.74v2.74l-10.71,6.26V65.57l5.77-10a16.13,16.13,0,0,0,1.32-2.73,6.24,6.24,0,0,0,.34-1.86q0-1.22-.69-1.47a2.63,2.63,0,0,0-2,.53,8.49,8.49,0,0,0-3.4,3.81l-1.89-.64a13.7,13.7,0,0,1,2.29-3.48,13.51,13.51,0,0,1,3.23-2.64c1.58-.92,2.83-1.21,3.77-.86s1.42,1.29,1.42,2.84a9.62,9.62,0,0,1-.5,3,21.33,21.33,0,0,1-1.91,4l-3.88,6.71Z" transform="translate(0 0)"/><path class="cls-3" d="M127.55,50.65a3.61,3.61,0,0,1-1-2.91,8.88,8.88,0,0,1,1-4,6.66,6.66,0,0,1,2.51-2.79c1-.6,1.88-.66,2.52-.16s1,1.47,1,2.92a8.63,8.63,0,0,1-1,4,6.53,6.53,0,0,1-2.52,2.78C129,51.11,128.19,51.16,127.55,50.65Zm3.83-3.46a6.26,6.26,0,0,0,.47-2.52,3.06,3.06,0,0,0-.47-2q-.47-.53-1.32,0a3.27,3.27,0,0,0-1.29,1.57,6.06,6.06,0,0,0-.49,2.52,2.92,2.92,0,0,0,.49,2c.32.35.75.36,1.29,0A3.24,3.24,0,0,0,131.38,47.19ZM138.78,36l2-1.19-9.92,23.26-2,1.19Zm-1.7,17.31a3.58,3.58,0,0,1-1-2.91,8.77,8.77,0,0,1,1-4,6.58,6.58,0,0,1,2.5-2.79,2.16,2.16,0,0,1,2.53-.15,3.58,3.58,0,0,1,1,2.91,8.77,8.77,0,0,1-1,4,6.58,6.58,0,0,1-2.53,2.79C138.55,53.78,137.71,53.83,137.08,53.32Zm3.81-3.47a6.14,6.14,0,0,0,.48-2.51,3,3,0,0,0-.48-2c-.32-.36-.75-.37-1.31,0a3.25,3.25,0,0,0-1.3,1.56,6.17,6.17,0,0,0-.48,2.53,2.94,2.94,0,0,0,.48,2c.32.35.75.36,1.3,0A3.26,3.26,0,0,0,140.89,49.85Z" transform="translate(0 0)"/><path class="cls-3" d="M379.32,177.16v17.47l-2.7,1.58V181.46l-3.07,1.79v-2.72Z" transform="translate(0 0)"/><path class="cls-3" d="M391.74,171.9c1.1.86,1.65,2.68,1.65,5.48a16.91,16.91,0,0,1-.9,5.55,15.2,15.2,0,0,1-2.5,4.63,13.37,13.37,0,0,1-3.72,3.26,9.9,9.9,0,0,1-2.1.94,3.82,3.82,0,0,1-1.72.17l1-3a4.2,4.2,0,0,0,2.76-.76,8.58,8.58,0,0,0,3.28-3.47,11,11,0,0,0,1.18-5.15v0a9.86,9.86,0,0,1-1.64,2.32,10.41,10.41,0,0,1-2.24,1.77,5.22,5.22,0,0,1-2.57.84,2.11,2.11,0,0,1-1.79-.84,4,4,0,0,1-.64-2.44,8.77,8.77,0,0,1,.7-3.4,11.68,11.68,0,0,1,1.91-3.1,10.7,10.7,0,0,1,2.7-2.27Q390.08,170.63,391.74,171.9Zm-2.31,6.74a4.93,4.93,0,0,0,.82-2.62,1.62,1.62,0,0,0-.8-1.65,2.49,2.49,0,0,0-2.2.46,5.83,5.83,0,0,0-2.06,2,5,5,0,0,0-.79,2.62c0,.91.27,1.48.79,1.71a2.46,2.46,0,0,0,2.12-.44A6.06,6.06,0,0,0,389.43,178.64Z" transform="translate(0 0)"/><path class="cls-3" d="M395.94,175.54a3.58,3.58,0,0,1-1-2.91,8.77,8.77,0,0,1,1-4,6.53,6.53,0,0,1,2.51-2.79,2.15,2.15,0,0,1,2.52-.16,3.56,3.56,0,0,1,1,2.92,8.75,8.75,0,0,1-1,4,6.66,6.66,0,0,1-2.52,2.78C397.41,176,396.57,176.05,395.94,175.54Zm3.82-3.46a6.1,6.1,0,0,0,.47-2.52,3,3,0,0,0-.47-2c-.31-.35-.75-.36-1.31,0a3.24,3.24,0,0,0-1.3,1.57,6.06,6.06,0,0,0-.49,2.52,2.87,2.87,0,0,0,.49,1.94c.32.35.76.37,1.3.06A3.28,3.28,0,0,0,399.76,172.08Zm7.4-11.18,2-1.19L399.28,183l-2,1.19Zm-1.7,17.31a3.58,3.58,0,0,1-1-2.91,8.77,8.77,0,0,1,1-4,6.53,6.53,0,0,1,2.51-2.79,2.15,2.15,0,0,1,2.52-.15,3.58,3.58,0,0,1,1,2.91,8.77,8.77,0,0,1-1,4,6.56,6.56,0,0,1-2.52,2.79C406.93,178.67,406.09,178.72,405.46,178.21Zm3.81-3.47a6.14,6.14,0,0,0,.48-2.51,3,3,0,0,0-.48-1.95c-.31-.36-.75-.37-1.3-.05a3.21,3.21,0,0,0-1.31,1.56,6.17,6.17,0,0,0-.48,2.53,2.94,2.94,0,0,0,.48,2c.32.35.75.36,1.31,0A3.25,3.25,0,0,0,409.27,174.74Z" transform="translate(0 0)"/></g></g></g></svg>