<svg xmlns="http://www.w3.org/2000/svg" viewBox="0 0 80 80"><defs><style>.a{fill:#f9c82b;}.b{fill:#ff9831;}</style></defs><circle class="a" cx="40" cy="40" r="39.99" transform="translate(-15.88 31.22) rotate(-36.07)"/><circle class="b" cx="40" cy="40" r="32.64" transform="translate(-15.98 31.88) rotate(-36.75)"/><path class="a" d="M47.87,39a28.36,28.36,0,0,0-5.78-2.8,16.31,16.31,0,0,1-4.91-2.52,3.56,3.56,0,0,1-.13-5.54,5,5,0,0,1,3.46-1.12,4.54,4.54,0,0,1,3.43,1.31,5.1,5.1,0,0,1,1.27,3.7h8.15a12.45,12.45,0,0,0-1.6-6.34,11,11,0,0,0-4.51-4.27,13.16,13.16,0,0,0-2.65-1V16.3H36.29v4.22a14.05,14.05,0,0,0-2.34.81,10.92,10.92,0,0,0-4.65,3.86,10.15,10.15,0,0,0-1.64,5.72q0,6.52,6.59,10.24a39.44,39.44,0,0,0,5.21,2.39,14.76,14.76,0,0,1,4.46,2.39,4.09,4.09,0,0,1,1.27,3.21A3.5,3.5,0,0,1,44,52a4.75,4.75,0,0,1-3.2,1q-3.16,0-4.57-1.48a6.54,6.54,0,0,1-1.41-4.63H26.64a13.45,13.45,0,0,0,1.69,6.82,11.73,11.73,0,0,0,5,4.67,15.72,15.72,0,0,0,2.94,1.1V63.7H44.6V59.64A11.6,11.6,0,0,0,50,57.13a10.13,10.13,0,0,0,3.35-8A11.47,11.47,0,0,0,47.87,39Z" transform="translate(0 0)"/></svg>