<svg xmlns="http://www.w3.org/2000/svg" viewBox="0 0 820 420"><defs><style>.a{fill:#bbd3ff;}.b{fill:#a4b0bc;}.c{fill:#f4e7b0;}.d{fill:#ffd255;}.e,.p{fill:#fff;}.e{opacity:0.6;}.f{fill:#f9c82b;}.g{fill:#ffd383;}.h{fill:#1d2942;}.i{fill:#1f3c88;}.j{fill:#92a1ad;}.k{fill:#c7d3dd;}.l{fill:#708491;}.m{fill:#7d95c9;}.n{fill:#2070b4;}.o{fill:#faa701;}.q{fill:#e8e9eb;}.r{fill:#352f6c;}.s{fill:#022a44;}.t{fill:#f9b384;}.u{fill:#e28b6d;}.v{fill:#102048;}.w{fill:#d88568;}.x{fill:#e7a988;}.y{fill:#98a9d8;}.z{fill:#22619c;}.aa{fill:#27b2e4;}.ab{fill:#292666;}</style></defs><rect class="a" width="820" height="420"/><rect class="b" y="358" width="820" height="62"/><rect class="c" width="820" height="420"/><rect class="d" y="339.1" width="820" height="80.9"/><path class="e" d="M820,195.45C583.11,310.38,103.4,100,0,195.45V339.1H820Z" transform="translate(0)"/><path class="f" d="M761.32,86.52a7.51,7.51,0,0,1-.52,2.75H731.35l-.05-.06a.14.14,0,0,1,0,.06l-2.22,0c-14.58.08-96.08.54-96.08-.18,0-8.31,6.36-15,14.19-15a13.38,13.38,0,0,1,5.18,1,8.35,8.35,0,0,1,5.46-2,8.63,8.63,0,0,1,7.2,4l.06-.13a16.77,16.77,0,0,1,8.31-7.74A24.92,24.92,0,0,1,684,66.94a27.63,27.63,0,0,1,3.31.2A24.22,24.22,0,0,1,708.7,53.63c11.84,0,21.73,8.95,23.93,20.83a8.29,8.29,0,0,1,4.58-1.38,8.68,8.68,0,0,1,7.75,5,14.17,14.17,0,0,1,4.77-.82c4.58,0,8.53,2.13,10.41,5.21A7.8,7.8,0,0,1,761.32,86.52Z" transform="translate(0)"/><path class="g" d="M760.14,82.45c-3.76-1-7.78-1-11.71-.92l-26.31.3c-10.51.12-19.87-5.88-30.61-4.91-5.14.48-10.38,2.57-15.33,2.87-3.92.23-8.69-.47-11.11-2.84a16.77,16.77,0,0,1,8.31-7.74A24.92,24.92,0,0,1,684,66.94a27.63,27.63,0,0,1,3.31.2A24.22,24.22,0,0,1,708.7,53.63c11.84,0,21.73,8.95,23.93,20.83a8.29,8.29,0,0,1,4.58-1.38,8.68,8.68,0,0,1,7.75,5,14.17,14.17,0,0,1,4.77-.82C754.31,77.24,758.26,79.37,760.14,82.45Z" transform="translate(0)"/><path class="f" d="M156.72,258.27a4.81,4.81,0,0,1-.35,1.8H137a.08.08,0,0,1,0,0s0,0,0,0-64.53.42-64.53-.11a9.6,9.6,0,0,1,9.31-9.87,8.78,8.78,0,0,1,3.4.68,5.53,5.53,0,0,1,3.58-1.33,5.69,5.69,0,0,1,4.73,2.63c1.4-3.08,4.77-5.46,9-6.31a16.92,16.92,0,0,1,3.46-.35,17.21,17.21,0,0,1,2.17.13,15.88,15.88,0,0,1,14.07-8.87c7.78,0,14.26,5.88,15.71,13.67a5.49,5.49,0,0,1,3-.9,5.71,5.71,0,0,1,5.09,3.27,9.32,9.32,0,0,1,3.14-.54C153.3,252.17,156.72,254.9,156.72,258.27Z" transform="translate(0)"/><path class="g" d="M156.72,258.27a4.81,4.81,0,0,1-.35,1.8h-11.2a26.35,26.35,0,0,0-2-3.25c-3.83-4.38-11.8-.87-16.42-4.4-.84-.64-1.52-1.48-2.39-2.07-2.69-1.78-6.25-.66-9.36.19s-6.77,1.34-9.63-.31a6.18,6.18,0,0,1-2.89-4.47,16.92,16.92,0,0,1,3.46-.35,17.21,17.21,0,0,1,2.17.13,15.88,15.88,0,0,1,14.07-8.87c7.78,0,14.26,5.88,15.71,13.67a5.49,5.49,0,0,1,3-.9,5.71,5.71,0,0,1,5.09,3.27,9.32,9.32,0,0,1,3.14-.54C153.3,252.17,156.72,254.9,156.72,258.27Z" transform="translate(0)"/><path class="f" d="M163.65,96.72c0,.77-95.28.16-95.28.16a.13.13,0,0,1,0-.06l-.06.06H39.76a7.51,7.51,0,0,1-.49-2.66c0-5,5-9,11.22-9a13.88,13.88,0,0,1,4.63.79,8.43,8.43,0,0,1,7.52-4.82,8.1,8.1,0,0,1,4.43,1.33C69.21,71,78.79,62.34,90.27,62.34h.24a23.45,23.45,0,0,1,20.54,13.09,25.67,25.67,0,0,1,3.2-.21c8.51,0,15.75,4.11,18.36,9.83a8.37,8.37,0,0,1,7-3.87,8.12,8.12,0,0,1,5.29,2,13,13,0,0,1,5-1,13.73,13.73,0,0,1,12.44,8.37A15.17,15.17,0,0,1,163.65,96.72Z" transform="translate(0)"/><path class="g" d="M162.34,90.52c-4.28,1.44-9.1,1.62-13.69,1.73-10.71.23-22.1.29-31.21-5.33-3.16-2-6-4.53-9.35-6-5.69-2.46-13-1.81-17.2-6.36a9.63,9.63,0,0,1-1.13-11.17,8.58,8.58,0,0,1,.75-1,23.45,23.45,0,0,1,20.54,13.09,25.67,25.67,0,0,1,3.2-.21c8.51,0,15.75,4.11,18.36,9.83a8.37,8.37,0,0,1,7-3.87,8.12,8.12,0,0,1,5.29,2,13,13,0,0,1,5-1A13.73,13.73,0,0,1,162.34,90.52Z" transform="translate(0)"/><path class="h" d="M553.78,392.16a4.41,4.41,0,0,0,4.14-6c-3.37-8.3-12.89-14-21.95-16.7-15.94-4.78-32.86-4.7-49.48-5.45s-33.75-2.52-48.36-10.5a52.47,52.47,0,0,1-12.93-10v-100H401v100a52.52,52.52,0,0,1-12.94,10c-14.6,8-31.72,9.75-48.35,10.5s-33.55.67-49.49,5.45c-9.05,2.72-18.57,8.4-21.94,16.7a4.41,4.41,0,0,0,4.14,6H279l-.35-.06c.27-2.69,2.41-4.91,4.86-6.05s5.21-3,7.91-3.23c13.26-1.17,230.15-1.17,243.41,0,2.69.24,5.45,2.1,7.91,3.23s4.59,3.36,4.86,6.05l-.35.06Z" transform="translate(0)"/><rect class="i" x="406.94" y="310" width="14" height="43" rx="6.93"/><path class="h" d="M665.48,350.93a1729.9,1729.9,0,0,0-512,0,7.49,7.49,0,0,1-8.6-7.4V33.79a7.49,7.49,0,0,1,8.6-7.39,1729.9,1729.9,0,0,0,512,0,7.49,7.49,0,0,1,8.6,7.39V343.53A7.49,7.49,0,0,1,665.48,350.93Z" transform="translate(0)"/><path class="b" d="M659.94,349a1667.33,1667.33,0,0,0-509.82,0V33.88a1667,1667,0,0,0,509.82,0Z" transform="translate(0)"/><rect class="j" x="520.27" y="47.67" width="120.5" height="71"/><path class="k" d="M154.55,31.1V346.23q20.26-3.14,40.56-5.74l79-295.32Q214.24,40.3,154.55,31.1Z" transform="translate(0)"/><path class="j" d="M240.32,258.14a92.89,92.89,0,0,1-41.88-6.45c-19.49-8.47-30.95-25.63-43.89-40.93V346.23a1667,1667,0,0,1,509.82,0V95.1c-122.54,52.32-244.53,99.82-369.28,148C276.83,250.62,259.65,257.06,240.32,258.14Z" transform="translate(0)"/><rect class="l" x="301.21" y="49.17" width="214.02" height="213.24"/><rect class="j" x="153.98" y="93.59" width="142.95" height="117.25"/><rect class="l" x="520.77" y="136.67" width="143.5" height="122.5"/><rect class="i" x="528.08" y="126.46" width="189.72" height="125.29"/><path class="d" d="M567.44,141.25A21.72,21.72,0,1,0,589.16,163,21.72,21.72,0,0,0,567.44,141.25Zm0,34.86A13.15,13.15,0,1,1,580.59,163,13.15,13.15,0,0,1,567.44,176.11Z" transform="translate(0)"/><path class="m" d="M567.44,176.11a13.14,13.14,0,0,1-13.14-12.75h-8.57a21.71,21.71,0,0,0,43.42,0h-8.57A13.14,13.14,0,0,1,567.44,176.11Z" transform="translate(0)"/><path class="n" d="M578,144l-3.75,7.73A13.13,13.13,0,0,1,580.59,163c0,.14,0,.27,0,.4h8.57c0-.13,0-.26,0-.4A21.71,21.71,0,0,0,578,144Z" transform="translate(0)"/><path class="d" d="M618.84,141.25A21.72,21.72,0,1,0,640.56,163,21.71,21.71,0,0,0,618.84,141.25Zm0,34.86A13.15,13.15,0,1,1,632,163,13.15,13.15,0,0,1,618.84,176.11Z" transform="translate(0)"/><path class="d" d="M618.84,149.81a13.12,13.12,0,0,1,9.75,4.34l6.33-5.78a21.71,21.71,0,0,0-27.76-3.71l5.3,6.82A13,13,0,0,1,618.84,149.81Z" transform="translate(0)"/><path class="m" d="M640.54,162.17a21.66,21.66,0,0,0-5.62-13.8l-6.33,5.78a13.16,13.16,0,0,1,3.38,8Z" transform="translate(0)"/><path class="m" d="M612.46,151.48l-5.3-6.82a21.7,21.7,0,0,0-10,17.51c0,.26,0,.53,0,.79a21.63,21.63,0,0,0,5.7,14.67l6.33-5.77a13.12,13.12,0,0,1-3.47-8.9c0-.27,0-.53,0-.79A13.15,13.15,0,0,1,612.46,151.48Z" transform="translate(0)"/><path class="n" d="M640.56,163c0-.26,0-.53,0-.79H632c0,.26,0,.52,0,.79a13.11,13.11,0,0,1-3.57,9l5.3,6.81A21.65,21.65,0,0,0,640.56,163Z" transform="translate(0)"/><path class="d" d="M670.25,141.25A21.72,21.72,0,1,0,692,163,21.71,21.71,0,0,0,670.25,141.25Zm0,34.86A13.15,13.15,0,1,1,683.4,163,13.15,13.15,0,0,1,670.25,176.11Z" transform="translate(0)"/><path class="m" d="M683.4,163a13.15,13.15,0,0,1-6.24,11.19l6,6.29a21.72,21.72,0,0,0,1.7-33.57l-6.18,6A13.12,13.12,0,0,1,683.4,163Z" transform="translate(0)"/><rect class="o" x="539.55" y="224.58" width="24.34" height="3.59"/><rect class="b" x="539.55" y="232.5" width="12.55" height="1.46"/><rect class="b" x="554.14" y="232.5" width="8.01" height="1.46"/><polygon class="b" points="557.61 236.39 557.61 237.37 556.8 237.37 556.8 236.39 543.84 236.39 543.84 237.85 563.14 237.85 563.14 236.39 557.61 236.39"/><rect class="b" x="539.55" y="236.39" width="3.27" height="1.46"/><rect class="b" x="563.89" y="236.39" width="3.07" height="1.46"/><rect class="b" x="539.55" y="240.28" width="25.37" height="1.46"/><rect class="b" x="539.55" y="244.18" width="18.48" height="1.46"/><rect class="b" x="559.25" y="244.18" width="7.7" height="1.46"/><rect class="j" x="559.33" y="191.52" width="15.24" height="3.62"/><rect class="d" x="559.3" y="198.07" width="15.31" height="1"/><rect class="d" x="559.3" y="202.25" width="15.31" height="1"/><rect class="j" x="611.22" y="191.52" width="15.24" height="3.62"/><rect class="d" x="611.19" y="198.07" width="15.31" height="1"/><rect class="d" x="611.19" y="202.25" width="15.31" height="1"/><rect class="j" x="663.11" y="191.52" width="15.24" height="3.62"/><rect class="d" x="663.08" y="198.07" width="15.31" height="1"/><rect class="d" x="663.08" y="202.25" width="15.31" height="1"/><rect class="p" x="305.37" y="18" width="206.52" height="231.25"/><rect class="q" x="343.62" y="25.51" width="52.6" height="6"/><rect class="q" x="472.8" y="25.51" width="23.07" height="6"/><rect class="q" x="472.8" y="39.47" width="23.07" height="1.98"/><path class="d" d="M337.31,149.39a15.29,15.29,0,1,0,15.29,15.29A15.29,15.29,0,0,0,337.31,149.39Zm0,24.55a9.26,9.26,0,1,1,9.26-9.26A9.26,9.26,0,0,1,337.31,173.94Z" transform="translate(0)"/><path class="d" d="M337.31,158.58a6.1,6.1,0,1,0,6.11,6.1A6.1,6.1,0,0,0,337.31,158.58Zm0,11.48a5.38,5.38,0,1,1,5.38-5.38A5.37,5.37,0,0,1,337.31,170.06Z" transform="translate(0)"/><path class="d" d="M371.21,149.39a15.29,15.29,0,1,0,15.28,15.29A15.29,15.29,0,0,0,371.21,149.39Zm0,24.55a9.26,9.26,0,1,1,9.25-9.26A9.26,9.26,0,0,1,371.21,173.94Z" transform="translate(0)"/><path class="d" d="M371.21,158.58a6.1,6.1,0,1,0,6.1,6.1A6.11,6.11,0,0,0,371.21,158.58Zm0,11.48a5.38,5.38,0,1,1,5.38-5.38A5.38,5.38,0,0,1,371.21,170.06Z" transform="translate(0)"/><polygon class="d" points="326.82 211.76 326.44 210.84 378.72 189.55 390.08 194.57 404.08 174.38 413.48 180.28 423.68 165.64 424.5 166.21 413.76 181.64 404.36 175.73 390.44 195.81 378.71 190.63 326.82 211.76"/><rect class="m" x="342.45" y="200.31" width="9.17" height="36.69"/><rect class="m" x="357.32" y="206" width="9.17" height="31"/><rect class="m" x="372.18" y="199.36" width="9.17" height="37.64"/><rect class="m" x="387.05" y="209.8" width="9.17" height="27.2"/><rect class="m" x="401.91" y="184.18" width="9.17" height="52.82"/><rect class="m" x="416.78" y="179.12" width="9.17" height="57.88"/><rect class="q" x="345.95" y="50.37" width="11.95" height="90.87"/><rect class="q" x="363.31" y="50.37" width="11.95" height="90.87"/><rect class="q" x="380.67" y="50.37" width="11.95" height="90.87"/><rect class="q" x="398.03" y="50.37" width="11.95" height="90.87"/><rect class="q" x="415.39" y="50.37" width="11.95" height="90.87"/><rect class="q" x="432.74" y="50.37" width="11.95" height="90.87"/><rect class="q" x="450.1" y="50.37" width="11.95" height="90.87"/><rect class="q" x="467.46" y="50.37" width="11.95" height="90.87"/><rect class="q" x="484.82" y="50.37" width="11.95" height="90.87"/><rect class="p" x="349.64" y="56.46" width="1.5" height="84.24"/><rect class="p" x="367.13" y="56.46" width="1.5" height="84.24"/><rect class="p" x="384.63" y="56.46" width="1.5" height="84.24"/><rect class="p" x="402.13" y="56.46" width="1.5" height="84.24"/><rect class="p" x="419.63" y="56.46" width="1.5" height="84.24"/><rect class="p" x="437.13" y="56.46" width="1.5" height="84.24"/><rect class="p" x="454.63" y="56.46" width="1.5" height="84.24"/><rect class="p" x="472.13" y="56.46" width="1.5" height="84.24"/><rect class="p" x="489.62" y="56.46" width="1.5" height="84.24"/><rect class="o" x="347.64" y="98.7" width="5.5" height="42"/><rect class="o" x="365.13" y="98.7" width="5.5" height="42"/><rect class="o" x="382.63" y="112.33" width="5.5" height="28.37"/><rect class="o" x="400.13" y="83.95" width="5.5" height="56.75"/><rect class="d" x="400.13" y="83.95" width="5.5" height="11.86"/><rect class="o" x="417.63" y="75.2" width="5.5" height="65.49"/><rect class="o" x="435.13" y="98.7" width="5.5" height="42"/><rect class="o" x="452.63" y="81.45" width="5.5" height="59.25"/><rect class="d" x="452.63" y="81.45" width="5.5" height="4.03"/><rect class="o" x="470.13" y="87.95" width="5.5" height="52.75"/><rect class="o" x="487.62" y="98.7" width="5.5" height="42"/><rect class="q" x="328.91" y="137.1" width="11.24" height="3.25"/><rect class="q" x="328.91" y="123.66" width="11.24" height="3.25"/><rect class="q" x="328.91" y="110.22" width="11.24" height="3.25"/><rect class="q" x="328.91" y="96.78" width="11.24" height="3.25"/><rect class="q" x="328.91" y="83.34" width="11.24" height="3.25"/><rect class="q" x="328.91" y="69.9" width="11.24" height="3.25"/><rect class="q" x="328.91" y="56.46" width="11.24" height="3.25"/><rect class="b" x="345.95" y="46.08" width="11.95" height="1.28"/><rect class="b" x="363.31" y="46.08" width="11.95" height="1.28"/><rect class="b" x="380.67" y="46.08" width="11.95" height="1.28"/><rect class="b" x="398.03" y="46.08" width="11.95" height="1.28"/><rect class="b" x="415.39" y="46.08" width="11.95" height="1.28"/><rect class="b" x="432.74" y="46.08" width="11.95" height="1.28"/><rect class="b" x="450.1" y="46.08" width="11.95" height="1.28"/><rect class="b" x="467.46" y="46.08" width="11.95" height="1.28"/><rect class="b" x="484.82" y="46.08" width="11.95" height="1.28"/><rect class="p" x="92.2" y="84.09" width="194.74" height="117.25"/><circle class="o" cx="255.36" cy="125.42" r="29.13"/><path class="d" d="M255.25,96.29a29,29,0,0,0-20.71,8.76l19.38,20.8L267.54,99A28.87,28.87,0,0,0,255.25,96.29Z" transform="translate(0)"/><path class="r" d="M280.39,110.52A29.25,29.25,0,0,0,267.54,99l-13.62,26.89.28.3Z" transform="translate(0)"/><path class="m" d="M234.54,105.05a29.1,29.1,0,0,0-4.18,35.33l23.22-13.86.34-.67Z" transform="translate(0)"/><polygon class="o" points="253.92 125.85 253.58 126.52 254.2 126.15 253.92 125.85"/><path class="r" d="M274.21,147.63l-20-21.48-.62.37L241.23,150.9a29.1,29.1,0,0,0,33-3.27Z" transform="translate(0)"/><path class="q" d="M230.36,140.38a29.26,29.26,0,0,0,10.87,10.52l12.35-24.38Z" transform="translate(0)"/><path class="m" d="M280.39,110.52,254.2,126.15l20,21.48a29.13,29.13,0,0,0,6.18-37.11Z" transform="translate(0)"/><circle class="p" cx="255.36" cy="125.42" r="20.33"/><path class="o" d="M255.36,143.05A17.63,17.63,0,1,1,273,125.42,17.65,17.65,0,0,1,255.36,143.05Zm0-34.25A16.63,16.63,0,1,0,272,125.42,16.65,16.65,0,0,0,255.36,108.8Z" transform="translate(0)"/><rect class="o" x="254.68" y="160.96" width="8.65" height="1.99"/><rect class="b" x="254.68" y="166.27" width="12.82" height="1.99"/><rect class="b" x="269.21" y="166.27" width="6.31" height="1.99"/><rect class="b" x="276.03" y="166.27" width="4.04" height="1.99"/><rect class="b" x="254.68" y="171.58" width="6.12" height="1.99"/><rect class="b" x="262.45" y="171.58" width="15.73" height="1.99"/><rect class="b" x="272.87" y="176.89" width="7.2" height="1.99"/><rect class="b" x="254.68" y="176.89" width="17.49" height="1.99"/><rect class="b" x="254.68" y="182.2" width="11.05" height="1.99"/><rect class="b" x="267.44" y="182.2" width="4.74" height="1.99"/><rect class="b" x="272.87" y="182.2" width="2.75" height="1.99"/><rect class="o" x="114.62" y="177.75" width="22.16" height="1.36"/><rect class="b" x="114.62" y="181.38" width="26.66" height="1.36"/><rect class="b" x="124.81" y="185.01" width="16.47" height="1.36"/><rect class="b" x="114.62" y="185.01" width="7.77" height="1.36"/><rect class="b" x="114.62" y="188.63" width="26.66" height="1.36"/><rect class="b" x="114.62" y="192.26" width="26.66" height="1.36"/><rect class="s" x="114.12" y="103.18" width="1" height="65.19"/><rect class="s" x="132.66" y="103.18" width="1" height="65.19"/><rect class="s" x="151.2" y="103.18" width="1" height="65.19"/><rect class="s" x="169.74" y="103.18" width="1" height="65.19"/><rect class="s" x="188.28" y="103.18" width="1" height="65.19"/><rect class="s" x="206.82" y="103.18" width="1" height="65.19"/><rect class="b" x="111.61" y="129.07" width="6.03" height="39.29"/><rect class="b" x="130.32" y="142.55" width="6.03" height="25.82"/><rect class="b" x="148.71" y="131.22" width="6.03" height="37.14"/><rect class="b" x="167.23" y="117.06" width="6.03" height="51.3"/><rect class="b" x="185.77" y="138.73" width="6.03" height="29.64"/><rect class="q" x="101.92" y="169.6" width="109.03" height="0.83"/><polygon class="d" points="213.71 117.38 207.32 106.31 200.94 117.38 204.31 117.38 204.31 168.36 210.34 168.36 210.34 117.38 213.71 117.38"/><path class="q" d="M109.7,165.17a.76.76,0,0,1-.76.76h-6.26a.76.76,0,0,1-.76-.76h0a.76.76,0,0,1,.76-.76h6.26a.76.76,0,0,1,.76.76Z" transform="translate(0)"/><path class="q" d="M109.7,154.3a.76.76,0,0,1-.76.76h-6.26a.76.76,0,0,1-.76-.76h0a.76.76,0,0,1,.76-.76h6.26a.76.76,0,0,1,.76.76Z" transform="translate(0)"/><path class="q" d="M109.7,143.44a.76.76,0,0,1-.76.76h-6.26a.76.76,0,0,1-.76-.76h0a.76.76,0,0,1,.76-.76h6.26a.76.76,0,0,1,.76.76Z" transform="translate(0)"/><path class="q" d="M109.7,132.58a.76.76,0,0,1-.76.76h-6.26a.76.76,0,0,1-.76-.76h0a.76.76,0,0,1,.76-.76h6.26a.76.76,0,0,1,.76.76Z" transform="translate(0)"/><path class="q" d="M109.7,121.72a.76.76,0,0,1-.76.76h-6.26a.76.76,0,0,1-.76-.76h0a.76.76,0,0,1,.76-.76h6.26a.76.76,0,0,1,.76.76Z" transform="translate(0)"/><path class="q" d="M109.7,110.85a.76.76,0,0,1-.76.76h-6.26a.76.76,0,0,1-.76-.76h0a.76.76,0,0,1,.76-.76h6.26a.76.76,0,0,1,.76.76Z" transform="translate(0)"/><path class="q" d="M109.7,100a.76.76,0,0,1-.76.76h-6.26a.76.76,0,0,1-.76-.76h0a.76.76,0,0,1,.76-.76h6.26a.76.76,0,0,1,.76.76Z" transform="translate(0)"/><rect class="p" x="528.08" y="30.69" width="121.71" height="80.37"/><rect class="m" x="539.85" y="68" width="10.46" height="29.43"/><rect class="m" x="553.01" y="76.94" width="10.46" height="20.49"/><rect class="m" x="566.18" y="56.46" width="10.46" height="40.98"/><rect class="m" x="579.35" y="68" width="10.46" height="29.43"/><rect class="m" x="592.51" y="56.46" width="10.46" height="40.98"/><rect class="m" x="605.68" y="59.71" width="10.46" height="37.72"/><rect class="m" x="618.84" y="51.56" width="10.46" height="45.88"/><rect class="n" x="539.85" y="94.49" width="10.46" height="2.95"/><rect class="n" x="553.01" y="85.65" width="10.46" height="11.78"/><rect class="n" x="566.18" y="91.54" width="10.46" height="5.89"/><rect class="n" x="579.35" y="85.65" width="10.46" height="11.78"/><rect class="n" x="592.51" y="78.57" width="10.46" height="18.86"/><rect class="n" x="605.68" y="85.65" width="10.46" height="11.78"/><rect class="n" x="618.84" y="68" width="10.46" height="29.43"/><rect class="o" x="625.62" y="34.31" width="16.51" height="2.43"/><rect class="b" x="625.62" y="39.68" width="8.51" height="0.99"/><rect class="b" x="635.52" y="39.68" width="5.43" height="0.99"/><polygon class="b" points="637.88 42.32 637.88 42.98 637.33 42.98 637.33 42.32 628.54 42.32 628.54 43.31 641.63 43.31 641.63 42.32 637.88 42.32"/><rect class="b" x="625.62" y="42.32" width="2.22" height="0.99"/><rect class="b" x="642.14" y="42.32" width="2.08" height="0.99"/><rect class="o" x="540.93" y="47.8" width="8.45" height="2.06" rx="1.02"/><rect class="o" x="554.01" y="47.8" width="8.45" height="2.06" rx="1.02"/><rect class="o" x="567.18" y="47.8" width="8.45" height="2.06" rx="1.02"/><rect class="o" x="580.35" y="47.8" width="8.45" height="2.06" rx="1.02"/><rect class="o" x="593.51" y="47.8" width="8.45" height="2.06" rx="1.02"/><rect class="o" x="606.68" y="47.8" width="8.45" height="2.06" rx="1.02"/><rect class="o" x="619.61" y="47.8" width="8.45" height="2.06" rx="1.02"/><path class="o" d="M198.87,237.84c.39,1.07.11,2.33.66,3.32a2.94,2.94,0,0,0,2.49,1.36,7.79,7.79,0,0,0,2.89-.57,54.52,54.52,0,0,0,5.08-2.06,7.52,7.52,0,0,0,3.16-2.32,8.2,8.2,0,0,0,1-4.11,120.3,120.3,0,0,1,2.84-19,15.62,15.62,0,0,0,.64-4.69,4.87,4.87,0,0,0-2.24-4,5.76,5.76,0,0,0-3-.54,6.48,6.48,0,0,0-3.85,1.18c-1.55,1.25-2,3.39-2.48,5.32a31.4,31.4,0,0,1-6.66,12.53,24.49,24.49,0,0,0-3.54,4.48,5.45,5.45,0,0,0-.11,5.45C196.65,235.58,198.33,236.34,198.87,237.84Z" transform="translate(0)"/><path class="s" d="M208.78,236.59a5.47,5.47,0,0,1-1.45,3.73,8,8,0,0,1-3.91,1.71,5.4,5.4,0,0,1-3.57,0c-1.22-.59-1.8-2-2.28-3.23a17,17,0,0,1-1.19-4.27,5.63,5.63,0,0,1,1.1-4.2,5.15,5.15,0,0,1,3.25-1.68,7,7,0,0,1,5.85,2.07A8,8,0,0,1,208.78,236.59Z" transform="translate(0)"/><path class="t" d="M203.08,242.08c-2.26.82-4.75-.06-6.82-1.3a22.13,22.13,0,0,1-6.54-6,8.33,8.33,0,0,0,4.65-5.94c1.84,1,4,1.24,6,1.69s4.14,1.27,5.35,3.08a5.93,5.93,0,0,1,.68,5A5.6,5.6,0,0,1,203.08,242.08Z" transform="translate(0)"/><path class="u" d="M205.71,233.57c-1.21-1.81-3.33-2.62-5.35-3.08s-4.15-.66-6-1.69a8.48,8.48,0,0,1-3.28,5.14c4.22,2.92,11,2.42,12.85,6.06a5.68,5.68,0,0,1,.55,1.28,5.71,5.71,0,0,0,1.9-2.75A5.93,5.93,0,0,0,205.71,233.57Z" transform="translate(0)"/><rect class="s" x="194" y="199.06" width="6.85" height="50.61" transform="translate(-49.67 56.26) rotate(-14.43)"/><path class="t" d="M188.32,226.44a9,9,0,0,1,.24-1.87c.61-2.3,3-7.18,3.11-9.57,2.24,3,.72,5.4.85,6.57a14.3,14.3,0,0,1,3.46.23c.37.09.8.28.87.68a.79.79,0,0,1-.34.73,2,2,0,0,1-.74.29,4,4,0,0,1,1,.79,1.47,1.47,0,0,1,.35,1.27.8.8,0,0,1-1,.62,2.05,2.05,0,0,1,.78,1.08c.09.46-.25,1-.67.92a1.24,1.24,0,0,1,.17,1.52,7.77,7.77,0,0,1-1,1.26,14.24,14.24,0,0,0-1.39,2.62,3.21,3.21,0,0,1-2.06,1.91,3.29,3.29,0,0,1-2.62-1.16,3.67,3.67,0,0,1-.87-1.09,4.3,4.3,0,0,1-.28-1.82C188.19,229.76,188.22,228.1,188.32,226.44Z" transform="translate(0)"/><path class="u" d="M196.81,224.29a4,4,0,0,0-1-.79,2,2,0,0,0,.74-.29.79.79,0,0,0,.34-.73c-.07-.4-.5-.59-.87-.68a12,12,0,0,0-2.87-.23c1.51,4.83,1.65,9.65-1.13,13.92h0a3.21,3.21,0,0,0,2.06-1.91,14.24,14.24,0,0,1,1.39-2.62,7.77,7.77,0,0,0,1-1.26,1.24,1.24,0,0,0-.17-1.52c.42.1.76-.46.67-.92a2.05,2.05,0,0,0-.78-1.08.8.8,0,0,0,1-.62A1.47,1.47,0,0,0,196.81,224.29Z" transform="translate(0)"/><path class="s" d="M196.61,226.6a8.39,8.39,0,0,0-3.76-1v-.5a9,9,0,0,1,4,1.08Z" transform="translate(0)"/><path class="s" d="M196.6,228.42a11.47,11.47,0,0,0-3.88-.83l0-.5a11.94,11.94,0,0,1,4,.87Z" transform="translate(0)"/><path class="s" d="M195.72,231.39a1.81,1.81,0,0,1-1.08-1.32.61.61,0,0,0-.06-.24l-.15,0a6.39,6.39,0,0,0-1.45.07l-.09-.49a6,6,0,0,1,1.58-.07.7.7,0,0,1,.45.15.82.82,0,0,1,.21.47,1.29,1.29,0,0,0,.78,1Z" transform="translate(0)"/><path class="t" d="M219.28,182.18c2.1-.24,4.67-1.62,6.71-2.22.57,2.71,1.88,9.61,3.67,12.84l.7,1c-4.94,3.77-10,5.63-15.86,7.23C221.27,197.28,219,188.75,219.28,182.18Z" transform="translate(0)"/><path class="u" d="M225,180.3a29,29,0,0,1-5.7,1.88c-.29,6.57,2,15.1-4.78,18.88a65.77,65.77,0,0,0,6.91-2.25A41.63,41.63,0,0,0,225,180.3Z" transform="translate(0)"/><path class="s" d="M225,180.17c-1.92.66-4.18,1.79-6.08,2,.14,2.81.51,6,.43,9C224,190.25,224.68,184.94,225,180.17Z" transform="translate(0)"/><path class="r" d="M217.38,195a8.36,8.36,0,0,0-3.25,2.46c-1.32,1.87-1.16,4.37-1.85,6.55a26,26,0,0,1,9.79-6,61.93,61.93,0,0,1,11.26-2.68,2.4,2.4,0,0,0-1.23-2.43,5.56,5.56,0,0,0-2.79-.66A24.84,24.84,0,0,0,217.38,195Z" transform="translate(0)"/><path class="t" d="M226.38,171.09a12.88,12.88,0,0,0-7.57-4.42l-1.91,0c-1.2,1.38-1.89,1.46-2.83,3.06l-.29,1.24a3.15,3.15,0,0,1-1.58,2.15,14,14,0,0,0-2.95,1.84,1.12,1.12,0,0,0-.21,2c.53.54,1.08,1.07,1.64,1.58a38,38,0,0,0,.17,5.53,5.33,5.33,0,0,0,.65,3,3.47,3.47,0,0,0,2.38,1.17,14.21,14.21,0,0,0,10.19-2.45,10.83,10.83,0,0,0,4.41-5.71A10,10,0,0,0,226.38,171.09Z" transform="translate(0)"/><path class="u" d="M226.38,171.09a12.88,12.88,0,0,0-7.57-4.42l-1.91,0c-1.2,1.38-1.89,1.46-2.83,3.06l-.15.65c.34,5.5,6.09,11.31,7.56,16.76a15.54,15.54,0,0,0,2.59-1.42,10.83,10.83,0,0,0,4.41-5.71A10,10,0,0,0,226.38,171.09Z" transform="translate(0)"/><path class="p" d="M213.78,170.93a3.84,3.84,0,0,0,.14-.77Z" transform="translate(0)"/><path class="s" d="M239,166.22c-.73-1.39-1.54-2.75-2.4-4.06a2.69,2.69,0,0,0-1.62-1.37,2.73,2.73,0,0,0-1.93.76l-1.78,1.32a22.32,22.32,0,0,0-2.74-1.35,11.74,11.74,0,0,0-8.83.35l-2.66-.85c-1.67,1.09-2.43,3.28-2.65,5.37a16.94,16.94,0,0,0,2.38,10.35c1.83,3,5.09,6.84,8.11,8.43,1.66.87,3.12.39,4.81-.23.15-.06.29-.14.43-.21a9.8,9.8,0,0,0,2.39-1.22,22,22,0,0,0,5.57-6c1.33-2,2.57-4.17,2.49-6.54A11.14,11.14,0,0,0,239,166.22Z" transform="translate(0)"/><path class="n" d="M217.36,169.13a7.58,7.58,0,0,0,1.07,3.77c.09-.93.19-1.86.28-2.79a5.66,5.66,0,0,0,2.12,1.3l.4-1.78a2.45,2.45,0,0,0,1.36,1.15l.52-1.14a.9.9,0,0,0,.95.49l.28-1a.85.85,0,1,0,1.6-.48l1.12.75a.47.47,0,0,0,0-.67,8.78,8.78,0,0,0,4.41.07,7.94,7.94,0,0,1-2.87-3.9,1.59,1.59,0,0,1-.75,1.54,1.62,1.62,0,0,1-1.72-.06L225,167.61a1.79,1.79,0,0,0-1.54-.52,10.15,10.15,0,0,0-1.63.38,7,7,0,0,1-5.1-.68,9.61,9.61,0,0,0,.73,7A10.19,10.19,0,0,1,217.36,169.13Z" transform="translate(0)"/><path class="d" d="M231.69,163a23.85,23.85,0,0,0,1.11,5.13c-1.36-.69-2-2.25-2.53-3.67a1.6,1.6,0,0,1-.13-1.15C230.49,162.42,231.19,163.86,231.69,163Z" transform="translate(0)"/><path class="t" d="M189.65,372.14c4.76-2.65,7.85-7.21,10.48-11.91,3.18-39.41,0-36.87,1.65-54h12.64c.52,10.73.26,20.46-2.11,30.62-1.83,7.87-3.44,13.92-5.23,23.34a15.78,15.78,0,0,0-.26,6.08,4.46,4.46,0,0,1-.1,3.51c-1.49,2.34-2.95,1.78-5.62,2.76-3.11,1.14-2.47,3.5-8.77,3.68a5.63,5.63,0,0,1-3.54-.68,1.92,1.92,0,0,1-.84-1.17C187.72,373.28,188.81,372.61,189.65,372.14Z" transform="translate(0)"/><path class="u" d="M209,350.87c1.07-4.8,2.14-9,3.29-14,2.37-10.16,2.63-19.89,2.11-30.62H201.78c-1.54,15.77,1.06,14.84-1,45.52C205,354.21,207.38,352.62,209,350.87Z" transform="translate(0)"/><path class="s" d="M199.74,370.59a11.23,11.23,0,0,1-4.16,2.14,6.23,6.23,0,0,1-4.5-.52l-.56-.35,1-.83a.74.74,0,0,1,.4-.21.91.91,0,0,1,.44.16,4,4,0,0,0,1.93.35A12.38,12.38,0,0,0,199.74,370.59Z" transform="translate(0)"/><path class="o" d="M189.65,372.14c.47-.26.91-.55,1.35-.85a5.87,5.87,0,0,0,4.8,1.3c4.08-.51,7.7-3.51,11.09-6a4.15,4.15,0,0,1-.17,3.23c-1.49,2.34-2.95,1.78-5.62,2.76-3.11,1.14-2.47,3.5-8.77,3.68a5.63,5.63,0,0,1-3.54-.68,2,2,0,0,1-.84-1.17C187.72,373.28,188.81,372.61,189.65,372.14Z" transform="translate(0)"/><path class="i" d="M201.13,268.18c.23,6-.48,13.31-.71,19.31s-1,12.2-1,18.32c-.12,14.37,3.41,29,.42,42.94a23.16,23.16,0,0,0,16.31-.68c1.93-22.82,4.4-53.39,8.2-78.08C217.37,270.44,207.62,271.08,201.13,268.18Z" transform="translate(0)"/><path class="v" d="M222.49,273.71a24.55,24.55,0,0,1-3.53-.06,8.61,8.61,0,0,1-.2,4.15c-3.56,10.12-10.12,25.05-10.12,34.16,0,13.32,0,23.76-.22,38a22.2,22.2,0,0,0,7.72-1.85C218.07,325.25,218.69,298.39,222.49,273.71Z" transform="translate(0)"/><path class="t" d="M218.79,376.09l2.56-2.13a11.59,11.59,0,0,0,2-8.55c-2.16-17.38-7.93-38.94-10.63-56.12H228.4c2.31,18.1,4.92,39.66,1.44,56.77a18.69,18.69,0,0,0-.17,6.33c.19,1.37.35,2.73.49,4.11s.19,2.79-.51,3.66c-.58.72-2.73.35-4.42,1.14-4.4,2.07-9.39,2.55-12.52.87C210.85,380.76,214.83,378.38,218.79,376.09Z" transform="translate(0)"/><path class="u" d="M228.4,309.29H212.76c2.6,16.58,8.06,37.23,10.38,54.28a6.3,6.3,0,0,0,7.49-2.29C232.83,345.05,230.5,325.75,228.4,309.29Z" transform="translate(0)"/><path class="s" d="M229.05,375.39a2.61,2.61,0,0,0,.08-1.11,8.43,8.43,0,0,0-.7,1.63.38.38,0,0,0,.41-.1A.93.93,0,0,0,229.05,375.39Z" transform="translate(0)"/><path class="s" d="M220.59,380.66a7.61,7.61,0,0,1-2.39.46,4.64,4.64,0,0,1-3.84-2.29l1.32-1c1.81,1.46,4.28,1.51,6.49,1.07s4.37-1.31,6.61-1.47A84.07,84.07,0,0,1,220.59,380.66Z" transform="translate(0)"/><path class="o" d="M215.05,378.37a4.6,4.6,0,0,0,2.74,1.73c1.79.45,4.36-.35,6-1,2-.79,4.18-2.14,6.33-2.59.13,1.31.19,2.79-.51,3.65s-2.73.35-4.42,1.14c-4.4,2.07-9.39,2.55-12.52.87C211.47,381.23,212.83,379.86,215.05,378.37Z" transform="translate(0)"/><path class="i" d="M233.13,271.06c2.67,10-.91,20.52-2.18,30.84-2.24,18.21,7.64,39.24,4.13,57.22-5.39,2.63-11.23,4.72-17.31,1.46,1-10.8-2.17-25-4-35.68-.94-5.48-2.36-10.88-2.85-16.43-1.2-13.61,3.25-27.7-.32-40.82l19.15-.95Z" transform="translate(0)"/><path class="v" d="M226.67,275.38a8.86,8.86,0,0,0,3.37-1,3.2,3.2,0,0,0,1.65-2.93q-14.73-.94-29.37-3a2.72,2.72,0,0,0,.13,2.84,6.18,6.18,0,0,0,2.21,2,23.11,23.11,0,0,0,10.77,3A53.73,53.73,0,0,0,226.67,275.38Z" transform="translate(0)"/><path class="v" d="M231,301.9c1.27-10.32,4.85-20.84,2.18-30.84l-3.38-4.36-3.48.17c2.42,3.91,4.25,8,3.67,12.13-4,23,0,43,3,65a52.47,52.47,0,0,1,.58,15.86l1.56-.74C238.59,341.14,228.71,320.11,231,301.9Z" transform="translate(0)"/><path class="d" d="M236.49,195.76c2.52,2.63,3.2,6.77,2.78,10.53a40.29,40.29,0,0,1-4.89,14.6c-2.25,4.14-4.06,9.07-2.89,15.05a53.75,53.75,0,0,0,2.8,8.55,63.57,63.57,0,0,1,4.1,22.65,5.64,5.64,0,0,1-.87,3.58c-.88,1-2.34,1.21-3.65,1.27-9.28.49-22.37,1-33-3,.53-14.53,6.29-26.79,6.82-41.32.26-6.92-3.21-11.72-.47-18,2.45-5.6,10.6-12.54,15.86-15C227.41,192.57,233.06,192.18,236.49,195.76Z" transform="translate(0)"/><path class="o" d="M210.46,248.85c.33-7.6,2.95-15,2.58-22.65a65.09,65.09,0,0,0,20.05-12.29c-3.34,7.82-6.75,16.16-5.44,24.55.84,5.36,3.54,10.21,5.58,15.23s3.41,12.09,1.58,17.19c-8.87,1-16.95,1.15-25-1.25C211.76,263,210.16,255.81,210.46,248.85Z" transform="translate(0)"/><path class="s" d="M209.32,231.59a11.25,11.25,0,0,1,1.76-5.61,12.42,12.42,0,0,1,4.27-3.23q9.51-5.15,19.47-9.39a71.87,71.87,0,0,1-21.25,28.1,3.32,3.32,0,0,1-2.78,1c-1.27-.37-1.62-2-1.68-3.29A48.2,48.2,0,0,1,209.32,231.59Z" transform="translate(0)"/><path class="s" d="M203.18,269.9c-1.14-6.49.63-13,2.35-19.34.67-2.49,1.37-5.06,1.88-7.59A112.64,112.64,0,0,0,209,229.83c.31-3.86.63-7.86,1.31-11.74,1.22-7,4.31-16.36,12.06-21.4l.27.42c-7.6,4.94-10.63,14.18-11.84,21.06-.67,3.87-1,7.85-1.3,11.7a114.2,114.2,0,0,1-1.58,13.2c-.51,2.55-1.21,5.13-1.89,7.62-1.7,6.26-3.46,12.74-2.33,19.12Z" transform="translate(0)"/><path class="t" d="M233.74,196.81c-3-.64-6.12.82-8.67,2.35-3.84,2.31-7.47,5-11.19,7.56s-7.82,4.75-12.22,5c-6.21-7-10.06-8.73-16.13-15.39a13.7,13.7,0,0,1-1.55-3.25,24.5,24.5,0,0,0-2.13-5.29,1.6,1.6,0,0,0-.77-.73,3.23,3.23,0,0,0-.88,0,3.44,3.44,0,0,1-1.85-.93l-6.26-4.95c-.86,1.7.79,2.54,3.55,5.19a2,2,0,0,0-1.64,1.56,6.07,6.07,0,0,1,0,1.9c-.15.5-.58,1-.38,1.49.12.27.39.43.52.7s0,.8,0,1.21a2.87,2.87,0,0,0,.81,1.81,8.19,8.19,0,0,0,2.12,2.15c.62.37,1.32.56,1.94.93a5.34,5.34,0,0,1,2.24,2.57l.81,1.67s6.07,12,12.47,20.48a4.22,4.22,0,0,0,3.69,1.65,81,81,0,0,0,30.52-8.93,26.41,26.41,0,0,0,6.35-4.12c2.16-2,4-4.66,3.77-7.89S236.64,197.43,233.74,196.81Z" transform="translate(0)"/><path class="u" d="M233.74,196.81c-3-.64-6.12.82-8.67,2.35-3.84,2.31-7.47,5-11.19,7.56s-7.82,4.75-12.22,5c-.84-.94-1.63-1.78-2.39-2.56a6.74,6.74,0,0,1-1.33.86c-7,4-14-5-17-12-1-1.93-4.74-2-6.8-4.72a3.06,3.06,0,0,0,.8,1.7,8.19,8.19,0,0,0,2.12,2.15c.62.37,1.32.56,1.94.93a5.34,5.34,0,0,1,2.24,2.57l.81,1.67s6.07,12,12.47,20.48a4.22,4.22,0,0,0,3.69,1.65,81,81,0,0,0,30.52-8.93,26.41,26.41,0,0,0,6.35-4.12c2.16-2,4-4.66,3.77-7.89S236.64,197.43,233.74,196.81Z" transform="translate(0)"/><path class="d" d="M230.85,195.82c-2.61.31-4.8,2-7,3.51a63.72,63.72,0,0,1-17.17,8.51,14.88,14.88,0,0,0-4.05,1.68,4.43,4.43,0,0,0-2.12,3.64c0,1.31.9,2.53.81,3.84s-1.27,2.52-2.2,3.61-1.68,2.71-.9,3.92a3.88,3.88,0,0,0,2.26,1.31,15.55,15.55,0,0,1,3.85,1.5,4.85,4.85,0,0,1,2.38,3.23,15.92,15.92,0,0,1-.07,2.58,2.76,2.76,0,0,0,.88,2.34,2.4,2.4,0,0,0,1.48.42c2.59,0,4.41-2.44,6.14-4.36,5.78-6.43,14.63-9.44,20.39-15.88a17.26,17.26,0,0,0,4.17-7.66,11.08,11.08,0,0,0-1.37-8.48A8.2,8.2,0,0,0,230.85,195.82Z" transform="translate(0)"/><path class="s" d="M201.83,210.88l-.42-.27c1-1.61,2.89-2.74,5.54-3.35.84-.19,1.7-.33,2.53-.47a23.46,23.46,0,0,0,3.77-.81,22.18,22.18,0,0,0,7-4.4L221,201a31.81,31.81,0,0,1,6.09-4.38,10.22,10.22,0,0,1,8.35-.73l-.19.46a9.76,9.76,0,0,0-7.93.72,31,31,0,0,0-6,4.32l-.74.62a22.67,22.67,0,0,1-7.18,4.5,26.2,26.2,0,0,1-3.85.83c-.83.13-1.68.27-2.5.45C204.54,208.33,202.78,209.38,201.83,210.88Z" transform="translate(0)"/><path class="o" d="M211.52,212.83a16.3,16.3,0,0,1-7.41,1.79,2.8,2.8,0,0,0-2.06.53,4.57,4.57,0,0,1-.49,3.86c1.09-1.36,2.9-1.85,4.51-2.51A16.79,16.79,0,0,0,211.52,212.83Z" transform="translate(0)"/><path class="o" d="M222.71,216a140.52,140.52,0,0,1-15.61,12.78,10.93,10.93,0,0,0-6.52-3.26,31.41,31.41,0,0,0,11.66-3.28A91.47,91.47,0,0,0,222.71,216Z" transform="translate(0)"/><path class="o" d="M211.14,234.37c2.75-1.74,4.87-4.45,7.3-6.62a51.38,51.38,0,0,1,8.48-5.67c3-1.76,5.88-4.13,6.91-7.44-2.05,3.39-5.42,5.76-8.89,7.69s-7.13,3.51-10.34,5.83a39.58,39.58,0,0,0-6.58,6.23,1.69,1.69,0,0,0,1.53.62A3.79,3.79,0,0,0,211.14,234.37Z" transform="translate(0)"/><path class="w" d="M210.47,177.15a1.56,1.56,0,0,1,.62.3.59.59,0,0,1,.22.61.38.38,0,0,1-.55.23,7.53,7.53,0,0,1-1.46-1.47Z" transform="translate(0)"/><path class="t" d="M586.85,228.74a20.32,20.32,0,0,1-.62-2.07c0-.49.18-1,.19-1.45a5.14,5.14,0,0,0-.75-2.13,7.14,7.14,0,0,1-.66-2.69,2.31,2.31,0,0,0-1.61,2.66c.12.6.49,1.19.36,1.8a1.85,1.85,0,0,1-.31.61l-.09-.11a10.78,10.78,0,0,0-1.72-1.35,27.37,27.37,0,0,1-4.86-5.32c-.25-.31-.64-.64-1-.45s-.36.94-.23,1.3a15.06,15.06,0,0,0,2.93,4.68,1.5,1.5,0,0,1,.38.64,1.52,1.52,0,0,1-.22.94,20.25,20.25,0,0,0-.89,2.15,3.66,3.66,0,0,0-.25,2.18,3.77,3.77,0,0,0,.78,1.28,4.51,4.51,0,0,0,2.74,2,11.38,11.38,0,0,0,2.09.21,34.05,34.05,0,0,1,5.48,5.71,18.22,18.22,0,0,1,4.27-3.4c-2.12-2-4.16-4.09-6.12-6.24A2.1,2.1,0,0,0,586.85,228.74Z" transform="translate(0)"/><path class="u" d="M578.28,230.44a4.09,4.09,0,0,1,0-2.25l.63-3.58a4.55,4.55,0,0,0,1.81.79,2.23,2.23,0,0,1,1.56,1.13,3,3,0,0,1,.14.66c.13,1.22.27,2.45.4,3.67a3.29,3.29,0,0,1-2.41,1A2.39,2.39,0,0,1,578.28,230.44Z" transform="translate(0)"/><path class="x" d="M578.53,226.5a12.19,12.19,0,0,0,1.22.8.82.82,0,0,0,.7.17.68.68,0,0,0,.38-.63,2.11,2.11,0,0,0-.58-1.5,6.37,6.37,0,0,0-1.29-1,1.35,1.35,0,0,0-.72-.3.85.85,0,0,0-.78.67,1.35,1.35,0,0,0,.25,1.06A3.66,3.66,0,0,0,578.53,226.5Z" transform="translate(0)"/><path class="x" d="M576.83,227.53a1.85,1.85,0,0,0,.89.83l1.26.73a3,3,0,0,0,.94.4,1,1,0,0,0,.93-.32.92.92,0,0,0,.08-.84,2.19,2.19,0,0,0-.49-.72,6.37,6.37,0,0,0-2.66-1.7.75.75,0,0,0-.55,0,.78.78,0,0,0-.33.52A1.77,1.77,0,0,0,576.83,227.53Z" transform="translate(0)"/><path class="x" d="M577,228.88a1.3,1.3,0,0,0,.16,1.3,2.2,2.2,0,0,0,1.11.78,9,9,0,0,0,1.35.29,2.75,2.75,0,0,0,.7,0,.74.74,0,0,0,.56-.37.89.89,0,0,0-.31-1,4.64,4.64,0,0,0-1.19-.76l-1.15-.57a1.21,1.21,0,0,0-.71-.19A.78.78,0,0,0,577,228.88Z" transform="translate(0)"/><path class="y" d="M646.28,250.84,642,249.39a75.57,75.57,0,0,1-52.82-18.75,1.48,1.48,0,0,0-2,0,12.25,12.25,0,0,0-2.35,2.58,5.28,5.28,0,0,0-.71,4.59,7.83,7.83,0,0,0,2.52,3c6.72,5.64,13.47,11.29,21,15.78s15.94,7.78,24.69,8.27c4.17.23,8.64-.28,11.91-2.88S648.9,254.09,646.28,250.84Z" transform="translate(0)"/><path class="q" d="M626.19,251.57a.69.69,0,0,1-1.38,0,.69.69,0,1,1,1.38,0Z" transform="translate(0)"/><path class="q" d="M616.44,256.44a.57.57,0,1,1-.56-.56A.56.56,0,0,1,616.44,256.44Z" transform="translate(0)"/><circle class="q" cx="615.19" cy="248.38" r="0.87"/><circle class="q" cx="604.06" cy="243.88" r="0.5"/><path class="q" d="M598.44,243.32a.69.69,0,0,1-1.38,0,.69.69,0,1,1,1.38,0Z" transform="translate(0)"/><path class="q" d="M592.19,235.69a.57.57,0,1,1-.56-.56A.56.56,0,0,1,592.19,235.69Z" transform="translate(0)"/><circle class="q" cx="588.31" cy="238.63" r="0.75"/><path class="m" d="M584.48,233.78a5,5,0,0,0-.38,4,7.83,7.83,0,0,0,2.52,3c6.72,5.64,13.47,11.29,21,15.78s15.94,7.78,24.69,8.27c4.17.23,8.64-.28,11.91-2.88a9.36,9.36,0,0,0,3-4.47C624.45,261.21,599.47,251.8,584.48,233.78Z" transform="translate(0)"/><path class="m" d="M608,245.79a5.66,5.66,0,0,0,1.82,5.87A10.34,10.34,0,0,0,608,245.79Z" transform="translate(0)"/><path class="s" d="M608.38,386.78a3.7,3.7,0,1,0,3.71,3.7A3.7,3.7,0,0,0,608.38,386.78Z" transform="translate(0)"/><path class="s" d="M677.19,387v-.67h0v-.87a1.6,1.6,0,0,0-1.47-1.6c-4.37-.36-17.21-1.42-22.15-2-6-.7-8.46-3.88-8.46-3.88h-.78V357.49h-.79V328.12h-3v29.37h-.78V378h-.78s-2.47,3.18-8.46,3.88c-4.94.58-17.79,1.64-22.15,2a1.61,1.61,0,0,0-1.48,1.6v.87l.59-.05v2.62h2.38v-2.81l27.83-2.25a17.4,17.4,0,0,1-1.77,1.33,5.25,5.25,0,0,0-1.39,1.17,2.91,2.91,0,0,0-.41.78h-1.82V394h6.1V387.1h-1.92c0-.18,0-.37.07-.55a12.65,12.65,0,0,0,6.5-3l31.68,2.56V387a3.7,3.7,0,1,0,2.38,0Z" transform="translate(0)"/><path class="o" d="M598.84,336.37c-1.88,1.62-3.62,4-2.89,6.39.94,3.06,5,3.57,8.18,3.52l35.36-.62c7.77-.14,16.18-.5,22.2-5.4,4.29-3.49,6.67-8.78,8.5-14a91.19,91.19,0,0,0,5.06-23.16c.41-5.34.21-10.94-2.24-15.7s-7.63-8.45-12.93-7.71c-3.7.51-6.87,3.06-9,6.15a37,37,0,0,0-4.34,10.27c-2.6,8.7-5.1,18.08-11.91,24.09C624.91,329,608.93,327.75,598.84,336.37Z" transform="translate(0)"/><path class="d" d="M598.84,334c-1.88,1.61-3.62,4-2.89,6.39.94,3.05,5,3.57,8.18,3.51l35.36-.62c7.77-.13,16.18-.49,22.2-5.39,4.29-3.5,6.67-8.78,8.5-14a91.17,91.17,0,0,0,5.06-23.17c.41-5.34.21-10.93-2.24-15.7s-7.63-8.45-12.93-7.71c-3.7.52-6.87,3.07-9,6.15a37.3,37.3,0,0,0-4.34,10.27c-2.6,8.71-5.1,18.08-11.91,24.1C624.91,326.65,608.93,325.41,598.84,334Z" transform="translate(0)"/><path class="v" d="M666.17,287.17c2.22.66,3.66,2.92,4,5.21a17.8,17.8,0,0,1-.69,6.86q-2,8.06-4.54,16c-2.08,6.34-4.64,12.86-9.62,17.31-5.31,4.75-12.64,6.48-19.7,7.46a149.88,149.88,0,0,1-25.14,1.27c-2.49-.08-5.38-.44-6.65-2.57a5,5,0,0,1,0-4.58,10.9,10.9,0,0,1,3.1-3.56c6.79-5.48,15.73-7.46,23.17-12a38.35,38.35,0,0,0,14.77-16.67c1.31-2.87,2.26-5.9,3.65-8.73a16.38,16.38,0,0,1,6-7.13c2.72-1.61,6.36-1.91,9-.12Z" transform="translate(0)"/><path class="t" d="M578.79,382.89c2.1-.95,5.61-2,7.69-3.92,3.16-3,3-4.38,3.25-7.48.32-3.58-.48-8.09-.8-11.67-.1-1.17-.23-2.35-.35-3.52h10.16a64.89,64.89,0,0,0,.14,24.1c.32,1.58.63,3.41-.41,4.64a4,4,0,0,1-3.83,1,9.54,9.54,0,0,0-3.63-.32c-4.38.73-8.82,2.12-12.94,1-.78-.21-2.21-.68-2.38-1.46C575.49,384.27,577.87,383.3,578.79,382.89Z" transform="translate(0)"/><path class="u" d="M598.88,380.4a64.89,64.89,0,0,1-.14-24.1H588.58c.12,1.17.24,2.35.35,3.52.13,1.43.33,3,.51,4.62,3.83,1.44,4.82,6.2,6.5,9.56,2,5-3,8-7,9a58.79,58.79,0,0,1-13.25,2.2v.06c.17.78,1.6,1.25,2.38,1.46,4.12,1.11,8.56-.28,12.94-1a9.54,9.54,0,0,1,3.63.32,4,4,0,0,0,3.83-1C599.51,383.81,599.2,382,598.88,380.4Z" transform="translate(0)"/><path class="n" d="M579.77,388a7.66,7.66,0,0,1-4-1.28,1.73,1.73,0,0,1-.83-1.59,1.86,1.86,0,0,1,.83-1,9.5,9.5,0,0,1,3.44-1.56,2,2,0,0,0,1,1.65,4.65,4.65,0,0,0,1.87.62,23.28,23.28,0,0,0,8.81-.76,62.38,62.38,0,0,1,8.71-1.81,3.46,3.46,0,0,1-1.71,3.77c-1.58.83-3.49.29-5.27.29-2.14,0-4.19.81-6.27,1.28A20.6,20.6,0,0,1,579.77,388Z" transform="translate(0)"/><path class="m" d="M589.23,364.69c0-1.63-.16-3.25-.3-4.87-.1-1.17-.23-2.35-.35-3.52h10.16a65.49,65.49,0,0,0-1,8.39Z" transform="translate(0)"/><path class="n" d="M600.81,360.5l-11.72.55a2.89,2.89,0,0,1-2.84-2.47c-2-14-5.15-23.1-2.71-35.74.87-4.48,5.45-8.36,9.94-9.19,11.87-2.17,29.8-3.85,30.92-17.09l17.5,3.28c.41,6.07.4,20.38-5.34,28.66l-37.5,2.63C599.5,342.64,599.75,348.22,600.81,360.5Z" transform="translate(0)"/><path class="z" d="M641.11,316.1c-15.44,2.33-32.09.58-47.17,5.9-3,2-7,5-6,9,1.21,10.29,1.69,20.21,2.54,30l10.33-.48c-1.06-12.28-1.31-17.86-1.75-29.37l37.5-2.63C638.94,325.07,640.32,320.6,641.11,316.1Z" transform="translate(0)"/><path class="t" d="M586.26,393.36c1.86-1.14,5.48-2.73,7.94-4,2.63-1.37,3.64-2.83,4-5.56.47-3.57-.58-9.94-.89-13.52-.11-1.18-.24-2.35-.36-3.53h10.17c-.31,8.39-1.42,16.18.14,24.11.31,1.57.62,3.4-.41,4.63-1.48,1.76-4.29,1.15-6.29,1.11a54.16,54.16,0,0,0-7.31.37c-2.24.27-4.57.79-6.81.2a2.24,2.24,0,0,1-1.75-1.46C584.5,394.72,585.4,393.88,586.26,393.36Z" transform="translate(0)"/><path class="u" d="M607.27,390.86c-1.56-7.93-.45-15.72-.14-24.11h-3.58c1.14,10.08,2.48,20.67.57,29.95a3.77,3.77,0,0,0,2.74-1.21C607.89,394.26,607.58,392.43,607.27,390.86Z" transform="translate(0)"/><path class="m" d="M597.25,375.27c0-1.62-.31-3.49-.46-5.1-.1-1.18.29-2.24.17-3.42l10.91.09a64.21,64.21,0,0,0-.73,8.43Z" transform="translate(0)"/><path class="n" d="M583.27,396c.62,1.28,3,2.23,4.45,2.38A16,16,0,0,0,592,398a38.64,38.64,0,0,1,8.39-.44,23.37,23.37,0,0,0,4,.05c1.33-.17,3.11-.52,4-1.55s0-3-.79-4.1c-3,2-6,2.57-9.61,2.84-2,.15-4,.35-6,.34-1.4,0-3.64.17-4-1.6-.14-.65.13-.92.54-1.37-.76-.36-1.94.88-3.34,1.55a5.46,5.46,0,0,0-1.76,1A1.18,1.18,0,0,0,583.27,396Z" transform="translate(0)"/><path class="n" d="M607,371.67h-9.26a3.26,3.26,0,0,1-3.23-2.83L591,342.52c-.5-3.75-1.31-8.53.51-11.85a16.31,16.31,0,0,1,4.6-5.84c8.57-5.94,20.72-7.51,27.44-14,3.32-3.22,3.52-7.38,4.85-12.92,6.36,1.34,15.58,3.12,20.69,7.25,2,40.11-23,24.61-39.19,32.33,0,10.58.36,21.07-.08,31.51A2.82,2.82,0,0,1,607,371.67Z" transform="translate(0)"/><path class="z" d="M627.36,300.51c-1.21-.53-2.68-1-3.79-.26-1.67,1.08-1.23,3.94-2.83,5.11a49.68,49.68,0,0,1,24.73,19.51c1.57-3.31,1-7.34-.79-10.55a26.33,26.33,0,0,0-7.5-7.92A49.94,49.94,0,0,0,627.36,300.51Z" transform="translate(0)"/><path class="z" d="M649.07,305.13a22.43,22.43,0,0,0-5.15-3c5.77,22.14-17.92,35.62-38,30.84,3,11,4,23-2,33-1.7,2.55-5.37,3.65-9.34,3.39a3.26,3.26,0,0,0,3.11,2.28H607a2.82,2.82,0,0,0,2.83-2.7c.44-10.44.06-20.93.08-31.51C626.1,329.74,651.08,345.24,649.07,305.13Z" transform="translate(0)"/><path class="r" d="M620.9,302.5c.59-.88.68-3.19,1.27-4.08,5.26.39,9.94,3.5,13.8,7.09s7.21,7.75,11.36,11a4.53,4.53,0,0,1,1.4,1.46c.68,1.39-.3,3-1.23,4.21-3-3.92-6.86-7.12-10.66-10.28A52.91,52.91,0,0,0,620.9,302.5Z" transform="translate(0)"/><path class="y" d="M626.38,281.66a22.25,22.25,0,0,1-2.67-7.88c-.34-4,1.31-7.79,3.52-11.28a13.9,13.9,0,0,1,13.84-14.08,58,58,0,0,1,11.46,1.11c3.56.71,7.27,1.89,9.58,4.7,1.76,2.14,2.44,5,2.87,7.69,2.07,13.45-12.2,27.13-14.85,56.28a1.1,1.1,0,0,1-1.73.8c-8.17-6-18.13-19-27.32-20C623.35,296.22,625.29,289.6,626.38,281.66Z" transform="translate(0)"/><path class="m" d="M665,261.92c-.43-2.74-1.11-5.55-2.87-7.69-2.31-2.81-6-4-9.58-4.7-1.46-.29-2.94-.51-4.43-.69-3.44,4.41-6.41,8.9-5.54,14.16.25,5.47.49,11,.42,16.44l-9.51-.61a18.4,18.4,0,0,1-4.32-.63,6.1,6.1,0,0,1-3.46-2.51c-.51-.85-1-2-1.94-2.08a20.07,20.07,0,0,0,4.52,9.47,1.25,1.25,0,0,0,.68.48c.75.11,1-1,1.69-1.37a1.55,1.55,0,0,1,1.62.34,9,9,0,0,0,1.36,1.12c1.2.63,2.67-.07,4,.05,2,.18,3.38,2.07,5,3.37-.64,7.64-2.24,15-5.74,21.64,4,3.71,8,7.66,11.51,10.29a1.1,1.1,0,0,0,1.73-.8C652.78,289.05,667.05,275.37,665,261.92Z" transform="translate(0)"/><path class="s" d="M634.61,250.76a4.94,4.94,0,0,0-.71,2.81c-.08,2.47.33,5.17,2.1,6.9a6.76,6.76,0,0,0,3.84,1.76,12.24,12.24,0,0,0,4.26-.29,20.39,20.39,0,0,0,9.89-5.45c1.09-1.09,2.11-2.58,1.68-4.05-.36-1.28-1.67-2-2.89-2.53-5.1-2.17-11.08-2.82-16.15-.59A4.61,4.61,0,0,0,634.61,250.76Z" transform="translate(0)"/><path class="q" d="M630.93,287.59a.78.78,0,0,0-.92-.36.76.76,0,1,0,.92.36Z" transform="translate(0)"/><path class="q" d="M630.43,267.79a.75.75,0,1,0-1.15-.64A.79.79,0,0,0,630.43,267.79Z" transform="translate(0)"/><path class="q" d="M638.88,272.65a.77.77,0,1,0,.54-1.27A.8.8,0,0,0,638.88,272.65Z" transform="translate(0)"/><path class="q" d="M633.82,297.62a.78.78,0,1,0,1,.76A.82.82,0,0,0,633.82,297.62Z" transform="translate(0)"/><path class="q" d="M646.87,296.41a2.2,2.2,0,0,0,.44-.77.76.76,0,0,0-.22-.81.7.7,0,0,0-1,.55A1.07,1.07,0,0,0,646.87,296.41Z" transform="translate(0)"/><path class="q" d="M645.81,306.69a.81.81,0,1,1-.81-.81A.81.81,0,0,1,645.81,306.69Z" transform="translate(0)"/><circle class="q" cx="640.44" cy="290.5" r="0.75"/><circle class="q" cx="631.31" cy="276.38" r="0.75"/><path class="q" d="M649.19,314.57a.69.69,0,0,1-1.38,0,.69.69,0,1,1,1.38,0Z" transform="translate(0)"/><path class="q" d="M637.69,305.69a.57.57,0,1,1-.56-.56A.56.56,0,0,1,637.69,305.69Z" transform="translate(0)"/><path class="q" d="M627.81,296.94a.94.94,0,1,1-.93-.94A.94.94,0,0,1,627.81,296.94Z" transform="translate(0)"/><path class="d" d="M648,217.82c-1.68-.55-2.83-2.53-4.59-2.45s-2.66,2-4.21,2.66-3.36.17-4.53,1.26-.73,3.29-1.18,5c-.4,1.52-1.63,2.65-2.62,3.87s-1.83,2.85-1.27,4.32c.33.88,1.15,1.64,1.06,2.58a5.23,5.23,0,0,1-.38,1.2,5.08,5.08,0,0,0,.34,3.18c.37,1,.06,1.91,0,3s-1,2-.73,3.77c10.69,1.94,21.3,3.22,31.88.73-.78-.68-.76-2.5-.27-3.4.32-.6.93-1.18.72-1.82s-1-.67-1.5-1.13c-1.14-1.17-1.28-2.68-.75-3.14.85-.77.82-2.19.82-3.33,0-2.41-2.27-4.11-3.45-6.22-1-1.7-1.19-3.71-1.81-5.57s-1.83-3.75-3.74-4.19C650.62,217.83,649.26,218.23,648,217.82Z" transform="translate(0)"/><path class="u" d="M635.28,224.21a3.41,3.41,0,0,0-1,3c.21.69.8,1.25.86,2,.14,1.62-2.34,2.43-2.45,4.06-.06.9.62,1.65.94,2.49a5.13,5.13,0,0,1-.21,3.51,20.92,20.92,0,0,0-1.12,3.41,3.5,3.5,0,0,0,1,3.28,4.7,4.7,0,0,0,1.77.74,41.19,41.19,0,0,0,10.34,1.54A22,22,0,0,0,655.51,246a.57.57,0,0,0,.24-.19c.17-.28-.23-.55-.5-.74a2.46,2.46,0,0,1-.83-2.34c.11-.87.46-1.68.64-2.53a2.87,2.87,0,0,0-.44-2.48c-.84-1-2.38-.8-3.52-1.37-1.38-.69-2-2.33-2.33-3.83s-.7-3.13-1.86-4.15-3.31-1.24-4.26-2.64c-.52-.78-.59-1.8-1.13-2.56a3.1,3.1,0,0,0-3.29-1A6,6,0,0,0,635.28,224.21Z" transform="translate(0)"/><path class="t" d="M639.87,248.71c1.65-3.78,1.94-7.41,2.33-11.52a20.63,20.63,0,0,0,8.2.62q.9,5.87,1.79,11.74A2.22,2.22,0,0,1,653.6,251a3.11,3.11,0,0,1-.71,2.35,15.41,15.41,0,0,1-6.51,5.94,8.6,8.6,0,0,1-8.49-.7c-2.36-1.82-3.23-5.54-1.46-7.94C637,249.92,639.06,249.1,639.87,248.71Z" transform="translate(0)"/><path class="u" d="M653.4,250.52c-1.95,6.06-8.2,9.83-14.46,7.48-.93,0-2.27-1.06-3.16-2.5a6.33,6.33,0,0,0,2.11,3.09,8.6,8.6,0,0,0,8.49.7,15.41,15.41,0,0,0,6.51-5.94,3.11,3.11,0,0,0,.71-2.35A1.48,1.48,0,0,0,653.4,250.52Z" transform="translate(0)"/><path class="u" d="M649.66,237.88a20.36,20.36,0,0,1-7.46-.69c-.39,4.11-.68,7.74-2.33,11.52-.81.39-2.91,1.21-3.44,1.94a5,5,0,0,0-.94,3A37.55,37.55,0,0,1,646.94,249C649.58,248.12,649.12,242.6,649.66,237.88Z" transform="translate(0)"/><path class="s" d="M641,245.38a50.62,50.62,0,0,0,1.2-8.19,19.84,19.84,0,0,0,7,.72C649,242.86,645.38,244.65,641,245.38Z" transform="translate(0)"/><path class="t" d="M635.9,229.8a2.56,2.56,0,0,0,.27-1.55,12.26,12.26,0,0,1,.66-4l.74-2A11.85,11.85,0,0,1,650.68,224a7.83,7.83,0,0,1,3,5c.21,2-.63,3.89-1.45,5.7a16.81,16.81,0,0,1-3.5,5.62,11.33,11.33,0,0,1-5.62,2.65,25.56,25.56,0,0,1-4.37.41,2.56,2.56,0,0,1-2.49-1.79,22.7,22.7,0,0,1-1.35-9.42A5.9,5.9,0,0,1,635.9,229.8Z" transform="translate(0)"/><path class="u" d="M653.68,229a7.83,7.83,0,0,0-3-5,12.26,12.26,0,0,0-9.92-2.84,4.49,4.49,0,0,1,1.18.83c2.57,1.72,2.2,6.37,5.19,8.3a3.07,3.07,0,0,1,1.48,2.79,10.49,10.49,0,0,0,1.25,6,22.93,22.93,0,0,0,2.37-4.36C653.05,232.89,653.89,231,653.68,229Z" transform="translate(0)"/><path class="d" d="M656.61,239.88c.23-1.83.83-3.63.74-5.47a7.35,7.35,0,0,0-1.27-3.82,6.08,6.08,0,0,0-.59-.75c0-.21,0-.41,0-.62a10.09,10.09,0,0,0-.68-4.85,8.73,8.73,0,0,0-4.47-3.94,16.76,16.76,0,0,0-8.32-1.36l-2.62,1.18c1.11-.28,4.43.72,5,1.71a14.81,14.81,0,0,1,.81,2.92,4.28,4.28,0,0,0,2.45,2.58c.86.34,1.92.46,2.42,1.24a3.25,3.25,0,0,1,0,2.56,9.05,9.05,0,0,0-.25,3.66,5.58,5.58,0,0,0,.62,1.8,3.12,3.12,0,0,0,1.29,1.86,7,7,0,0,1,2.25,2c.54,1,.29,2.39,1,3.33a3.88,3.88,0,0,0,3,1.11C656.6,243.78,656.37,241.71,656.61,239.88Z" transform="translate(0)"/><path class="o" d="M630.63,233.11c.26.29.61.52.71.89s-.2.9-.4,1.33a2.61,2.61,0,0,0,.62,2.94,3.85,3.85,0,0,1,.14-3c.26-.53.66-1.06.55-1.64-.14-.77-1.08-1.16-1.35-1.89a2.07,2.07,0,0,1,.33-1.74,5.83,5.83,0,0,0,.81-1.64,7.31,7.31,0,0,0-1.65,2.15A2.5,2.5,0,0,0,630.63,233.11Z" transform="translate(0)"/><path class="o" d="M632.57,239.73a10.35,10.35,0,0,0-1.29,3.21,3.51,3.51,0,0,0,1,3.18A11.05,11.05,0,0,1,632.57,239.73Z" transform="translate(0)"/><path class="o" d="M651.76,227.15a1.91,1.91,0,0,1,1.23,1.93,9.56,9.56,0,0,1-.58,2.4,3.07,3.07,0,0,0,.08,2.4,5.16,5.16,0,0,0,1.87,1.44c.68.43,1.34,1.13,1.19,1.91-.1.56-.6,1-.59,1.59a1.59,1.59,0,0,0,.65,1.06,4.8,4.8,0,0,1,.93.87,2,2,0,0,1,.23,1.41,6.25,6.25,0,0,1-.47,1.38,2.31,2.31,0,0,0,1-1.56,2.28,2.28,0,0,0-.53-1.75,3.71,3.71,0,0,1-.67-.81,1.91,1.91,0,0,1,.21-1.6,2.74,2.74,0,0,0,.41-1.6c-.13-.7-.83-1.14-1.47-1.46a2.85,2.85,0,0,1-1.6-1.36c-.29-.8.21-1.64.39-2.47A3.37,3.37,0,0,0,651.76,227.15Z" transform="translate(0)"/><path class="o" d="M659.27,236.13c.35-.66.91-1.29.82-2a2.21,2.21,0,0,0-1.43-1.52,3.33,3.33,0,0,1,.81.63,1.21,1.21,0,0,1,.33.95c-.07.5-.53.83-.87,1.19a3.43,3.43,0,0,0-.55,3.81c.32.64.85,1.17,1.13,1.83a3.73,3.73,0,0,1-.09,2.82,11.36,11.36,0,0,1-1.52,2.45,10,10,0,0,0,1.84-1.84,3.29,3.29,0,0,0,.65-2.45,13.74,13.74,0,0,0-1.29-2.68A3.8,3.8,0,0,1,659.27,236.13Z" transform="translate(0)"/><path class="o" d="M642.21,218.66a7.1,7.1,0,0,1,3.27,2.16,6.93,6.93,0,0,0-7.11-.37A3.64,3.64,0,0,1,642.21,218.66Z" transform="translate(0)"/><path class="o" d="M648.74,223.61a7.13,7.13,0,0,1-1-1.79,7.12,7.12,0,0,0-1.08-1.77,2.32,2.32,0,0,0-1.84-.81,3,3,0,0,1,1.41,1.42c.33.6.56,1.25.93,1.82A2.33,2.33,0,0,0,648.74,223.61Z" transform="translate(0)"/><path class="o" d="M648.58,220.88a2.16,2.16,0,0,0,1.49,1.71,2.07,2.07,0,0,0-.65-1.42C649,220.81,649.11,220.83,648.58,220.88Z" transform="translate(0)"/><path class="y" d="M665.36,301.31l-9.68,1.3a121.94,121.94,0,0,0-1.36-25.68c-1-6.41-2.52-13.18-.13-19.21.92-2.3,2.7-4.58,5.17-4.83a5.66,5.66,0,0,1,4.49,1.89,12.54,12.54,0,0,1,2.48,4.35c3.08,8.27,2.43,14.59,1.63,23.37C667.42,288.45,667.51,295.5,665.36,301.31Z" transform="translate(0)"/><path class="m" d="M653.65,259.38c-1.58,5.59-.26,11.72.67,17.55a121.94,121.94,0,0,1,1.36,25.68l2.66-.36C659.84,288,657.62,273.08,653.65,259.38Z" transform="translate(0)"/><circle class="q" cx="657.81" cy="259.38" r="0.62"/><circle class="q" cx="664.94" cy="264.5" r="1"/><path class="q" d="M660.44,275.07a.82.82,0,0,1-1.63,0,.82.82,0,1,1,1.63,0Z" transform="translate(0)"/><circle class="q" cx="666.56" cy="275.38" r="0.75"/><path class="q" d="M664.81,286.94a.69.69,0,1,1-.68-.69A.69.69,0,0,1,664.81,286.94Z" transform="translate(0)"/><path class="x" d="M653.64,272.13c-.37.54-1.26,1-1.45,1.58-.06.19.14.31.14.5a23.94,23.94,0,0,0,.15,3.06c-1.67,1.65-3.5,1.68-5.29,2.4l-.21-1.92a4.1,4.1,0,0,0-.56-1.33,7.19,7.19,0,0,0-.91-.92,4.45,4.45,0,0,1-1.1-2.61,25.33,25.33,0,0,1,0-2.89c0-2.81-.62-5.59-.88-8.39a1.94,1.94,0,0,1,.12-1.07c.31-.05.78.41.86.71a36.15,36.15,0,0,1,1.25,5.46c.39-.52.17-1.11.14-1.77a15.8,15.8,0,0,0-.3-2.16,14.28,14.28,0,0,1-.48-3.1,1.34,1.34,0,0,1,.51-.93c.34-.12.48.15.56.5-.11-.48,0-.46,0-.76s.28-.6.57-.54a12.23,12.23,0,0,1,2.33,4.33,10.88,10.88,0,0,1,.22,3.66,7.17,7.17,0,0,0-.27-4.2,16.49,16.49,0,0,1-.72-1.85,2.28,2.28,0,0,1,.23-1.91c1.56,2.31,3.19,4.81,3.12,7.6a11.35,11.35,0,0,0,0,3.44,5,5,0,0,0,1.44-1.25c.3-.45.43-1,.69-1.47a1.59,1.59,0,0,1,1.22-1,.48.48,0,0,1,.38.14.56.56,0,0,1,0,.46c-.27,1.38-1.06,2.62-1.27,4A5.12,5.12,0,0,1,653.64,272.13Z" transform="translate(0)"/><path class="u" d="M645,274.84a3.09,3.09,0,0,0,.48.66,7.19,7.19,0,0,1,.91.92,4.1,4.1,0,0,1,.56,1.33l.21,1.92c1.79-.72,3.62-.75,5.29-2.4a23.94,23.94,0,0,1-.15-3.06c0-.19-.19-.3-.14-.48A14.22,14.22,0,0,1,645,274.84Z" transform="translate(0)"/><path class="t" d="M653.64,272.13a5.12,5.12,0,0,0,.48-2.18c.21-1.39,1-2.63,1.27-4a.56.56,0,0,0,0-.46.48.48,0,0,0-.38-.14,1.59,1.59,0,0,0-1.22,1c-.26.48-.39,1-.69,1.47a5,5,0,0,1-1.44,1.25,11.35,11.35,0,0,1,0-3.44c.07-2.79-1.56-5.29-3.12-7.6a2.28,2.28,0,0,0-.23,1.91,16.49,16.49,0,0,0,.72,1.85,7.17,7.17,0,0,1,.27,4.2,10.88,10.88,0,0,0-.22-3.66,12.23,12.23,0,0,0-2.33-4.33c-.29-.06-.57.25-.57.54s-.11.28,0,.76c-.08-.35-.22-.62-.56-.5a1.34,1.34,0,0,0-.51.93,14.28,14.28,0,0,0,.48,3.1,15.8,15.8,0,0,1,.3,2.16c0,.66.25,1.25-.14,1.77a36.15,36.15,0,0,0-1.25-5.46c-.08-.3-.55-.76-.86-.71a1.94,1.94,0,0,0-.12,1.07c.26,2.8.89,5.58.88,8.39a25.33,25.33,0,0,0,0,2.89,4.91,4.91,0,0,0,.62,1.95,14.22,14.22,0,0,0,7.16-1.11v0C652.38,273.09,653.27,272.67,653.64,272.13Z" transform="translate(0)"/><path class="s" d="M648.06,266.47h-.5a14.41,14.41,0,0,0-1.92-7.39l.44-.25A15,15,0,0,1,648.06,266.47Z" transform="translate(0)"/><path class="y" d="M661.28,305.6a6.77,6.77,0,0,1-6.34-2.22,22.24,22.24,0,0,1-3.34-6.63c-1.89-6.58-3.68-13.42-5.58-20,2.46-.11,5.84-1.46,7.09-3.58a88.41,88.41,0,0,0,7.95,15.56c1.87,2.81,4.05,5.59,4.65,8.91S664.61,305,661.28,305.6Z" transform="translate(0)"/><path class="s" d="M663,296.14c0-4.4-2.12-8.54-4.18-12-.6-1-1.21-1.95-1.8-2.85a29.63,29.63,0,0,1-4-7.77l.47-.15a29.29,29.29,0,0,0,3.92,7.64c.59.91,1.2,1.85,1.81,2.87,2.09,3.53,4.24,7.74,4.25,12.27Z" transform="translate(0)"/><circle class="q" cx="657.06" cy="297.75" r="0.75"/><circle class="q" cx="658.56" cy="289.25" r="0.62"/><path class="q" d="M652.31,285.69a.56.56,0,1,1-.56-.56A.56.56,0,0,1,652.31,285.69Z" transform="translate(0)"/><path class="q" d="M653.56,279.82a.56.56,0,1,1-1.12,0,.56.56,0,1,1,1.12,0Z" transform="translate(0)"/><path class="s" d="M597.71,371.92a3.52,3.52,0,0,1-3.48-3.05l-3.6-27.06c-.49-3.6-1.1-8.09.64-11.26,1.21-2.19,2.56-4.46,4.68-5.92,3.87-2.69,8.49-4.49,12.95-6.24,5.55-2.17,10.79-4.21,14.46-7.77l.35.36c-3.74,3.62-9,5.69-14.63,7.88-4.43,1.73-9,3.52-12.85,6.18a15.94,15.94,0,0,0-4.52,5.75c-1.66,3-1.06,7.42-.58,11l.1.74,3.49,26.32a3,3,0,0,0,3,2.61Z" transform="translate(0)"/><path class="x" d="M356.34,195.78a9.61,9.61,0,0,1-1.84,7.33A12.85,12.85,0,0,1,345,213a12.29,12.29,0,0,1-7-11.69,12.11,12.11,0,0,1,8.25-10.79c2.5-.75,5.48-.44,7.29,1.52Z" transform="translate(0)"/><path class="u" d="M349.12,190.15a8.59,8.59,0,0,0-2.9.36A12.11,12.11,0,0,0,338,201.3,12.29,12.29,0,0,0,345,213a10.85,10.85,0,0,0,1.3-.38C344.73,204.86,344.58,196.41,349.12,190.15Z" transform="translate(0)"/><path class="x" d="M328,216.18c-.49-.55,0-1.4.41-2a35.34,35.34,0,0,0,7-15.9,45.74,45.74,0,0,0,11.09,2.76,129.22,129.22,0,0,0-3.39,19.62l-14.32-4.1A1.6,1.6,0,0,1,328,216.18Z" transform="translate(0)"/><path class="r" d="M359.45,195.24a6.25,6.25,0,0,0,4.2-4.8,6.67,6.67,0,0,1-4.7.63,1.56,1.56,0,0,0,1.21-.52,9.83,9.83,0,0,1-5.09-2.2c-1.5-1.12-2.86-2.43-4.45-3.43a7.78,7.78,0,0,0-5.31-1.4,4,4,0,0,0-.66.17,8.67,8.67,0,0,0-3.21.18c-3.58.93-6.12,4.34-6.92,7.95s-1.21,7.84-.24,11.41c3.64,1.72,9,1.59,12.84.45a14.18,14.18,0,0,0,1.58-.58,13.27,13.27,0,0,0,.44-2.19,4.39,4.39,0,0,1,1-2.38,1.7,1.7,0,0,1,3.08,1.07,3.29,3.29,0,0,1-.05.77,16.9,16.9,0,0,0,2.1-2.13A7.45,7.45,0,0,0,362,195,7,7,0,0,1,359.45,195.24Z" transform="translate(0)"/><path class="u" d="M351.56,201a2.74,2.74,0,0,1,.51-.45,1.23,1.23,0,0,0,.37-1.34,1,1,0,0,0-1.21-.57,1.26,1.26,0,0,0-.69,1.17,4.27,4.27,0,0,0,.31,1.49.57.57,0,0,0-.88.67,2.18,2.18,0,0,0,.32.43.53.53,0,0,1,.13.49c0,.1-.13.17-.18.27s0,.25.07.28.13,0,.18-.07a2.16,2.16,0,0,0,.86-1.44A2.05,2.05,0,0,1,351.56,201Z" transform="translate(0)"/><path class="n" d="M349.78,188.68c.43.26.38.93.7,1.31s1.08.33,1.66.34a4.29,4.29,0,0,1,2.85,1.3,12.35,12.35,0,0,1,1.91,2.57l1.13-1.78-11.48-6.68.57,2.83a1.13,1.13,0,0,0,.19.48c.3.34.85.16,1.23-.08S349.39,188.46,349.78,188.68Z" transform="translate(0)"/><path class="s" d="M306.28,393.44a9.22,9.22,0,0,0-3.34-.78,6.64,6.64,0,0,1-2.76-.92,2.48,2.48,0,0,1-1.33-2.53,16.41,16.41,0,0,1-6.91-2.33c0,1.9-1.23,3.61-1.75,5.44a4.27,4.27,0,0,0-.09,1.49,7.27,7.27,0,0,0,.24,3.73,11.68,11.68,0,0,0,7.23,1.43,6.18,6.18,0,0,1,.29-1.2,8.25,8.25,0,0,1,3.52-.3,9.61,9.61,0,0,0,2.62.38,5.7,5.7,0,0,0,1.78-.72,3.18,3.18,0,0,0,1.66-1.78C307.68,394.36,307.17,394,306.28,393.44Z" transform="translate(0)"/><path class="q" d="M298.37,390.9a28.93,28.93,0,0,0-6-2.29,5,5,0,0,0-.66,1.3,1.69,1.69,0,0,0,.18,1.41,2.07,2.07,0,0,0,1.21.7A6.07,6.07,0,0,0,298.37,390.9Z" transform="translate(0)"/><path class="n" d="M295,367.47c-.95,2.45-2.26,11.21-3.54,14.35-1,2.44-2,3.73-.49,5.9s6.12,4.55,8.51,3.46c6.67-17.24,14.57-34,20.79-51.4s10.76-35.68,10.38-54.17l-30-9.51c-9.38,22.41-3.19,29.08-2.3,45.49S301,352.17,295,367.47Z" transform="translate(0)"/><path class="z" d="M330.68,285.61l-22-7c-10,22.34-.82,47.28-2.74,70.37a156.18,156.18,0,0,1-10,42.06,5.17,5.17,0,0,0,3.58.12c6.67-17.24,14.57-34,20.79-51.4S331.06,304.1,330.68,285.61Z" transform="translate(0)"/><path class="s" d="M308,278.4l22.73,7.21c.38,18.49-4.16,36.76-10.38,54.17-4.06,11.36-8.83,22.44-13.51,33.57.77-4.11,1.16-8.27,1.81-12.17C314.62,332.61,293.35,305.47,308,278.4Z" transform="translate(0)"/><path class="s" d="M337.14,403.8a3.64,3.64,0,0,0-2.89-1.92,23,23,0,0,0-3.62,0c-4.76,0-9.41-2.41-14.11-1.67a51.44,51.44,0,0,0-.09,6.08,8.8,8.8,0,0,0,.2,1.1,23,23,0,0,0,.39,3.08,3.52,3.52,0,0,0,.51,1.52,3.07,3.07,0,0,0,1.76,1,9.4,9.4,0,0,0,7.61-1.29,1.87,1.87,0,0,0,.67-.67,1.59,1.59,0,0,0,.15-.65,20.82,20.82,0,0,1,2.17-.79,16.77,16.77,0,0,0,4-1.5C335.48,407.29,337.85,405.44,337.14,403.8Z" transform="translate(0)"/><path class="q" d="M328,403a.76.76,0,0,1,.92.58,1.2,1.2,0,0,1-.41,1.1,3,3,0,0,1-1.09.55,17.33,17.33,0,0,1-5.33.6,8.71,8.71,0,0,1-3.17-.46,3.43,3.43,0,0,1-2.16-2.23,2.17,2.17,0,0,1,1.33-2.59Z" transform="translate(0)"/><path class="n" d="M302.5,280.22l.6-6.74c9.27,4.24,19.91,8.82,30,10.37,0,22,2.13,40.84,1.47,61.07-.61,18.8-3.89,39.05-6.62,58.81-4.49,1.1-7.64,1.4-11.74-1.56-.22-16.71-1.21-29.69-.22-37.06s-2.53-25.47-4.72-32.64C304.41,310.05,297.85,306.64,302.5,280.22Z" transform="translate(0)"/><path class="z" d="M322.94,342c-1.84-20.2-11.26-42.09-5.81-62.58-4.85-1.81-9.6-3.91-14-5.94l-.6,6.74c-4.65,26.42,1.91,29.83,8.76,52.25,2.19,7.17,5.69,25.3,4.72,32.64s0,20.35.22,37.06a11.27,11.27,0,0,0,5.38,2.26C323.27,383.7,324.55,363,322.94,342Z" transform="translate(0)"/><path class="aa" d="M325.6,403.17c7.47-37.23,4.89-76.1,1.42-112.58l.76-.11c2.81,37.09,5.69,75.35-1.63,112.5C325.88,403,325.88,403.11,325.6,403.17Z" transform="translate(0)"/><path class="s" d="M321.27,214.24c-3.42-.61-6.79,2-8.09,5.24s-.95,6.87-.3,10.29a70.39,70.39,0,0,0,11.41,26.38,40.85,40.85,0,0,0,7.53,8.58c7.45,6.1,17.5,7.72,27,9.13.94-2.06,1.87-4.11,2.81-6.16a59.38,59.38,0,0,1-25.06-25.95c-3.76-7.63-5.82-16-7.86-24.24Z" transform="translate(0)"/><polygon class="s" points="373.45 283.83 354.29 283.83 362.13 251.87 381.29 251.87 373.45 283.83"/><polygon class="p" points="372.56 278.83 356.4 278.83 363.02 251.87 379.18 251.87 372.56 278.83"/><path class="k" d="M363,251.86l-6.11,24.88c5.19-6.07,11.13-10.63,18.81-10.78l3.46-14.1Z" transform="translate(0)"/><path class="i" d="M322.66,213.82a12.73,12.73,0,0,0,4.94-5.68,23.2,23.2,0,0,1,18.8,12.08l-9.61-3.63c-4-1.53-8.19-3.08-12.5-3Z" transform="translate(0)"/><path class="i" d="M336.7,297.8c.28-3.17-1-10.11-.48-20.76.25-8.59.65-5.37.84-8,.48-6.48,2.57-8.63,5.78-14.28,2.44-4.3,6.18-11.57,8.73-15.81s3.87-9.82,1.32-14.06c-1.57-2.62-4.33-4.26-7.05-5.65A87.64,87.64,0,0,0,333.39,214c-4.79-1.59-10.43-2.66-14.57.22a31.31,31.31,0,0,0-7.79,8.47c-9.48,15.82-8.21,21.57-13.11,48.91-.4,2.24-7.73,17.77-8.84,22.71a65,65,0,0,0,7.28,2.35,83.84,83.84,0,0,1,5.37-18.72c0,7.39-2.1,12.53-1.67,19.56C311.8,299.83,324.28,299.31,336.7,297.8Z" transform="translate(0)"/><path class="v" d="M324.93,214.33a62.54,62.54,0,0,1,15.78,3.23,28.85,28.85,0,0,0-15.18-4.84,2.15,2.15,0,0,0-1.2.21.78.78,0,0,0-.32,1A1.18,1.18,0,0,0,324.93,214.33Z" transform="translate(0)"/><path class="z" d="M322.15,213.37a13.81,13.81,0,0,0-7.75,6.27Z" transform="translate(0)"/><path class="z" d="M347.88,223.42l-4.29,5.89A9.17,9.17,0,0,1,347.88,223.42Z" transform="translate(0)"/><path class="v" d="M330.29,298.48q3.21-.28,6.41-.68c.28-3.17-1-10.11-.48-20.76.25-8.59.65-5.37.84-8,.48-6.48,2.57-8.63,5.78-14.28,2.44-4.3,6.18-11.57,8.73-15.81,2.36-3.94,3.66-9,1.8-13.13C327.31,239.66,327.61,270.3,330.29,298.48Z" transform="translate(0)"/><path class="x" d="M364.84,227a20.4,20.4,0,0,1,4.76-1.9,10.84,10.84,0,0,1-1.08-5.37c.06-1,.22-2.27-.52-3a3.18,3.18,0,0,0-1.6-.73l-4-1c-1.32-.32-1.71.09-2.42-1.07-.28-.45-1.48-1.82-1.82-2.24s-1.24-2.2-2.12-1.38c-.4.37.52,2.14.73,2.64.55,1.29,1.11,2.57,1.66,3.85.44,1,.72,1.73-.11,2.48-.29.26-1,.28-1.31.5s-.22,1.38-.09,1.76a1.19,1.19,0,0,0,.5.52Z" transform="translate(0)"/><path class="y" d="M371,225.31l-1.56-2.9a8.86,8.86,0,0,0-6.18,2.29,1,1,0,0,0-.33,1.44l2,3.91a11.34,11.34,0,0,1,6.46-3.65Z" transform="translate(0)"/><path class="i" d="M379.29,264.29a6.39,6.39,0,0,0,3.55-4.11c1.14-3.33.66-7-.45-10.37s-2.8-6.45-4.17-9.7c-1.86-4.41-3.11-9.09-5.27-13.37a4.62,4.62,0,0,0-1.92-2.36c-1.19-.52-2.65.1-4.12.29-1,.13-1.93,1.18-2.94,1.63a1.51,1.51,0,0,0-.83,1.76,148.43,148.43,0,0,1,3.62,18.77c.4,3.42.71,6.9,1.95,10.11s3.58,6.18,6.85,7.26A5.82,5.82,0,0,0,379.29,264.29Z" transform="translate(0)"/><path class="v" d="M364,226.3a1.51,1.51,0,0,0-.83,1.76,148.43,148.43,0,0,1,3.62,18.77c.4,3.42.71,6.9,1.95,10.11s3.58,6.18,6.85,7.26l.18,0c-.84-13.51-4.58-26.86-9.89-39.15A18.14,18.14,0,0,1,364,226.3Z" transform="translate(0)"/><path class="i" d="M342.39,235.55a17.54,17.54,0,0,1,7.12-11.5,3.78,3.78,0,0,1,2.68-.91,4,4,0,0,1,2,1.24c7.18,6.89,12.57,15.46,19.78,22.32a51.52,51.52,0,0,1,5.73,5.81,10.89,10.89,0,0,1,2.53,7.56c-.28,2.71-2.32,5.33-5,5.65-2.08.25-4.08-.82-5.8-2a106.06,106.06,0,0,1-8.57-7.15A100.06,100.06,0,0,0,348.08,246a13.77,13.77,0,0,1-4.45-3.46A9.47,9.47,0,0,1,342.39,235.55Z" transform="translate(0)"/><path class="z" d="M375.74,248.21a13.12,13.12,0,0,1,4.47,10.11,8.28,8.28,0,0,0-4.47-10.11Z" transform="translate(0)"/><path class="v" d="M374.94,263c-8.4-12.6-23.15-17.44-32.4-28.15-.05.23-.11.46-.15.7a9.47,9.47,0,0,0,1.24,7,13.77,13.77,0,0,0,4.45,3.46,100.06,100.06,0,0,1,14.72,10.57,106.06,106.06,0,0,0,8.57,7.15,9.52,9.52,0,0,0,5.23,2C376,264.86,375.48,264,374.94,263Z" transform="translate(0)"/><path class="ab" d="M302.27,274a116,116,0,0,1,14.82-51.89A103.78,103.78,0,0,0,302.27,274Z" transform="translate(0)"/><path class="s" d="M496.37,390.55c-1.37,3,.7,5.6.71,8.28,2.93.16,5.17.07,8.1.23v-1.91a26.91,26.91,0,0,0,17.56,1.34,3.44,3.44,0,0,0-2.19-3.31,13.58,13.58,0,0,0-4.11-.81,14,14,0,0,1-6-2,8.47,8.47,0,0,1-3.69-5.13l-8,.77a2.71,2.71,0,0,0-1.92.72C496.38,389.19,496.64,390,496.37,390.55Z" transform="translate(0)"/><path class="p" d="M499.34,391.88a16.36,16.36,0,0,0,6.53.49,1.08,1.08,0,0,0,.89-.44,1.19,1.19,0,0,0,0-.77l-.52-2.7a64.05,64.05,0,0,0-9,2A2.94,2.94,0,0,0,499.34,391.88Z" transform="translate(0)"/><path class="i" d="M466,253.84c-.19,9.57,2.29,18.79,4.12,27.51,7.86,37.51,16.29,72.92,25,111,3.18-1.1,9.79-2.26,13-3.36a1165.36,1165.36,0,0,0-15.61-135.1Z" transform="translate(0)"/><path class="v" d="M466,253.84c-.19,9.57,2.29,18.79,4.12,27.51,7.86,37.51,16.29,72.92,25,111,1.69-.58,4.34-1.18,6.93-1.78-7-46.82-20-91.77-35.13-136.68Z" transform="translate(0)"/><path class="m" d="M497.77,391.34c-1.4-6.84-2.71-12.69-4-19.14-6.33-31.26-11.55-58.11-19.48-90.53l.35-.29c7.93,32.43,13.4,59.44,19.73,90.7,1.31,6.45,2.36,12.26,3.75,19.09Z" transform="translate(0)"/><path class="s" d="M455.93,404.61c1-.67,1-2.11,1-3.32-.1-1.69-.19-3.37-.29-5.05a2.49,2.49,0,0,0-.42-1.5,2.35,2.35,0,0,0-1.89-.55l-9.74.07q-2.58,6.51-5.14,13c-.34.86-.65,1.93-.06,2.64a5.36,5.36,0,0,0,2.73,1.16,50.37,50.37,0,0,0,5.63.08c1,0,4.32-1.43,4.84-2.27.76-1.2-.16-2.19.8-3.24C454,405,455.15,405.13,455.93,404.61Z" transform="translate(0)"/><path class="p" d="M446.67,399l2.6.18a11,11,0,0,0,3.67-.15,3.81,3.81,0,0,0,2.71-2.32,20.71,20.71,0,0,0-9-1.13,3.94,3.94,0,0,0-1.69.45,1.44,1.44,0,0,0,.16,2.67A4.67,4.67,0,0,0,446.67,399Z" transform="translate(0)"/><path class="i" d="M449.72,253.84l-.34,3.33c-3,28.28-5.58,46.82-5.75,70.13s.84,46.72-1.74,69.86a55,55,0,0,1,16.14.73c3.73-44,11.66-81.83,18.58-122.42,1-6,.51-13.83-.27-21.63Z" transform="translate(0)"/><path class="v" d="M455.44,291c6.31-17.14,14.5-1.75,19.88-37.16h-25.6l-.34,3.33c-3,28.28-5.58,46.82-5.75,70.13s.84,46.72-1.74,69.86c1.39-.14,2.77-.23,4.17-.27C445.8,366,444.58,320,455.44,291Z" transform="translate(0)"/><path class="m" d="M455.35,396.75l-.4-.19c3.23-40.17,10.13-76,19.49-117.53l.41.22C465.5,320.72,458.59,356.61,455.35,396.75Z" transform="translate(0)"/><path class="p" d="M469.44,262.91c0-.9,0-1.93-.05-2.9q-8.64.35-17.27,1.17l-1.5,4.84a175.73,175.73,0,0,1,18.87-2C469.47,263.64,469.45,263.28,469.44,262.91Z" transform="translate(0)"/><path class="p" d="M470.6,260c.07,1,0,2,0,3,0,.35,0,.7.05,1l1.9-.08c0-1.33,0-2.65,0-4Z" transform="translate(0)"/><path class="p" d="M485.36,263.9c2.45.09,4.9.22,7.34.41-.25-1.45-.5-2.91-.76-4.37-2.21-.08-4.43-.12-6.65-.14C485.32,261.17,485.31,262.53,485.36,263.9Z" transform="translate(0)"/><path class="p" d="M484.15,263.86c0-1.36,0-2.71-.07-4.07l-2.32,0a16.45,16.45,0,0,1,.29,4Z" transform="translate(0)"/><path class="d" d="M480.54,259.77c-2.23,0-4.47,0-6.7.09,0,1.32,0,2.65,0,4,2.37-.07,4.74-.07,7.12,0A13.44,13.44,0,0,0,480.54,259.77Z" transform="translate(0)"/><path class="r" d="M465.92,197.56a1.88,1.88,0,0,1,0,1.1c-.45,2-.89,3.93-1.33,5.9-3.45-2.59-3.57-7.89-6.56-11l6.85,3.13A1.8,1.8,0,0,1,465.92,197.56Z" transform="translate(0)"/><path class="q" d="M483.46,192c-12.14-4.92-23.39-5.38-36.54-4-3.28.34-6.84,1-8.9,3.45-2.39,2.8-1.89,6.82-1.16,10.33,4.13,19.64,12.07,38.91,11.34,58.91a208.35,208.35,0,0,1,45.13-2c-3.56-16.56-4.22-31.58-1.24-48.23.7-3.87.2-9.33-2.35-12.46C488.35,196.39,485.55,192.89,483.46,192Z" transform="translate(0)"/><path class="t" d="M467.75,175.3a46.22,46.22,0,0,1-13.74.33c1.08,5.43,1.69,7.81-.19,13,24.14,6.28,17.47,4.9,17.92,3.37C468.41,187.17,468.39,181.15,467.75,175.3Z" transform="translate(0)"/><path class="u" d="M471.74,192c-3.33-4.85-3.35-10.87-4-16.72a49.74,49.74,0,0,1-12.23.54,111.21,111.21,0,0,0,3.64,14.2C476.89,194.69,471.32,193.43,471.74,192Z" transform="translate(0)"/><path class="u" d="M469.56,187.47c-1.21-3.83-1.36-8.05-1.81-12.17a50.33,50.33,0,0,1-11.95.56C456.41,183.18,462.76,186.9,469.56,187.47Z" transform="translate(0)"/><path class="t" d="M464,159.2a9.69,9.69,0,0,0-6.59-.36c-2.41.68-5.41,1.45-7,3.62s-1.5,5-.66,7.49a17.52,17.52,0,0,0,9.39,10.53,17.85,17.85,0,0,0,11.56,1.13,2.35,2.35,0,0,0,1.91-2.49c-.26-2.88-.39-5.62-1.39-8.22-.33-.88-1.2-1.52-1.46-2.35s.12-1.7-.21-2.6C468.38,162.89,466.9,160.49,464,159.2Z" transform="translate(0)"/><path class="u" d="M461.93,181.48a18.49,18.49,0,0,0,8.74.13,2.35,2.35,0,0,0,1.91-2.5l-.12-1.33A12,12,0,0,1,461.93,181.48Z" transform="translate(0)"/><path class="u" d="M456.94,166a21.52,21.52,0,0,0,7.62-1.25,5.43,5.43,0,0,0,3.59-1.75,9,9,0,0,0-4.17-3.82c-2.64-1.16-5.72-.65-8.48.22a9.76,9.76,0,0,0-5.12,3.06c-1.57,2.09-1.5,5-.66,7.49a17.86,17.86,0,0,0,7.22,9.35C457,174.86,454.44,170.3,456.94,166Z" transform="translate(0)"/><path class="r" d="M470.2,152.82a6.26,6.26,0,0,1-2.94,2.92,3.23,3.23,0,0,0,.82-2,8.19,8.19,0,0,1-5.35,2.91c-2.05.36-4.16.3-6.22.58a9.2,9.2,0,0,0-5.61,2.45c-1.58,1.68-3.86,4-3.11,6.53a5.17,5.17,0,0,0-1,4.1,7.7,7.7,0,0,0,3.44,4.34,22,22,0,0,1,4.48,3.44,14.7,14.7,0,0,0,.6-4.08c.55.42,1.08.9,1.6,1.37a.72.72,0,0,0,.76-.66,6.18,6.18,0,0,0-.58-2c-.51-.87-.92-.66-1.42-1.54a5.63,5.63,0,0,1-.36-.79,17.09,17.09,0,0,1,.56-5.14l.52-.06c2.76-.27,5.6-.31,8.18-1.32s4.91-3.28,5-6c-.44.4-.89.79-1.34,1.18A11.48,11.48,0,0,0,470.2,152.82Z" transform="translate(0)"/><path class="t" d="M457.84,175.12c-.07-.62-3.11-2.44-3.7-2.25a1.67,1.67,0,0,0-1,1.42,3.52,3.52,0,0,0,.37,1.8,8.58,8.58,0,0,0,1.37,2.14,3.27,3.27,0,0,0,1.55,1.08,1.51,1.51,0,0,0,1.68-.59Z" transform="translate(0)"/><path class="r" d="M492.09,210.54c.7-3.88.2-9.33-2.35-12.46-1.39-1.69-4.19-5.19-6.28-6a61.94,61.94,0,0,0-6.59-2.26c8.12,21.94,6.25,45.47,7.13,68.6q4.67.09,9.33.39C489.77,242.21,489.11,227.19,492.09,210.54Z" transform="translate(0)"/><path class="r" d="M478.34,258.65a.24.24,0,0,1-.2-.12.24.24,0,0,1,.09-.32l3.59-2a1.36,1.36,0,0,0-1.14-.49.23.23,0,0,1-.05-.46,2.35,2.35,0,0,0,1.69-2.17,7.64,7.64,0,0,0-.49-2.81l-.09-.3c-1.71-5.75-1.86-11.81-2-17.67-.11-4.2-.62-9-1.11-13.69s-1-9.51-1.11-13.73a.23.23,0,0,1,.22-.24h0a.24.24,0,0,1,.23.23c.1,4.2.61,9,1.11,13.69s1,9.51,1.11,13.73c.15,5.83.3,11.86,2,17.55l.09.29a7.85,7.85,0,0,1,.51,3,3.1,3.1,0,0,1-1.28,2.28,1.84,1.84,0,0,1,.86.77.23.23,0,0,1-.09.31l-3.81,2.14Z" transform="translate(0)"/><path class="r" d="M476.55,197.27c-.69,1-.61,3.32-1.73,3.89,2.54,14.67,2.81,27,.26,41.71,2.88,2.27,5.12,3.32,7.05,4.7.23-3.87,1.62-4.17,1.6-6.07,0-1.74-.52-4.13-1-8C481.3,221.62,480.08,208.74,476.55,197.27Z" transform="translate(0)"/><path class="m" d="M450.79,185.92c-.55,0-1.21,1.77-1.77,1.82-1.09.09-1,.23-2.1.36-3.28.37-6.84,1.12-8.9,3.7-2.39,3-1.57,7.25-1.16,11.07,2.89,26.54,15.21,36.91,8.9,77.49,5-.82,11.53-2.27,17.43-3.17a7.26,7.26,0,0,0,6.18-7.6c-1.09-19.41-1.78-46.74-4.17-64.26C464.13,197.28,457.55,190,450.79,185.92Z" transform="translate(0)"/><path class="k" d="M449.5,262.06a17.94,17.94,0,0,0,12.94-8.93A128.1,128.1,0,0,1,449.5,262.06Z" transform="translate(0)"/><path class="r" d="M436.51,199.69c.1,1.07.24,2.14.35,3.18A104.63,104.63,0,0,0,439.71,218c5.33,12.34,16,21.62,28.48,27.06-.37-7.8-.79-15.74-1.34-23.12C453.82,217.76,441.93,211.54,436.51,199.69Z" transform="translate(0)"/><path class="r" d="M467.63,274.84a.23.23,0,0,1-.23-.23A251.19,251.19,0,0,0,458,216.35a.28.28,0,0,1,0-.18.21.21,0,0,1,.15-.11,12.83,12.83,0,0,0,4.53-1.77l-4.3-.55a.23.23,0,0,1-.16-.1.27.27,0,0,1,0-.18A25.52,25.52,0,0,0,448.59,188a.23.23,0,0,1,0-.32.22.22,0,0,1,.32-.05,26,26,0,0,1,9.84,25.71l4.66.61a.22.22,0,0,1,.19.17.21.21,0,0,1-.09.24,13.46,13.46,0,0,1-5,2.14,252.07,252.07,0,0,1,9.35,58.12.24.24,0,0,1-.22.25Z" transform="translate(0)"/><path class="r" d="M446,280a.22.22,0,0,1-.2-.12.23.23,0,0,1,.09-.31c2.95-1.57,6.36-1.89,9.65-2.19l1.49-.14c3.59-.37,7.62-1.1,10.31-3.79a.24.24,0,0,1,.33,0,.22.22,0,0,1,0,.32c-2.79,2.79-6.92,3.54-10.6,3.92l-1.49.14c-3.25.3-6.61.61-9.47,2.13A.2.2,0,0,1,446,280Z" transform="translate(0)"/><path class="r" d="M449.63,261.3a.24.24,0,0,1-.2-.11.23.23,0,0,1,.08-.32c4.33-2.67,8.62-5.53,12.75-8.5a.23.23,0,0,1,.27.38c-4.14,3-8.44,5.84-12.78,8.51A.19.19,0,0,1,449.63,261.3Z" transform="translate(0)"/><path class="y" d="M485.14,193c6.5,5.53,6.15,9.94,9.5,17.79,2.19,5.13,4.59,12.47,5.26,18,.57,4.68-.57,10.53-1.42,15.17-1.84,10.06-1.82,18.88-4.65,28.71-2.77-3.33-5.71-5.57-6.09-9.89a20.36,20.36,0,0,1,.43-5.22c1.06-6,2.47-12,2-18.09s-2.61-11.72-4.06-17.56c-2.1-8.47-2.62-17.24-3.13-25.95Z" transform="translate(0)"/><path class="r" d="M483.68,205.73A103.15,103.15,0,0,0,486.15,222c1.45,5.84,3.64,11.56,4.06,17.56s-1,12.1-2,18.09a20.36,20.36,0,0,0-.43,5.22c.38,4.32,3.32,6.56,6.09,9.89.2-.69.38-1.38.56-2.07C494.85,248,495.72,225.35,483.68,205.73Z" transform="translate(0)"/><path class="y" d="M474.8,226.22c.82-4.95-.83-6.3-3.89-10.27s-5.91-3.72-9.93-6.72c-5.1-3.8-10.22-13.06-15.32-16.87a10.85,10.85,0,0,0-4-2.17c-2.92-.64-5.95,1.35-7.27,4s-1.22,5.85-.62,8.78c1.38,6.73,5.25,12.77,10.12,17.62s10.72,8.6,16.71,12c3.35,1.89,7.35,3.7,10.88,2.19C474.22,233.62,474.32,229.13,474.8,226.22Z" transform="translate(0)"/><path class="k" d="M436,205.17a14.4,14.4,0,0,1,4.21-13c-1.07-.58-2.37.18-3.19,1.07a9.73,9.73,0,0,0-1,11.9Z" transform="translate(0)"/><path class="k" d="M443.27,194.75a1,1,0,0,0-.67-1.38.94.94,0,1,0-.18,1.87A1,1,0,0,0,443.27,194.75Z" transform="translate(0)"/><path class="r" d="M460.09,209.55a16.36,16.36,0,0,0,4.55,21.15,26.45,26.45,0,0,1-.28-18.75Z" transform="translate(0)"/><path class="t" d="M470.07,179.79a8.93,8.93,0,0,1,2.86-.68,11.22,11.22,0,0,1,4,0c1.4.33,2.34,1.22,3.58,1.66a1,1,0,0,1,.64,1.24c-.19.58-.37,1.12-.6,1.79-.13.39,0,1.09-.35,1.2a.88.88,0,0,1-1-.61,2.6,2.6,0,0,1,0-1.27,10.75,10.75,0,0,1-3.24,2.22,11.53,11.53,0,0,0-.06,4.06c-2.14-.21-4.26-.51-6.37-.92a1.76,1.76,0,0,1-1.35-.71,1.71,1.71,0,0,1-.16-.87c0-1.62.43-2.94.41-4.56C468.81,181.34,469.11,180.25,470.07,179.79Z" transform="translate(0)"/><path class="u" d="M468.18,184.46a15.42,15.42,0,0,0-.22,2.41,1.71,1.71,0,0,0,.16.87,1.76,1.76,0,0,0,1.35.71c2.11.41,4.23.71,6.37.92a11.35,11.35,0,0,1-.11-2.79A36.19,36.19,0,0,1,468.18,184.46Z" transform="translate(0)"/><path class="y" d="M470.43,235.82a6.61,6.61,0,0,0,4.31-4.27,19.71,19.71,0,0,0,.88-6.22c.39-11.8,1.33-25.31,1.72-37.11-2.58-.8-8.65-1.13-11.24-1.94-1.36,13.19-6.18,26.89-4.36,40.07a14.38,14.38,0,0,0,2.37,6.79A6.4,6.4,0,0,0,470.43,235.82Z" transform="translate(0)"/><path class="k" d="M466,194.15a143.63,143.63,0,0,0-4,18.17,48,48,0,0,0,.8,18.47A134.72,134.72,0,0,1,466,194.15Z" transform="translate(0)"/><path class="r" d="M477.08,192.1a33.07,33.07,0,0,1-11.36-2,.23.23,0,0,1-.14-.3.23.23,0,0,1,.29-.14,32.77,32.77,0,0,0,11.21,2h.17a.23.23,0,0,1,.23.23.23.23,0,0,1-.23.23Z" transform="translate(0)"/><path class="m" d="M493.06,275.62c1,.17,2.07.32,3.05.38-3.55-17.74-7-45.95-4-63.8.7-4.15.84-10.2-1.7-13.55-1.39-1.82-4.43-5.78-6.53-6.69s-5.08-1.78-7.15-2.42c1.79,2.78,4,6.3,4.39,9.31,3.49,19.21,3.47,49.42,5.84,70.37A7.3,7.3,0,0,0,493.06,275.62Z" transform="translate(0)"/><path class="r" d="M489.62,273.41a.23.23,0,0,1-.23-.21c-1.46-14.79-2.17-40-.91-54.22l-3.18.52a.22.22,0,0,1-.25-.14.24.24,0,0,1,.09-.28l3.9-2.72a86,86,0,0,0-9.66-25.31.23.23,0,0,1,.08-.32.23.23,0,0,1,.32.09,86.64,86.64,0,0,1,9.74,25.59.25.25,0,0,1-.09.24l-3.2,2.23,2.47-.4a.22.22,0,0,1,.19.06.24.24,0,0,1,.08.19c-1.3,14.13-.59,39.55.88,54.43a.23.23,0,0,1-.21.25Z" transform="translate(0)"/><path class="r" d="M495.25,275.19a10.54,10.54,0,0,1-6.19-2,.23.23,0,0,1,.27-.37,10.07,10.07,0,0,0,6.34,1.91.23.23,0,0,1,.24.22.22.22,0,0,1-.22.24Z" transform="translate(0)"/><path class="r" d="M492.46,257.42a.3.3,0,0,1-.15-.05l-2.09-1.71a.24.24,0,0,1,0-.33.25.25,0,0,1,.33,0l2.09,1.71a.23.23,0,0,1,0,.32A.23.23,0,0,1,492.46,257.42Z" transform="translate(0)"/><path class="u" d="M454,174.07a4.42,4.42,0,0,1,2,1.18.59.59,0,0,1,.17.27c0,.2-.15.37-.25.55a.71.71,0,0,0,.38,1c.19.07.47.12.46.32s-.11.2-.19.28a.9.9,0,0,0-.23,1,3.75,3.75,0,0,1-1.13-1,1.26,1.26,0,0,1-.08-1.4c0-.06.09-.13.05-.19s-.08,0-.13-.05a1.3,1.3,0,0,1-1-1.94Z" transform="translate(0)"/></svg>