<svg xmlns="http://www.w3.org/2000/svg" viewBox="0 0 80 80"><defs><style>.a{fill:#c0d7ff;}.b{fill:#fff;}.b,.c,.d,.e,.f,.g,.h,.i,.j{fill-rule:evenodd;}.c{fill:#101f47;}.d{fill:#1f3c88;}.e{fill:#bad2ff;}.f{fill:#f8b384;}.g{fill:#f76262;}.h{fill:#e18a6c;}.i{fill:#102048;}.j{fill:#fac343;}</style></defs><circle class="a" cx="40" cy="40" r="40"/><path class="b" d="M40,80A40,40,0,1,1,80,40,40,40,0,0,1,40,80ZM63.34,16.66A33,33,0,1,0,73,40,32.93,32.93,0,0,0,63.34,16.66Z" transform="translate(0 0)"/><path class="c" d="M68.39,69.46,39.5,68.16c-1.15.35-3.83,7.79-.8,8L68,80c2.57.33,5.16-3.2,5.16-5.8h0A4.81,4.81,0,0,0,68.39,69.46Z" transform="translate(0 0)"/><path class="c" d="M34.78,56.37l-2.92,1.94s-2-.72-6.37,2.45S10.57,70.2,10.57,70.2L30,78s5.73-.39,10.42-.63c4.69.24,10.41.63,10.41.63L70.18,70.2s-10.57-6.27-14.91-9.44-6.37-2.45-6.37-2.45L46,56.37l-5.6.53Z" transform="translate(0 0)"/><path class="d" d="M11.61,69.46l28.89-1.3c1.15.35,3.83,7.79.8,8L12.05,80c-2.57.33-5.16-3.2-5.16-5.8h0A4.81,4.81,0,0,1,11.61,69.46Z" transform="translate(0 0)"/><path class="e" d="M31.46,36.91H49.3v21.4a25.87,25.87,0,0,1-17.84,0Z" transform="translate(0 0)"/><path class="f" d="M34.23,31.52l2.31-1.95c1.68-1.36,1.37-5.3,1.28-7.25l2.57.29L43,22.32c-.1,1.95-.4,5.89,1.28,7.25l2.3,1.95-1.27,3.4H35.5Z" transform="translate(0 0)"/><polygon class="g" points="0 55.68 20.38 33.57 41.72 34.1 77.29 12 80 16.82 43.13 39.72 22.59 39.2 3.83 59.55 0 55.68"/><path class="e" d="M39.92,70.16c1.22-.12,4.47-.06,5.49-.7s1.46-2.12,3.89-.41,9.67,3.77,9.78,5.69-5.69,1.81-7.24,1.47-2.21-1-5.83-1.55-6.34.74-6.83.08S39.92,70.16,39.92,70.16Z" transform="translate(0 0)"/><path class="b" d="M36.54,29.57a48,48,0,0,0-5.65,2.3C28.74,33,27.5,33.35,27,37.2s-1,14.26-1.92,16.19-13,13.36-13,13.36,2.6-.12,3.39.85a4,4,0,0,1,.91,1.86s14.15-10.75,14.72-13,.9-16.19.9-16.19,2,3.32,5.1,3.8a17.1,17.1,0,0,0,6.61,0c3.06-.48,5.1-3.8,5.1-3.8s.34,13.93.9,16.19,14.72,13,14.72,13a4.09,4.09,0,0,1,.91-1.86c.79-1,3.39-.85,3.39-.85s-12.11-11.44-13-13.36S54.26,41.05,53.81,37.2,52.11,33,50,31.87a48,48,0,0,0-5.65-2.3s-.46,2.5-1.77,3.52a3.33,3.33,0,0,1-4.23,0C37,32.07,36.54,29.57,36.54,29.57Z" transform="translate(0 0)"/><path class="f" d="M13.43,66a4.68,4.68,0,0,0-2,1.61A8.51,8.51,0,0,0,9.66,71.9c-.08,1.53.33,2.69,1.11,3.08s1.58.88,2.12,0c.36-.59.19-2,.23-2.94.06-1.2,1.35-1.86,1.58-.76.2.93-.37,2.46.4,2.4s1-1.63,1-2.92.28-1.57.28-1.57l.4-3.15Z" transform="translate(0 0)"/><path class="h" d="M12.14,75.48a.89.89,0,0,0,.75-.5c.36-.59.19-2,.23-2.94.06-1.2,1.35-1.86,1.58-.76.2.93-.37,2.46.4,2.4s1-1.63,1-2.92.28-1.57.28-1.57l.25-1.93c-.22-.47-.44-.88-.62-1.22H14.28a3.89,3.89,0,0,0-1.08,2c-.37,2-.88,1.67-1.1,4.53A15.1,15.1,0,0,0,12.14,75.48Z" transform="translate(0 0)"/><path class="f" d="M67.42,66a4.73,4.73,0,0,1,2,1.61,8.59,8.59,0,0,1,1.78,4.25c.08,1.53-.33,2.69-1.1,3.08s-1.59.88-2.13,0c-.36-.59-.18-2-.23-2.94,0-1.2-1.35-1.86-1.58-.76-.2.93.37,2.46-.4,2.4s-1-1.63-1-2.92-.28-1.57-.28-1.57L64.11,66Z" transform="translate(0 0)"/><path class="f" d="M39.92,70.16c1.22-.12,4.47-.06,5.49-.7h0c.08,0,.56-.29,1.67.21s5.09,2.86,5.6,3.26,2.42,1.43,2.51,2c.12.87-3,1.2-5.06.7a20.49,20.49,0,0,0-4.14-1c-3.63-.58-6.34.74-6.83.08S39.92,70.16,39.92,70.16Z" transform="translate(0 0)"/><path class="h" d="M68.71,75.48A.91.91,0,0,1,68,75c-.36-.59-.18-2-.23-2.94,0-1.2-1.35-1.86-1.58-.76-.2.93.37,2.46-.4,2.4s-1-1.63-1-2.92-.28-1.57-.28-1.57l-.24-1.93c.22-.47.43-.88.62-1.22h1.68a4,4,0,0,1,1.09,2c.36,2,.87,1.67,1.09,4.53A14.33,14.33,0,0,1,68.71,75.48Z" transform="translate(0 0)"/><path class="c" d="M37.83,26.27a27.07,27.07,0,0,0,0-3.95l2.57.29L43,22.32a26.92,26.92,0,0,0,0,3.95,4.12,4.12,0,0,1-2.56.89h0A4.14,4.14,0,0,1,37.83,26.27Z" transform="translate(0 0)"/><path class="i" d="M40.39,24.74A8.77,8.77,0,1,0,31.79,16,8.7,8.7,0,0,0,40.39,24.74Z" transform="translate(0 0)"/><path class="i" d="M40.39,4h0A4.15,4.15,0,0,1,44.53,8.1v.49c0,2.27-1.87,1.05-4.14,1.05h0c-2.27,0-4.13,1.22-4.13-1.05V8.1A4.14,4.14,0,0,1,40.39,4Z" transform="translate(0 0)"/><path class="h" d="M36.21,20.38l-.92-1.2s-.42-1.35-.76-.84A4.64,4.64,0,0,0,34.71,21c.14.21,1.11,1,1.31.68a3.62,3.62,0,0,0,.19-1.25Zm8.36,0,.93-1.2s.41-1.35.76-.84A4.63,4.63,0,0,1,46.07,21c-.14.21-1.1,1-1.3.68A3.46,3.46,0,0,1,44.57,20.38Z" transform="translate(0 0)"/><path class="f" d="M40.39,9.43h0a5.1,5.1,0,0,1,5.13,5.12l-.18,6.12c-.07,2.81-2.13,5.64-5,5.64h0c-2.82,0-4.87-2.82-5-5.64l-.17-6.12A5.08,5.08,0,0,1,40.39,9.43Z" transform="translate(0 0)"/><path class="h" d="M46,11c-.31,3.77-6.67,6.84-9.93,7-1.44.06-2-3.61-1.84-4.66S36,9,38.57,8.75s5.84.56,6.54,1.21A4,4,0,0,1,46,11Z" transform="translate(0 0)"/><path class="i" d="M46.39,11.61a8.33,8.33,0,0,1-2.66,2.47c-1.79,1-6.93,3.31-8.38,3.37s-1.28-3.09-1.12-4.14S36,9,38.57,8.75s5.84.56,6.54,1.21A8.23,8.23,0,0,1,46.39,11.61Z" transform="translate(0 0)"/><path class="j" d="M8.88,13.08A8.88,8.88,0,1,1,0,22,8.88,8.88,0,0,1,8.88,13.08Z" transform="translate(0 0)"/><path class="b" d="M8.31,16.07H9.79v1.44a6.74,6.74,0,0,1,1,.17,5,5,0,0,1,1.43.59l-.64,1.57a5,5,0,0,0-2.48-.7,2.33,2.33,0,0,0-1.29.28.87.87,0,0,0-.41.74.71.71,0,0,0,.48.68,7.59,7.59,0,0,0,1.46.45,15.3,15.3,0,0,1,1.68.48,2.85,2.85,0,0,1,1.12.77A2.06,2.06,0,0,1,12.6,24a2.41,2.41,0,0,1-.43,1.4,2.86,2.86,0,0,1-1.28,1,4.42,4.42,0,0,1-1.1.3v1.19H8.31V26.72a8.08,8.08,0,0,1-1.56-.27,5.12,5.12,0,0,1-1.59-.75l.7-1.56a5.17,5.17,0,0,0,3,.93,2.56,2.56,0,0,0,1.3-.26.8.8,0,0,0,.42-.7.66.66,0,0,0-.25-.53,1.93,1.93,0,0,0-.64-.34C9.39,23.16,9,23.06,8.6,23a13.18,13.18,0,0,1-1.68-.49,2.68,2.68,0,0,1-1.11-.78,2,2,0,0,1-.47-1.43,2.49,2.49,0,0,1,.42-1.41,2.82,2.82,0,0,1,1.27-1,4.07,4.07,0,0,1,1.28-.33Z" transform="translate(0 0)"/><path class="j" d="M68.51,24.35A11.49,11.49,0,1,1,57,35.84,11.49,11.49,0,0,1,68.51,24.35Z" transform="translate(0 0)"/><path class="b" d="M67.77,28.22h1.91v1.86A7.9,7.9,0,0,1,71,30.3a6.26,6.26,0,0,1,1.86.76l-.83,2a6.53,6.53,0,0,0-3.21-.91,3,3,0,0,0-1.66.37,1.1,1.1,0,0,0-.54,1,.92.92,0,0,0,.62.88A8.69,8.69,0,0,0,69.1,35a18.31,18.31,0,0,1,2.17.63,3.54,3.54,0,0,1,1.45,1,2.65,2.65,0,0,1,.6,1.83,3.17,3.17,0,0,1-.55,1.82,3.8,3.8,0,0,1-1.66,1.29,5.55,5.55,0,0,1-1.43.4v1.53H67.77V42a9.19,9.19,0,0,1-2-.35,6.27,6.27,0,0,1-2.06-1l.91-2a6.35,6.35,0,0,0,1.77.87,6.72,6.72,0,0,0,2.06.33,3.2,3.2,0,0,0,1.68-.34,1,1,0,0,0,.55-.9.87.87,0,0,0-.32-.68,2.34,2.34,0,0,0-.83-.44c-.34-.11-.79-.24-1.37-.37A18.65,18.65,0,0,1,66,36.5a3.41,3.41,0,0,1-1.45-1,2.68,2.68,0,0,1-.61-1.85,3.28,3.28,0,0,1,.55-1.83,3.67,3.67,0,0,1,1.65-1.3,5.7,5.7,0,0,1,1.65-.42Z" transform="translate(0 0)"/><path class="j" d="M62.53,0a7.13,7.13,0,1,1-7.12,7.13A7.13,7.13,0,0,1,62.53,0Z" transform="translate(0 0)"/><path class="b" d="M62.07,2.4h1.19V3.55a7,7,0,0,1,.8.14,4,4,0,0,1,1.15.47L64.7,5.43a4,4,0,0,0-2-.57,1.85,1.85,0,0,0-1,.23.7.7,0,0,0-.34.59.58.58,0,0,0,.39.55,6.4,6.4,0,0,0,1.17.36A11.74,11.74,0,0,1,64.25,7a2.22,2.22,0,0,1,.9.61,1.65,1.65,0,0,1,.37,1.14,2,2,0,0,1-.34,1.13,2.42,2.42,0,0,1-1,.8,3.06,3.06,0,0,1-.89.24v.95H62.07V11a5.76,5.76,0,0,1-1.24-.22,4.13,4.13,0,0,1-1.28-.6l.56-1.25a4.18,4.18,0,0,0,1.1.54,4,4,0,0,0,1.27.2,2,2,0,0,0,1.05-.21.62.62,0,0,0,.34-.55.54.54,0,0,0-.2-.43,1.64,1.64,0,0,0-.51-.27c-.21-.07-.5-.15-.85-.23A11.74,11.74,0,0,1,61,7.54a2.14,2.14,0,0,1-.89-.63,1.67,1.67,0,0,1-.38-1.14A2,2,0,0,1,60,4.63a2.25,2.25,0,0,1,1-.8,3.81,3.81,0,0,1,1-.27Z" transform="translate(0 0)"/></svg>