<svg xmlns="http://www.w3.org/2000/svg" viewBox="0 0 80 80"><defs><style>.a{fill:#c0d7ff;}.b{fill:#fff;}.b,.c,.d,.e,.f,.g,.h,.i{fill-rule:evenodd;}.c{fill:#6f8bd4;}.d{fill:#f8b384;}.e{fill:#f76262;}.f{fill:#1f3c88;}.g{fill:#102048;}.h{fill:#e18a6c;}.i{fill:#101f47;}</style></defs><circle class="a" cx="40" cy="40" r="40"/><path class="b" d="M40,80A40,40,0,1,1,80,40,40,40,0,0,1,40,80ZM63.34,16.66A33,33,0,1,0,73,40,32.93,32.93,0,0,0,63.34,16.66Z" transform="translate(0 0)"/><polygon class="c" points="49.1 20.78 44.49 27.23 47.14 27.23 47.14 51.23 51.05 51.23 51.05 27.23 53.7 27.23 49.1 20.78"/><polygon class="c" points="25.55 11.39 21.93 16.47 24.01 16.47 24.01 39.67 27.09 39.67 27.09 16.47 29.18 16.47 25.55 11.39"/><path class="c" d="M14.79,23.44l-7.13,10h4.11V68.33a39,39,0,0,0,6.05,5V33.45h4.11Z" transform="translate(0 0)"/><path class="c" d="M6,38.45,2.33,43.53H4.42V58.29l.37.7.08.16c.13.22.25.44.37.66l.11.18c.12.21.24.42.37.63l.14.24.37.59.15.23.36.55.19.27.35.51.22.3V43.53H9.58Z" transform="translate(0 0)"/><polygon class="d" points="34.22 32.23 34 29.99 34.11 25.72 37.28 25.72 39.05 25.72 42.23 25.72 42.34 29.99 42.11 32.23 38.17 34.49 34.22 32.23"/><polygon class="b" points="34 29.99 37.06 33.48 38.17 37.71 36.88 48.42 31.95 37.16 32.96 32.12 34 29.99"/><polygon class="b" points="42.34 29.99 39.28 33.48 38.17 37.71 39.45 48.42 44.39 37.16 43.37 32.12 42.34 29.99"/><polygon class="e" points="39.28 33.48 40.14 36.03 38.76 37.28 38.17 37.28 37.58 37.28 36.2 36.03 37.06 33.48 38.17 33.63 39.28 33.48"/><polygon class="e" points="38.89 37.16 41.1 49.79 38.17 53.33 35.24 49.79 37.45 37.16 37.58 37.28 38.17 37.28 38.76 37.28 38.89 37.16"/><path class="e" d="M61.08,0l-12,16.82H56V76.67h0l.83-.38h0L57,76.2l.65-.31,0,0,.16-.08.64-.33,0,0,.17-.09h0l.56-.31.35-.19.47-.27.41-.25.35-.21.54-.33.22-.15.63-.41.15-.1.66-.46.11-.08.68-.49L64,72c.24-.18.47-.35.7-.54h0l0,0c.5-.39,1-.79,1.45-1.2V16.82h6.9Z" transform="translate(0 0)"/><path class="f" d="M42.34,30l3.79,4.49L55,36.72s2.25,6.9,2.68,7.84,1.89,8.28.94,13.11-3.53,6.9-3.53,6.9-1.94,1-2.87.63-1.08,2.91-.73,4.72c.26,1.38,1.36,5.79,1.86,7.79l-.2.07-.78.26h0l-.78.25-.2.06h-.06l-.7.2-.32.09-.56.14-.46.12-.46.1-.55.12-.37.08-.67.13-.29.05-.73.12-.23,0-.8.12-.16,0-.88.1H44l-.94.08h-.05l-1,.06H42l-1,0H39l-1,0h0l-1-.07h0l-1-.08h0l-.93-.1-.11,0L34,79.55l-.15,0L33,79.39l-.15,0L32,79.2l-.16,0c-.27-.06-.54-.11-.81-.18l-.18,0-.72-.17-.29-.08-.66-.18-.32-.09-.57-.17-.4-.12L27.38,78,27,77.84l-.55-.2L26,77.49l-.44-.17-.51-.2L24.67,77l-.52-.23-.38-.16-.45-.21h0c.55-2.2,1.31-5.32,1.53-6.44.34-1.81.19-5-.74-4.72s-2.86-.63-2.86-.63-2.59-2.07-3.54-6.9.52-12.16.95-13.11,2.67-7.84,2.67-7.84l8.88-2.24L34,30l-.45,1.47,4.62,19.72,4.62-19.72Z" transform="translate(0 0)"/><path class="g" d="M26.17,45.51a3.08,3.08,0,0,1,0,2.33,24.27,24.27,0,0,1-1.59,2.89l1.82,6.21H34c1.16,0,.6-1.34.6-1.34s-6.2-5.78-6.2-6.38S26.17,45.51,26.17,45.51Z" transform="translate(0 0)"/><path class="g" d="M26,64.14s16.12-.6,17.59-.6A8.87,8.87,0,0,0,46.44,63s2.93,1.17,4.05.59,1.42,1.87,1.42,1.87a32.22,32.22,0,0,1-5.84-.69c-1.66-.54-8.08-.11-9.38-.32S26,64.14,26,64.14Z" transform="translate(0 0)"/><path class="g" d="M43.33,55.71a10.72,10.72,0,0,0,.24,3.86c.52,2.15,1.57,3.4,2.22,3.4s.76-1.16.76-1.16-1.85-4-2.21-4.84A2.64,2.64,0,0,1,44,55.71h-.7Z" transform="translate(0 0)"/><path class="d" d="M43.83,56.94a11,11,0,0,1,2.72-2.67c1.09-.5,4.5,0,4.5,0v4.48a3.07,3.07,0,0,1-1.19,1.9,10.37,10.37,0,0,1-3.92.49C45.88,61,43.83,56.94,43.83,56.94Z" transform="translate(0 0)"/><path class="h" d="M32.94,21.41a10.2,10.2,0,0,0-1.21-1.66c-.24-.11-.55,0-.79,0s-.6.71-.3,1.29,1.52,3.08,1.52,3.08a.6.6,0,0,0,.63.16c.34-.16.59-1,.59-1l-.44-1.86Zm10.46,0a10.7,10.7,0,0,1,1.2-1.66c.24-.11.56,0,.8,0s.59.71.3,1.29-1.52,3.08-1.52,3.08a.61.61,0,0,1-.64.16c-.34-.16-.59-1-.59-1Z" transform="translate(0 0)"/><path class="i" d="M34,29.05l.09-3.33h8.12l.08,3.33a4.33,4.33,0,0,1-4.14,2.23A4.35,4.35,0,0,1,34,29.05Z" transform="translate(0 0)"/><path class="h" d="M51.05,55.27v3.48a3.07,3.07,0,0,1-1.19,1.9,10.37,10.37,0,0,1-3.92.49L44.67,58.6a22.76,22.76,0,0,1,1.57-2A10.45,10.45,0,0,1,50,55.11,2,2,0,0,1,51.05,55.27Z" transform="translate(0 0)"/><path class="d" d="M32.55,21.06s0,.11.05.3c.15,1,.64,4.17.86,5A4.46,4.46,0,0,0,38.17,30a4.46,4.46,0,0,0,4.71-3.67c.21-.79.71-4,.86-5,0-.19,0-.3,0-.3V15.33c0-1.9-.9-1.17-1.68-1.9s-3.93-.6-3.93-.6-3.16-.13-3.94.6-1.68,0-1.68,1.9Z" transform="translate(0 0)"/><path class="h" d="M34.52,14.1s.18,1,2.2,1.78,4.66.61,5.2-1-1-1.6-1-1.6Z" transform="translate(0 0)"/><path class="g" d="M34.2,14.68c-.06.37-.19,1.21-.47,2.33-.39,1.53-1.18,4-1.18,4L32.47,21l-.06.11c-2.19-2.27-1.79-6.32-.57-9-.27-4.25,9.81-2.57,11.94-2.18,1.91.34,1.8,0,1.8,0s.33.51-.28,1.4a1.79,1.79,0,0,1-.94.78c1.21,2.66,1.62,6.71-.58,9L43.73,21l-.09.11s-.78-2.52-1.17-4A22.94,22.94,0,0,1,42,14.68C40.13,16.23,37.15,15.86,34.2,14.68Z" transform="translate(0 0)"/><path class="d" d="M26.89,49.2c-.41.67-1.16,1.2-1.16,1.61a39.23,39.23,0,0,0,1.66,4.6,1.24,1.24,0,0,0,1.25.84l6.09.24a4.33,4.33,0,0,0-.47-3.65c-1.14-2.16-4.36-2.43-5.47-3A4.39,4.39,0,0,0,26.89,49.2Z" transform="translate(0 0)"/><path class="h" d="M26.26,50c-.28.32-.53.6-.53.83a39.23,39.23,0,0,0,1.66,4.6,1.24,1.24,0,0,0,1.25.84l4.56.18L33,56.25c-1.77-1.37-3.32-1.16-4.86-3.41A20.13,20.13,0,0,1,26.26,50Z" transform="translate(0 0)"/><path class="c" d="M73.07,36.69l-4.6,6.45h2.64v22l.07-.08.07-.09c.16-.19.32-.39.47-.6l.07-.08.07-.09.45-.61h0l.07-.09c.15-.21.29-.42.44-.62l.06-.09.07-.09L73,62.6l.35-.53v0l.06-.09.06-.09.36-.55.06-.1L74,61c.11-.19.22-.38.34-.56l0-.1.06-.09,0-.1c.11-.18.22-.37.32-.56h0l.06-.09.1-.2V43.14h2.65Z" transform="translate(0 0)"/><path class="g" d="M37.54,56.43l5.79-.72.7,0v-.41C44,55.27,37.54,56.43,37.54,56.43Z" transform="translate(0 0)"/></svg>