<svg xmlns="http://www.w3.org/2000/svg" xmlns:xlink="http://www.w3.org/1999/xlink" viewBox="0 0 80 80"><defs><style>.a{fill:none;}.b{fill:#f4e7b0;}.c{fill:#fff;}.c,.e,.h,.i,.j,.k,.l,.m{fill-rule:evenodd;}.d,.e{fill:#1d2942;}.f,.k{fill:#1f3c88;}.g{clip-path:url(#a);}.h{fill:#faa701;}.i{fill:#7d95c9;}.j{fill:#101f47;}.l{fill:#e28b6d;}.m{fill:#f9b384;}</style><clipPath id="a" transform="translate(0 0)"><rect class="a" x="7.82" y="16.32" width="64.35" height="42.88"/></clipPath></defs><circle class="b" cx="40" cy="40" r="37.33" transform="translate(-5.14 74.1) rotate(-82.07)"/><path class="c" d="M40,80A40,40,0,1,1,80,40,40,40,0,0,1,40,80ZM63.34,16.66A33,33,0,1,0,73,40,32.93,32.93,0,0,0,63.34,16.66Z" transform="translate(0 0)"/><rect class="d" x="34.07" y="61.49" width="12.43" height="12.81"/><path class="e" d="M33.16,72.5H47.22a4.29,4.29,0,0,1,4.27,4.27v.86H28.89v-.86A4.29,4.29,0,0,1,33.16,72.5Z" transform="translate(0 0)"/><rect class="f" x="3.55" y="12.05" width="72.89" height="51.42" rx="4.27"/><rect class="b" x="7.82" y="16.32" width="64.35" height="42.88"/><g class="g"><polygon class="h" points="5.25 55.95 12.93 49.35 22.44 46.08 36.52 33.3 52.52 31.36 60.04 24.11 73.64 17.14 74.78 19.69 61.63 26.45 53.77 34.02 37.73 35.97 23.66 48.74 14.22 52.01 7.22 57.94 5.25 55.95"/></g><path class="c" d="M40.28,49c-12.37,0-22.4-10.47-22.4-11.3s10-11.3,22.4-11.3,22.4,10.47,22.4,11.3S52.65,49,40.28,49Z" transform="translate(0 0)"/><path class="i" d="M40.28,49A11.3,11.3,0,1,0,29,37.67,11.32,11.32,0,0,0,40.28,49Z" transform="translate(0 0)"/><path class="j" d="M40.28,49.67A27.52,27.52,0,0,1,28,46.52c-6.49-3.28-10.81-8.24-10.81-8.85S21.5,32.1,28,28.82a27.52,27.52,0,0,1,12.29-3.15,27.48,27.48,0,0,1,12.29,3.15c6.5,3.28,10.81,8.24,10.81,8.85s-4.31,5.57-10.81,8.85a27.48,27.48,0,0,1-12.29,3.15Zm-11.66-4.4a26,26,0,0,0,11.66,3,26,26,0,0,0,11.67-3c6-3,10-7.15,10-7.6s-4-4.56-10-7.6a26,26,0,0,0-11.67-3,26,26,0,0,0-11.66,3c-6,3-10,7.14-10,7.6S22.59,42.23,28.62,45.27Z" transform="translate(0 0)"/><path class="j" d="M40.28,44a6.37,6.37,0,1,0-6.37-6.37A6.39,6.39,0,0,0,40.28,44Z" transform="translate(0 0)"/><path class="c" d="M45.09,36a2.48,2.48,0,1,0-2.47-2.47A2.48,2.48,0,0,0,45.09,36Z" transform="translate(0 0)"/><path class="e" d="M50.63,70.3A88.53,88.53,0,0,0,69,70.39l.12,6.68a28.58,28.58,0,0,1-18.45,0Z" transform="translate(0 0)"/><path class="e" d="M49.56,75.4c-2.39.28-4.21,1.52-4.06,2.78s2.2,2,4.59,1.76,4.21-1.52,4.06-2.78S52,75.11,49.56,75.4Z" transform="translate(0 0)"/><path class="e" d="M70.05,70.12l-17.7,4.39c-1.79.45,0,1.15,0,3h0c0,1.85-.2,2.42,1.63,2.11l17.22-2.91C76.68,75.78,74.59,69,70.05,70.12Z" transform="translate(0 0)"/><path class="e" d="M70.42,75.4c2.39.28,4.2,1.52,4.06,2.78s-2.21,2-4.6,1.76-4.2-1.52-4-2.78S68,75.11,70.42,75.4Z" transform="translate(0 0)"/><path class="k" d="M49.93,70.12l17.69,4.39c1.8.45,0,1.15,0,3h0c0,1.85.19,2.42-1.63,2.11L48.75,76.71C43.29,75.78,45.39,69,49.93,70.12Z" transform="translate(0 0)"/><path class="c" d="M59.36,53.89c-3.43,0-6.1.76-7.73,4-1,2.09-5.92,10.76-2.27,11.55a57.13,57.13,0,0,0,8.22.54l2.61-.73,2.62.73A57.13,57.13,0,0,0,71,69.46c3.64-.79-1.23-9.46-2.27-11.55-1.63-3.26-4.3-4.07-7.73-4H59.36Z" transform="translate(0 0)"/><path class="l" d="M60.19,52.26h0c1.19,0,2.16-.46,2.16.73v2.22a2.17,2.17,0,0,1-2.16,2.16h0A2.18,2.18,0,0,1,58,55.21V53C58,51.8,59,52.26,60.19,52.26Z" transform="translate(0 0)"/><path class="e" d="M60.19,45.52a3.66,3.66,0,1,1-3.4,3.65,3.65,3.65,0,0,1,.15-1.05,2.07,2.07,0,0,1-.71-.75,1.91,1.91,0,0,1,.16-2.25,4.08,4.08,0,0,0,1.9.65,6,6,0,0,0,.81-.05,2.73,2.73,0,0,1,.71-.17h0A2.34,2.34,0,0,1,60.19,45.52Z" transform="translate(0 0)"/><path class="l" d="M56.75,50.43c.31-.06.7.3.88.8s.08,1-.22,1-.7-.3-.88-.8-.08-1,.22-1Zm6.88,0c-.3-.06-.69.3-.87.8s-.09,1,.22,1,.7-.3.88-.8S63.94,50.49,63.63,50.43Z" transform="translate(0 0)"/><path class="m" d="M60.19,47c2.1,0,2.78,2.9,2.78,4.72a2.82,2.82,0,1,1-5.55,0C57.42,49.92,58.1,47,60.19,47Z" transform="translate(0 0)"/><path class="e" d="M57.42,48.67s-.08.94,1.58.94a8.31,8.31,0,0,0,3.37-.92l-.69-2.16H58.15Z" transform="translate(0 0)"/><path class="e" d="M58.31,48.82a7.83,7.83,0,0,1-.14,1.37,5,5,0,0,1-.67,1.31L57,50.12l.65-1.67.62.37Zm3.77,0a7.83,7.83,0,0,0,.14,1.37,5,5,0,0,0,.67,1.31l.49-1.33-.68-1.72Z" transform="translate(0 0)"/><path class="i" d="M51.89,61.32H68.5a1.38,1.38,0,0,1,1.26,1.87l-2.67,6.69c-.29.73-.65,1.44-1.44,1.44H54.73c-.78,0-1.14-.7-1.43-1.44l-2.66-6.66A1.3,1.3,0,0,1,51.89,61.32Z" transform="translate(0 0)"/><path class="c" d="M60.18,67.11c.69,0,1.25-.35,1.25-.78s-.56-.78-1.25-.78-1.25.35-1.25.78S59.49,67.11,60.18,67.11Z" transform="translate(0 0)"/></svg>