<svg xmlns="http://www.w3.org/2000/svg" viewBox="0 0 80 80"><defs><style>.a{fill:#f4e7b0;}.b{fill:#fff;}.b,.c,.d,.e,.f,.g,.h,.i,.j{fill-rule:evenodd;}.c{fill:#f9b384;}.d{fill:#e28b6d;}.e{fill:#f7c6a6;}.f{fill:#c9765b;}.g{fill:#92a1ad;}.h{fill:#1f3c88;}.i{fill:#1d2942;}.j{fill:#faa701;}</style></defs><circle class="a" cx="40" cy="40" r="37.33" transform="translate(-5.14 74.1) rotate(-82.07)"/><path class="b" d="M40,80A40,40,0,1,1,80,40,40,40,0,0,1,40,80ZM63.34,16.66A33,33,0,1,0,73,40,32.93,32.93,0,0,0,63.34,16.66Z" transform="translate(0 0)"/><path class="c" d="M44,41.78s-.66-1.13-4.78-2.21-10,1.11-11.45,1.11a29.88,29.88,0,0,1-5.61-1.4l-5.25,7.09v5.37s5.67,3.58,6.86,4.59,3.94,4.06,6.68,5.55S42.59,67,45,66.65s7.58-3.34,8.77-5.84A12.44,12.44,0,0,0,55,56.33l-5.53-4.74-2.84-2.32-4.36-3.2Z" transform="translate(0 0)"/><path class="d" d="M55,39.57a3,3,0,0,1-3.28,1.26c-2.21-.54-4.89-2.33-6.92-2.33S35,44.05,32.86,45.6c-2.34,1.74-5.39,4.67-.83,5.25,3.28.41,10.23-4.78,10.23-4.78s3.78,2.69,5.45,4.06S55,56.33,55,56.33a7.74,7.74,0,0,1,2.75-2.92c1.61-.77,2.68-1.25,2.68-1.25l-1-9.13Z" transform="translate(0 0)"/><path class="e" d="M55,39.57a3,3,0,0,1-3.28,1.26c-2.21-.54-4.89-2.33-6.92-2.33S35,44.05,32.86,45.6c-2.34,1.74-5.39,4.67-.83,5.25l.26,0c-.51-.36-.8-1.94-.15-3.14s9.36-6.41,12.11-6.87,6.3,2.52,9.61,2.37a8,8,0,0,0,4-1.42Z" transform="translate(0 0)"/><path class="f" d="M31,54.49a35.24,35.24,0,0,0-4.53,2.92,2.9,2.9,0,0,0-.54,3.73c.54.56,1.15.21,1.73,1.31s.66,2.12,1.49,2.56,1.85-.16,1.85.75a3.13,3.13,0,0,0,2,2.3c.6,0,.21.62,1.82.86s5.19-1.55,6.44-2.56c1.95-1.07,4.41-4.93,0-5.67,1.72-1.52-.85-3.46-1.94-3C41,55.51,38,54.32,37,55.2,38.45,52.65,34.38,51.36,31,54.49Z" transform="translate(0 0)"/><path class="d" d="M31,54.49a35.24,35.24,0,0,0-4.53,2.92,2.9,2.9,0,0,0-.54,3.73c.54.56,1.15.21,1.73,1.31s.66,2.12,1.49,2.56,1.85-.16,1.85.75a3.13,3.13,0,0,0,2,2.3c.6,0,.21.62,1.82.86,1.32.2,4-1,5.55-2a3.35,3.35,0,0,0,.53-1c.54-1.92,1-2.84,0-3.5s-1.35.31-1.93-.66,0-1.61-.9-2.11-.36-1.59-1-2.18a4.15,4.15,0,0,0-2-1.14c-.46,0,.4-1.07-.46-1.52a4.44,4.44,0,0,0-3.1-.75A6.37,6.37,0,0,0,31,54.49Z" transform="translate(0 0)"/><path class="b" d="M60.42,34.09l-6.56,3.75s5,13.89,6.56,15.84a5.15,5.15,0,0,0,5.44,1.52c1-.49,5.1-3.47,5.1-3.47Z" transform="translate(0 0)"/><path class="b" d="M18.17,34.09,25.49,37S19.75,51.52,18,53.46s-5.13.57-5.37.57-6.17-3.5-6.17-3.5Z" transform="translate(0 0)"/><path class="g" d="M64.08,50.68a1.68,1.68,0,1,1-1.67,1.68A1.68,1.68,0,0,1,64.08,50.68Z" transform="translate(0 0)"/><path class="g" d="M15,50.24a1.67,1.67,0,1,1-1.67,1.67A1.67,1.67,0,0,1,15,50.24Z" transform="translate(0 0)"/><path class="h" d="M76.9,24.53,59,32.42,69.71,56.33l8.5-4.45A40.22,40.22,0,0,0,76.9,24.53Z" transform="translate(0 0)"/><path class="i" d="M3.58,23.45l17.1,9.38L9.34,56.33,2.17,53A40.06,40.06,0,0,1,3.58,23.45Z" transform="translate(0 0)"/><path class="b" d="M40,34.08A14.9,14.9,0,1,0,25.1,19.19,14.93,14.93,0,0,0,40,34.08Z" transform="translate(0 0)"/><path class="j" d="M40,4.29a14.9,14.9,0,1,1-14.9,14.9A14.9,14.9,0,0,1,40,4.29Zm8,7a11.25,11.25,0,1,0,3.29,8A11.24,11.24,0,0,0,48,11.24Z" transform="translate(0 0)"/><polygon class="j" points="34.75 17.88 38.22 21.36 45.25 14.32 47.84 16.91 38.22 26.53 32.16 20.47 34.75 17.88"/></svg>