<svg xmlns="http://www.w3.org/2000/svg" viewBox="0 0 820 420"><defs><style>.a{fill:#bbd3ff;}.b,.e,.n{fill:#fff;}.b{opacity:0.6;}.c{fill:#96bcff;}.d,.k{fill:#dee5f8;}.e{opacity:0.4;}.f{fill:#f98372;}.g{fill:#f76262;}.h{fill:#ffe37f;}.i{fill:#637f9a;}.j{fill:#1f3c88;}.k{opacity:0.1;}.l,.t{fill:#102048;}.m{fill:#f9b384;}.o{opacity:0.3;}.p{fill:#e28b6d;}.q{fill:#6f3428;}.r{fill:#bb9132;}.s{fill:#fbc343;}.t{opacity:0.55;}.u{fill:#708cd5;}.v{fill:#ee6f57;}</style></defs><rect class="a" width="820" height="420"/><path class="b" d="M820,276.35c-236.89,114.92-716.6-95.44-820,0V420H820Z" transform="translate(0)"/><rect class="c" x="141.86" y="353.32" width="101.13" height="66.68"/><rect class="c" x="281.71" y="314.77" width="101.57" height="105.23"/><rect class="c" x="420.25" y="267.81" width="105.4" height="152.19"/><rect class="c" x="568.64" y="206.68" width="109.43" height="213.32"/><path class="d" d="M36.37,363.7,36,341.07c33.5-1.47,124.93-12.63,231.17-44.29A1203.45,1203.45,0,0,0,489,206.18c86.52-46.09,165-102.39,233.15-167.36L737.5,55c-69.85,66.54-150.17,124.17-238.72,171.3a1227,1227,0,0,1-226.39,92.36C137,358.93,40.41,363.52,36.37,363.7Z" transform="translate(0)"/><polygon class="d" points="751.77 91.99 681.79 22.01 751.77 22.01 751.77 91.99"/><path class="d" d="M623.36,97.3a7.71,7.71,0,0,1-.52,2.74H593.39l0-.06a.14.14,0,0,1,0,.06l-2.22,0c-14.58.08-96.08.54-96.08-.18,0-8.31,6.35-15,14.19-15a13.38,13.38,0,0,1,5.18,1,8.34,8.34,0,0,1,5.45-2,8.63,8.63,0,0,1,7.21,4l.06-.13a16.79,16.79,0,0,1,8.3-7.74A25,25,0,0,1,546,77.71a27.33,27.33,0,0,1,3.3.2A24.23,24.23,0,0,1,570.73,64.4c11.85,0,21.73,9,23.93,20.83a8.34,8.34,0,0,1,4.58-1.38,8.66,8.66,0,0,1,7.75,5,14,14,0,0,1,4.78-.82c4.57,0,8.53,2.12,10.41,5.2A7.81,7.81,0,0,1,623.36,97.3Z" transform="translate(0)"/><path class="e" d="M622.18,93.22c-3.76-1-7.78-1-11.71-.92l-26.31.31c-10.51.12-19.87-5.89-30.61-4.92-5.15.48-10.38,2.57-15.33,2.87-3.92.23-8.69-.47-11.11-2.84a16.79,16.79,0,0,1,8.3-7.74A25,25,0,0,1,546,77.71a27.33,27.33,0,0,1,3.3.2A24.23,24.23,0,0,1,570.73,64.4c11.85,0,21.73,9,23.93,20.83a8.34,8.34,0,0,1,4.58-1.38,8.66,8.66,0,0,1,7.75,5,14,14,0,0,1,4.78-.82C616.34,88,620.3,90.14,622.18,93.22Z" transform="translate(0)"/><path class="d" d="M324.93,196.49a4.82,4.82,0,0,1-.35,1.81H305.25l0,0s0,0,0,0-64.54.41-64.54-.11a9.6,9.6,0,0,1,9.31-9.87,8.79,8.79,0,0,1,3.41.68,5.53,5.53,0,0,1,3.58-1.33,5.68,5.68,0,0,1,4.73,2.62c1.39-3.08,4.77-5.46,9-6.3a16.92,16.92,0,0,1,3.46-.35,17.21,17.21,0,0,1,2.17.13,15.89,15.89,0,0,1,14.07-8.88c7.78,0,14.26,5.89,15.71,13.68a5.41,5.41,0,0,1,3-.9,5.72,5.72,0,0,1,5.09,3.27,9.32,9.32,0,0,1,3.14-.54C321.51,190.4,324.93,193.13,324.93,196.49Z" transform="translate(0)"/><path class="e" d="M324.93,196.49a4.82,4.82,0,0,1-.35,1.81h-11.2a25.62,25.62,0,0,0-2-3.25c-3.83-4.38-11.8-.88-16.42-4.4-.84-.64-1.52-1.48-2.39-2.07-2.69-1.78-6.25-.67-9.36.18s-6.77,1.35-9.63-.3a6.18,6.18,0,0,1-2.89-4.47,16.92,16.92,0,0,1,3.46-.35,17.21,17.21,0,0,1,2.17.13,15.89,15.89,0,0,1,14.07-8.88c7.78,0,14.26,5.89,15.71,13.68a5.41,5.41,0,0,1,3-.9,5.72,5.72,0,0,1,5.09,3.27,9.32,9.32,0,0,1,3.14-.54C321.51,190.4,324.93,193.13,324.93,196.49Z" transform="translate(0)"/><path class="d" d="M213.45,73.11c0,.77-95.27.16-95.27.16a.09.09,0,0,1,0,0l-.06,0H89.57a7.26,7.26,0,0,1-.5-2.66c0-5,5-9,11.23-9a13.63,13.63,0,0,1,4.63.79,8.41,8.41,0,0,1,7.51-4.83,8,8,0,0,1,4.43,1.33c2.14-11.51,11.72-20.18,23.2-20.18h.25a23.44,23.44,0,0,1,20.53,13.09,25.81,25.81,0,0,1,3.2-.2c8.51,0,15.76,4.1,18.36,9.82a8.38,8.38,0,0,1,7-3.87,8.1,8.1,0,0,1,5.29,2,13,13,0,0,1,5-1,13.72,13.72,0,0,1,12.44,8.36A15.19,15.19,0,0,1,213.45,73.11Z" transform="translate(0)"/><path class="e" d="M212.15,66.91c-4.29,1.44-9.11,1.63-13.7,1.73-10.71.23-22.1.29-31.2-5.33-3.17-2-5.95-4.53-9.36-6-5.69-2.46-13-1.8-17.2-6.36a9.63,9.63,0,0,1-1.12-11.17,6.85,6.85,0,0,1,.75-1,23.44,23.44,0,0,1,20.53,13.09,25.81,25.81,0,0,1,3.2-.2c8.51,0,15.76,4.1,18.36,9.82a8.38,8.38,0,0,1,7-3.87,8.1,8.1,0,0,1,5.29,2,13,13,0,0,1,5-1A13.72,13.72,0,0,1,212.15,66.91Z" transform="translate(0)"/><path class="f" d="M540.23,192.5s6.92,6.92-3,14.82-13.84,14.83-13.84,22.73,6.92,12.85,6.92,12.85-14.82,1-15.81-19.76,9.88-34.59,7.9-49.42S540.23,192.5,540.23,192.5Z" transform="translate(0)"/><path class="g" d="M455.24,194.48s3.95,5.93,15.81,3,19.77-11.86,33.6-13.83,35.58,8.89,35.58,8.89l-14.82-87s0-9.88-21.74-13.83-45.46,3-45.46,3Z" transform="translate(0)"/><path class="f" d="M476,153s-1,6.92-10.87,20.75-9.88,20.76-9.88,20.76l-10.87-59.3S469.08,126.29,476,153Z" transform="translate(0)"/><path class="g" d="M267.47,46.24s86-9.89,139.35-13.84,50.4,4,55.34,4.94S476,153,476,153s-36.56-10.87-70.16-6.92-120.57,18.78-120.57,18.78S302.06,94.66,267.47,46.24Z" transform="translate(0)"/><path class="h" d="M390.09,85.7,388.5,73.46A29.79,29.79,0,0,1,400,75.77l2.45-9.32A32.9,32.9,0,0,0,387.27,64l-1-7.85-7.2.94,1,8c-11.21,2.77-15.9,10-14.91,17.67C366.52,93,375.79,94.51,384,95.42l1.57,12a29.5,29.5,0,0,1-14.63-3.3l-2.82,9.29c4.36,2.59,11.49,3.93,18.67,3.43l1,7.85,7.2-.94L394,115.71c11.12-2.83,15.75-10,14.78-17.51C407.45,88.05,398.32,86.53,390.09,85.7ZM376.7,80.63c-.31-2.37.93-4.66,4.63-6l1.33,10.22C379.36,84.24,377,83.15,376.7,80.63Zm16.06,25.58-1.29-9.93c3.23.68,5.5,1.77,5.82,4.29C397.59,102.88,396.25,105,392.76,106.21Z" transform="translate(0)"/><path class="h" d="M386.06,45.25a45.46,45.46,0,1,0,45.46,45.46A45.51,45.51,0,0,0,386.06,45.25Zm0,84a38.53,38.53,0,1,1,38.53-38.52A38.56,38.56,0,0,1,386.06,129.23Z" transform="translate(0)"/><path class="i" d="M313.14,387.83a2.17,2.17,0,0,1-2.14-1.89L265.81,35.54A2.16,2.16,0,0,1,270.1,35l45.19,350.41a2.16,2.16,0,0,1-1.87,2.42Z" transform="translate(0)"/><polygon class="j" points="586.56 420 559.31 394.43 491.96 372.58 446.94 335.06 332.03 335.06 306.74 369.45 252.12 386.44 213.94 420 586.56 420"/><polygon class="k" points="427.31 369.85 431.16 396.76 447.92 420 586.56 420 559.31 394.43 491.96 372.58 446.94 335.06 378.89 335.06 392.4 361.03 427.31 369.85"/><polygon class="l" points="286.72 420 329.45 371.75 332.03 335.06 306.74 369.45 252.12 386.44 213.94 420 286.72 420"/><path class="m" d="M424.66,322.19l.11-9.44-13.69,1-.39,7.8A47.09,47.09,0,0,0,424.66,322.19Z" transform="translate(0)"/><path class="l" d="M439.47,335c-3.71-6.08-8.78-8.11-14.84-8.87l0-3.95a47.09,47.09,0,0,1-14-.67L410,335Z" transform="translate(0)"/><path class="l" d="M356.74,323.12,355.49,326c-6.05.76-11.47,4-16.45,9h28.71l3.05-11.86A40.69,40.69,0,0,1,356.74,323.12Z" transform="translate(0)"/><path class="m" d="M370.8,323.15l2.43-9.43-12.09-.65-4.4,10.05A40.69,40.69,0,0,0,370.8,323.15Z" transform="translate(0)"/><path class="l" d="M431,175.49c7.2,46.88,5.16,93.55-4.84,140.65H408.93c2.06-30.57,3.63-66.91-1.18-91l-32.82,91.37H356.14l31-130.08,10.65-20.86,24.95-3Z" transform="translate(0)"/><path class="m" d="M453.88,75.49l4.62-13.87L471,64.54c.94,4.65-4.68,11.7-8.86,17Z" transform="translate(0)"/><polygon class="m" points="411.67 125 397.26 125.17 395.83 106.29 395.66 104.03 410.14 103.91 410.65 111.07 411.67 125"/><path class="l" d="M410.57,109.77c-4.72,3.36-10.88,1.27-14.74-3.48l-.17-2.26,14.48-.13Z" transform="translate(0)"/><path class="m" d="M407.21,108.18c-7.32,1.68-15.48-3-18.7-9.25l-.44-11.18,4.09-5.81,17.42,1.5c-.08,0-.07.27,0,.68.2,1.09.87,3.4,1.49,6.18C412.59,97.08,413.8,106.68,407.21,108.18Z" transform="translate(0)"/><path class="n" d="M395,117.86s10.76,8.6,20.11-3.66l17.74,58.93c-10.86,7.67-24.59,10.32-41.07,8.17Z" transform="translate(0)"/><g class="o"><path class="j" d="M397.26,125.17a19.65,19.65,0,0,0,4.53,1,15.27,15.27,0,0,0,4.53-.18,14.66,14.66,0,0,0,4.27-1.49,21.08,21.08,0,0,0,2-1.18c.66-.42,1.24-.94,1.91-1.39-.5.62-1,1.23-1.57,1.8a13.7,13.7,0,0,1-1.9,1.49,11.92,11.92,0,0,1-4.5,1.83A12.4,12.4,0,0,1,397.26,125.17Z" transform="translate(0)"/></g><path class="j" d="M453.4,72.91c-9.73,16.43-19.22,30.86-27.8,37.74a6.67,6.67,0,0,1-4.52,1.4,35.94,35.94,0,0,0-10.27,1.1c.78,29.48,3.58,56.78,13.61,73.52,6-1.74,13.37-4.54,17.42-7.95-3.3-11.2-7.21-27.26-10.11-41.29L463.88,80Z" transform="translate(0)"/><path class="p" d="M411.07,90.3c-11.07,6.3-20.28-5.18-20.28-5.18l18.79-1C409.78,85.21,410.45,87.52,411.07,90.3Z" transform="translate(0)"/><path class="l" d="M391,96.78c1.35-1.75,2-4.7.75-10.64,4,4.56,10,5.62,18.82,1.72,0,0,5.71-2.24,4.4-8.07-1.18-5.27-5.59-8.06-9-3.76-7.81-2.28-15.48-2.69-18.92,4.41,0,0-11,5.7-1.62,14.94Z" transform="translate(0)"/><polygon class="j" points="374.99 218.53 373.1 218.1 375.07 209.27 362.04 206.1 360.31 214.16 358.42 213.76 360.56 203.75 377.37 207.84 374.99 218.53"/><path class="m" d="M367.32,190.68c-.32.45-1.51,9.54-1.51,9.54s-5.26,4.94-1.72,8,7.85,2.91,9.9.67a13.34,13.34,0,0,0-.11-7.86l2-10.1Z" transform="translate(0)"/><polygon class="j" points="384.63 217.92 379.43 239.94 377.43 248.45 343.66 235.76 348.11 217.19 350.23 208.34 384.63 217.92"/><polygon class="q" points="479.25 71.47 461.32 82.34 460.52 76.04 474.04 67.84 479.25 71.47"/><polygon class="r" points="469.58 70.55 464.98 73.33 454.07 57.82 460.87 53.69 469.58 70.55"/><path class="s" d="M461.79,53.15l-8.63,5.23a4.57,4.57,0,0,1-5.88-1L432.83,39.91l22-13.33,8.81,20.9A4.56,4.56,0,0,1,461.79,53.15Z" transform="translate(0)"/><path class="s" d="M460.73,42.12l-1.19-.49c3.32-8,2.74-14.48.3-15.91-1.27-.75-3,.13-4.82,2.4l-1-.79c3.18-4,5.6-3.25,6.49-2.73C463.47,26.35,464.37,33.38,460.73,42.12Z" transform="translate(0)"/><path class="s" d="M443.53,52.57c-9.44-.83-15.25-4.88-15.43-8.32-.05-1,.38-3.53,5.42-4.49l.24,1.27c-2.85.54-4.44,1.69-4.37,3.16.14,2.82,5.63,6.34,14.25,7.09Z" transform="translate(0)"/><path class="b" d="M451.54,37.9c-.76-1.31-.72-2.75.08-3.22s2.08.22,2.83,1.54.72,2.75-.08,3.21S452.29,39.21,451.54,37.9Z" transform="translate(0)"/><path class="m" d="M471,64.22c.31,2.23-1.1,4.23-4.08,4.23-1.86,0-4.47-2.56-5-5.59-.45-2.5.51-4.14,2.27-4.87S470.42,60,471,64.22Z" transform="translate(0)"/><rect class="s" x="420.5" y="18.77" width="2.03" height="16.46" transform="translate(269.1 420.92) rotate(-72.51)"/><rect class="s" x="438.91" y="10.26" width="16.46" height="2.03" transform="matrix(0.17, -0.98, 0.98, 0.17, 358.28, 449.64)"/><rect class="s" x="430.39" y="6.51" width="2.03" height="16.46" transform="translate(60.12 234.91) rotate(-32.62)"/><path class="j" d="M385.92,154.63l-2.58,38.93c14.41-.65,24.09-5.38,24.09-5.38C408.68,165,405.7,139,396.5,115.57c-23.35,8.68-29.94,37.44-33.41,80.17l13.68,1.58Z" transform="translate(0)"/><path class="m" d="M391.19,100.65c-4.39,1.57-7.2,1.22-7.43-3a3.32,3.32,0,0,1,4.53-3.32A7.53,7.53,0,0,1,391,96.78Z" transform="translate(0)"/><path class="t" d="M379.43,239.94l-2,8.51-33.77-12.69,4.45-18.57C352.27,225.79,361.05,236.45,379.43,239.94Z" transform="translate(0)"/><path class="l" d="M428.8,124.15c.58,1.84,1.09,3.71,1.58,5.58s.94,3.74,1.38,5.62.85,3.77,1.22,5.66.72,3.8,1,5.72l-.49.11c-.59-1.85-1.1-3.71-1.59-5.58s-.94-3.74-1.37-5.63-.84-3.76-1.19-5.66-.73-3.8-1-5.71Z" transform="translate(0)"/><path class="l" d="M386.6,141.53c.07,1.87.06,3.73,0,5.6s-.1,3.73-.17,5.6-.2,3.72-.35,5.58-.32,3.73-.58,5.58l-.5,0c-.09-1.88-.07-3.74,0-5.61s.1-3.73.19-5.59.21-3.73.37-5.59.32-3.72.56-5.58Z" transform="translate(0)"/><path class="u" d="M404.61,233.26c.58-2.13,1.23-4.24,1.9-6.34s1.39-4.17,2.09-6.26,1.48-4.15,2.25-6.21,1.58-4.12,2.47-6.14l.47.17c-.56,2.13-1.22,4.24-1.88,6.34s-1.38,4.18-2.1,6.26-1.47,4.15-2.27,6.2-1.58,4.12-2.46,6.14Z" transform="translate(0)"/><path class="l" d="M388.56,98.32c-.23-.32-.44-.64-.66-.94a4.61,4.61,0,0,0-.7-.8.77.77,0,0,0-.71-.27c-.27,0-.54.32-.83.56l-.25-.16a1.67,1.67,0,0,1,.86-1,1.35,1.35,0,0,1,1.42.32,4,4,0,0,1,1.14,2.21Z" transform="translate(0)"/><path class="m" d="M461.73,64.88c.47-1.78.23-3.38-.54-3.59s-1.95.63-2.42,2.41-1,4.34.2,4.92C461.12,69.63,461.26,66.66,461.73,64.88Z" transform="translate(0)"/><path class="m" d="M820,420V360.58l-90.09-39.53c-5.29-6.22-14.56-13.55-25-21.19-6.14-8.24-11.2-32.79-16.32-56.48-18.19,6.59-14.8,27.19-9.82,48.82-27.93-7.77-43.3,2.76-43.84,20.65-3.79,4.27-3.2,10.08.12,14.48-4.34,4.49-4.29,10-1.78,16.17-11.61,11.1,5.73,27.07,28.33,20.08,8.67,9.22,21.92,13.1,38.3,13.37L772.79,420Z" transform="translate(0)"/><path class="p" d="M665.56,324.78a26.83,26.83,0,0,1-11-2.34l-19.91-9,.55-1.21,19.91,9a25.44,25.44,0,0,0,16.32,1.54c5.22-1.25,7.22-3.61,7.84-4.56.88-1.36.85-4.61-.5-6.92a4.92,4.92,0,0,0-4.82-2.55l-8.66.74-10.82-9.33.87-1,10.39,9,8.12-.7a6.29,6.29,0,0,1,6.07,3.21c1.66,2.83,1.58,6.58.46,8.31-.7,1.09-2.95,3.77-8.64,5.13A26.62,26.62,0,0,1,665.56,324.78Z" transform="translate(0)"/><path class="p" d="M663.51,338.91c-10.13,0-28-10.53-28.77-11l.68-1.15c.21.13,21.29,12.58,30.17,10.63,9.18-2,13.87-7.84,14.45-9.62.46-1.38-1.25-4.47-2.43-6.09l1.07-.79c.36.49,3.44,4.82,2.63,7.29-.88,2.67-6.31,8.5-15.43,10.51A11.76,11.76,0,0,1,663.51,338.91Z" transform="translate(0)"/><path class="p" d="M659.49,351.42c-12.84,0-25.9-7-26.51-7.34l.64-1.17c.16.09,16.07,8.62,29.59,7,13.84-1.71,17.49-3.6,18.71-5.93a5.81,5.81,0,0,0-1-5.58c-1.17-1.49-3.52-3-8.1-1.88l-.32-1.29c5.55-1.38,8.31.88,9.46,2.35,1.79,2.28,2,5.42,1.15,7-1.5,2.84-5.2,4.84-19.73,6.63A31.33,31.33,0,0,1,659.49,351.42Z" transform="translate(0)"/><path class="p" d="M661.87,364.2,661.4,363c5.77-2.2,12.77-7.48,12.79-10.73,0-.36,0-1.44-2.06-2.25l.49-1.24c2.4.95,2.9,2.43,2.9,3.5C675.49,356.43,667.55,362,661.87,364.2Z" transform="translate(0)"/><path class="p" d="M688.75,346.14c-7.78-2.5-8.79-16.68-9.45-26.06l-.11-1.47,1.33-.1.1,1.47c.61,8.48,1.61,22.67,8.54,24.89Z" transform="translate(0)"/><path class="m" d="M184.09,163.41c3.84-3.69,5.29-9.13,2.34-13.8,2.22-17.15-10.84-29.55-38.69-26.42,8.07-19.88,14.47-39-1.89-48.09-8.51,21.82-17.1,44.47-24.23,51.4-11.1,5.7-21.07,11.28-27.07,16.4L74.89,148,0,167.48v77.27l.37,1L78.53,215l36.07-14.18c15.67,2.26,28.91.58,38.6-6.9,20.5,10.14,39.49-2.44,30.11-14.82C186.65,173.66,187.55,168.37,184.09,163.41Z" transform="translate(0)"/><path class="p" d="M159.51,156.74a26.06,26.06,0,0,1-10-2c-5.26-2.19-7-5.12-7.52-6.27-.81-1.85-.31-5.49,1.73-8a6.14,6.14,0,0,1,6.36-2.17l7.62,1.91,11.26-7,.77,1.25L158,141.84l-8.2-2.05a4.68,4.68,0,0,0-4.89,1.68c-1.62,2-2.14,5-1.52,6.42.44,1,2,3.53,6.74,5.51a24.47,24.47,0,0,0,15.75,1l20.38-5.52.38,1.41-20.38,5.53A25.91,25.91,0,0,1,159.51,156.74Z" transform="translate(0)"/><path class="p" d="M158.18,170.42a14.52,14.52,0,0,1-5.25-.81c-8.44-3.32-12.75-9.75-13.18-12.46-.4-2.52,3.23-6.22,3.65-6.63l1,1c-1.36,1.36-3.44,4-3.23,5.36.29,1.78,3.85,8,12.27,11.33,8.14,3.21,30.13-5.43,30.35-5.52l.54,1.37C183.59,164.4,168.27,170.42,158.18,170.42Z" transform="translate(0)"/><path class="p" d="M163.49,183.24a36.51,36.51,0,0,1-10.08-1.3c-13.63-3.94-16.87-6.43-17.88-9.41-.57-1.72.09-4.66,2.2-6.62,1.34-1.24,4.36-3,9.49-.8l-.58,1.35c-4.15-1.77-6.59-.69-7.91.53a5.53,5.53,0,0,0-1.8,5.08c.8,2.38,4,4.73,16.88,8.46,12.64,3.66,29.09-2,29.26-2.1l.49,1.38A67.28,67.28,0,0,1,163.49,183.24Z" transform="translate(0)"/><path class="p" d="M152.83,194.58c-5.11-3-11.86-9.56-11.24-13.61.17-1.05.88-2.42,3.38-3l.31,1.43c-2,.45-2.19,1.43-2.24,1.76-.46,3,5.4,9.15,10.52,12.11Z" transform="translate(0)"/><path class="p" d="M130,173.24l-.22-1.45c6.89-1.06,10-14.41,11.88-22.38L142,148l1.43.34-.33,1.38C141,158.62,137.87,172,130,173.24Z" transform="translate(0)"/><path class="v" d="M0,247.32,78.53,215c-5.87-22.72-7-45.11-2.55-67.1l-1.09.09L0,167.48Z" transform="translate(0)"/><path class="l" d="M114.59,384.93s15.16-23-37.66-67.48l6.36,57.7Z" transform="translate(0)"/><path class="m" d="M43.08,413l86.56-51.15c16-.25,29-4.05,37.45-13.07,22.11,6.84,39.06-8.78,27.71-19.64,2.46-6,2.51-11.42-1.74-15.82,3.24-4.3,3.82-10,.12-14.16-.53-17.49-15.56-27.79-42.88-20.19,4.87-21.16,8.19-41.31-9.61-47.75-5,23.17-9.95,47.18-16,55.24-10.19,7.48-19.26,14.64-24.42,20.73L16.27,344Z" transform="translate(0)"/><path class="p" d="M163.25,310.81a25.89,25.89,0,0,1-6.07-.71c-5.57-1.33-7.77-4-8.46-5-1.09-1.69-1.17-5.36.46-8.12a6.1,6.1,0,0,1,5.92-3.14l8,.68,10.17-8.77.85,1-10.58,9.13-8.49-.73a4.83,4.83,0,0,0-4.7,2.5c-1.32,2.26-1.35,5.43-.48,6.77.6.93,2.55,3.23,7.66,4.46a25,25,0,0,0,16-1.5l19.48-8.79.53,1.18L174,308.52A26.16,26.16,0,0,1,163.25,310.81Z" transform="translate(0)"/><path class="p" d="M165.25,324.63a10.58,10.58,0,0,1-2.31-.23c-8.93-2-14.23-7.66-15.09-10.27-.79-2.42,2.22-6.65,2.57-7.13l1.05.77c-1.16,1.58-2.83,4.61-2.39,6,.58,1.74,5.16,7.44,14.14,9.41,8.68,1.9,29.3-10.26,29.51-10.39l.66,1.12C192.6,314.33,175.16,324.63,165.25,324.63Z" transform="translate(0)"/><path class="p" d="M169.18,336.87a29.89,29.89,0,0,1-3.79-.23c-14.21-1.75-17.83-3.7-19.29-6.48-.83-1.57-.63-4.64,1.12-6.87,1.13-1.44,3.83-3.64,9.25-2.3l-.31,1.27c-4.48-1.12-6.78.38-7.92,1.83a5.68,5.68,0,0,0-1,5.46c1.19,2.28,4.76,4.13,18.3,5.8,13.23,1.63,28.78-6.72,28.94-6.8l.62,1.14C194.52,330,181.75,336.87,169.18,336.87Z" transform="translate(0)"/><path class="p" d="M166.86,349.36c-5.56-2.12-13.32-7.6-13.35-11.7,0-1.05.48-2.49,2.84-3.42l.48,1.21c-2,.8-2,1.85-2,2.2,0,3.18,6.86,8.34,12.51,10.5Z" transform="translate(0)"/><path class="p" d="M140.57,331.7l-.4-1.24c6.78-2.17,7.76-16,8.35-24.34l.1-1.44,1.3.1-.11,1.44C149.16,315.39,148.18,329.25,140.57,331.7Z" transform="translate(0)"/><path class="u" d="M54.68,420l59.91-35.07a133,133,0,0,1-37.66-67.48L0,343.52V420Z" transform="translate(0)"/><path class="m" d="M813.06,170l-6.53,79.35-81.16-45-29-16.11c-16.25.18-29.51-3.31-38.36-12.23-22.23,7.56-39.86-7.8-28.65-19.14-2.65-6-2.86-11.52,1.33-16.09-3.41-4.28-4.16-10-.52-14.36,0-17.76,15-28.63,42.93-21.68C667.52,83.39,663.59,63,681.46,56c5.72,23.36,11.42,47.57,17.73,55.58,10.53,7.3,19.93,14.32,25.34,20.35l17.25,7Z" transform="translate(0)"/><path class="p" d="M660.07,137.48a26.52,26.52,0,0,1-10.24-2l-20-8.37.57-1.35,20,8.37a25.16,25.16,0,0,0,16.18,1.07c5.12-1.37,7-3.74,7.61-4.7.82-1.36.71-4.54-.68-6.77a4.82,4.82,0,0,0-4.79-2.37l-8.6,1-11-9,.93-1.14,10.53,8.59,8-.91a6.29,6.29,0,0,1,6.17,3.06c1.74,2.78,1.76,6.54.69,8.3-.67,1.11-2.84,3.85-8.48,5.36A26.34,26.34,0,0,1,660.07,137.48Z" transform="translate(0)"/><path class="p" d="M658.74,151.54c-10.14,0-27.65-9.7-28.46-10.15l.71-1.28c.22.12,21.42,11.88,30.17,9.7,9-2.24,13.49-8.11,14-9.88.4-1.36-1.36-4.35-2.57-5.91l1.16-.9c.37.48,3.56,4.72,2.82,7.23-.81,2.69-6.05,8.64-15.08,10.89A11.36,11.36,0,0,1,658.74,151.54Z" transform="translate(0)"/><path class="p" d="M654.52,164.07c-12.44,0-24.95-6.28-25.54-6.58l.66-1.31c.16.09,16.15,8.11,29.51,6.09,13.65-2.06,17.2-4,18.34-6.35a5.7,5.7,0,0,0-1.15-5.43c-1.18-1.43-3.54-2.86-8-1.62l-.39-1.41c5.5-1.53,8.33.65,9.53,2.09,1.88,2.27,2.16,5.35,1.34,7-1.42,2.88-5,5-19.44,7.15A32.68,32.68,0,0,1,654.52,164.07Z" transform="translate(0)"/><path class="p" d="M658.24,176.66l-.56-1.35c5.62-2.32,12.42-7.82,12.36-10.93,0-.34,0-1.38-2.06-2.11l.5-1.38c2.45.89,3,2.37,3,3.46C671.59,168.54,663.84,174.35,658.24,176.66Z" transform="translate(0)"/><path class="p" d="M684.37,158c-7.84-2.29-9.22-16.35-10.14-25.66l-.15-1.45,1.46-.15.15,1.45c.82,8.38,2.2,22.39,9.09,24.4Z" transform="translate(0)"/><path class="j" d="M820,170.73l-78.22-31.79c.23,31.8-7.23,50.1-16.41,65.38L820,258.55Z" transform="translate(0)"/></svg>