<svg id="Layer_1" data-name="Layer 1" xmlns="http://www.w3.org/2000/svg" viewBox="0 0 280 60"><defs><style>.cls-1{fill:#f8c72b;}.cls-2{fill:#1d2942;}</style></defs><path class="cls-1" d="M30,30,58.21,19.8a30,30,0,1,0-.13,20.79s0-.08,0-.12Z" transform="translate(-0.01 -0.01)"/><path class="cls-1" d="M68.22,31.2A4.29,4.29,0,0,1,72,26.44v-6L57.17,25.29a3.14,3.14,0,0,1-.38,2.33,3.16,3.16,0,0,1-5.6-.38l-8.6,2.81L73,40V34.88a5,5,0,0,1-2.25-.34A4,4,0,0,1,68.22,31.2Zm-7.3,2.6a3,3,0,1,1,3.86-1.75A3,3,0,0,1,60.92,33.8Z" transform="translate(-0.01 -0.01)"/><circle class="cls-2" cx="33.99" cy="16.99" r="4"/><path class="cls-2" d="M121.66,25.48c0,.33-.15.49-.46.49h-5.65c-.3,0-.46-.18-.46-.56q0-1.61.12-4.83t.12-4.83c0-.31,0-.48-.14-.5a46.2,46.2,0,0,0-2.14,4.93c-.77,1.89-1.53,3.78-2.3,5.66a.68.68,0,0,1-.4.44h-.63c-.56,0-.89-.11-1-.32-.58-1.17-1.33-2.87-2.27-5.1s-1.75-4.07-2.25-5.12a.44.44,0,0,0-.14-.18A.73.73,0,0,0,104,16c0,1,0,2.61.08,4.69s.08,3.65.08,4.69c0,.38-.15.56-.45.56H98.34c-.21,0-.34,0-.39-.1a.65.65,0,0,1-.07-.36c0-1.16.05-2.9.17-5.22s.16-4.07.16-5.23,0-3.55-.16-6.94c0-.88,0-2.2-.14-3.94l0-.27c0-.21.22-.32.67-.32s1.47,0,2.64-.06,2,0,2.63,0c.12,0,.28.22.49.67L109,14.37c.33.7.61,1,.83,1s.37-.4.75-1.19q1.62-3.36,4.77-10.1c.18-.42.38-.63.59-.63s.77,0,1.4,0,1.09,0,1.41,0,.67,0,1.22-.08,1-.08,1.22-.08.48.13.48.38c0,1.26-.05,3.13-.14,5.63s-.13,4.37-.13,5.62.05,2.9.14,5.22S121.66,24.33,121.66,25.48Z" transform="translate(-0.01 -0.01)"/><path class="cls-2" d="M146.79,14.81a11.73,11.73,0,0,1-3.17,8.34,11.52,11.52,0,0,1-16.39,0A11.62,11.62,0,0,1,124,14.81a11.7,11.7,0,0,1,3.19-8.35,11.39,11.39,0,0,1,16.35,0A11.74,11.74,0,0,1,146.79,14.81Zm-6,0a6,6,0,0,0-1.45-4.06,5,5,0,0,0-7.69.06,6,6,0,0,0-1.51,4,5.93,5.93,0,0,0,1.42,4.06,5,5,0,0,0,3.91,1.71,4.89,4.89,0,0,0,3.82-1.8A5.93,5.93,0,0,0,140.74,14.77Z" transform="translate(-0.01 -0.01)"/><path class="cls-2" d="M170.51,4.08c0,1.22,0,3-.15,5.47s-.15,4.26-.15,5.48V25.54c0,.29-.15.43-.46.43l-1.16,0c-.52,0-.9,0-1.16,0s-.69,0-1.24-.07-1-.06-1.25-.06-.42-.18-.68-.53q-1.15-1.54-5.17-6.86c-.73-1-1.85-2.44-3.35-4.37a.62.62,0,0,0-.24-.19.45.45,0,0,0-.13.35c0,1.23,0,3.09.11,5.55s.1,4.32.1,5.55c0,.38-.14.56-.43.56h-5.52c-.31,0-.46-.16-.46-.49,0-1.15.05-2.88.17-5.2s.16-4.06.16-5.22-.05-3.05-.15-5.49-.15-4.26-.15-5.47c0-.23.21-.35.62-.35.62,0,1.38,0,2.28-.13q.33,0,1.26-.21a8.08,8.08,0,0,1,1.26-.14c.13,0,.33.18.59.54L161.16,12l2.41,3.22c.27.33.5.49.69.49s.21-.41.21-1.24c0-1.12-.06-2.8-.19-5s-.18-3.93-.18-5.06c0-.39.11-.59.33-.59.64,0,1.61,0,2.89-.08s2.25-.08,2.89-.08C170.41,3.59,170.51,3.76,170.51,4.08Z" transform="translate(-0.01 -0.01)"/><path class="cls-2" d="M195.64,14.81a11.7,11.7,0,0,1-3.18,8.34,11.5,11.5,0,0,1-16.38,0,11.62,11.62,0,0,1-3.19-8.31,11.7,11.7,0,0,1,3.19-8.35,11.39,11.39,0,0,1,16.35,0A11.74,11.74,0,0,1,195.64,14.81Zm-6,0a6,6,0,0,0-1.45-4.06,5,5,0,0,0-7.69.06,6,6,0,0,0-1.51,4,5.93,5.93,0,0,0,1.42,4.06,5.13,5.13,0,0,0,7.73-.09A5.93,5.93,0,0,0,189.59,14.77Z" transform="translate(-0.01 -0.01)"/><path class="cls-2" d="M217.13,12.13a9.36,9.36,0,0,1-2,6.25,7.45,7.45,0,0,1-6,2.54c-.43,0-1.07,0-1.92-.08s-1.5-.07-1.93-.07-.68.2-.68.59,0,1.22.14,2.19.15,1.69.15,2.17c0,.24-.12.36-.34.36-.65,0-1.62,0-2.92,0S199.35,26,198.7,26a.4.4,0,0,1-.46-.46c0-1.18,0-3,0-5.32s.06-4.14.06-5.32q0-5-.43-10.53l0-.22c0-.21.14-.33.48-.37.83-.11,2.66-.16,5.49-.16q2.5,0,4.8.06A8.78,8.78,0,0,1,214.77,6,8.2,8.2,0,0,1,217.13,12.13Zm-6.37.25c0-2.48-1.2-3.72-3.62-3.72-1.7,0-2.59.1-2.68.29a27.12,27.12,0,0,0-.11,3.69c0,.33,0,.81,0,1.46s0,1.13,0,1.45,1,.32,2.87.32Q210.77,15.87,210.76,12.38Z" transform="translate(-0.01 -0.01)"/><path class="cls-2" d="M241.47,14.81a11.73,11.73,0,0,1-3.17,8.34,11.52,11.52,0,0,1-16.39,0,11.67,11.67,0,0,1-3.19-8.31,11.75,11.75,0,0,1,3.19-8.35,11.4,11.4,0,0,1,16.36,0A11.78,11.78,0,0,1,241.47,14.81Zm-6,0A6,6,0,0,0,234,10.71a5,5,0,0,0-7.69.06,6,6,0,0,0-1.51,4,5.93,5.93,0,0,0,1.42,4.06,5.14,5.14,0,0,0,7.74-.09A5.93,5.93,0,0,0,235.43,14.77Z" transform="translate(-0.01 -0.01)"/><path class="cls-2" d="M258.51,26.24q-1.38,0-3.57-.06l-3.58-.08L246.59,26c-.48,0-1.16,0-2.06-.07a.48.48,0,0,1-.46-.49c0-1.16,0-2.9.06-5.21s.05-4.05.05-5.21,0-3.08-.11-5.54S244,5.21,244,4c0-.23.16-.35.48-.35s.79,0,1.43,0,1.1.05,1.41.05.87,0,1.56-.06,1.21-.05,1.57-.05c.16,0,.23.1.22.3l0,.21c-.12,2-.27,5-.43,9v4.21c0,1.36,0,2.36,0,3l0,.39a.26.26,0,0,0,.24.24h.42c1,0,2.39-.05,4.3-.15s3.34-.16,4.3-.16c.28,0,.43.13.43.37a24.63,24.63,0,0,1-.4,4.71c-.05.27-.17.44-.34.49A3.44,3.44,0,0,1,258.51,26.24Z" transform="translate(-0.01 -0.01)"/><path class="cls-2" d="M280,9.38a2.65,2.65,0,0,1-.25,1.2,51.85,51.85,0,0,1-5.7,8.69,2.09,2.09,0,0,0-.51,1.21c0,.57,0,1.41.1,2.54s.09,2,.09,2.52c0,.19,0,.31-.12.35l-.43.08a23,23,0,0,1-2.88.1,24.89,24.89,0,0,1-2.95-.1c-.29,0-.44-.19-.44-.46,0-.56,0-1.42.14-2.58s.14-2,.14-2.59a2,2,0,0,0-.38-1.1q-1.94-2.73-5.52-8.36a2.19,2.19,0,0,1-.37-1c0-.64,0-1.6-.09-2.87s-.1-2.24-.1-2.87c0-.35.11-.53.32-.53.65,0,1.63,0,2.95.08s2.31.08,3,.08c.25,0,.37.08.37.24,0,.54,0,1.36-.07,2.45s-.08,1.9-.08,2.45a7.06,7.06,0,0,0,1.41,2.39q1.11,1.5,1.83,2.31c.44-.51,1-1.27,1.74-2.29A7.55,7.55,0,0,0,273.55,9c0-.53,0-1.33-.12-2.41s-.12-1.89-.12-2.42c0-.22.05-.35.15-.38h.4q.94,0,2.88-.09c1.28-.06,2.24-.09,2.89-.09.21,0,.32.23.32.69s0,1.41,0,2.54S280,8.81,280,9.38Z" transform="translate(-0.01 -0.01)"/><path class="cls-2" d="M100,42.1v13h6.65V57H97.88V42.1Z" transform="translate(-0.01 -0.01)"/><path class="cls-2" d="M116,42.1V57h-2.08V42.1Z" transform="translate(-0.01 -0.01)"/><path class="cls-2" d="M126.93,50.35V57h-2.08V42.1h9.3v1.83h-7.22v4.63h6.76v1.79Z" transform="translate(-0.01 -0.01)"/><path class="cls-2" d="M144.15,50.18v5h7.78V57h-9.87V42.1h9.55v1.83h-7.46v4.46h7v1.79Z" transform="translate(-0.01 -0.01)"/></svg>