<svg id="Layer_1" data-name="Layer 1" xmlns="http://www.w3.org/2000/svg" viewBox="0 0 182.14 136.99"><defs><style>.cls-1{fill:#6a8fb1;}</style></defs><path class="cls-1" d="M126.79,31.2a4.3,4.3,0,0,1,3.79-4.76v-6l-14.83,4.89a3.15,3.15,0,0,1-.39,2.33,3.16,3.16,0,0,1-5.6-.38l-8.6,2.81L131.58,40V34.88a5,5,0,0,1-2.25-.34A4,4,0,0,1,126.79,31.2Zm-3.43.85a3,3,0,1,1-1.75-3.86A3,3,0,0,1,123.36,32.05Z" transform="translate(-0.01 -0.01)"/><path class="cls-1" d="M116.79,19.8a30,30,0,1,0-.14,20.79l0-.12L88.59,30Zm-28-4.21a4,4,0,1,1,2.33,5.15A4,4,0,0,1,88.83,15.59Z" transform="translate(-0.01 -0.01)"/><path class="cls-1" d="M23.51,95.06c0-1.25,0-3.13.14-5.62s.13-4.37.13-5.63c0-.25-.16-.38-.47-.38s-.68,0-1.22.08-1,.08-1.23.08-.78,0-1.41,0-1.08-.05-1.39-.05-.41.21-.59.63q-3.16,6.75-4.77,10.1c-.39.79-.64,1.19-.75,1.19s-.5-.34-.83-1L6.46,84.15c-.21-.45-.38-.67-.5-.67-.58,0-1.46,0-2.63,0s-2,.06-2.63.06S0,83.7,0,83.91l0,.27c.08,1.74.13,3.06.14,3.94.11,3.39.16,5.71.16,6.94S.29,98,.18,100.29,0,104.35,0,105.51a.64.64,0,0,0,.08.36c0,.07.17.1.39.1H5.81c.29,0,.44-.18.44-.56,0-1,0-2.6-.08-4.69S6.09,97.08,6.09,96a.8.8,0,0,1,.11-.46.4.4,0,0,1,.15.18q.75,1.57,2.25,5.12c.93,2.23,1.69,3.93,2.26,5.1.11.21.44.32,1,.32h.64a.71.71,0,0,0,.4-.44l2.3-5.66a47.79,47.79,0,0,1,2.13-4.93c.1,0,.15.19.15.5q0,1.6-.12,4.83t-.12,4.83c0,.38.15.56.46.56h5.65c.31,0,.46-.16.46-.49,0-1.15-.05-2.88-.14-5.2S23.51,96.22,23.51,95.06Z" transform="translate(-0.01 -0.01)"/><path class="cls-1" d="M48.93,94.81a11.74,11.74,0,0,0-3.21-8.35A10.76,10.76,0,0,0,37.55,83a10.75,10.75,0,0,0-8.18,3.46,12.47,12.47,0,0,0,0,16.66,10.8,10.8,0,0,0,8.18,3.44,10.83,10.83,0,0,0,8.2-3.41A11.7,11.7,0,0,0,48.93,94.81Zm-7.55,4a4.91,4.91,0,0,1-3.83,1.8,5,5,0,0,1-3.91-1.71,6.31,6.31,0,0,1,.1-8.1,5,5,0,0,1,7.69-.06,6.26,6.26,0,0,1,0,8.07Z" transform="translate(-0.01 -0.01)"/><path class="cls-1" d="M72.35,83.59c-.64,0-1.61,0-2.89.08s-2.25.08-2.89.08c-.22,0-.33.2-.33.59,0,1.13.06,2.81.18,5.06s.18,3.92.18,5c0,.83-.07,1.24-.21,1.24s-.42-.16-.68-.49C64.63,93.77,63.83,92.7,63.3,92l-5.95-8.16c-.27-.36-.46-.54-.59-.54a8.08,8.08,0,0,0-1.26.14q-.95.18-1.26.21c-.91.09-1.67.13-2.28.13-.42,0-.62.12-.62.35,0,1.21,0,3,.15,5.47s.15,4.27.15,5.49-.06,2.9-.17,5.22-.17,4-.17,5.2c0,.33.16.49.47.49h5.52c.28,0,.43-.18.43-.56,0-1.23,0-3.08-.11-5.55s-.1-4.32-.1-5.55a.42.42,0,0,1,.13-.35.83.83,0,0,1,.24.19c1.5,1.93,2.61,3.38,3.35,4.37q4,5.31,5.16,6.86c.27.35.5.53.69.53s.69,0,1.25.06,1,.07,1.24.07.64,0,1.16,0l1.15,0c.31,0,.47-.14.47-.43V95c0-1.22.05-3,.15-5.48s.15-4.25.15-5.47C72.65,83.76,72.55,83.59,72.35,83.59Z" transform="translate(-0.01 -0.01)"/><path class="cls-1" d="M86.4,83a10.74,10.74,0,0,0-8.18,3.46,12.47,12.47,0,0,0,0,16.66,11.5,11.5,0,0,0,16.38,0,12.52,12.52,0,0,0,0-16.69A10.77,10.77,0,0,0,86.4,83Zm3.83,15.78a5.14,5.14,0,0,1-7.74.09,5.93,5.93,0,0,1-1.42-4.06,6,6,0,0,1,1.52-4A4.85,4.85,0,0,1,86.4,89a4.91,4.91,0,0,1,3.88,1.76,6,6,0,0,1,1.45,4.06A5.93,5.93,0,0,1,90.23,98.78Z" transform="translate(-0.01 -0.01)"/><path class="cls-1" d="M110.81,83.65q-2.3-.06-4.8-.06c-2.83,0-4.66,0-5.49.16-.34,0-.5.16-.48.37l0,.22c.28,3.68.43,7.19.43,10.53,0,1.18,0,2.95-.06,5.32s-.06,4.14-.06,5.32a.41.41,0,0,0,.47.46c.65,0,1.62,0,2.92.06s2.27,0,2.92,0q.33,0,.33-.36c0-.48-.05-1.2-.14-2.17s-.15-1.7-.15-2.19.23-.59.69-.59,1.07,0,1.92.07,1.5.08,1.92.08a7.47,7.47,0,0,0,6-2.54,9.35,9.35,0,0,0,2-6.25A8.17,8.17,0,0,0,116.9,86,8.74,8.74,0,0,0,110.81,83.65Zm-1.37,12.22c-1.92,0-2.88-.1-2.88-.32s0-.81,0-1.45,0-1.13,0-1.46A25.26,25.26,0,0,1,106.6,89c.08-.19,1-.29,2.68-.29q3.61,0,3.62,3.72C112.9,94.71,111.74,95.87,109.44,95.87Z" transform="translate(-0.01 -0.01)"/><path class="cls-1" d="M132.23,83a10.75,10.75,0,0,0-8.18,3.46,12.47,12.47,0,0,0,0,16.66,11.5,11.5,0,0,0,16.38,0,12.5,12.5,0,0,0,0-16.69A10.76,10.76,0,0,0,132.23,83Zm3.83,15.78a4.91,4.91,0,0,1-3.83,1.8,5,5,0,0,1-3.91-1.71,6.31,6.31,0,0,1,.1-8.1,5,5,0,0,1,7.69-.06,6.26,6.26,0,0,1-.05,8.07Z" transform="translate(-0.01 -0.01)"/><path class="cls-1" d="M161.6,100.64c-.95,0-2.39,0-4.3.16S154,101,153,101h-.41a.26.26,0,0,1-.24-.24l0-.38c0-.63,0-1.63,0-3l0-4.21q.24-6,.43-9v-.21c0-.2-.06-.3-.22-.3-.35,0-.87,0-1.56,0s-1.21.06-1.57.06-.77,0-1.41,0-1.11,0-1.43,0-.47.12-.47.35c0,1.24,0,3.08.11,5.55s.11,4.31.11,5.54,0,2.9-.06,5.21,0,4,0,5.21a.47.47,0,0,0,.46.49c.89.06,1.58.08,2.06.07l4.77.06,3.57.08c1.47,0,2.66.06,3.58.06a3.44,3.44,0,0,0,.65,0c.17,0,.28-.22.33-.49A23.85,23.85,0,0,0,162,101C162,100.77,161.89,100.64,161.6,100.64Z" transform="translate(-0.01 -0.01)"/><path class="cls-1" d="M182.12,86.82c0-1.13,0-2,0-2.54s-.11-.69-.32-.69c-.65,0-1.62,0-2.9.09s-2.24.09-2.88.09h-.4c-.09,0-.14.16-.14.38,0,.53,0,1.34.12,2.42s.12,1.88.12,2.41a7.8,7.8,0,0,1-1.37,2.32c-.73,1-1.31,1.78-1.74,2.29-.48-.54-1.09-1.31-1.84-2.31a7.14,7.14,0,0,1-1.4-2.39c0-.55,0-1.36.07-2.45s.07-1.91.07-2.45q0-.24-.36-.24c-.66,0-1.65,0-3-.08s-2.3-.08-3-.08c-.21,0-.32.18-.32.53,0,.63,0,1.59.09,2.87s.1,2.23.1,2.87a2.09,2.09,0,0,0,.37,1Q167,96.52,169,99.24a2.08,2.08,0,0,1,.38,1.1c0,.58-.05,1.44-.14,2.59s-.15,2-.15,2.58c0,.27.15.42.45.46a24.77,24.77,0,0,0,2.95.1,22.77,22.77,0,0,0,2.87-.1,3.2,3.2,0,0,0,.43-.08c.09,0,.13-.16.13-.35,0-.55,0-1.39-.1-2.52s-.09-2-.09-2.54a2.09,2.09,0,0,1,.51-1.21,53.12,53.12,0,0,0,5.7-8.69,2.79,2.79,0,0,0,.25-1.2C182.15,88.81,182.14,88,182.12,86.82Z" transform="translate(-0.01 -0.01)"/><polygon class="cls-1" points="66.13 122.09 64.04 122.09 64.04 136.99 72.77 136.99 72.77 135.14 66.13 135.14 66.13 122.09"/><rect class="cls-1" x="80.05" y="122.09" width="2.08" height="14.9"/><polygon class="cls-1" points="91.02 136.99 93.1 136.99 93.1 130.34 99.85 130.34 99.85 128.55 93.1 128.55 93.1 123.92 100.31 123.92 100.31 122.09 91.02 122.09 91.02 136.99"/><polygon class="cls-1" points="110.31 130.17 117.34 130.17 117.34 128.38 110.31 128.38 110.31 123.92 117.78 123.92 117.78 122.09 108.23 122.09 108.23 136.99 118.09 136.99 118.09 135.14 110.31 135.14 110.31 130.17"/></svg>