<svg id="Layer_1" data-name="Layer 1" xmlns="http://www.w3.org/2000/svg" viewBox="0 0 71.99 60"><defs><style>.cls-1{fill:#f8c72b;}</style></defs><path class="cls-1" d="M58.19,19.79a30,30,0,1,0-.13,20.79.56.56,0,0,0,0-.12L30,30ZM30.24,15.58a4,4,0,1,1,2.33,5.15A4,4,0,0,1,30.24,15.58Z" transform="translate(0)"/><path class="cls-1" d="M72,34.82a3.36,3.36,0,0,1-1.25-.29,4,4,0,0,1-2.53-3.34A4.29,4.29,0,0,1,72,26.43v-6L57.15,25.28a3.14,3.14,0,0,1-.38,2.33,3.16,3.16,0,0,1-5.6-.38L42.57,30,72,39.63ZM64.77,32A3,3,0,1,1,63,28.18,3,3,0,0,1,64.77,32Z" transform="translate(0)"/></svg>