<svg id="Layer_1" data-name="Layer 1" xmlns="http://www.w3.org/2000/svg" viewBox="0 0 280 60"><defs><style>.cls-1{fill:#6a8fb1;}</style></defs><path class="cls-1" d="M68.22,31.2A4.29,4.29,0,0,1,72,26.44v-6L57.17,25.29a3.14,3.14,0,0,1-.38,2.33,3.16,3.16,0,0,1-5.6-.38l-8.6,2.81L73,40V34.88a5,5,0,0,1-2.25-.34A4,4,0,0,1,68.22,31.2Zm-3.43.85A3,3,0,1,1,63,28.19,3,3,0,0,1,64.79,32.05Z" transform="translate(-0.01 -0.01)"/><path class="cls-1" d="M58.21,19.8a30,30,0,1,0-.13,20.79s0-.08,0-.12L30,30ZM30.26,15.59a4,4,0,1,1,2.33,5.15A4,4,0,0,1,30.26,15.59Z" transform="translate(-0.01 -0.01)"/><path class="cls-1" d="M121.38,15.06c0-1.25,0-3.13.13-5.62s.14-4.37.14-5.63c0-.25-.16-.38-.48-.38s-.67,0-1.22.08-1,.08-1.22.08-.79,0-1.41,0-1.09,0-1.4,0-.41.21-.59.63q-3.15,6.75-4.77,10.1c-.38.79-.63,1.19-.75,1.19s-.5-.34-.83-1L104.32,4.15c-.21-.45-.37-.67-.49-.67-.59,0-1.46,0-2.63,0s-2,.06-2.64.06-.68.11-.67.32l0,.27c.09,1.74.13,3.06.14,3.94.11,3.39.16,5.71.16,6.94s0,2.9-.16,5.23-.17,4.06-.17,5.22a.65.65,0,0,0,.07.36c0,.07.18.1.39.1h5.33c.3,0,.45-.18.45-.56,0-1,0-2.6-.08-4.69S104,17.08,104,16a.73.73,0,0,1,.11-.46.44.44,0,0,1,.14.18q.75,1.58,2.25,5.12c.94,2.23,1.69,3.93,2.27,5.1.1.21.43.32,1,.32h.63a.68.68,0,0,0,.4-.44c.77-1.88,1.53-3.77,2.3-5.66a46.2,46.2,0,0,1,2.14-4.93c.09,0,.14.19.14.5q0,1.61-.12,4.83t-.12,4.83c0,.38.16.56.46.56h5.65c.31,0,.46-.16.46-.49,0-1.15,0-2.88-.14-5.2S121.38,16.22,121.38,15.06Z" transform="translate(-0.01 -0.01)"/><path class="cls-1" d="M146.79,14.81a11.74,11.74,0,0,0-3.21-8.35,11.39,11.39,0,0,0-16.35,0A11.7,11.7,0,0,0,124,14.81a11.62,11.62,0,0,0,3.19,8.31,11.52,11.52,0,0,0,16.39,0A11.73,11.73,0,0,0,146.79,14.81Zm-7.55,4a4.89,4.89,0,0,1-3.82,1.8,5,5,0,0,1-3.91-1.71,5.93,5.93,0,0,1-1.42-4.06,6,6,0,0,1,1.51-4,5,5,0,0,1,7.69-.06,6,6,0,0,1,1.45,4.06A5.93,5.93,0,0,1,139.24,18.78Z" transform="translate(-0.01 -0.01)"/><path class="cls-1" d="M170.21,3.59c-.64,0-1.6,0-2.89.08s-2.25.08-2.89.08c-.22,0-.33.2-.33.59,0,1.13.06,2.81.18,5.06s.19,3.92.19,5c0,.83-.07,1.24-.21,1.24s-.42-.16-.69-.49L161.16,12l-5.95-8.16c-.26-.36-.46-.54-.59-.54a8.08,8.08,0,0,0-1.26.14q-.93.18-1.26.21c-.9.09-1.66.13-2.28.13-.41,0-.62.12-.62.35,0,1.21.05,3,.15,5.47s.15,4.27.15,5.49-.05,2.9-.16,5.22-.17,4-.17,5.2c0,.33.15.49.46.49h5.52c.29,0,.43-.18.43-.56,0-1.23,0-3.08-.1-5.55s-.11-4.32-.11-5.55a.45.45,0,0,1,.13-.35.62.62,0,0,1,.24.19c1.5,1.93,2.62,3.38,3.35,4.37q4,5.31,5.17,6.86c.26.35.49.53.68.53s.7,0,1.25.06,1,.07,1.24.07.64,0,1.16,0l1.16,0c.31,0,.46-.14.46-.43V15c0-1.22,0-3,.15-5.48s.15-4.25.15-5.47C170.51,3.76,170.41,3.59,170.21,3.59Z" transform="translate(-0.01 -0.01)"/><path class="cls-1" d="M184.26,3a10.75,10.75,0,0,0-8.18,3.46,11.7,11.7,0,0,0-3.19,8.35,11.62,11.62,0,0,0,3.19,8.31,11.5,11.5,0,0,0,16.38,0,11.7,11.7,0,0,0,3.18-8.34,11.74,11.74,0,0,0-3.21-8.35A10.76,10.76,0,0,0,184.26,3Zm3.83,15.78a5.13,5.13,0,0,1-7.73.09,5.93,5.93,0,0,1-1.42-4.06,6,6,0,0,1,1.51-4,5,5,0,0,1,7.69-.06,6,6,0,0,1,1.45,4.06A5.93,5.93,0,0,1,188.09,18.78Z" transform="translate(-0.01 -0.01)"/><path class="cls-1" d="M208.67,3.65q-2.29-.06-4.8-.06c-2.83,0-4.66.05-5.49.16-.34,0-.5.16-.48.37l0,.22q.44,5.52.43,10.53c0,1.18,0,3-.06,5.32s0,4.14,0,5.32a.4.4,0,0,0,.46.46c.65,0,1.62,0,2.92.06s2.27,0,2.92,0c.22,0,.34-.12.34-.36,0-.48,0-1.2-.15-2.17s-.14-1.7-.14-2.19.23-.59.68-.59,1.07,0,1.93.07,1.49.08,1.92.08a7.45,7.45,0,0,0,6-2.54,9.36,9.36,0,0,0,2-6.25A8.2,8.2,0,0,0,214.77,6,8.78,8.78,0,0,0,208.67,3.65ZM207.3,15.87c-1.91,0-2.87-.1-2.87-.32s0-.81,0-1.45,0-1.13,0-1.46A27.12,27.12,0,0,1,204.46,9c.09-.19,1-.29,2.68-.29,2.42,0,3.62,1.24,3.62,3.72Q210.76,15.88,207.3,15.87Z" transform="translate(-0.01 -0.01)"/><path class="cls-1" d="M230.1,3a10.76,10.76,0,0,0-8.19,3.46,11.75,11.75,0,0,0-3.19,8.35,11.67,11.67,0,0,0,3.19,8.31,11.52,11.52,0,0,0,16.39,0,11.73,11.73,0,0,0,3.17-8.34,11.78,11.78,0,0,0-3.2-8.35A10.79,10.79,0,0,0,230.1,3Zm3.83,15.78a5.14,5.14,0,0,1-7.74.09,5.93,5.93,0,0,1-1.42-4.06,6,6,0,0,1,1.51-4,5,5,0,0,1,7.69-.06,6,6,0,0,1,1.46,4.06A5.93,5.93,0,0,1,233.93,18.78Z" transform="translate(-0.01 -0.01)"/><path class="cls-1" d="M259.47,20.64c-1,0-2.39.05-4.3.16s-3.34.15-4.3.15h-.42a.26.26,0,0,1-.24-.24l0-.38c0-.63,0-1.63,0-3V13.13c.16-4,.31-7,.43-9l0-.21c0-.2-.06-.3-.22-.3-.36,0-.88,0-1.57.05s-1.21.06-1.56.06-.78,0-1.41-.05-1.11,0-1.43,0S244,3.74,244,4c0,1.24,0,3.08.11,5.55s.11,4.31.11,5.54,0,2.9-.05,5.21-.06,4.05-.06,5.21a.48.48,0,0,0,.46.49c.9.06,1.58.08,2.06.07l4.77.06,3.58.08q2.19.06,3.57.06a3.44,3.44,0,0,0,.65,0c.17-.05.29-.22.34-.49a24.63,24.63,0,0,0,.4-4.71C259.9,20.77,259.75,20.64,259.47,20.64Z" transform="translate(-0.01 -0.01)"/><path class="cls-1" d="M280,6.82c0-1.13,0-2,0-2.54s-.11-.69-.32-.69c-.65,0-1.61,0-2.89.09s-2.25.09-2.88.09h-.4c-.1,0-.15.16-.15.38,0,.53,0,1.34.12,2.42s.12,1.88.12,2.41a7.55,7.55,0,0,1-1.37,2.32c-.72,1-1.3,1.78-1.74,2.29q-.72-.81-1.83-2.31a7.06,7.06,0,0,1-1.41-2.39c0-.55,0-1.36.08-2.45s.07-1.91.07-2.45c0-.16-.12-.24-.37-.24-.66,0-1.65,0-3-.08s-2.3-.08-2.95-.08c-.21,0-.32.18-.32.53,0,.63,0,1.59.1,2.87s.09,2.23.09,2.87a2.19,2.19,0,0,0,.37,1q3.58,5.64,5.52,8.36a2,2,0,0,1,.38,1.1c0,.58,0,1.44-.14,2.59s-.14,2-.14,2.58c0,.27.15.42.44.46a24.89,24.89,0,0,0,2.95.1,23,23,0,0,0,2.88-.1l.43-.08c.08,0,.12-.16.12-.35q0-.83-.09-2.52c-.06-1.13-.1-2-.1-2.54a2.09,2.09,0,0,1,.51-1.21,51.85,51.85,0,0,0,5.7-8.69,2.65,2.65,0,0,0,.25-1.2C280,8.81,280,8,280,6.82Z" transform="translate(-0.01 -0.01)"/><polygon class="cls-1" points="99.95 42.09 97.86 42.09 97.86 56.99 106.6 56.99 106.6 55.14 99.95 55.14 99.95 42.09"/><rect class="cls-1" x="113.88" y="42.09" width="2.08" height="14.9"/><polygon class="cls-1" points="124.84 56.99 126.92 56.99 126.92 50.34 133.67 50.34 133.67 48.55 126.92 48.55 126.92 43.92 134.14 43.92 134.14 42.09 124.84 42.09 124.84 56.99"/><polygon class="cls-1" points="144.13 50.17 151.16 50.17 151.16 48.38 144.13 48.38 144.13 43.92 151.6 43.92 151.6 42.09 142.05 42.09 142.05 56.99 151.92 56.99 151.92 55.14 144.13 55.14 144.13 50.17"/></svg>