<svg xmlns="http://www.w3.org/2000/svg">
  <symbol id="menu" viewBox="0 0 24 24" fill="none">
    <path d="M3 18h18v-2H3v2zm0-5h18v-2H3v2zm0-7v2h18V6H3z" fill="#f8c72b" />
  </symbol>

  <symbol id="cross" viewBox="0 0 24 24" fill="none">
    <path d="M19 6.41L17.59 5 12 10.59 6.41 5 5 6.41 10.59 12 5 17.59 6.41 19 12 13.41 17.59 19 19 17.59 13.41 12z" fill="#222" />
  </symbol>

  <symbol id="cross-white" viewBox="0 0 24 24" fill="none">
    <path d="M19 6.41L17.59 5 12 10.59 6.41 5 5 6.41 10.59 12 5 17.59 6.41 19 12 13.41 17.59 19 19 17.59 13.41 12z" fill="#fff" />
  </symbol>

  <symbol id="phone" viewBox="0 0 24 24" fill="none">
    <path d="M6.62 10.79c1.44 2.83 3.76 5.14 6.59 6.59l2.2-2.2c.27-.27.67-.36 1.02-.24 1.12.37 2.33.57 3.57.57.55 0 1 .45 1 1V20c0 .55-.45 1-1 1-9.39 0-17-7.61-17-17 0-.55.45-1 1-1h3.5c.55 0 1 .45 1 1 0 1.25.2 2.45.57 3.57.11.35.03.74-.25 1.02l-2.2 2.2z" fill="#222" />
  </symbol>

  <symbol id="location" viewBox="0 0 12 17" fill="none">
    <path class="cls-1" d="M6,0A6,6,0,0,0,0,6C0,9.31,6,17,6,17s6-7.69,6-11A6,6,0,0,0,6,0ZM6,9A3,3,0,1,1,9,6,3,3,0,0,1,6,9Z" fill="#1d2942" fill-rule="evenodd" />
  </symbol>

  <symbol id="arrow-black" viewBox="0 0 18 10" fill="none">
    <path d="M8.97242 9.04174L16.8241 1.19001C17.0752 0.930079 17.068 0.51587 16.808 0.264829C16.5545 0.0199229 16.1525 0.0199229 15.899 0.264829L8.50983 7.65397L1.1207 0.264829C0.865208 0.0093798 0.450998 0.0093798 0.195509 0.264829C-0.0599403 0.520356 -0.0599403 0.934526 0.195509 1.19001L8.04724 9.04174C8.30276 9.29719 8.71693 9.29719 8.97242 9.04174Z" fill="#333333"/>
  </symbol>

  <symbol id="telegram" viewBox="0 0 28 24">
    <path d="M11,15.81l-.47,6.7a1.6,1.6,0,0,0,1.3-.65l3.1-3.05,6.44,4.85c1.18.68,2,.32,2.33-1.12L27.92,2.18h0c.37-1.79-.63-2.49-1.78-2L1.3,9.9C-.4,10.58-.37,11.55,1,12l6.35,2L22.11,4.53c.7-.48,1.33-.21.81.26Zm0,0" />
  </symbol>

  <symbol id="youtube" viewBox="0 0 34 24">
    <path d="M14,7l9,5-9,5ZM32.31,1.79A4.87,4.87,0,0,0,28.9.34C24.15,0,17,0,17,0S9.86,0,5.1.34A4.87,4.87,0,0,0,1.69,1.79,7.41,7.41,0,0,0,.34,5.18,51.74,51.74,0,0,0,0,10.7v2.59a51.74,51.74,0,0,0,.34,5.52A7.41,7.41,0,0,0,1.69,22.2a5.82,5.82,0,0,0,3.75,1.46C8.16,23.92,17,24,17,24s7.15,0,11.9-.36a4.85,4.85,0,0,0,3.41-1.44,7.41,7.41,0,0,0,1.35-3.39A51.74,51.74,0,0,0,34,13.29V10.7a51.74,51.74,0,0,0-.34-5.52A7.41,7.41,0,0,0,32.31,1.79Z" />
  </symbol>

  <symbol id="fb" viewBox="0 0 11 24">
    <path class="cls-1" d="M11,12H7V24H3V12H0V8H3V5c0-2,.44-5,4.54-5H11V4H8c-.44,0-1,.07-1,1V8h4Zm-.21,0"/>
  </symbol>

  <symbol id="inst" viewBox="0 0 24 24">
    <path d="M17,0H7A7,7,0,0,0,0,7V17a7,7,0,0,0,7,7H17a7,7,0,0,0,7-7V7A7,7,0,0,0,17,0Zm5,17a5,5,0,0,1-5,5H7a5,5,0,0,1-5-5V7A5,5,0,0,1,7,2H17a5,5,0,0,1,5,5Z"/>
    <path d="M12,6a6,6,0,1,0,6,6A6,6,0,0,0,12,6Zm0,10a4,4,0,1,1,4-4A4,4,0,0,1,12,16Z"/>
    <circle cx="18.5" cy="5.5" r="1.5"/>
  </symbol>
</svg>