<svg id="Layer_1" data-name="Layer 1" xmlns="http://www.w3.org/2000/svg" viewBox="0 0 34 24"><defs><style>.cls-1{fill:#6a8fb1;}</style></defs><g id="_00-styles" data-name="00-styles"><path id="i-youtube" class="cls-1" d="M14,7l9,5-9,5ZM32.31,1.79A4.87,4.87,0,0,0,28.9.34C24.15,0,17,0,17,0S9.86,0,5.1.34A4.87,4.87,0,0,0,1.69,1.79,7.41,7.41,0,0,0,.34,5.18,51.74,51.74,0,0,0,0,10.7v2.59a51.74,51.74,0,0,0,.34,5.52A7.41,7.41,0,0,0,1.69,22.2a5.82,5.82,0,0,0,3.75,1.46C8.16,23.92,17,24,17,24s7.15,0,11.9-.36a4.85,4.85,0,0,0,3.41-1.44,7.41,7.41,0,0,0,1.35-3.39A51.74,51.74,0,0,0,34,13.29V10.7a51.74,51.74,0,0,0-.34-5.52A7.41,7.41,0,0,0,32.31,1.79Z" transform="translate(0 0)"/></g></svg>